<svg xmlns="http://www.w3.org/2000/svg" xmlns:xlink="http://www.w3.org/1999/xlink" width="200" zoomAndPan="magnify" viewBox="0 0 150 48" height="64" preserveAspectRatio="xMidYMid meet" version="1.0"><defs><clipPath id="4969d6a6b7"><path d="M 65.597656 4.703125 L 105.109375 4.703125 L 105.109375 43 L 65.597656 43 Z M 65.597656 4.703125 " clip-rule="nonzero"/></clipPath><clipPath id="221bcfa6b5"><path d="M 85.351562 4.703125 C 74.441406 4.703125 65.597656 13.28125 65.597656 23.859375 C 65.597656 34.441406 74.441406 43.019531 85.351562 43.019531 C 96.265625 43.019531 105.109375 34.441406 105.109375 23.859375 C 105.109375 13.28125 96.265625 4.703125 85.351562 4.703125 " clip-rule="nonzero"/></clipPath></defs><g clip-path="url(#4969d6a6b7)"><g clip-path="url(#221bcfa6b5)"><path fill="#7785fa" d="M 65.597656 4.703125 L 105.109375 4.703125 L 105.109375 42.980469 L 65.597656 42.980469 Z M 65.597656 4.703125 " fill-opacity="1" fill-rule="nonzero"/></g></g><path fill="#554dc7" d="M 58.035156 24.285156 L 59.46875 23.703125 L 62.621094 23.375 C 61.351562 24.824219 60.191406 26.511719 59.140625 28.117188 C 58.761719 28.695312 58.195312 29.488281 58.421875 30.207031 C 58.636719 30.886719 59.675781 30.40625 60.109375 30.234375 C 61.53125 29.675781 63.332031 28.539062 64.265625 27.347656 C 63.804688 27.457031 63.445312 27.796875 63.050781 28.042969 C 62.03125 28.675781 60.742188 29.71875 59.539062 29.929688 L 60.726562 28.117188 L 63.351562 24.632812 L 64.484375 23.308594 L 65.484375 23.238281 C 65.484375 27.667969 66.695312 31.855469 69.460938 35.433594 C 75.921875 43.804688 88.675781 45.53125 97.226562 39.183594 C 99.867188 37.222656 101.859375 34.707031 103.296875 31.8125 C 103.664062 31.078125 103.953125 30.289062 104.195312 29.511719 C 104.328125 29.089844 104.378906 28.550781 104.644531 28.1875 C 105.253906 27.34375 105.90625 28.183594 106.683594 27.652344 C 108.066406 26.703125 108.820312 24.863281 110.480469 24.246094 C 111.027344 24.042969 111.507812 24.25 112.058594 24.277344 C 112.445312 24.292969 112.816406 24.152344 113.203125 24.144531 L 113.203125 24.074219 C 112.832031 23.988281 112.496094 24.105469 112.128906 24.058594 C 111.6875 24 111.296875 23.746094 110.839844 23.734375 C 109.882812 23.707031 108.980469 24.605469 108.332031 25.191406 C 108.613281 24.75 109.441406 24.121094 109.4375 23.585938 C 109.4375 22.828125 108.285156 22.699219 107.84375 23.113281 C 107.035156 23.863281 106.363281 25.015625 105.8125 25.957031 C 105.464844 26.550781 105.277344 27.148438 104.679688 27.558594 C 105.140625 25.820312 105.160156 23.832031 104.976562 22.050781 C 104.710938 19.46875 103.996094 16.957031 102.722656 14.664062 C 98.1875 6.507812 88.125 2.679688 79.097656 5.488281 C 74.414062 6.941406 70.28125 10.246094 67.941406 14.457031 C 67.308594 15.59375 66.773438 16.777344 66.371094 18.011719 C 66.191406 18.554688 66.160156 19.40625 65.832031 19.875 C 65.617188 20.183594 65.074219 20.332031 64.789062 20.609375 C 64.195312 21.1875 63.621094 22.558594 62.832031 22.847656 C 62.558594 22.949219 62.1875 22.890625 61.902344 22.890625 C 60.953125 22.890625 59.980469 22.832031 59.035156 22.941406 C 58.726562 22.976562 58.304688 22.921875 58.085938 23.191406 C 57.855469 23.472656 57.972656 23.960938 58.03125 24.285156 M 78.023438 26.234375 C 77.863281 25.445312 78.511719 24.542969 78.867188 23.867188 C 79.949219 21.789062 81.328125 19.8125 82.742188 17.941406 C 83.246094 17.273438 83.808594 16.601562 84.171875 15.851562 C 84.308594 15.574219 84.507812 15.238281 84.320312 14.941406 C 84.042969 14.507812 83.480469 14.800781 83.109375 14.945312 C 82.054688 15.351562 81.003906 15.773438 79.957031 16.207031 C 77.109375 17.398438 74.09375 18.714844 71.003906 19.144531 C 69.730469 19.320312 68.027344 19.257812 67.164062 18.144531 C 66.730469 17.582031 67.699219 16.105469 67.976562 15.570312 C 69.289062 13.007812 71.152344 10.765625 73.4375 9.003906 C 79.722656 4.132812 88.839844 3.859375 95.578125 7.96875 C 97.160156 8.933594 98.628906 10.136719 99.832031 11.527344 C 100.167969 11.910156 100.84375 12.480469 100.921875 12.992188 C 101.011719 13.546875 100.636719 14.40625 100.480469 14.941406 C 100.011719 16.542969 99.441406 18.121094 98.675781 19.613281 C 97.203125 22.488281 95.445312 25.183594 93.492188 27.769531 C 91.589844 30.285156 89.53125 32.742188 87.050781 34.746094 C 86.074219 35.535156 84.679688 36.609375 83.324219 36.546875 C 81.40625 36.453125 81.675781 34.140625 81.898438 32.859375 C 82.519531 29.277344 84.160156 25.671875 86.007812 22.542969 C 86.550781 21.617188 87.253906 20.917969 87.332031 19.824219 C 87.351562 19.5625 87.417969 18.855469 87.042969 18.796875 C 86.742188 18.75 86.449219 19.078125 86.269531 19.265625 C 85.734375 19.816406 85.171875 20.335938 84.617188 20.867188 C 83.296875 22.125 81.933594 23.339844 80.53125 24.5 C 79.78125 25.128906 78.96875 25.917969 78.023438 26.234375 M 4.226562 22.332031 L 4.296875 22.332031 C 4.203125 21.636719 4.070312 20.949219 4.183594 20.242188 C 4.730469 16.832031 8.113281 14.671875 11.03125 13.253906 C 16.152344 10.761719 22.085938 10.089844 27.726562 10.472656 C 30.347656 10.652344 33.046875 11.105469 35.464844 12.144531 C 36.214844 12.46875 36.933594 12.882812 37.542969 13.421875 C 37.980469 13.808594 38.359375 14.292969 38.632812 14.800781 C 40.851562 18.9375 36.023438 22.53125 32.742188 24.125 C 30.203125 25.359375 27.472656 25.957031 24.789062 26.792969 C 25.953125 24.886719 27.152344 23.003906 28.394531 21.148438 C 28.835938 20.476562 29.292969 19.570312 28.511719 18.953125 C 27.121094 17.847656 26.289062 19.445312 25.675781 20.449219 C 24.566406 22.269531 23.492188 24.117188 22.414062 25.957031 C 22.09375 26.503906 21.65625 27.730469 21.054688 28.011719 C 20.597656 28.226562 19.917969 28.25 19.414062 28.332031 C 18.621094 28.464844 17.789062 28.679688 16.980469 28.65625 C 15.582031 28.621094 14.210938 28.125 12.824219 27.976562 C 11.796875 27.863281 10.136719 27.492188 9.25 28.171875 C 8.046875 29.09375 10.160156 29.992188 10.890625 30.054688 C 12.722656 30.21875 14.644531 29.457031 16.476562 29.378906 C 17.667969 29.328125 18.832031 29.902344 19.988281 30.070312 C 19.039062 31.824219 17.644531 33.554688 16.976562 35.433594 C 16.785156 35.972656 17.207031 37.277344 17.839844 37.433594 C 18.292969 37.546875 18.851562 36.363281 19.058594 36.0625 C 20.15625 34.457031 21.371094 32.722656 22.210938 30.972656 C 23.824219 31.621094 25.382812 32.402344 26.867188 33.304688 C 31.222656 35.941406 35.339844 39.46875 40.265625 41.058594 C 43.25 42.023438 46.375 41.542969 47.914062 38.640625 C 48.378906 37.761719 48.78125 36.8125 49.03125 35.855469 C 49.402344 34.460938 49.648438 32.902344 49.652344 31.460938 C 49.277344 31.582031 49.300781 31.964844 49.253906 32.300781 C 49.140625 33.066406 49.054688 33.84375 48.871094 34.597656 C 48.332031 36.8125 47.414062 39.210938 45.136719 40.222656 C 42.742188 41.289062 39.785156 40.0625 37.613281 39.007812 C 34.398438 37.441406 31.363281 35.46875 28.371094 33.53125 C 26.660156 32.417969 24.671875 30.886719 22.640625 30.417969 C 22.90625 29.707031 23.601562 28.269531 24.230469 27.820312 C 24.601562 27.554688 25.277344 27.53125 25.71875 27.429688 C 26.9375 27.140625 28.171875 26.894531 29.375 26.554688 C 33.398438 25.410156 38.605469 23.820312 40.625 19.890625 C 40.933594 19.292969 41.171875 18.675781 41.257812 18.011719 C 41.769531 13.886719 38.089844 11.699219 34.535156 10.644531 C 31.75 9.820312 28.667969 9.714844 25.792969 9.78125 C 20.445312 9.910156 15.292969 10.691406 10.457031 13.042969 C 7.230469 14.613281 2.230469 18.183594 4.226562 22.332031 M 102.457031 15.292969 C 103.644531 18.0625 104.535156 20.753906 104.535156 23.796875 L 102.3125 25.46875 C 102.214844 25.167969 102.074219 24.886719 101.890625 24.632812 C 100.421875 22.675781 98.28125 25.273438 97.976562 26.792969 C 97.761719 27.863281 98.605469 28.574219 99.589844 27.953125 C 99.910156 27.753906 100.21875 27.542969 100.523438 27.324219 C 101.144531 26.875 101.726562 26.355469 102.382812 25.957031 C 102.390625 26.359375 102.105469 26.675781 101.882812 27 C 101.265625 27.902344 100.617188 28.851562 100.195312 29.859375 C 99.652344 31.171875 100.609375 31.066406 101.527344 30.523438 C 101.847656 30.328125 102.15625 30.113281 102.457031 29.882812 C 102.917969 29.539062 103.34375 29.136719 103.816406 28.8125 C 103.371094 30.925781 102.207031 33 100.933594 34.738281 C 93.949219 44.265625 79.277344 45.09375 71.140625 36.550781 C 69.699219 35.035156 68.484375 33.292969 67.644531 31.394531 C 66.597656 29.015625 65.558594 25.785156 66.058594 23.167969 C 67.085938 23.167969 68.117188 22.984375 69.140625 23.175781 C 69.609375 23.261719 70.140625 23.773438 70.574219 23.75 C 70.972656 23.730469 71.734375 22.96875 71.597656 22.554688 C 71.484375 22.21875 70.574219 22.402344 70.285156 22.402344 C 68.882812 22.402344 67.460938 22.574219 66.058594 22.679688 L 66.203125 21.652344 L 66.8125 21.007812 L 66.441406 19.960938 L 66.847656 18.21875 C 67.402344 18.597656 67.839844 19.027344 68.496094 19.257812 C 69.972656 19.773438 71.59375 19.542969 73.082031 19.222656 C 75.859375 18.625 78.425781 17.429688 81.105469 16.542969 C 79.753906 19.308594 77.335938 21.421875 76.378906 24.421875 C 76.261719 24.785156 76.160156 25.15625 76.109375 25.539062 C 76.074219 25.8125 76.078125 26.101562 76.09375 26.375 C 76.136719 27.191406 76.84375 27.523438 77.59375 27.347656 C 78.679688 27.09375 79.660156 26.246094 80.460938 25.53125 C 81.429688 24.664062 82.324219 23.554688 83.398438 22.820312 C 83.066406 23.589844 82.5625 24.289062 82.203125 25.050781 C 80.96875 27.664062 79.675781 30.632812 79.601562 33.554688 C 79.585938 34.214844 79.621094 34.859375 79.765625 35.503906 C 79.851562 35.902344 80.039062 36.289062 80.277344 36.621094 C 82.332031 39.472656 86.234375 36.800781 88.054688 35.152344 C 92.28125 31.320312 95.523438 26.445312 98.558594 21.703125 C 99.449219 20.304688 100.3125 18.886719 101.148438 17.453125 C 101.542969 16.777344 101.890625 15.835938 102.457031 15.292969 M 116.859375 27.070312 C 117.105469 26.257812 118.253906 25.464844 118.175781 24.5625 C 118.125 23.980469 117.324219 24.046875 116.929688 24.179688 C 115.863281 24.550781 114.996094 25.496094 114.0625 26.09375 C 114.496094 25.640625 115.472656 24.8125 115.5 24.148438 C 115.527344 23.503906 114.128906 23.835938 113.875 24.089844 C 113.148438 24.800781 112.199219 26.226562 111.960938 27.210938 C 111.851562 27.667969 112.453125 27.925781 112.847656 27.792969 C 113.117188 27.703125 113.351562 27.441406 113.5625 27.261719 L 114.496094 26.464844 C 115.070312 25.976562 115.675781 25.386719 116.355469 25.050781 C 116.089844 25.667969 115.152344 26.773438 115.582031 27.480469 C 115.796875 27.832031 116.339844 27.628906 116.644531 27.515625 C 117.585938 27.164062 118.496094 26.621094 119.292969 26.027344 C 118.902344 26.75 118.398438 28.425781 119.941406 28.003906 C 121.425781 27.589844 122.773438 26.519531 124.167969 25.886719 C 123.988281 26.199219 123.769531 26.484375 123.582031 26.792969 C 123.253906 27.335938 123.230469 28.640625 124.238281 28.035156 C 125.207031 27.457031 125.871094 26.179688 126.675781 25.398438 C 126.859375 25.21875 127.320312 24.613281 127.640625 24.773438 C 127.914062 24.914062 127.425781 25.351562 127.316406 25.441406 C 126.78125 25.878906 125.820312 26.03125 126.054688 26.929688 C 126.195312 27.492188 126.808594 27.410156 127.246094 27.296875 C 128.363281 27.011719 129.34375 26.382812 130.398438 25.957031 C 130.25 26.179688 130.113281 26.398438 130.019531 26.652344 C 129.363281 28.457031 131.480469 28.546875 132.765625 28.292969 C 135.476562 27.761719 137.808594 25.9375 140.359375 24.953125 C 141.351562 24.570312 142.570312 24.136719 143.65625 24.226562 C 144.457031 24.289062 145.222656 24.527344 145.875 24.992188 C 146.296875 25.289062 146.621094 25.742188 147.09375 25.957031 L 147.164062 25.886719 C 146.300781 23.996094 143.847656 23.625 142.007812 23.929688 C 138.078125 24.574219 135.152344 28.003906 130.972656 27.488281 C 131.070312 26.882812 131.703125 25.90625 132.269531 25.609375 C 132.804688 25.328125 134.6875 25.382812 134.34375 24.285156 C 134.085938 23.464844 132.789062 23.804688 132.261719 24.105469 C 131.601562 24.488281 131.214844 25.132812 130.613281 25.5625 C 130.050781 25.960938 129.253906 26.195312 128.609375 26.445312 C 128.246094 26.582031 127.359375 26.941406 126.996094 26.652344 C 126.714844 26.425781 127.394531 26.113281 127.535156 26.035156 C 128.011719 25.769531 129.859375 24.992188 129.394531 24.230469 C 128.949219 23.503906 127.4375 24.457031 126.960938 24.703125 C 127.863281 23.160156 129.109375 21.707031 130.226562 20.308594 C 130.695312 19.726562 131.226562 19.027344 132.046875 18.984375 C 131.96875 18.09375 131.027344 17.085938 130.164062 17.960938 C 129.585938 18.546875 129.15625 19.308594 128.671875 19.960938 C 127.761719 21.179688 126.808594 22.375 125.878906 23.585938 C 125.40625 24.199219 124.988281 25.023438 124.378906 25.507812 C 123.9375 25.863281 123.316406 26.074219 122.804688 26.320312 C 122.1875 26.621094 121.5625 26.898438 120.941406 27.191406 C 120.730469 27.292969 120.375 27.53125 120.125 27.46875 C 119.625 27.355469 120.605469 26.246094 120.734375 26.097656 C 121.367188 25.351562 122.292969 25.621094 123.011719 25.011719 C 123.40625 24.683594 123.410156 24.046875 122.878906 23.847656 C 121.507812 23.328125 120.386719 24.832031 119.574219 25.601562 C 118.890625 26.246094 117.769531 26.8125 116.859375 27.070312 M 42.058594 31.742188 C 42.105469 31.222656 42.441406 30.789062 42.703125 30.347656 C 43.269531 29.390625 43.746094 28.425781 44.636719 27.71875 C 45.089844 27.363281 45.984375 26.6875 46.421875 27.421875 C 46.929688 28.273438 45.4375 29.914062 44.886719 28.605469 C 44.816406 28.425781 44.78125 28.238281 44.78125 28.046875 L 44.636719 28.046875 C 44.636719 28.390625 44.597656 28.761719 44.714844 29.09375 C 45.03125 29.972656 46.265625 29.972656 46.921875 29.460938 C 47.921875 28.683594 48.695312 25.390625 46.5 25.9375 C 46.25 26.003906 46.007812 26.097656 45.78125 26.21875 C 45.363281 26.441406 44.988281 26.757812 44.636719 27.070312 C 45.574219 25.429688 46.8125 23.859375 47.933594 22.332031 C 48.335938 21.78125 48.832031 20.949219 49.582031 20.867188 C 49.511719 20.242188 48.863281 19.730469 48.21875 20.054688 C 47.726562 20.300781 47.242188 20.941406 46.890625 21.355469 C 45.003906 23.585938 43.585938 26.3125 42.117188 28.8125 C 41.53125 29.8125 40.394531 31.179688 42.058594 31.742188 Z M 65.558594 22.050781 C 65.546875 22.582031 65.382812 22.746094 64.84375 22.75 Z M 122.734375 24.351562 C 122.640625 24.945312 122.046875 25.039062 121.515625 25.050781 C 121.824219 24.660156 122.222656 24.378906 122.734375 24.351562 Z M 133.839844 24.421875 C 133.652344 24.933594 133.128906 25.027344 132.621094 25.050781 C 132.910156 24.652344 133.316406 24.285156 133.839844 24.421875 Z M 126.960938 24.703125 L 126.746094 24.910156 Z M 53.378906 27.558594 C 53.140625 27.953125 52.769531 28.484375 52.75 28.953125 C 52.726562 29.566406 53.542969 29.609375 53.953125 29.371094 C 55.285156 28.597656 55.964844 26.925781 57.390625 26.234375 C 58.105469 25.886719 59.246094 26.140625 60.042969 26.027344 L 60.042969 25.957031 L 59.109375 25.980469 L 57.464844 25.75 L 55.601562 27 C 55.902344 26.632812 56.539062 26.085938 56.617188 25.605469 C 56.707031 25.042969 55.722656 24.71875 55.316406 24.972656 C 54.523438 25.46875 54.214844 26.558594 53.570312 27.195312 C 52.960938 27.800781 51.796875 28.136719 51.011719 28.484375 C 50.683594 28.632812 49.777344 29.277344 49.414062 29.125 C 49.042969 28.964844 49.765625 28.128906 49.890625 27.976562 C 50.535156 27.199219 51.441406 27.480469 52.136719 26.824219 C 52.664062 26.328125 52.191406 25.761719 51.585938 25.699219 C 50.316406 25.574219 49.027344 27.078125 48.527344 28.046875 C 48.308594 28.46875 47.988281 29.167969 48.445312 29.550781 C 48.863281 29.898438 49.457031 29.585938 49.867188 29.390625 C 51.054688 28.8125 52.203125 28.160156 53.378906 27.558594 M 102.242188 25.675781 L 99.878906 27.28125 C 99.660156 26.269531 101.617188 24.117188 102.242188 25.675781 Z M 43.203125 26.722656 L 43.203125 26.652344 L 41.410156 26.652344 C 41.816406 24.996094 40.125 25.128906 39.117188 25.820312 C 38.332031 26.359375 37.601562 27.320312 37.429688 28.253906 C 37.285156 29.042969 37.832031 29.730469 38.6875 29.574219 C 39.539062 29.421875 40.261719 28.515625 40.6875 27.835938 C 40.839844 27.59375 40.910156 27.242188 41.144531 27.058594 C 41.429688 26.835938 41.800781 27.003906 42.125 26.996094 C 42.503906 26.988281 42.855469 26.851562 43.203125 26.722656 M 104.460938 25.605469 C 104.316406 26.375 104.375 27.339844 104.011719 28.046875 C 103.6875 28.667969 102.535156 29.339844 101.882812 29.582031 C 102.164062 28.632812 102.902344 27.742188 103.457031 26.933594 C 103.765625 26.484375 104.046875 25.96875 104.460938 25.605469 M 102.742188 25.675781 L 102.457031 25.957031 L 102.742188 25.675781 M 124.238281 25.816406 L 124.164062 25.886719 Z M 50.722656 26.933594 C 50.84375 26.769531 51.550781 25.957031 51.789062 26.347656 C 52.03125 26.753906 50.941406 26.914062 50.722656 26.933594 Z M 40.550781 27 C 40.503906 27.664062 39.835938 28.1875 39.261719 28.464844 C 39.414062 27.753906 39.8125 27.210938 40.550781 27 Z M 55.597656 27 L 55.527344 27.070312 L 55.597656 27 M 44.632812 27.070312 L 44.492188 27.351562 L 44.417969 27.351562 Z M 20.847656 28.605469 L 20.417969 29.441406 L 19.128906 29.164062 L 19.128906 29.09375 Z M 20.847656 28.605469 " fill-opacity="1" fill-rule="nonzero"/></svg>