<svg xmlns="http://www.w3.org/2000/svg" xmlns:xlink="http://www.w3.org/1999/xlink" width="350" zoomAndPan="magnify" viewBox="0 0 262.5 74.999997" height="100" preserveAspectRatio="xMidYMid meet" version="1.0"><defs><g/><clipPath id="d43b0cf040"><path d="M 1 0.0703125 L 260 0.0703125 L 260 74.925781 L 1 74.925781 Z M 1 0.0703125 " clip-rule="nonzero"/></clipPath></defs><g fill="#ffffff" fill-opacity="1"><g transform="translate(11.671873, 45.571287)"><g><path d="M 41.195312 -26.949219 C 40.894531 -29.148438 38.597656 -30.246094 36.246094 -30.246094 C 33.796875 -30.246094 31.296875 -28.996094 31.148438 -26.449219 C 31.097656 -25.148438 31.148438 3.75 26.898438 6.050781 C 26.699219 6.148438 26.496094 6.199219 26.296875 6.199219 C 25.046875 6.199219 23.597656 4.347656 23.296875 3.449219 C 22.898438 2.199219 22.796875 -0.800781 22.796875 -4.050781 C 22.796875 -7.847656 22.949219 -12.046875 22.949219 -14.296875 C 22.949219 -15.949219 22.046875 -16.648438 21.148438 -16.648438 C 20.246094 -16.648438 19.296875 -15.949219 19.199219 -14.796875 C 19 -13.199219 18.597656 2.949219 17.046875 5.898438 C 16.25 7.398438 15 8.5 13.296875 8.648438 L 13.25 8.648438 C 11.898438 8.648438 11.5 5.148438 11.5 0.300781 C 11.5 -6.550781 12.296875 -16.148438 12.296875 -22.648438 C 12.296875 -24.996094 12.199219 -26.949219 11.898438 -28.195312 C 11.5 -29.898438 9.449219 -31.046875 7.300781 -31.046875 C 5 -31.046875 2.5 -29.746094 1.601562 -26.546875 C 1.101562 -24.648438 0.550781 -18.648438 0.550781 -12 C 0.550781 -3.851562 1.351562 5.347656 3.800781 9.648438 C 5.25 12.5 8.300781 13.546875 11 13.546875 C 12.699219 13.546875 14.25 13.097656 15.148438 12.5 C 17.898438 10.648438 19.148438 8.699219 20.796875 5.75 C 21.699219 7.898438 24.296875 11.847656 26.796875 12.097656 C 27.648438 12.347656 28.445312 12.449219 29.246094 12.449219 C 38.746094 12.449219 41.796875 -3.898438 41.796875 -17.296875 C 41.796875 -20.847656 41.546875 -24.199219 41.195312 -26.949219 Z M 41.195312 -26.949219 "/></g></g></g><g fill="#ffffff" fill-opacity="1"><g transform="translate(54.765202, 45.571287)"><g><path d="M 2.898438 -26.148438 C 2.050781 -23.546875 1.398438 -16.648438 1.398438 -9.347656 C 1.398438 0.0507812 2.449219 10.199219 5.398438 12.796875 C 6.25 13.546875 7.648438 14.148438 9.847656 14.148438 L 10.347656 14.148438 C 14.25 14.046875 20.097656 12.296875 20.097656 10.648438 L 20.097656 10.5 C 20.046875 10.25 19.796875 10.148438 19.5 10.148438 C 18.25 10.148438 15.5 11.5 13.398438 11.5 C 12.148438 11.5 11.097656 11 10.800781 9.398438 C 10.648438 8.148438 10.300781 5 10.300781 2.601562 C 10.300781 1.300781 10.398438 0.25 10.648438 -0.199219 C 11.398438 -1.199219 18.046875 -0.148438 18.046875 -2.398438 C 18 -3.25 17.046875 -3.449219 15.796875 -3.449219 C 14.597656 -3.449219 13.148438 -3.25 12.046875 -3.25 C 11.199219 -3.25 10.597656 -3.351562 10.5 -3.800781 C 10.300781 -4.597656 10.199219 -6.648438 10.199219 -9.199219 C 10.199219 -14.75 10.597656 -22.597656 10.949219 -24.847656 C 10.949219 -25.597656 11.398438 -26.699219 12.046875 -26.847656 C 13.597656 -27.347656 15.796875 -27.546875 18.097656 -27.546875 C 19.398438 -27.546875 20.699219 -27.496094 21.996094 -27.347656 C 22.796875 -27.347656 23.199219 -27.746094 23.199219 -28.296875 C 23.199219 -28.496094 23.148438 -28.695312 23.046875 -28.945312 C 22.199219 -30.445312 18.398438 -31.496094 14.347656 -31.496094 C 9.5 -31.496094 4.199219 -29.996094 2.898438 -26.148438 Z M 2.898438 -26.148438 "/></g></g></g><g fill="#ffffff" fill-opacity="1"><g transform="translate(80.011288, 45.571287)"><g><path d="M 12.25 -30.296875 C 11.5 -32.695312 9.449219 -33.648438 7.347656 -33.648438 C 4.847656 -33.648438 2.300781 -32.246094 2 -30.195312 C 1.550781 -26.898438 1.351562 -22.996094 1.351562 -18.949219 C 1.351562 -6.800781 3 6.898438 4.097656 10.898438 C 4.800781 14.046875 8.148438 15 13.148438 15 C 16.199219 15 19.796875 14.648438 23.847656 14.25 C 24.597656 14.148438 25.199219 13.796875 25.246094 13 C 25.246094 10.347656 16.597656 10.347656 12.449219 9.097656 C 11.5 8.847656 11.097656 8.398438 11.097656 7.550781 C 11.097656 7.398438 11.148438 7.25 11.148438 7.097656 C 11.648438 2.75 12.796875 -12.699219 12.796875 -22.597656 C 12.796875 -26.148438 12.648438 -28.996094 12.25 -30.296875 Z M 12.25 -30.296875 "/></g></g></g><g fill="#ffffff" fill-opacity="1"><g transform="translate(108.106942, 45.571287)"><g><path d="M 22.496094 -37.945312 L 22.046875 -37.945312 C 7.949219 -37.945312 1.398438 -22.949219 1.398438 -7.949219 C 1.398438 6.898438 7.847656 21.796875 19.796875 21.996094 C 30.347656 21.796875 33.496094 13.75 33.695312 10.597656 L 33.695312 10.398438 C 33.695312 8.347656 31.996094 7.300781 30.195312 7.300781 C 28.398438 7.300781 26.597656 8.347656 26.398438 10.5 C 25.996094 16.097656 22.796875 17.597656 20.296875 17.597656 L 20.148438 17.597656 C 15 17.5 12.347656 5.699219 12.347656 -6.597656 C 12.347656 -19.996094 15.5 -33.996094 21.898438 -34.046875 L 21.949219 -34.046875 C 26.746094 -34.046875 27.648438 -27.246094 27.648438 -20.199219 C 27.648438 -17.699219 27.546875 -15.148438 27.445312 -12.898438 L 27.445312 -12.449219 C 27.445312 -8.597656 29.398438 -7.050781 31.546875 -7.050781 C 34.097656 -7.050781 36.996094 -9.199219 37.296875 -12.199219 C 37.445312 -13.597656 37.546875 -15.097656 37.546875 -16.546875 C 37.546875 -26.949219 33.445312 -37.695312 22.496094 -37.945312 Z M 22.496094 -37.945312 "/></g></g></g><g fill="#ffffff" fill-opacity="1"><g transform="translate(147.750804, 45.571287)"><g><path d="M 11.75 11.25 L 11.949219 11.25 C 21.648438 11.25 26.398438 -0.699219 26.398438 -12.148438 C 26.398438 -22.597656 22.449219 -32.597656 14.597656 -32.796875 L 14.296875 -32.796875 C 4.949219 -32.796875 0.800781 -21.496094 0.800781 -10.347656 C 0.800781 0.449219 4.699219 11.148438 11.75 11.25 Z M 11.699219 -25.949219 C 14.898438 -25.847656 16.347656 -19.5 16.347656 -12.75 C 16.347656 -4.898438 14.398438 3.550781 11 3.550781 L 10.898438 3.550781 C 7.347656 3.398438 5.800781 -2.699219 5.800781 -9.300781 C 5.800781 -17.25 8.050781 -25.949219 11.648438 -25.949219 Z M 11.699219 -25.949219 "/></g></g></g><g fill="#ffffff" fill-opacity="1"><g transform="translate(175.596496, 45.571287)"><g><path d="M 33.898438 -30.398438 C 32.347656 -24.546875 28.496094 -13.296875 26.347656 -3.949219 C 24.546875 -5.898438 17.296875 -31.847656 17.25 -31.847656 C 16.347656 -35.347656 13.347656 -37.394531 10.300781 -37.394531 C 7.398438 -37.394531 4.5 -35.546875 3.351562 -31.246094 C 2 -26.296875 1.449219 -18.699219 1.449219 -10.949219 C 1.449219 0.351562 2.648438 11.949219 4.449219 16 C 5.199219 17.648438 7 18.699219 8.699219 18.699219 C 10.398438 18.699219 12.046875 17.699219 12.75 15.296875 C 13.648438 12.449219 15 -11.648438 15 -20.398438 C 15.949219 -18.097656 16.449219 -14.25 21.597656 0 C 22.597656 2.050781 24.046875 2.949219 25.398438 2.949219 C 26.949219 2.949219 28.398438 1.75 28.898438 -0.199219 C 29.648438 -3 36.296875 -19.148438 36.945312 -22.046875 C 36.394531 -18.199219 35.945312 -9.847656 35.945312 -1.800781 C 35.945312 5.75 36.347656 13.046875 37.347656 16.046875 C 37.796875 17.347656 39.597656 18.25 41.347656 18.25 C 42.847656 18.25 44.296875 17.597656 44.695312 15.898438 C 45.546875 12.097656 49.046875 -12.699219 49.046875 -24.898438 C 49.046875 -26.847656 48.945312 -28.445312 48.746094 -29.648438 C 47.84375 -34.945312 44.644531 -37.695312 41.394531 -37.695312 C 38.347656 -37.695312 35.246094 -35.296875 33.898438 -30.398438 Z M 33.898438 -30.398438 "/></g></g></g><g fill="#ffffff" fill-opacity="1"><g transform="translate(225.588746, 45.571287)"><g><path d="M 2.898438 -26.148438 C 2.050781 -23.546875 1.398438 -16.648438 1.398438 -9.347656 C 1.398438 0.0507812 2.449219 10.199219 5.398438 12.796875 C 6.25 13.546875 7.648438 14.148438 9.847656 14.148438 L 10.347656 14.148438 C 14.25 14.046875 20.097656 12.296875 20.097656 10.648438 L 20.097656 10.5 C 20.046875 10.25 19.796875 10.148438 19.5 10.148438 C 18.25 10.148438 15.5 11.5 13.398438 11.5 C 12.148438 11.5 11.097656 11 10.800781 9.398438 C 10.648438 8.148438 10.300781 5 10.300781 2.601562 C 10.300781 1.300781 10.398438 0.25 10.648438 -0.199219 C 11.398438 -1.199219 18.046875 -0.148438 18.046875 -2.398438 C 18 -3.25 17.046875 -3.449219 15.796875 -3.449219 C 14.597656 -3.449219 13.148438 -3.25 12.046875 -3.25 C 11.199219 -3.25 10.597656 -3.351562 10.5 -3.800781 C 10.300781 -4.597656 10.199219 -6.648438 10.199219 -9.199219 C 10.199219 -14.75 10.597656 -22.597656 10.949219 -24.847656 C 10.949219 -25.597656 11.398438 -26.699219 12.046875 -26.847656 C 13.597656 -27.347656 15.796875 -27.546875 18.097656 -27.546875 C 19.398438 -27.546875 20.699219 -27.496094 21.996094 -27.347656 C 22.796875 -27.347656 23.199219 -27.746094 23.199219 -28.296875 C 23.199219 -28.496094 23.148438 -28.695312 23.046875 -28.945312 C 22.199219 -30.445312 18.398438 -31.496094 14.347656 -31.496094 C 9.5 -31.496094 4.199219 -29.996094 2.898438 -26.148438 Z M 2.898438 -26.148438 "/></g></g></g><g fill="#ff80cc" fill-opacity="1"><g transform="translate(13.881583, 47.780996)"><g><path d="M 41.195312 -26.949219 C 40.894531 -29.148438 38.597656 -30.246094 36.246094 -30.246094 C 33.796875 -30.246094 31.296875 -28.996094 31.148438 -26.449219 C 31.097656 -25.148438 31.148438 3.75 26.898438 6.050781 C 26.699219 6.148438 26.496094 6.199219 26.296875 6.199219 C 25.046875 6.199219 23.597656 4.347656 23.296875 3.449219 C 22.898438 2.199219 22.796875 -0.800781 22.796875 -4.050781 C 22.796875 -7.847656 22.949219 -12.046875 22.949219 -14.296875 C 22.949219 -15.949219 22.046875 -16.648438 21.148438 -16.648438 C 20.246094 -16.648438 19.296875 -15.949219 19.199219 -14.796875 C 19 -13.199219 18.597656 2.949219 17.046875 5.898438 C 16.25 7.398438 15 8.5 13.296875 8.648438 L 13.25 8.648438 C 11.898438 8.648438 11.5 5.148438 11.5 0.300781 C 11.5 -6.550781 12.296875 -16.148438 12.296875 -22.648438 C 12.296875 -24.996094 12.199219 -26.949219 11.898438 -28.195312 C 11.5 -29.898438 9.449219 -31.046875 7.300781 -31.046875 C 5 -31.046875 2.5 -29.746094 1.601562 -26.546875 C 1.101562 -24.648438 0.550781 -18.648438 0.550781 -12 C 0.550781 -3.851562 1.351562 5.347656 3.800781 9.648438 C 5.25 12.5 8.300781 13.546875 11 13.546875 C 12.699219 13.546875 14.25 13.097656 15.148438 12.5 C 17.898438 10.648438 19.148438 8.699219 20.796875 5.75 C 21.699219 7.898438 24.296875 11.847656 26.796875 12.097656 C 27.648438 12.347656 28.445312 12.449219 29.246094 12.449219 C 38.746094 12.449219 41.796875 -3.898438 41.796875 -17.296875 C 41.796875 -20.847656 41.546875 -24.199219 41.195312 -26.949219 Z M 41.195312 -26.949219 "/></g></g></g><g fill="#ff80cc" fill-opacity="1"><g transform="translate(56.974912, 47.780996)"><g><path d="M 2.898438 -26.148438 C 2.050781 -23.546875 1.398438 -16.648438 1.398438 -9.347656 C 1.398438 0.0507812 2.449219 10.199219 5.398438 12.796875 C 6.25 13.546875 7.648438 14.148438 9.847656 14.148438 L 10.347656 14.148438 C 14.25 14.046875 20.097656 12.296875 20.097656 10.648438 L 20.097656 10.5 C 20.046875 10.25 19.796875 10.148438 19.5 10.148438 C 18.25 10.148438 15.5 11.5 13.398438 11.5 C 12.148438 11.5 11.097656 11 10.800781 9.398438 C 10.648438 8.148438 10.300781 5 10.300781 2.601562 C 10.300781 1.300781 10.398438 0.25 10.648438 -0.199219 C 11.398438 -1.199219 18.046875 -0.148438 18.046875 -2.398438 C 18 -3.25 17.046875 -3.449219 15.796875 -3.449219 C 14.597656 -3.449219 13.148438 -3.25 12.046875 -3.25 C 11.199219 -3.25 10.597656 -3.351562 10.5 -3.800781 C 10.300781 -4.597656 10.199219 -6.648438 10.199219 -9.199219 C 10.199219 -14.75 10.597656 -22.597656 10.949219 -24.847656 C 10.949219 -25.597656 11.398438 -26.699219 12.046875 -26.847656 C 13.597656 -27.347656 15.796875 -27.546875 18.097656 -27.546875 C 19.398438 -27.546875 20.699219 -27.496094 21.996094 -27.347656 C 22.796875 -27.347656 23.199219 -27.746094 23.199219 -28.296875 C 23.199219 -28.496094 23.148438 -28.695312 23.046875 -28.945312 C 22.199219 -30.445312 18.398438 -31.496094 14.347656 -31.496094 C 9.5 -31.496094 4.199219 -29.996094 2.898438 -26.148438 Z M 2.898438 -26.148438 "/></g></g></g><g fill="#ff80cc" fill-opacity="1"><g transform="translate(82.220998, 47.780996)"><g><path d="M 12.25 -30.296875 C 11.5 -32.695312 9.449219 -33.648438 7.347656 -33.648438 C 4.847656 -33.648438 2.300781 -32.246094 2 -30.195312 C 1.550781 -26.898438 1.351562 -22.996094 1.351562 -18.949219 C 1.351562 -6.800781 3 6.898438 4.097656 10.898438 C 4.800781 14.046875 8.148438 15 13.148438 15 C 16.199219 15 19.796875 14.648438 23.847656 14.25 C 24.597656 14.148438 25.199219 13.796875 25.246094 13 C 25.246094 10.347656 16.597656 10.347656 12.449219 9.097656 C 11.5 8.847656 11.097656 8.398438 11.097656 7.550781 C 11.097656 7.398438 11.148438 7.25 11.148438 7.097656 C 11.648438 2.75 12.796875 -12.699219 12.796875 -22.597656 C 12.796875 -26.148438 12.648438 -28.996094 12.25 -30.296875 Z M 12.25 -30.296875 "/></g></g></g><g fill="#ff80cc" fill-opacity="1"><g transform="translate(110.316651, 47.780996)"><g><path d="M 22.496094 -37.945312 L 22.046875 -37.945312 C 7.949219 -37.945312 1.398438 -22.949219 1.398438 -7.949219 C 1.398438 6.898438 7.847656 21.796875 19.796875 21.996094 C 30.347656 21.796875 33.496094 13.75 33.695312 10.597656 L 33.695312 10.398438 C 33.695312 8.347656 31.996094 7.300781 30.195312 7.300781 C 28.398438 7.300781 26.597656 8.347656 26.398438 10.5 C 25.996094 16.097656 22.796875 17.597656 20.296875 17.597656 L 20.148438 17.597656 C 15 17.5 12.347656 5.699219 12.347656 -6.597656 C 12.347656 -19.996094 15.5 -33.996094 21.898438 -34.046875 L 21.949219 -34.046875 C 26.746094 -34.046875 27.648438 -27.246094 27.648438 -20.199219 C 27.648438 -17.699219 27.546875 -15.148438 27.445312 -12.898438 L 27.445312 -12.449219 C 27.445312 -8.597656 29.398438 -7.050781 31.546875 -7.050781 C 34.097656 -7.050781 36.996094 -9.199219 37.296875 -12.199219 C 37.445312 -13.597656 37.546875 -15.097656 37.546875 -16.546875 C 37.546875 -26.949219 33.445312 -37.695312 22.496094 -37.945312 Z M 22.496094 -37.945312 "/></g></g></g><g fill="#ff80cc" fill-opacity="1"><g transform="translate(149.960514, 47.780996)"><g><path d="M 11.75 11.25 L 11.949219 11.25 C 21.648438 11.25 26.398438 -0.699219 26.398438 -12.148438 C 26.398438 -22.597656 22.449219 -32.597656 14.597656 -32.796875 L 14.296875 -32.796875 C 4.949219 -32.796875 0.800781 -21.496094 0.800781 -10.347656 C 0.800781 0.449219 4.699219 11.148438 11.75 11.25 Z M 11.699219 -25.949219 C 14.898438 -25.847656 16.347656 -19.5 16.347656 -12.75 C 16.347656 -4.898438 14.398438 3.550781 11 3.550781 L 10.898438 3.550781 C 7.347656 3.398438 5.800781 -2.699219 5.800781 -9.300781 C 5.800781 -17.25 8.050781 -25.949219 11.648438 -25.949219 Z M 11.699219 -25.949219 "/></g></g></g><g fill="#ff80cc" fill-opacity="1"><g transform="translate(177.806205, 47.780996)"><g><path d="M 33.898438 -30.398438 C 32.347656 -24.546875 28.496094 -13.296875 26.347656 -3.949219 C 24.546875 -5.898438 17.296875 -31.847656 17.25 -31.847656 C 16.347656 -35.347656 13.347656 -37.394531 10.300781 -37.394531 C 7.398438 -37.394531 4.5 -35.546875 3.351562 -31.246094 C 2 -26.296875 1.449219 -18.699219 1.449219 -10.949219 C 1.449219 0.351562 2.648438 11.949219 4.449219 16 C 5.199219 17.648438 7 18.699219 8.699219 18.699219 C 10.398438 18.699219 12.046875 17.699219 12.75 15.296875 C 13.648438 12.449219 15 -11.648438 15 -20.398438 C 15.949219 -18.097656 16.449219 -14.25 21.597656 0 C 22.597656 2.050781 24.046875 2.949219 25.398438 2.949219 C 26.949219 2.949219 28.398438 1.75 28.898438 -0.199219 C 29.648438 -3 36.296875 -19.148438 36.945312 -22.046875 C 36.394531 -18.199219 35.945312 -9.847656 35.945312 -1.800781 C 35.945312 5.75 36.347656 13.046875 37.347656 16.046875 C 37.796875 17.347656 39.597656 18.25 41.347656 18.25 C 42.847656 18.25 44.296875 17.597656 44.695312 15.898438 C 45.546875 12.097656 49.046875 -12.699219 49.046875 -24.898438 C 49.046875 -26.847656 48.945312 -28.445312 48.746094 -29.648438 C 47.84375 -34.945312 44.644531 -37.695312 41.394531 -37.695312 C 38.347656 -37.695312 35.246094 -35.296875 33.898438 -30.398438 Z M 33.898438 -30.398438 "/></g></g></g><g fill="#ff80cc" fill-opacity="1"><g transform="translate(227.798455, 47.780996)"><g><path d="M 2.898438 -26.148438 C 2.050781 -23.546875 1.398438 -16.648438 1.398438 -9.347656 C 1.398438 0.0507812 2.449219 10.199219 5.398438 12.796875 C 6.25 13.546875 7.648438 14.148438 9.847656 14.148438 L 10.347656 14.148438 C 14.25 14.046875 20.097656 12.296875 20.097656 10.648438 L 20.097656 10.5 C 20.046875 10.25 19.796875 10.148438 19.5 10.148438 C 18.25 10.148438 15.5 11.5 13.398438 11.5 C 12.148438 11.5 11.097656 11 10.800781 9.398438 C 10.648438 8.148438 10.300781 5 10.300781 2.601562 C 10.300781 1.300781 10.398438 0.25 10.648438 -0.199219 C 11.398438 -1.199219 18.046875 -0.148438 18.046875 -2.398438 C 18 -3.25 17.046875 -3.449219 15.796875 -3.449219 C 14.597656 -3.449219 13.148438 -3.25 12.046875 -3.25 C 11.199219 -3.25 10.597656 -3.351562 10.5 -3.800781 C 10.300781 -4.597656 10.199219 -6.648438 10.199219 -9.199219 C 10.199219 -14.75 10.597656 -22.597656 10.949219 -24.847656 C 10.949219 -25.597656 11.398438 -26.699219 12.046875 -26.847656 C 13.597656 -27.347656 15.796875 -27.546875 18.097656 -27.546875 C 19.398438 -27.546875 20.699219 -27.496094 21.996094 -27.347656 C 22.796875 -27.347656 23.199219 -27.746094 23.199219 -28.296875 C 23.199219 -28.496094 23.148438 -28.695312 23.046875 -28.945312 C 22.199219 -30.445312 18.398438 -31.496094 14.347656 -31.496094 C 9.5 -31.496094 4.199219 -29.996094 2.898438 -26.148438 Z M 2.898438 -26.148438 "/></g></g></g><g clip-path="url(#d43b0cf040)"><path stroke-linecap="butt" transform="matrix(0.75, 0, 0, 0.75, 0.000000000000063949, 12.571291)" fill="none" stroke-linejoin="miter" d="M 70.489593 8.066405 C 70.098968 5.134113 67.020842 3.670571 63.895842 3.670571 C 60.625008 3.670571 57.291674 5.332029 57.093758 8.733071 C 57.031257 10.472655 57.093758 48.998702 51.432298 52.071619 C 51.156257 52.201827 50.89584 52.269535 50.619798 52.269535 C 48.95834 52.269535 47.02084 49.795577 46.630214 48.608077 C 46.093756 46.930993 45.963548 42.925784 45.963548 38.597659 C 45.963548 33.535158 46.156256 27.936199 46.156256 24.941407 C 46.156256 22.727865 44.953131 21.800781 43.765631 21.800781 C 42.562506 21.800781 41.291672 22.727865 41.161464 24.27474 C 40.885422 26.404949 40.364589 47.936202 38.29688 51.858077 C 37.223963 53.863286 35.562505 55.326828 33.302088 55.540369 L 33.218754 55.540369 C 31.432296 55.540369 30.890629 50.868494 30.890629 44.404951 C 30.890629 35.259117 31.968754 22.467448 31.968754 13.811197 C 31.968754 10.670572 31.822921 8.066405 31.432296 6.404946 C 30.890629 4.144529 28.161462 2.597654 25.296878 2.597654 C 22.234378 2.597654 18.901044 4.337238 17.692711 8.602863 C 17.026044 11.14453 16.296877 19.134114 16.296877 28.003907 C 16.296877 38.8737 17.369794 51.12891 20.625003 56.873703 C 22.562503 60.66537 26.630212 62.066412 30.223962 62.066412 C 32.489588 62.066412 34.557296 61.462245 35.760421 60.66537 C 39.42188 58.191411 41.098964 55.602869 43.291672 51.665369 C 44.500006 54.529952 47.963548 59.800786 51.286465 60.128912 C 52.421882 60.467453 53.500007 60.597662 54.557299 60.597662 C 67.218759 60.597662 71.286468 38.805992 71.286468 20.941406 C 71.286468 16.201822 70.958343 11.743489 70.489593 8.066405 Z M 76.895843 9.139321 C 75.755218 12.608072 74.890635 21.800781 74.890635 31.535158 C 74.890635 44.066409 76.291677 57.60287 80.213552 61.07162 C 81.354177 62.066412 83.223969 62.863287 86.156261 62.863287 L 86.822928 62.863287 C 92.010429 62.733079 99.82293 60.404953 99.82293 58.191411 L 99.82293 57.993495 C 99.744805 57.670578 99.41668 57.524745 99.01043 57.524745 C 97.348971 57.524745 93.687512 59.332036 90.890637 59.332036 C 89.213553 59.332036 87.812512 58.66537 87.421886 56.529953 C 87.213553 54.873703 86.75522 50.670577 86.75522 47.467452 C 86.75522 45.72266 86.885428 44.326826 87.213553 43.738284 C 88.218762 42.404951 97.088554 43.805993 97.088554 40.795576 C 97.026054 39.670576 95.755221 39.394534 94.078137 39.394534 C 92.484387 39.394534 90.546887 39.670576 89.083345 39.670576 C 87.958345 39.670576 87.145845 39.540367 87.015636 38.9362 C 86.75522 37.863284 86.625011 35.128908 86.625011 31.727866 C 86.625011 24.342448 87.145845 13.873697 87.619803 10.86328 C 87.619803 9.873697 88.218762 8.410155 89.083345 8.196613 C 91.151054 7.529946 94.078137 7.26953 97.156263 7.26953 C 98.880221 7.26953 100.619805 7.33203 102.348972 7.529946 C 103.421889 7.529946 103.958347 7.009113 103.958347 6.274738 C 103.958347 5.998696 103.875014 5.738279 103.744805 5.394529 C 102.625013 3.410154 97.546888 2.014321 92.16147 2.014321 C 85.682303 2.014321 78.619802 3.998696 76.895843 9.139321 Z M 123.020849 3.608071 C 122.010433 0.399737 119.276057 -0.871096 116.479182 -0.871096 C 113.14064 -0.871096 109.739598 1.003904 109.348973 3.738279 C 108.750014 8.128905 108.489598 13.337239 108.489598 18.743489 C 108.489598 34.9362 110.687515 53.196619 112.151056 58.535161 C 113.07814 62.733079 117.552099 63.998704 124.20835 63.998704 C 128.276059 63.998704 133.078142 63.529954 138.484393 62.993495 C 139.473977 62.863287 140.270852 62.389328 140.33856 61.332037 C 140.33856 57.800786 128.812517 57.800786 123.281266 56.123703 C 122.010433 55.800786 121.473974 55.196619 121.473974 54.055994 C 121.473974 53.863286 121.541683 53.665369 121.541683 53.472661 C 122.208349 47.66016 123.755225 27.076824 123.755225 13.873697 C 123.755225 9.139321 123.541683 5.332029 123.020849 3.608071 Z M 174.13544 -6.595056 L 173.536481 -6.595056 C 154.739604 -6.595056 146.015644 13.404947 146.015644 33.40495 C 146.015644 53.196619 154.609395 73.066413 170.541689 73.32683 C 184.598983 73.066413 188.802108 62.326828 189.07815 58.123703 L 189.07815 57.863286 C 189.07815 55.134119 186.7969 53.733077 184.406274 53.733077 C 182.015649 53.733077 179.60419 55.134119 179.343774 57.993495 C 178.807315 65.467454 174.54169 67.467454 171.208356 67.467454 L 171.010439 67.467454 C 164.145855 67.337246 160.614604 51.59766 160.614604 35.196617 C 160.614604 17.342448 164.812522 -1.324222 173.338564 -1.39193 L 173.406273 -1.39193 C 179.802107 -1.39193 181.005232 7.67578 181.005232 17.066406 C 181.005232 20.39974 180.875024 23.80599 180.744815 26.795574 L 180.744815 27.399741 C 180.744815 32.524741 183.333357 34.59245 186.213566 34.59245 C 189.598983 34.59245 193.468775 31.727866 193.875025 27.743491 C 194.072942 25.86849 194.203151 23.86849 194.203151 21.93099 C 194.203151 8.066405 188.7344 -6.256514 174.13544 -6.595056 Z M 212.671903 59.003911 L 212.93232 59.003911 C 225.869821 59.003911 232.203156 43.071618 232.203156 27.805991 C 232.203156 13.873697 226.932321 0.529945 216.46357 0.269529 L 216.05732 0.269529 C 203.609402 0.269529 198.072943 15.342447 198.072943 30.201824 C 198.072943 44.602868 203.265652 58.858078 212.671903 59.003911 Z M 212.593778 9.399738 C 216.86982 9.529947 218.791695 18.009114 218.791695 27.009116 C 218.791695 37.472659 216.203153 48.738285 211.666694 48.738285 L 211.536486 48.738285 C 206.796902 48.540368 204.729194 40.404951 204.729194 31.597658 C 204.729194 21.003906 207.723986 9.399738 212.52607 9.399738 Z M 279.322953 3.477862 C 277.255245 11.274738 272.130244 26.259115 269.26566 38.727867 C 266.854202 36.139325 257.187534 1.540362 257.125034 1.540362 C 255.921909 -3.131513 251.932325 -5.865889 247.864616 -5.865889 C 243.989615 -5.865889 240.135448 -3.39193 238.588573 2.337237 C 236.796906 8.946613 236.067739 19.066406 236.067739 29.399741 C 236.067739 44.472659 237.66149 59.930995 240.06774 65.337246 C 241.062532 67.535163 243.453157 68.930996 245.734407 68.930996 C 247.994824 68.930996 250.192741 67.597663 251.119825 64.389329 C 252.32295 60.597662 254.130242 28.472657 254.130242 16.805989 C 255.401075 19.863281 256.067742 25.009115 262.916701 43.998701 C 264.250035 46.733076 266.187535 47.936202 267.994827 47.936202 C 270.062535 47.936202 272.000036 46.326826 272.651077 43.738284 C 273.661494 39.998701 282.531287 18.467448 283.390662 14.608072 C 282.661495 19.733073 282.057329 30.868491 282.057329 41.608076 C 282.057329 51.665369 282.593787 61.399745 283.927121 65.399746 C 284.531287 67.123704 286.921913 68.332038 289.250038 68.332038 C 291.250038 68.332038 293.187539 67.467454 293.723997 65.207037 C 294.848997 60.128912 299.520873 27.076824 299.520873 10.80078 C 299.520873 8.196613 299.390664 6.066404 299.130248 4.467446 C 297.921914 -2.595055 293.661497 -6.256514 289.317746 -6.256514 C 285.260454 -6.256514 281.130245 -3.063805 279.322953 3.477862 Z M 304.65629 9.139321 C 303.520873 12.608072 302.65629 21.800781 302.65629 31.535158 C 302.65629 44.066409 304.057332 57.60287 307.979207 61.07162 C 309.119832 62.066412 310.989624 62.863287 313.916708 62.863287 L 314.583375 62.863287 C 319.776084 62.733079 327.588585 60.404953 327.588585 58.191411 L 327.588585 57.993495 C 327.505251 57.670578 327.182335 57.524745 326.776085 57.524745 C 325.114626 57.524745 321.453167 59.332036 318.656292 59.332036 C 316.979208 59.332036 315.578166 58.66537 315.187541 56.529953 C 314.974 54.873703 314.520875 50.670577 314.520875 47.467452 C 314.520875 45.72266 314.651083 44.326826 314.974 43.738284 C 315.984417 42.404951 324.854209 43.805993 324.854209 40.795576 C 324.791709 39.670576 323.520876 39.394534 321.843792 39.394534 C 320.250042 39.394534 318.312542 39.670576 316.849 39.670576 C 315.724 39.670576 314.9115 39.540367 314.781291 38.9362 C 314.520875 37.863284 314.390666 35.128908 314.390666 31.727866 C 314.390666 24.342448 314.9115 13.873697 315.385458 10.86328 C 315.385458 9.873697 315.984417 8.410155 316.849 8.196613 C 318.916709 7.529946 321.843792 7.26953 324.921918 7.26953 C 326.645876 7.26953 328.38546 7.33203 330.109418 7.529946 C 331.187544 7.529946 331.724002 7.009113 331.724002 6.274738 C 331.724002 5.998696 331.640669 5.738279 331.51046 5.394529 C 330.390668 3.410154 325.312543 2.014321 319.921917 2.014321 C 313.447958 2.014321 306.385457 3.998696 304.65629 9.139321 Z M 304.65629 9.139321 " stroke="#ff0099" stroke-width="2.500001" stroke-opacity="1" stroke-miterlimit="4"/></g></svg>
