<svg xmlns="http://www.w3.org/2000/svg" xmlns:xlink="http://www.w3.org/1999/xlink" width="900" zoomAndPan="magnify" viewBox="0 0 675 74.999997" height="100" preserveAspectRatio="xMidYMid meet" version="1.0"><defs><g/></defs><rect x="-67.5" width="810" fill="#ffffff" y="-7.5" height="89.999996" fill-opacity="1"/><rect x="-67.5" width="810" fill="#ffffff" y="-7.5" height="89.999996" fill-opacity="1"/><rect x="-67.5" width="810" fill="#ffffff" y="-7.5" height="89.999996" fill-opacity="1"/><g fill="#ffffff" fill-opacity="1"><g transform="translate(5.742201, 45.600003)"><g><path d="M 17.0625 -36.554688 L 16.523438 -36.554688 C 7.667969 -36.554688 0.109375 -24.890625 0.109375 -13.066406 C 0.109375 -9.828125 0.703125 -6.53125 1.996094 -3.457031 C 6.910156 7.9375 20.515625 5.34375 20.679688 10.421875 L 20.679688 10.472656 C 20.679688 12.257812 17.871094 13.714844 16.25 13.769531 L 15.929688 13.769531 C 11.5 13.769531 11.933594 8.585938 7.667969 8.585938 C 7.289062 8.585938 6.855469 8.640625 6.371094 8.746094 C 5.238281 8.960938 4.589844 9.988281 4.589844 11.339844 C 4.589844 14.09375 7.449219 18.195312 14.46875 18.734375 L 15.171875 18.734375 C 19.976562 18.734375 25.753906 15.0625 25.753906 10.3125 C 25.644531 -0.378906 11.285156 2.699219 8.585938 -14.09375 C 8.476562 -14.6875 8.421875 -15.710938 8.421875 -16.898438 C 8.421875 -21.164062 9.394531 -28.128906 14.253906 -30.289062 C 14.738281 -30.503906 15.117188 -30.613281 15.496094 -30.613281 C 17.925781 -30.613281 18.359375 -26.347656 18.359375 -21.542969 C 18.359375 -19.058594 18.25 -16.359375 18.25 -14.09375 C 18.25 -12.527344 18.304688 -11.175781 18.464844 -10.203125 C 18.898438 -7.882812 20.355469 -6.910156 21.867188 -6.910156 C 23.214844 -6.910156 24.621094 -7.667969 25.484375 -8.910156 C 27.210938 -11.390625 28.292969 -15.765625 28.292969 -20.300781 C 28.292969 -27.96875 25.214844 -36.066406 17.0625 -36.554688 Z M 17.0625 -36.554688 "/></g></g></g><g fill="#ffffff" fill-opacity="1"><g transform="translate(35.597682, 45.600003)"><g><path d="M 14.847656 -37.253906 C 14.253906 -39.523438 11.878906 -40.925781 9.394531 -40.925781 C 7.398438 -40.925781 5.34375 -40.007812 4.210938 -37.847656 C 2.105469 -33.746094 1.027344 -18.25 1.027344 -4.15625 C 1.027344 6.855469 1.671875 16.953125 3.023438 20.085938 C 3.726562 21.757812 6.210938 23.054688 8.207031 23.054688 C 9.394531 23.054688 10.367188 22.621094 10.746094 21.652344 C 12.039062 18.410156 12.632812 8.53125 12.6875 5.992188 C 12.6875 5.992188 15.386719 5.722656 17.546875 3.457031 C 20.789062 8.855469 22.136719 15.226562 22.675781 18.195312 C 23.054688 20.246094 24.78125 21.21875 26.726562 21.21875 C 29.535156 21.21875 32.773438 19.222656 32.828125 15.820312 L 32.828125 15.605469 C 32.828125 11.445312 30.019531 3.5625 24.242188 -2.375 C 30.183594 -9.234375 34.554688 -23.433594 34.554688 -34.878906 L 34.554688 -36.28125 C 34.5 -37.902344 33.152344 -38.710938 31.855469 -38.710938 C 30.667969 -38.710938 29.585938 -38.011719 29.585938 -36.660156 L 29.585938 -36.5 C 29.210938 -34.285156 27.535156 -4.050781 13.335938 2.050781 C 13.335938 1.996094 15.441406 -17.277344 15.441406 -29.371094 C 15.441406 -32.773438 15.28125 -35.636719 14.847656 -37.253906 Z M 14.847656 -37.253906 "/></g></g></g><g fill="#ffffff" fill-opacity="1"><g transform="translate(71.553837, 45.600003)"><g><path d="M 10.960938 14.414062 C 11.554688 13.5 13.390625 -12.957031 13.390625 -27.914062 C 13.390625 -31.316406 13.28125 -34.125 13.066406 -35.90625 C 12.742188 -38.117188 9.878906 -39.902344 7.128906 -39.902344 C 4.914062 -39.902344 2.808594 -38.765625 2.160156 -35.6875 C 1.726562 -32.503906 1.566406 -28.128906 1.566406 -23.269531 C 1.566406 -7.34375 3.402344 13.660156 4.210938 14.792969 C 5.183594 16.035156 6.316406 16.574219 7.398438 16.574219 C 8.800781 16.574219 10.152344 15.710938 10.960938 14.414062 Z M 10.960938 14.414062 "/></g></g></g><g fill="#ffffff" fill-opacity="1"><g transform="translate(87.04845, 45.600003)"><g><path d="M 13.226562 -32.71875 C 12.417969 -35.3125 10.203125 -36.335938 7.9375 -36.335938 C 5.238281 -36.335938 2.484375 -34.824219 2.160156 -32.613281 C 1.671875 -29.046875 1.457031 -24.835938 1.457031 -20.464844 C 1.457031 -7.34375 3.238281 7.449219 4.425781 11.769531 C 5.183594 15.171875 8.800781 16.199219 14.199219 16.199219 C 17.492188 16.199219 21.382812 15.820312 25.753906 15.386719 C 26.5625 15.28125 27.210938 14.902344 27.265625 14.039062 C 27.265625 11.175781 17.925781 11.175781 13.445312 9.828125 C 12.417969 9.558594 11.988281 9.070312 11.988281 8.152344 C 11.988281 7.992188 12.039062 7.828125 12.039062 7.667969 C 12.582031 2.96875 13.820312 -13.714844 13.820312 -24.40625 C 13.820312 -28.238281 13.660156 -31.316406 13.226562 -32.71875 Z M 13.226562 -32.71875 "/></g></g></g><g fill="#ffffff" fill-opacity="1"><g transform="translate(117.389825, 45.600003)"><g><path d="M 13.226562 -32.71875 C 12.417969 -35.3125 10.203125 -36.335938 7.9375 -36.335938 C 5.238281 -36.335938 2.484375 -34.824219 2.160156 -32.613281 C 1.671875 -29.046875 1.457031 -24.835938 1.457031 -20.464844 C 1.457031 -7.34375 3.238281 7.449219 4.425781 11.769531 C 5.183594 15.171875 8.800781 16.199219 14.199219 16.199219 C 17.492188 16.199219 21.382812 15.820312 25.753906 15.386719 C 26.5625 15.28125 27.210938 14.902344 27.265625 14.039062 C 27.265625 11.175781 17.925781 11.175781 13.445312 9.828125 C 12.417969 9.558594 11.988281 9.070312 11.988281 8.152344 C 11.988281 7.992188 12.039062 7.828125 12.039062 7.667969 C 12.582031 2.96875 13.820312 -13.714844 13.820312 -24.40625 C 13.820312 -28.238281 13.660156 -31.316406 13.226562 -32.71875 Z M 13.226562 -32.71875 "/></g></g></g><g fill="#ffffff" fill-opacity="1"><g transform="translate(147.7312, 45.600003)"><g><path d="M 17.0625 -36.554688 L 16.523438 -36.554688 C 7.667969 -36.554688 0.109375 -24.890625 0.109375 -13.066406 C 0.109375 -9.828125 0.703125 -6.53125 1.996094 -3.457031 C 6.910156 7.9375 20.515625 5.34375 20.679688 10.421875 L 20.679688 10.472656 C 20.679688 12.257812 17.871094 13.714844 16.25 13.769531 L 15.929688 13.769531 C 11.5 13.769531 11.933594 8.585938 7.667969 8.585938 C 7.289062 8.585938 6.855469 8.640625 6.371094 8.746094 C 5.238281 8.960938 4.589844 9.988281 4.589844 11.339844 C 4.589844 14.09375 7.449219 18.195312 14.46875 18.734375 L 15.171875 18.734375 C 19.976562 18.734375 25.753906 15.0625 25.753906 10.3125 C 25.644531 -0.378906 11.285156 2.699219 8.585938 -14.09375 C 8.476562 -14.6875 8.421875 -15.710938 8.421875 -16.898438 C 8.421875 -21.164062 9.394531 -28.128906 14.253906 -30.289062 C 14.738281 -30.503906 15.117188 -30.613281 15.496094 -30.613281 C 17.925781 -30.613281 18.359375 -26.347656 18.359375 -21.542969 C 18.359375 -19.058594 18.25 -16.359375 18.25 -14.09375 C 18.25 -12.527344 18.304688 -11.175781 18.464844 -10.203125 C 18.898438 -7.882812 20.355469 -6.910156 21.867188 -6.910156 C 23.214844 -6.910156 24.621094 -7.667969 25.484375 -8.910156 C 27.210938 -11.390625 28.292969 -15.765625 28.292969 -20.300781 C 28.292969 -27.96875 25.214844 -36.066406 17.0625 -36.554688 Z M 17.0625 -36.554688 "/></g></g></g><g fill="#ffffff" fill-opacity="1"><g transform="translate(177.586681, 45.600003)"><g/></g></g><g fill="#ffffff" fill-opacity="1"><g transform="translate(191.083739, 45.600003)"><g><path d="M 37.148438 16.359375 L 36.28125 16.359375 Z M 31.800781 14.308594 C 30.613281 13.929688 29.480469 13.335938 28.398438 12.582031 C 31.421875 9.558594 34.339844 5.292969 36.984375 -0.433594 C 38.011719 -2.753906 31.316406 -3.023438 30.234375 -1.1875 C 27.804688 2.863281 25.644531 6.046875 23.703125 8.53125 C 21.164062 5.777344 19.003906 2.644531 17.222656 -0.59375 C 23.378906 -8.097656 31.371094 -15.28125 31.695312 -25.429688 C 32.015625 -33.800781 25 -39.414062 18.789062 -39.738281 C 5.667969 -40.332031 -4.480469 -25.808594 8.910156 -0.703125 C 5.832031 3.457031 1.671875 9.878906 4.914062 14.957031 C 7.558594 19.058594 15.65625 21.703125 24.082031 16.199219 C 26.941406 17.65625 30.019531 18.410156 33.3125 18.195312 C 34.394531 18.085938 37.09375 17.871094 37.148438 16.304688 C 37.148438 14.46875 31.800781 14.308594 31.800781 14.308594 Z M 12.308594 -27.859375 C 13.714844 -33.257812 17.332031 -36.28125 17.816406 -36.011719 C 23.433594 -32.773438 26.347656 -22.027344 14.144531 -7.234375 C 11.664062 -13.820312 10.582031 -21.109375 12.308594 -27.859375 Z M 13.011719 5.9375 C 14.847656 8.476562 17.007812 10.960938 19.4375 13.011719 C 12.417969 18.84375 10.203125 12.148438 13.011719 5.9375 Z M 13.011719 5.9375 "/></g></g></g><g fill="#ffffff" fill-opacity="1"><g transform="translate(230.603114, 45.600003)"><g/></g></g><g fill="#ffffff" fill-opacity="1"><g transform="translate(244.100184, 45.600003)"><g><path d="M 24.296875 -40.980469 L 23.8125 -40.980469 C 8.585938 -40.980469 1.511719 -24.78125 1.511719 -8.585938 C 1.511719 7.449219 8.476562 23.539062 21.382812 23.757812 C 32.773438 23.539062 36.175781 14.847656 36.390625 11.445312 L 36.390625 11.230469 C 36.390625 9.015625 34.554688 7.882812 32.613281 7.882812 C 30.667969 7.882812 28.722656 9.015625 28.507812 11.339844 C 28.074219 17.386719 24.621094 19.003906 21.921875 19.003906 L 21.757812 19.003906 C 16.199219 18.898438 13.335938 6.15625 13.335938 -7.128906 C 13.335938 -21.597656 16.738281 -36.714844 23.648438 -36.769531 L 23.703125 -36.769531 C 28.886719 -36.769531 29.859375 -29.425781 29.859375 -21.8125 C 29.859375 -19.113281 29.75 -16.359375 29.640625 -13.929688 L 29.640625 -13.445312 C 29.640625 -9.285156 31.746094 -7.613281 34.070312 -7.613281 C 36.824219 -7.613281 39.953125 -9.933594 40.277344 -13.175781 C 40.441406 -14.6875 40.546875 -16.304688 40.546875 -17.871094 C 40.546875 -29.101562 36.121094 -40.710938 24.296875 -40.980469 Z M 24.296875 -40.980469 "/></g></g></g><g fill="#ffffff" fill-opacity="1"><g transform="translate(286.912848, 45.600003)"><g><path d="M 12.6875 12.148438 L 12.902344 12.148438 C 23.378906 12.148438 28.507812 -0.757812 28.507812 -13.121094 C 28.507812 -24.40625 24.242188 -35.203125 15.765625 -35.417969 L 15.441406 -35.417969 C 5.34375 -35.417969 0.863281 -23.214844 0.863281 -11.175781 C 0.863281 0.484375 5.074219 12.039062 12.6875 12.148438 Z M 12.632812 -28.023438 C 16.089844 -27.914062 17.65625 -21.058594 17.65625 -13.769531 C 17.65625 -5.292969 15.550781 3.832031 11.878906 3.832031 L 11.769531 3.832031 C 7.9375 3.671875 6.261719 -2.914062 6.261719 -10.042969 C 6.261719 -18.628906 8.691406 -28.023438 12.582031 -28.023438 Z M 12.632812 -28.023438 "/></g></g></g><g fill="#ffffff" fill-opacity="1"><g transform="translate(316.984279, 45.600003)"><g><path d="M 36.605469 -32.828125 C 34.933594 -26.511719 30.777344 -14.363281 28.453125 -4.265625 C 26.511719 -6.371094 18.679688 -34.394531 18.628906 -34.394531 C 17.65625 -38.171875 14.414062 -40.386719 11.121094 -40.386719 C 7.992188 -40.386719 4.859375 -38.386719 3.617188 -33.746094 C 2.160156 -28.398438 1.566406 -20.191406 1.566406 -11.824219 C 1.566406 0.378906 2.863281 12.902344 4.804688 17.277344 C 5.613281 19.058594 7.558594 20.191406 9.394531 20.191406 C 11.230469 20.191406 13.011719 19.113281 13.769531 16.523438 C 14.738281 13.445312 16.199219 -12.582031 16.199219 -22.027344 C 17.222656 -19.546875 17.761719 -15.386719 23.324219 0 C 24.40625 2.214844 25.96875 3.1875 27.429688 3.1875 C 29.101562 3.1875 30.667969 1.890625 31.207031 -0.214844 C 32.015625 -3.238281 39.199219 -20.679688 39.902344 -23.8125 C 39.304688 -19.652344 38.820312 -10.636719 38.820312 -1.945312 C 38.820312 6.210938 39.253906 14.09375 40.332031 17.332031 C 40.816406 18.734375 42.761719 19.707031 44.652344 19.707031 C 46.273438 19.707031 47.835938 19.003906 48.269531 17.167969 C 49.1875 13.066406 52.964844 -13.714844 52.964844 -26.886719 C 52.964844 -28.992188 52.859375 -30.722656 52.644531 -32.015625 C 51.671875 -37.742188 48.214844 -40.710938 44.707031 -40.710938 C 41.414062 -40.710938 38.066406 -38.117188 36.605469 -32.828125 Z M 36.605469 -32.828125 "/></g></g></g><g fill="#ffffff" fill-opacity="1"><g transform="translate(370.972487, 45.600003)"><g><path d="M 11.933594 15.875 C 13.226562 13.875 13.875 3.078125 13.875 1.78125 C 16.035156 2.375 17.980469 2.644531 19.761719 2.644531 C 30.722656 2.644531 34.285156 -8.097656 34.285156 -17.816406 C 34.285156 -23.757812 32.988281 -29.371094 31.152344 -31.910156 C 28.347656 -35.796875 24.675781 -37.039062 21.542969 -37.039062 C 18.359375 -37.039062 15.765625 -35.796875 15.0625 -34.609375 C 14.738281 -37.039062 12.417969 -38.765625 9.933594 -38.765625 C 7.667969 -38.765625 5.292969 -37.363281 4.15625 -33.746094 C 2.914062 -29.804688 1.996094 -18.140625 1.996094 -6.804688 C 1.996094 2.539062 2.644531 11.714844 4.210938 16.089844 C 4.804688 17.441406 6.15625 18.085938 7.613281 18.085938 C 9.234375 18.085938 10.960938 17.277344 11.933594 15.875 Z M 15.171875 -30.183594 C 17.007812 -31.695312 18.574219 -32.394531 19.976562 -32.394531 C 24.1875 -32.394531 26.242188 -25.808594 26.242188 -18.574219 C 26.242188 -9.773438 23.214844 0 17.546875 0 C 16.414062 0 15.226562 -0.378906 13.929688 -1.1875 C 13.929688 -1.242188 14.632812 -29.695312 15.171875 -30.183594 Z M 15.171875 -30.183594 "/></g></g></g><g fill="#ffffff" fill-opacity="1"><g transform="translate(406.226787, 45.600003)"><g><path d="M 3.132812 -28.238281 C 2.214844 -25.429688 1.511719 -17.980469 1.511719 -10.097656 C 1.511719 0.0546875 2.644531 11.015625 5.832031 13.820312 C 6.75 14.632812 8.261719 15.28125 10.636719 15.28125 L 11.175781 15.28125 C 15.386719 15.171875 21.703125 13.28125 21.703125 11.5 L 21.703125 11.339844 C 21.652344 11.070312 21.382812 10.960938 21.058594 10.960938 C 19.707031 10.960938 16.738281 12.417969 14.46875 12.417969 C 13.121094 12.417969 11.988281 11.878906 11.664062 10.152344 C 11.5 8.800781 11.121094 5.398438 11.121094 2.808594 C 11.121094 1.402344 11.230469 0.269531 11.5 -0.214844 C 12.308594 -1.296875 19.492188 -0.160156 19.492188 -2.589844 C 19.4375 -3.507812 18.410156 -3.726562 17.0625 -3.726562 C 15.765625 -3.726562 14.199219 -3.507812 13.011719 -3.507812 C 12.09375 -3.507812 11.445312 -3.617188 11.339844 -4.101562 C 11.121094 -4.96875 11.015625 -7.179688 11.015625 -9.933594 C 11.015625 -15.929688 11.445312 -24.40625 11.824219 -26.835938 C 11.824219 -27.644531 12.308594 -28.832031 13.011719 -28.992188 C 14.6875 -29.535156 17.0625 -29.75 19.546875 -29.75 C 20.949219 -29.75 22.351562 -29.695312 23.757812 -29.535156 C 24.621094 -29.535156 25.050781 -29.964844 25.050781 -30.558594 C 25.050781 -30.777344 25 -30.992188 24.890625 -31.261719 C 23.972656 -32.882812 19.871094 -34.015625 15.496094 -34.015625 C 10.257812 -34.015625 4.535156 -32.394531 3.132812 -28.238281 Z M 3.132812 -28.238281 "/></g></g></g><g fill="#ffffff" fill-opacity="1"><g transform="translate(433.490823, 45.600003)"><g><path d="M 45.082031 -36.230469 C 42.652344 -37.632812 32.179688 -39.035156 21.652344 -39.035156 C 14.578125 -39.035156 7.503906 -38.386719 2.863281 -36.660156 C 1.671875 -36.230469 1.078125 -35.203125 1.078125 -34.125 C 1.078125 -32.933594 1.835938 -31.746094 3.457031 -31.261719 C 4.425781 -30.992188 13.226562 -28.777344 17.167969 -28.777344 C 16.683594 -21.703125 16.46875 -15.011719 16.46875 -8.960938 C 16.46875 9.609375 18.359375 22.460938 19.652344 23.703125 C 20.140625 25.160156 21.542969 25.753906 23.054688 25.753906 C 24.835938 25.753906 26.726562 24.945312 26.996094 23.917969 C 28.832031 17.601562 31.421875 -4.101562 31.421875 -19.761719 C 31.421875 -23.164062 31.316406 -26.292969 31.046875 -28.886719 C 34.339844 -29.210938 42.492188 -30.722656 44.921875 -31.746094 C 45.839844 -32.179688 46.378906 -33.097656 46.378906 -34.015625 C 46.378906 -34.878906 46 -35.6875 45.082031 -36.230469 Z M 45.082031 -36.230469 "/></g></g></g><g fill="#ffffff" fill-opacity="1"><g transform="translate(481.432362, 45.600003)"><g><path d="M 3.132812 -28.238281 C 2.214844 -25.429688 1.511719 -17.980469 1.511719 -10.097656 C 1.511719 0.0546875 2.644531 11.015625 5.832031 13.820312 C 6.75 14.632812 8.261719 15.28125 10.636719 15.28125 L 11.175781 15.28125 C 15.386719 15.171875 21.703125 13.28125 21.703125 11.5 L 21.703125 11.339844 C 21.652344 11.070312 21.382812 10.960938 21.058594 10.960938 C 19.707031 10.960938 16.738281 12.417969 14.46875 12.417969 C 13.121094 12.417969 11.988281 11.878906 11.664062 10.152344 C 11.5 8.800781 11.121094 5.398438 11.121094 2.808594 C 11.121094 1.402344 11.230469 0.269531 11.5 -0.214844 C 12.308594 -1.296875 19.492188 -0.160156 19.492188 -2.589844 C 19.4375 -3.507812 18.410156 -3.726562 17.0625 -3.726562 C 15.765625 -3.726562 14.199219 -3.507812 13.011719 -3.507812 C 12.09375 -3.507812 11.445312 -3.617188 11.339844 -4.101562 C 11.121094 -4.96875 11.015625 -7.179688 11.015625 -9.933594 C 11.015625 -15.929688 11.445312 -24.40625 11.824219 -26.835938 C 11.824219 -27.644531 12.308594 -28.832031 13.011719 -28.992188 C 14.6875 -29.535156 17.0625 -29.75 19.546875 -29.75 C 20.949219 -29.75 22.351562 -29.695312 23.757812 -29.535156 C 24.621094 -29.535156 25.050781 -29.964844 25.050781 -30.558594 C 25.050781 -30.777344 25 -30.992188 24.890625 -31.261719 C 23.972656 -32.882812 19.871094 -34.015625 15.496094 -34.015625 C 10.257812 -34.015625 4.535156 -32.394531 3.132812 -28.238281 Z M 3.132812 -28.238281 "/></g></g></g><g fill="#ffffff" fill-opacity="1"><g transform="translate(508.696398, 45.600003)"><g><path d="M 32.558594 -35.363281 C 31.046875 -28.347656 29.75 2.484375 29.695312 2.539062 C 24.40625 -11.445312 20.300781 -23.054688 14.792969 -34.015625 C 13.121094 -37.363281 11.070312 -38.496094 9.234375 -38.496094 C 6.53125 -38.496094 4.210938 -36.066406 3.78125 -34.554688 C 2.269531 -29.15625 1.457031 -19.707031 1.457031 -10.042969 C 1.457031 0.539062 2.429688 11.390625 4.375 17.761719 C 5.019531 20.300781 6.804688 21.8125 8.585938 21.8125 C 9.988281 21.8125 11.445312 20.839844 12.417969 18.628906 C 14.902344 12.742188 15.171875 -17.871094 15.386719 -19.382812 C 17.0625 -18.085938 24.132812 12.09375 32.988281 13.066406 L 33.421875 13.066406 C 41.195312 13.066406 43.519531 -11.664062 43.519531 -26.132812 C 43.519531 -30.453125 43.300781 -33.90625 42.976562 -35.472656 C 42.332031 -38.605469 40.007812 -40.332031 37.6875 -40.332031 C 35.527344 -40.332031 33.3125 -38.765625 32.558594 -35.363281 Z M 32.558594 -35.363281 "/></g></g></g><g fill="#ffffff" fill-opacity="1"><g transform="translate(553.830565, 45.600003)"><g><path d="M 24.296875 -40.980469 L 23.8125 -40.980469 C 8.585938 -40.980469 1.511719 -24.78125 1.511719 -8.585938 C 1.511719 7.449219 8.476562 23.539062 21.382812 23.757812 C 32.773438 23.539062 36.175781 14.847656 36.390625 11.445312 L 36.390625 11.230469 C 36.390625 9.015625 34.554688 7.882812 32.613281 7.882812 C 30.667969 7.882812 28.722656 9.015625 28.507812 11.339844 C 28.074219 17.386719 24.621094 19.003906 21.921875 19.003906 L 21.757812 19.003906 C 16.199219 18.898438 13.335938 6.15625 13.335938 -7.128906 C 13.335938 -21.597656 16.738281 -36.714844 23.648438 -36.769531 L 23.703125 -36.769531 C 28.886719 -36.769531 29.859375 -29.425781 29.859375 -21.8125 C 29.859375 -19.113281 29.75 -16.359375 29.640625 -13.929688 L 29.640625 -13.445312 C 29.640625 -9.285156 31.746094 -7.613281 34.070312 -7.613281 C 36.824219 -7.613281 39.953125 -9.933594 40.277344 -13.175781 C 40.441406 -14.6875 40.546875 -16.304688 40.546875 -17.871094 C 40.546875 -29.101562 36.121094 -40.710938 24.296875 -40.980469 Z M 24.296875 -40.980469 "/></g></g></g><g fill="#ffffff" fill-opacity="1"><g transform="translate(596.64323, 45.600003)"><g><path d="M 10.960938 14.414062 C 11.554688 13.5 13.390625 -12.957031 13.390625 -27.914062 C 13.390625 -31.316406 13.28125 -34.125 13.066406 -35.90625 C 12.742188 -38.117188 9.878906 -39.902344 7.128906 -39.902344 C 4.914062 -39.902344 2.808594 -38.765625 2.160156 -35.6875 C 1.726562 -32.503906 1.566406 -28.128906 1.566406 -23.269531 C 1.566406 -7.34375 3.402344 13.660156 4.210938 14.792969 C 5.183594 16.035156 6.316406 16.574219 7.398438 16.574219 C 8.800781 16.574219 10.152344 15.710938 10.960938 14.414062 Z M 10.960938 14.414062 "/></g></g></g><g fill="#ffffff" fill-opacity="1"><g transform="translate(612.137842, 45.600003)"><g><path d="M 3.132812 -28.238281 C 2.214844 -25.429688 1.511719 -17.980469 1.511719 -10.097656 C 1.511719 0.0546875 2.644531 11.015625 5.832031 13.820312 C 6.75 14.632812 8.261719 15.28125 10.636719 15.28125 L 11.175781 15.28125 C 15.386719 15.171875 21.703125 13.28125 21.703125 11.5 L 21.703125 11.339844 C 21.652344 11.070312 21.382812 10.960938 21.058594 10.960938 C 19.707031 10.960938 16.738281 12.417969 14.46875 12.417969 C 13.121094 12.417969 11.988281 11.878906 11.664062 10.152344 C 11.5 8.800781 11.121094 5.398438 11.121094 2.808594 C 11.121094 1.402344 11.230469 0.269531 11.5 -0.214844 C 12.308594 -1.296875 19.492188 -0.160156 19.492188 -2.589844 C 19.4375 -3.507812 18.410156 -3.726562 17.0625 -3.726562 C 15.765625 -3.726562 14.199219 -3.507812 13.011719 -3.507812 C 12.09375 -3.507812 11.445312 -3.617188 11.339844 -4.101562 C 11.121094 -4.96875 11.015625 -7.179688 11.015625 -9.933594 C 11.015625 -15.929688 11.445312 -24.40625 11.824219 -26.835938 C 11.824219 -27.644531 12.308594 -28.832031 13.011719 -28.992188 C 14.6875 -29.535156 17.0625 -29.75 19.546875 -29.75 C 20.949219 -29.75 22.351562 -29.695312 23.757812 -29.535156 C 24.621094 -29.535156 25.050781 -29.964844 25.050781 -30.558594 C 25.050781 -30.777344 25 -30.992188 24.890625 -31.261719 C 23.972656 -32.882812 19.871094 -34.015625 15.496094 -34.015625 C 10.257812 -34.015625 4.535156 -32.394531 3.132812 -28.238281 Z M 3.132812 -28.238281 "/></g></g></g><g fill="#ffffff" fill-opacity="1"><g transform="translate(639.401878, 45.600003)"><g><path d="M 17.0625 -36.554688 L 16.523438 -36.554688 C 7.667969 -36.554688 0.109375 -24.890625 0.109375 -13.066406 C 0.109375 -9.828125 0.703125 -6.53125 1.996094 -3.457031 C 6.910156 7.9375 20.515625 5.34375 20.679688 10.421875 L 20.679688 10.472656 C 20.679688 12.257812 17.871094 13.714844 16.25 13.769531 L 15.929688 13.769531 C 11.5 13.769531 11.933594 8.585938 7.667969 8.585938 C 7.289062 8.585938 6.855469 8.640625 6.371094 8.746094 C 5.238281 8.960938 4.589844 9.988281 4.589844 11.339844 C 4.589844 14.09375 7.449219 18.195312 14.46875 18.734375 L 15.171875 18.734375 C 19.976562 18.734375 25.753906 15.0625 25.753906 10.3125 C 25.644531 -0.378906 11.285156 2.699219 8.585938 -14.09375 C 8.476562 -14.6875 8.421875 -15.710938 8.421875 -16.898438 C 8.421875 -21.164062 9.394531 -28.128906 14.253906 -30.289062 C 14.738281 -30.503906 15.117188 -30.613281 15.496094 -30.613281 C 17.925781 -30.613281 18.359375 -26.347656 18.359375 -21.542969 C 18.359375 -19.058594 18.25 -16.359375 18.25 -14.09375 C 18.25 -12.527344 18.304688 -11.175781 18.464844 -10.203125 C 18.898438 -7.882812 20.355469 -6.910156 21.867188 -6.910156 C 23.214844 -6.910156 24.621094 -7.667969 25.484375 -8.910156 C 27.210938 -11.390625 28.292969 -15.765625 28.292969 -20.300781 C 28.292969 -27.96875 25.214844 -36.066406 17.0625 -36.554688 Z M 17.0625 -36.554688 "/></g></g></g><g fill="#ff80cc" fill-opacity="1"><g transform="translate(8.128683, 47.986485)"><g><path d="M 17.0625 -36.554688 L 16.523438 -36.554688 C 7.667969 -36.554688 0.109375 -24.890625 0.109375 -13.066406 C 0.109375 -9.828125 0.703125 -6.53125 1.996094 -3.457031 C 6.910156 7.9375 20.515625 5.34375 20.679688 10.421875 L 20.679688 10.472656 C 20.679688 12.257812 17.871094 13.714844 16.25 13.769531 L 15.929688 13.769531 C 11.5 13.769531 11.933594 8.585938 7.667969 8.585938 C 7.289062 8.585938 6.855469 8.640625 6.371094 8.746094 C 5.238281 8.960938 4.589844 9.988281 4.589844 11.339844 C 4.589844 14.09375 7.449219 18.195312 14.46875 18.734375 L 15.171875 18.734375 C 19.976562 18.734375 25.753906 15.0625 25.753906 10.3125 C 25.644531 -0.378906 11.285156 2.699219 8.585938 -14.09375 C 8.476562 -14.6875 8.421875 -15.710938 8.421875 -16.898438 C 8.421875 -21.164062 9.394531 -28.128906 14.253906 -30.289062 C 14.738281 -30.503906 15.117188 -30.613281 15.496094 -30.613281 C 17.925781 -30.613281 18.359375 -26.347656 18.359375 -21.542969 C 18.359375 -19.058594 18.25 -16.359375 18.25 -14.09375 C 18.25 -12.527344 18.304688 -11.175781 18.464844 -10.203125 C 18.898438 -7.882812 20.355469 -6.910156 21.867188 -6.910156 C 23.214844 -6.910156 24.621094 -7.667969 25.484375 -8.910156 C 27.210938 -11.390625 28.292969 -15.765625 28.292969 -20.300781 C 28.292969 -27.96875 25.214844 -36.066406 17.0625 -36.554688 Z M 17.0625 -36.554688 "/></g></g></g><g fill="#ff80cc" fill-opacity="1"><g transform="translate(37.984164, 47.986485)"><g><path d="M 14.847656 -37.253906 C 14.253906 -39.523438 11.878906 -40.925781 9.394531 -40.925781 C 7.398438 -40.925781 5.34375 -40.007812 4.210938 -37.847656 C 2.105469 -33.746094 1.027344 -18.25 1.027344 -4.15625 C 1.027344 6.855469 1.671875 16.953125 3.023438 20.085938 C 3.726562 21.757812 6.210938 23.054688 8.207031 23.054688 C 9.394531 23.054688 10.367188 22.621094 10.746094 21.652344 C 12.039062 18.410156 12.632812 8.53125 12.6875 5.992188 C 12.6875 5.992188 15.386719 5.722656 17.546875 3.457031 C 20.789062 8.855469 22.136719 15.226562 22.675781 18.195312 C 23.054688 20.246094 24.78125 21.21875 26.726562 21.21875 C 29.535156 21.21875 32.773438 19.222656 32.828125 15.820312 L 32.828125 15.605469 C 32.828125 11.445312 30.019531 3.5625 24.242188 -2.375 C 30.183594 -9.234375 34.554688 -23.433594 34.554688 -34.878906 L 34.554688 -36.28125 C 34.5 -37.902344 33.152344 -38.710938 31.855469 -38.710938 C 30.667969 -38.710938 29.585938 -38.011719 29.585938 -36.660156 L 29.585938 -36.5 C 29.210938 -34.285156 27.535156 -4.050781 13.335938 2.050781 C 13.335938 1.996094 15.441406 -17.277344 15.441406 -29.371094 C 15.441406 -32.773438 15.28125 -35.636719 14.847656 -37.253906 Z M 14.847656 -37.253906 "/></g></g></g><g fill="#ff80cc" fill-opacity="1"><g transform="translate(73.940319, 47.986485)"><g><path d="M 10.960938 14.414062 C 11.554688 13.5 13.390625 -12.957031 13.390625 -27.914062 C 13.390625 -31.316406 13.28125 -34.125 13.066406 -35.90625 C 12.742188 -38.117188 9.878906 -39.902344 7.128906 -39.902344 C 4.914062 -39.902344 2.808594 -38.765625 2.160156 -35.6875 C 1.726562 -32.503906 1.566406 -28.128906 1.566406 -23.269531 C 1.566406 -7.34375 3.402344 13.660156 4.210938 14.792969 C 5.183594 16.035156 6.316406 16.574219 7.398438 16.574219 C 8.800781 16.574219 10.152344 15.710938 10.960938 14.414062 Z M 10.960938 14.414062 "/></g></g></g><g fill="#ff80cc" fill-opacity="1"><g transform="translate(89.434932, 47.986485)"><g><path d="M 13.226562 -32.71875 C 12.417969 -35.3125 10.203125 -36.335938 7.9375 -36.335938 C 5.238281 -36.335938 2.484375 -34.824219 2.160156 -32.613281 C 1.671875 -29.046875 1.457031 -24.835938 1.457031 -20.464844 C 1.457031 -7.34375 3.238281 7.449219 4.425781 11.769531 C 5.183594 15.171875 8.800781 16.199219 14.199219 16.199219 C 17.492188 16.199219 21.382812 15.820312 25.753906 15.386719 C 26.5625 15.28125 27.210938 14.902344 27.265625 14.039062 C 27.265625 11.175781 17.925781 11.175781 13.445312 9.828125 C 12.417969 9.558594 11.988281 9.070312 11.988281 8.152344 C 11.988281 7.992188 12.039062 7.828125 12.039062 7.667969 C 12.582031 2.96875 13.820312 -13.714844 13.820312 -24.40625 C 13.820312 -28.238281 13.660156 -31.316406 13.226562 -32.71875 Z M 13.226562 -32.71875 "/></g></g></g><g fill="#ff80cc" fill-opacity="1"><g transform="translate(119.776307, 47.986485)"><g><path d="M 13.226562 -32.71875 C 12.417969 -35.3125 10.203125 -36.335938 7.9375 -36.335938 C 5.238281 -36.335938 2.484375 -34.824219 2.160156 -32.613281 C 1.671875 -29.046875 1.457031 -24.835938 1.457031 -20.464844 C 1.457031 -7.34375 3.238281 7.449219 4.425781 11.769531 C 5.183594 15.171875 8.800781 16.199219 14.199219 16.199219 C 17.492188 16.199219 21.382812 15.820312 25.753906 15.386719 C 26.5625 15.28125 27.210938 14.902344 27.265625 14.039062 C 27.265625 11.175781 17.925781 11.175781 13.445312 9.828125 C 12.417969 9.558594 11.988281 9.070312 11.988281 8.152344 C 11.988281 7.992188 12.039062 7.828125 12.039062 7.667969 C 12.582031 2.96875 13.820312 -13.714844 13.820312 -24.40625 C 13.820312 -28.238281 13.660156 -31.316406 13.226562 -32.71875 Z M 13.226562 -32.71875 "/></g></g></g><g fill="#ff80cc" fill-opacity="1"><g transform="translate(150.117682, 47.986485)"><g><path d="M 17.0625 -36.554688 L 16.523438 -36.554688 C 7.667969 -36.554688 0.109375 -24.890625 0.109375 -13.066406 C 0.109375 -9.828125 0.703125 -6.53125 1.996094 -3.457031 C 6.910156 7.9375 20.515625 5.34375 20.679688 10.421875 L 20.679688 10.472656 C 20.679688 12.257812 17.871094 13.714844 16.25 13.769531 L 15.929688 13.769531 C 11.5 13.769531 11.933594 8.585938 7.667969 8.585938 C 7.289062 8.585938 6.855469 8.640625 6.371094 8.746094 C 5.238281 8.960938 4.589844 9.988281 4.589844 11.339844 C 4.589844 14.09375 7.449219 18.195312 14.46875 18.734375 L 15.171875 18.734375 C 19.976562 18.734375 25.753906 15.0625 25.753906 10.3125 C 25.644531 -0.378906 11.285156 2.699219 8.585938 -14.09375 C 8.476562 -14.6875 8.421875 -15.710938 8.421875 -16.898438 C 8.421875 -21.164062 9.394531 -28.128906 14.253906 -30.289062 C 14.738281 -30.503906 15.117188 -30.613281 15.496094 -30.613281 C 17.925781 -30.613281 18.359375 -26.347656 18.359375 -21.542969 C 18.359375 -19.058594 18.25 -16.359375 18.25 -14.09375 C 18.25 -12.527344 18.304688 -11.175781 18.464844 -10.203125 C 18.898438 -7.882812 20.355469 -6.910156 21.867188 -6.910156 C 23.214844 -6.910156 24.621094 -7.667969 25.484375 -8.910156 C 27.210938 -11.390625 28.292969 -15.765625 28.292969 -20.300781 C 28.292969 -27.96875 25.214844 -36.066406 17.0625 -36.554688 Z M 17.0625 -36.554688 "/></g></g></g><g fill="#ff80cc" fill-opacity="1"><g transform="translate(179.973163, 47.986485)"><g/></g></g><g fill="#ff80cc" fill-opacity="1"><g transform="translate(193.470221, 47.986485)"><g><path d="M 37.148438 16.359375 L 36.28125 16.359375 Z M 31.800781 14.308594 C 30.613281 13.929688 29.480469 13.335938 28.398438 12.582031 C 31.421875 9.558594 34.339844 5.292969 36.984375 -0.433594 C 38.011719 -2.753906 31.316406 -3.023438 30.234375 -1.1875 C 27.804688 2.863281 25.644531 6.046875 23.703125 8.53125 C 21.164062 5.777344 19.003906 2.644531 17.222656 -0.59375 C 23.378906 -8.097656 31.371094 -15.28125 31.695312 -25.429688 C 32.015625 -33.800781 25 -39.414062 18.789062 -39.738281 C 5.667969 -40.332031 -4.480469 -25.808594 8.910156 -0.703125 C 5.832031 3.457031 1.671875 9.878906 4.914062 14.957031 C 7.558594 19.058594 15.65625 21.703125 24.082031 16.199219 C 26.941406 17.65625 30.019531 18.410156 33.3125 18.195312 C 34.394531 18.085938 37.09375 17.871094 37.148438 16.304688 C 37.148438 14.46875 31.800781 14.308594 31.800781 14.308594 Z M 12.308594 -27.859375 C 13.714844 -33.257812 17.332031 -36.28125 17.816406 -36.011719 C 23.433594 -32.773438 26.347656 -22.027344 14.144531 -7.234375 C 11.664062 -13.820312 10.582031 -21.109375 12.308594 -27.859375 Z M 13.011719 5.9375 C 14.847656 8.476562 17.007812 10.960938 19.4375 13.011719 C 12.417969 18.84375 10.203125 12.148438 13.011719 5.9375 Z M 13.011719 5.9375 "/></g></g></g><g fill="#ff80cc" fill-opacity="1"><g transform="translate(232.989596, 47.986485)"><g/></g></g><g fill="#ff80cc" fill-opacity="1"><g transform="translate(246.486666, 47.986485)"><g><path d="M 24.296875 -40.980469 L 23.8125 -40.980469 C 8.585938 -40.980469 1.511719 -24.78125 1.511719 -8.585938 C 1.511719 7.449219 8.476562 23.539062 21.382812 23.757812 C 32.773438 23.539062 36.175781 14.847656 36.390625 11.445312 L 36.390625 11.230469 C 36.390625 9.015625 34.554688 7.882812 32.613281 7.882812 C 30.667969 7.882812 28.722656 9.015625 28.507812 11.339844 C 28.074219 17.386719 24.621094 19.003906 21.921875 19.003906 L 21.757812 19.003906 C 16.199219 18.898438 13.335938 6.15625 13.335938 -7.128906 C 13.335938 -21.597656 16.738281 -36.714844 23.648438 -36.769531 L 23.703125 -36.769531 C 28.886719 -36.769531 29.859375 -29.425781 29.859375 -21.8125 C 29.859375 -19.113281 29.75 -16.359375 29.640625 -13.929688 L 29.640625 -13.445312 C 29.640625 -9.285156 31.746094 -7.613281 34.070312 -7.613281 C 36.824219 -7.613281 39.953125 -9.933594 40.277344 -13.175781 C 40.441406 -14.6875 40.546875 -16.304688 40.546875 -17.871094 C 40.546875 -29.101562 36.121094 -40.710938 24.296875 -40.980469 Z M 24.296875 -40.980469 "/></g></g></g><g fill="#ff80cc" fill-opacity="1"><g transform="translate(289.29933, 47.986485)"><g><path d="M 12.6875 12.148438 L 12.902344 12.148438 C 23.378906 12.148438 28.507812 -0.757812 28.507812 -13.121094 C 28.507812 -24.40625 24.242188 -35.203125 15.765625 -35.417969 L 15.441406 -35.417969 C 5.34375 -35.417969 0.863281 -23.214844 0.863281 -11.175781 C 0.863281 0.484375 5.074219 12.039062 12.6875 12.148438 Z M 12.632812 -28.023438 C 16.089844 -27.914062 17.65625 -21.058594 17.65625 -13.769531 C 17.65625 -5.292969 15.550781 3.832031 11.878906 3.832031 L 11.769531 3.832031 C 7.9375 3.671875 6.261719 -2.914062 6.261719 -10.042969 C 6.261719 -18.628906 8.691406 -28.023438 12.582031 -28.023438 Z M 12.632812 -28.023438 "/></g></g></g><g fill="#ff80cc" fill-opacity="1"><g transform="translate(319.370761, 47.986485)"><g><path d="M 36.605469 -32.828125 C 34.933594 -26.511719 30.777344 -14.363281 28.453125 -4.265625 C 26.511719 -6.371094 18.679688 -34.394531 18.628906 -34.394531 C 17.65625 -38.171875 14.414062 -40.386719 11.121094 -40.386719 C 7.992188 -40.386719 4.859375 -38.386719 3.617188 -33.746094 C 2.160156 -28.398438 1.566406 -20.191406 1.566406 -11.824219 C 1.566406 0.378906 2.863281 12.902344 4.804688 17.277344 C 5.613281 19.058594 7.558594 20.191406 9.394531 20.191406 C 11.230469 20.191406 13.011719 19.113281 13.769531 16.523438 C 14.738281 13.445312 16.199219 -12.582031 16.199219 -22.027344 C 17.222656 -19.546875 17.761719 -15.386719 23.324219 0 C 24.40625 2.214844 25.96875 3.1875 27.429688 3.1875 C 29.101562 3.1875 30.667969 1.890625 31.207031 -0.214844 C 32.015625 -3.238281 39.199219 -20.679688 39.902344 -23.8125 C 39.304688 -19.652344 38.820312 -10.636719 38.820312 -1.945312 C 38.820312 6.210938 39.253906 14.09375 40.332031 17.332031 C 40.816406 18.734375 42.761719 19.707031 44.652344 19.707031 C 46.273438 19.707031 47.835938 19.003906 48.269531 17.167969 C 49.1875 13.066406 52.964844 -13.714844 52.964844 -26.886719 C 52.964844 -28.992188 52.859375 -30.722656 52.644531 -32.015625 C 51.671875 -37.742188 48.214844 -40.710938 44.707031 -40.710938 C 41.414062 -40.710938 38.066406 -38.117188 36.605469 -32.828125 Z M 36.605469 -32.828125 "/></g></g></g><g fill="#ff80cc" fill-opacity="1"><g transform="translate(373.358969, 47.986485)"><g><path d="M 11.933594 15.875 C 13.226562 13.875 13.875 3.078125 13.875 1.78125 C 16.035156 2.375 17.980469 2.644531 19.761719 2.644531 C 30.722656 2.644531 34.285156 -8.097656 34.285156 -17.816406 C 34.285156 -23.757812 32.988281 -29.371094 31.152344 -31.910156 C 28.347656 -35.796875 24.675781 -37.039062 21.542969 -37.039062 C 18.359375 -37.039062 15.765625 -35.796875 15.0625 -34.609375 C 14.738281 -37.039062 12.417969 -38.765625 9.933594 -38.765625 C 7.667969 -38.765625 5.292969 -37.363281 4.15625 -33.746094 C 2.914062 -29.804688 1.996094 -18.140625 1.996094 -6.804688 C 1.996094 2.539062 2.644531 11.714844 4.210938 16.089844 C 4.804688 17.441406 6.15625 18.085938 7.613281 18.085938 C 9.234375 18.085938 10.960938 17.277344 11.933594 15.875 Z M 15.171875 -30.183594 C 17.007812 -31.695312 18.574219 -32.394531 19.976562 -32.394531 C 24.1875 -32.394531 26.242188 -25.808594 26.242188 -18.574219 C 26.242188 -9.773438 23.214844 0 17.546875 0 C 16.414062 0 15.226562 -0.378906 13.929688 -1.1875 C 13.929688 -1.242188 14.632812 -29.695312 15.171875 -30.183594 Z M 15.171875 -30.183594 "/></g></g></g><g fill="#ff80cc" fill-opacity="1"><g transform="translate(408.613269, 47.986485)"><g><path d="M 3.132812 -28.238281 C 2.214844 -25.429688 1.511719 -17.980469 1.511719 -10.097656 C 1.511719 0.0546875 2.644531 11.015625 5.832031 13.820312 C 6.75 14.632812 8.261719 15.28125 10.636719 15.28125 L 11.175781 15.28125 C 15.386719 15.171875 21.703125 13.28125 21.703125 11.5 L 21.703125 11.339844 C 21.652344 11.070312 21.382812 10.960938 21.058594 10.960938 C 19.707031 10.960938 16.738281 12.417969 14.46875 12.417969 C 13.121094 12.417969 11.988281 11.878906 11.664062 10.152344 C 11.5 8.800781 11.121094 5.398438 11.121094 2.808594 C 11.121094 1.402344 11.230469 0.269531 11.5 -0.214844 C 12.308594 -1.296875 19.492188 -0.160156 19.492188 -2.589844 C 19.4375 -3.507812 18.410156 -3.726562 17.0625 -3.726562 C 15.765625 -3.726562 14.199219 -3.507812 13.011719 -3.507812 C 12.09375 -3.507812 11.445312 -3.617188 11.339844 -4.101562 C 11.121094 -4.96875 11.015625 -7.179688 11.015625 -9.933594 C 11.015625 -15.929688 11.445312 -24.40625 11.824219 -26.835938 C 11.824219 -27.644531 12.308594 -28.832031 13.011719 -28.992188 C 14.6875 -29.535156 17.0625 -29.75 19.546875 -29.75 C 20.949219 -29.75 22.351562 -29.695312 23.757812 -29.535156 C 24.621094 -29.535156 25.050781 -29.964844 25.050781 -30.558594 C 25.050781 -30.777344 25 -30.992188 24.890625 -31.261719 C 23.972656 -32.882812 19.871094 -34.015625 15.496094 -34.015625 C 10.257812 -34.015625 4.535156 -32.394531 3.132812 -28.238281 Z M 3.132812 -28.238281 "/></g></g></g><g fill="#ff80cc" fill-opacity="1"><g transform="translate(435.877305, 47.986485)"><g><path d="M 45.082031 -36.230469 C 42.652344 -37.632812 32.179688 -39.035156 21.652344 -39.035156 C 14.578125 -39.035156 7.503906 -38.386719 2.863281 -36.660156 C 1.671875 -36.230469 1.078125 -35.203125 1.078125 -34.125 C 1.078125 -32.933594 1.835938 -31.746094 3.457031 -31.261719 C 4.425781 -30.992188 13.226562 -28.777344 17.167969 -28.777344 C 16.683594 -21.703125 16.46875 -15.011719 16.46875 -8.960938 C 16.46875 9.609375 18.359375 22.460938 19.652344 23.703125 C 20.140625 25.160156 21.542969 25.753906 23.054688 25.753906 C 24.835938 25.753906 26.726562 24.945312 26.996094 23.917969 C 28.832031 17.601562 31.421875 -4.101562 31.421875 -19.761719 C 31.421875 -23.164062 31.316406 -26.292969 31.046875 -28.886719 C 34.339844 -29.210938 42.492188 -30.722656 44.921875 -31.746094 C 45.839844 -32.179688 46.378906 -33.097656 46.378906 -34.015625 C 46.378906 -34.878906 46 -35.6875 45.082031 -36.230469 Z M 45.082031 -36.230469 "/></g></g></g><g fill="#ff80cc" fill-opacity="1"><g transform="translate(483.818844, 47.986485)"><g><path d="M 3.132812 -28.238281 C 2.214844 -25.429688 1.511719 -17.980469 1.511719 -10.097656 C 1.511719 0.0546875 2.644531 11.015625 5.832031 13.820312 C 6.75 14.632812 8.261719 15.28125 10.636719 15.28125 L 11.175781 15.28125 C 15.386719 15.171875 21.703125 13.28125 21.703125 11.5 L 21.703125 11.339844 C 21.652344 11.070312 21.382812 10.960938 21.058594 10.960938 C 19.707031 10.960938 16.738281 12.417969 14.46875 12.417969 C 13.121094 12.417969 11.988281 11.878906 11.664062 10.152344 C 11.5 8.800781 11.121094 5.398438 11.121094 2.808594 C 11.121094 1.402344 11.230469 0.269531 11.5 -0.214844 C 12.308594 -1.296875 19.492188 -0.160156 19.492188 -2.589844 C 19.4375 -3.507812 18.410156 -3.726562 17.0625 -3.726562 C 15.765625 -3.726562 14.199219 -3.507812 13.011719 -3.507812 C 12.09375 -3.507812 11.445312 -3.617188 11.339844 -4.101562 C 11.121094 -4.96875 11.015625 -7.179688 11.015625 -9.933594 C 11.015625 -15.929688 11.445312 -24.40625 11.824219 -26.835938 C 11.824219 -27.644531 12.308594 -28.832031 13.011719 -28.992188 C 14.6875 -29.535156 17.0625 -29.75 19.546875 -29.75 C 20.949219 -29.75 22.351562 -29.695312 23.757812 -29.535156 C 24.621094 -29.535156 25.050781 -29.964844 25.050781 -30.558594 C 25.050781 -30.777344 25 -30.992188 24.890625 -31.261719 C 23.972656 -32.882812 19.871094 -34.015625 15.496094 -34.015625 C 10.257812 -34.015625 4.535156 -32.394531 3.132812 -28.238281 Z M 3.132812 -28.238281 "/></g></g></g><g fill="#ff80cc" fill-opacity="1"><g transform="translate(511.082881, 47.986485)"><g><path d="M 32.558594 -35.363281 C 31.046875 -28.347656 29.75 2.484375 29.695312 2.539062 C 24.40625 -11.445312 20.300781 -23.054688 14.792969 -34.015625 C 13.121094 -37.363281 11.070312 -38.496094 9.234375 -38.496094 C 6.53125 -38.496094 4.210938 -36.066406 3.78125 -34.554688 C 2.269531 -29.15625 1.457031 -19.707031 1.457031 -10.042969 C 1.457031 0.539062 2.429688 11.390625 4.375 17.761719 C 5.019531 20.300781 6.804688 21.8125 8.585938 21.8125 C 9.988281 21.8125 11.445312 20.839844 12.417969 18.628906 C 14.902344 12.742188 15.171875 -17.871094 15.386719 -19.382812 C 17.0625 -18.085938 24.132812 12.09375 32.988281 13.066406 L 33.421875 13.066406 C 41.195312 13.066406 43.519531 -11.664062 43.519531 -26.132812 C 43.519531 -30.453125 43.300781 -33.90625 42.976562 -35.472656 C 42.332031 -38.605469 40.007812 -40.332031 37.6875 -40.332031 C 35.527344 -40.332031 33.3125 -38.765625 32.558594 -35.363281 Z M 32.558594 -35.363281 "/></g></g></g><g fill="#ff80cc" fill-opacity="1"><g transform="translate(556.217047, 47.986485)"><g><path d="M 24.296875 -40.980469 L 23.8125 -40.980469 C 8.585938 -40.980469 1.511719 -24.78125 1.511719 -8.585938 C 1.511719 7.449219 8.476562 23.539062 21.382812 23.757812 C 32.773438 23.539062 36.175781 14.847656 36.390625 11.445312 L 36.390625 11.230469 C 36.390625 9.015625 34.554688 7.882812 32.613281 7.882812 C 30.667969 7.882812 28.722656 9.015625 28.507812 11.339844 C 28.074219 17.386719 24.621094 19.003906 21.921875 19.003906 L 21.757812 19.003906 C 16.199219 18.898438 13.335938 6.15625 13.335938 -7.128906 C 13.335938 -21.597656 16.738281 -36.714844 23.648438 -36.769531 L 23.703125 -36.769531 C 28.886719 -36.769531 29.859375 -29.425781 29.859375 -21.8125 C 29.859375 -19.113281 29.75 -16.359375 29.640625 -13.929688 L 29.640625 -13.445312 C 29.640625 -9.285156 31.746094 -7.613281 34.070312 -7.613281 C 36.824219 -7.613281 39.953125 -9.933594 40.277344 -13.175781 C 40.441406 -14.6875 40.546875 -16.304688 40.546875 -17.871094 C 40.546875 -29.101562 36.121094 -40.710938 24.296875 -40.980469 Z M 24.296875 -40.980469 "/></g></g></g><g fill="#ff80cc" fill-opacity="1"><g transform="translate(599.029712, 47.986485)"><g><path d="M 10.960938 14.414062 C 11.554688 13.5 13.390625 -12.957031 13.390625 -27.914062 C 13.390625 -31.316406 13.28125 -34.125 13.066406 -35.90625 C 12.742188 -38.117188 9.878906 -39.902344 7.128906 -39.902344 C 4.914062 -39.902344 2.808594 -38.765625 2.160156 -35.6875 C 1.726562 -32.503906 1.566406 -28.128906 1.566406 -23.269531 C 1.566406 -7.34375 3.402344 13.660156 4.210938 14.792969 C 5.183594 16.035156 6.316406 16.574219 7.398438 16.574219 C 8.800781 16.574219 10.152344 15.710938 10.960938 14.414062 Z M 10.960938 14.414062 "/></g></g></g><g fill="#ff80cc" fill-opacity="1"><g transform="translate(614.524324, 47.986485)"><g><path d="M 3.132812 -28.238281 C 2.214844 -25.429688 1.511719 -17.980469 1.511719 -10.097656 C 1.511719 0.0546875 2.644531 11.015625 5.832031 13.820312 C 6.75 14.632812 8.261719 15.28125 10.636719 15.28125 L 11.175781 15.28125 C 15.386719 15.171875 21.703125 13.28125 21.703125 11.5 L 21.703125 11.339844 C 21.652344 11.070312 21.382812 10.960938 21.058594 10.960938 C 19.707031 10.960938 16.738281 12.417969 14.46875 12.417969 C 13.121094 12.417969 11.988281 11.878906 11.664062 10.152344 C 11.5 8.800781 11.121094 5.398438 11.121094 2.808594 C 11.121094 1.402344 11.230469 0.269531 11.5 -0.214844 C 12.308594 -1.296875 19.492188 -0.160156 19.492188 -2.589844 C 19.4375 -3.507812 18.410156 -3.726562 17.0625 -3.726562 C 15.765625 -3.726562 14.199219 -3.507812 13.011719 -3.507812 C 12.09375 -3.507812 11.445312 -3.617188 11.339844 -4.101562 C 11.121094 -4.96875 11.015625 -7.179688 11.015625 -9.933594 C 11.015625 -15.929688 11.445312 -24.40625 11.824219 -26.835938 C 11.824219 -27.644531 12.308594 -28.832031 13.011719 -28.992188 C 14.6875 -29.535156 17.0625 -29.75 19.546875 -29.75 C 20.949219 -29.75 22.351562 -29.695312 23.757812 -29.535156 C 24.621094 -29.535156 25.050781 -29.964844 25.050781 -30.558594 C 25.050781 -30.777344 25 -30.992188 24.890625 -31.261719 C 23.972656 -32.882812 19.871094 -34.015625 15.496094 -34.015625 C 10.257812 -34.015625 4.535156 -32.394531 3.132812 -28.238281 Z M 3.132812 -28.238281 "/></g></g></g><g fill="#ff80cc" fill-opacity="1"><g transform="translate(641.78836, 47.986485)"><g><path d="M 17.0625 -36.554688 L 16.523438 -36.554688 C 7.667969 -36.554688 0.109375 -24.890625 0.109375 -13.066406 C 0.109375 -9.828125 0.703125 -6.53125 1.996094 -3.457031 C 6.910156 7.9375 20.515625 5.34375 20.679688 10.421875 L 20.679688 10.472656 C 20.679688 12.257812 17.871094 13.714844 16.25 13.769531 L 15.929688 13.769531 C 11.5 13.769531 11.933594 8.585938 7.667969 8.585938 C 7.289062 8.585938 6.855469 8.640625 6.371094 8.746094 C 5.238281 8.960938 4.589844 9.988281 4.589844 11.339844 C 4.589844 14.09375 7.449219 18.195312 14.46875 18.734375 L 15.171875 18.734375 C 19.976562 18.734375 25.753906 15.0625 25.753906 10.3125 C 25.644531 -0.378906 11.285156 2.699219 8.585938 -14.09375 C 8.476562 -14.6875 8.421875 -15.710938 8.421875 -16.898438 C 8.421875 -21.164062 9.394531 -28.128906 14.253906 -30.289062 C 14.738281 -30.503906 15.117188 -30.613281 15.496094 -30.613281 C 17.925781 -30.613281 18.359375 -26.347656 18.359375 -21.542969 C 18.359375 -19.058594 18.25 -16.359375 18.25 -14.09375 C 18.25 -12.527344 18.304688 -11.175781 18.464844 -10.203125 C 18.898438 -7.882812 20.355469 -6.910156 21.867188 -6.910156 C 23.214844 -6.910156 24.621094 -7.667969 25.484375 -8.910156 C 27.210938 -11.390625 28.292969 -15.765625 28.292969 -20.300781 C 28.292969 -27.96875 25.214844 -36.066406 17.0625 -36.554688 Z M 17.0625 -36.554688 "/></g></g></g><path stroke-linecap="butt" transform="matrix(0.75, 0, 0, 0.75, 3.750013, 8.850006)" fill="none" stroke-linejoin="miter" d="M 25.401026 0.262492 L 24.677068 0.262492 C 12.8854 0.262492 2.796858 15.814577 2.796858 31.580203 C 2.796858 35.908329 3.588524 40.283329 5.328108 44.392704 C 11.864567 59.580206 30.005193 56.137497 30.23436 62.903123 L 30.23436 62.970831 C 30.23436 65.345831 26.489568 67.278123 24.328109 67.35104 L 23.885401 67.35104 C 17.984359 67.35104 18.562484 60.439581 12.8854 60.439581 C 12.374983 60.439581 11.796858 60.512497 11.145817 60.668747 C 9.6354 60.949997 8.770816 62.319789 8.770816 64.116664 C 8.770816 67.78854 12.588525 73.252082 21.953109 73.97604 L 22.885401 73.97604 C 29.302068 73.97604 36.999985 69.090623 36.999985 62.741664 C 36.85936 48.491663 17.703109 52.601038 14.098942 30.210412 C 13.958317 29.418745 13.8854 28.048953 13.8854 26.46562 C 13.8854 20.772911 15.187484 11.49166 21.656234 8.611451 C 22.307276 8.330201 22.817693 8.189576 23.322901 8.189576 C 26.557276 8.189576 27.14061 13.86666 27.14061 20.283327 C 27.14061 23.585411 26.979151 27.189578 26.979151 30.210412 C 26.979151 32.304162 27.067693 34.095828 27.281235 35.397912 C 27.85936 38.491662 29.791652 39.788537 31.812485 39.788537 C 33.60936 39.788537 35.489569 38.772912 36.630194 37.116662 C 38.932277 33.814578 40.374986 27.981245 40.374986 21.934369 C 40.374986 11.705202 36.276027 0.913534 25.401026 0.262492 Z M 62.255196 -0.669799 C 61.463529 -3.690633 58.296862 -5.570841 54.994779 -5.570841 C 52.322903 -5.570841 49.598945 -4.341675 48.067695 -1.461466 C 45.276028 4.007284 43.833319 24.673953 43.833319 43.465621 C 43.833319 58.137497 44.697903 71.60104 46.48957 75.783332 C 47.437486 78.017707 50.73957 79.741666 53.411445 79.741666 C 54.994779 79.741666 56.276029 79.158332 56.786445 77.861457 C 58.510404 73.554165 59.302071 60.371872 59.390612 56.996872 C 59.390612 56.996872 62.973946 56.62708 65.859363 53.606247 C 70.18228 60.809372 71.973947 69.298956 72.692697 73.252082 C 73.203113 75.996874 75.505197 77.298957 78.109364 77.298957 C 81.848947 77.298957 86.156239 74.627082 86.229156 70.090623 L 86.229156 69.809373 C 86.229156 64.257289 82.484364 53.746872 74.786447 45.835413 C 82.713531 36.694787 88.53124 17.752077 88.53124 2.496868 L 88.53124 0.616659 C 88.458323 -1.529174 86.666656 -2.617716 84.942698 -2.617716 C 83.364573 -2.617716 81.921864 -1.690633 81.921864 0.121867 L 81.921864 0.335409 C 81.411447 3.283326 79.177072 43.606246 60.249987 51.741663 C 60.249987 51.673955 63.046863 25.960411 63.046863 9.840618 C 63.046863 5.309368 62.833321 1.491659 62.255196 -0.669799 Z M 105.010408 68.22604 C 105.817699 66.996873 108.260408 31.720828 108.260408 11.77291 C 108.260408 7.24166 108.119783 3.496868 107.822908 1.121867 C 107.401033 -1.831258 103.588533 -4.20105 99.911449 -4.20105 C 96.958324 -4.20105 94.151032 -2.690633 93.286448 1.423951 C 92.708323 5.658326 92.494782 11.49166 92.494782 17.981244 C 92.494782 39.210412 94.93749 67.210415 96.010407 68.720831 C 97.31249 70.387498 98.822907 71.090623 100.265616 71.090623 C 102.145824 71.090623 103.937491 69.949998 105.010408 68.22604 Z M 128.708326 5.377076 C 127.619784 1.913534 124.666659 0.543742 121.645826 0.543742 C 118.041659 0.543742 114.369783 2.564576 113.947908 5.517701 C 113.296867 10.262493 113.015617 15.887494 113.015617 21.720827 C 113.015617 39.210412 115.390617 58.929164 116.968742 64.694789 C 117.97395 69.231248 122.807284 70.60104 129.994785 70.60104 C 134.38541 70.60104 139.57291 70.090623 145.406244 69.512498 C 146.479161 69.371873 147.338536 68.861456 147.411453 67.715623 C 147.411453 63.903123 134.968743 63.903123 128.989576 62.095831 C 127.619784 61.741664 127.041659 61.090622 127.041659 59.861456 C 127.041659 59.653122 127.109368 59.439581 127.109368 59.231247 C 127.833326 52.955205 129.499993 30.720828 129.499993 16.465619 C 129.499993 11.351035 129.270826 7.24166 128.708326 5.377076 Z M 169.166663 5.377076 C 168.078121 1.913534 165.124996 0.543742 162.098954 0.543742 C 158.494787 0.543742 154.822912 2.564576 154.401037 5.517701 C 153.749995 10.262493 153.468745 15.887494 153.468745 21.720827 C 153.468745 39.210412 155.843745 58.929164 157.427079 64.694789 C 158.427079 69.231248 163.260412 70.60104 170.447913 70.60104 C 174.843747 70.60104 180.026039 70.090623 185.864581 69.512498 C 186.932289 69.371873 187.796873 68.861456 187.864581 67.715623 C 187.864581 63.903123 175.421872 63.903123 169.447913 62.095831 C 168.078121 61.741664 167.494788 61.090622 167.494788 59.861456 C 167.494788 59.653122 167.567704 59.439581 167.567704 59.231247 C 168.286454 52.955205 169.95833 30.720828 169.95833 16.465619 C 169.95833 11.351035 169.729163 7.24166 169.166663 5.377076 Z M 214.71875 0.262492 L 213.994792 0.262492 C 202.203124 0.262492 192.114581 15.814577 192.114581 31.580203 C 192.114581 35.908329 192.906248 40.283329 194.645832 44.392704 C 201.182291 59.580206 219.322917 56.137497 219.552084 62.903123 L 219.552084 62.970831 C 219.552084 65.345831 215.807292 67.278123 213.645833 67.35104 L 213.208333 67.35104 C 207.302083 67.35104 207.880208 60.439581 202.203124 60.439581 C 201.692707 60.439581 201.114582 60.512497 200.46354 60.668747 C 198.953124 60.949997 198.093749 62.319789 198.093749 64.116664 C 198.093749 67.78854 201.906249 73.252082 211.270833 73.97604 L 212.203125 73.97604 C 218.619792 73.97604 226.317709 69.090623 226.317709 62.741664 C 226.177084 48.491663 207.020833 52.601038 203.416666 30.210412 C 203.276041 29.418745 203.208332 28.048953 203.208332 26.46562 C 203.208332 20.772911 204.505207 11.49166 210.973958 8.611451 C 211.625 8.330201 212.135416 8.189576 212.645833 8.189576 C 215.880208 8.189576 216.458333 13.86666 216.458333 20.283327 C 216.458333 23.585411 216.302083 27.189578 216.302083 30.210412 C 216.302083 32.304162 216.385417 34.095828 216.598958 35.397912 C 217.177083 38.491662 219.109375 39.788537 221.135417 39.788537 C 222.927084 39.788537 224.807292 38.772912 225.947918 37.116662 C 228.250001 33.814578 229.692709 27.981245 229.692709 21.934369 C 229.692709 11.705202 225.598959 0.913534 214.71875 0.262492 Z M 299.307299 70.809373 L 298.166673 70.809373 Z M 292.187506 68.06979 C 290.588548 67.574998 289.078131 66.788539 287.635423 65.767706 C 291.67709 61.741664 295.562507 56.048955 299.093757 48.418746 C 300.468757 45.324996 291.536465 44.976038 290.098964 47.418746 C 286.843756 52.81458 283.979172 57.069789 281.380214 60.371872 C 278.005213 56.699997 275.125005 52.53333 272.750005 48.210413 C 280.958339 38.210412 291.609381 28.632286 292.031256 15.095827 C 292.468756 3.934368 283.104172 -3.550008 274.822922 -3.992716 C 257.333337 -4.779175 243.802086 14.58541 261.661462 48.069788 C 257.546878 53.606247 252.01042 62.179164 256.333337 68.949998 C 259.848962 74.41354 270.656255 77.94479 281.89063 70.60104 C 285.703131 72.533332 289.796881 73.554165 294.192715 73.252082 C 295.635423 73.111457 299.234382 72.830207 299.307299 70.741665 C 299.307299 68.298956 292.187506 68.06979 292.187506 68.06979 Z M 266.192712 11.845827 C 268.057296 4.658326 272.89063 0.616659 273.541671 0.981242 C 281.026047 5.309368 284.911464 19.632286 268.635421 39.351037 C 265.333337 30.564578 263.890629 20.845827 266.192712 11.845827 Z M 267.125004 56.929164 C 269.567713 60.298956 272.45313 63.606248 275.70313 66.345831 C 266.333337 74.13229 263.380212 65.205206 267.125004 56.929164 Z M 352.859386 -5.643758 L 352.208345 -5.643758 C 331.90626 -5.643758 322.489592 15.955202 322.489592 37.55937 C 322.489592 58.929164 331.765635 80.392707 348.973969 80.673957 C 364.16147 80.392707 368.692721 68.78854 368.994804 64.257289 L 368.994804 63.976039 C 368.994804 61.022914 366.531262 59.512497 363.947929 59.512497 C 361.364595 59.512497 358.765637 61.022914 358.484387 64.116664 C 357.901053 72.184373 353.296886 74.345832 349.692719 74.345832 L 349.484386 74.345832 C 342.067719 74.205207 338.255218 57.210414 338.255218 39.491662 C 338.255218 20.210411 342.786469 0.054159 352.000011 -0.0187576 L 352.067719 -0.0187576 C 358.97397 -0.0187576 360.276053 9.77291 360.276053 19.913536 C 360.276053 23.517703 360.135428 27.189578 359.994803 30.423953 L 359.994803 31.074995 C 359.994803 36.611454 362.791679 38.840621 365.901054 38.840621 C 369.557304 38.840621 373.739596 35.74687 374.177096 31.439578 C 374.390638 29.418745 374.531263 27.257286 374.531263 25.168744 C 374.531263 10.194785 368.625013 -5.273966 352.859386 -5.643758 Z M 394.473973 65.205206 L 394.755223 65.205206 C 408.729182 65.205206 415.567725 47.996871 415.567725 31.512495 C 415.567725 16.465619 409.869808 2.054159 398.572932 1.772909 L 398.130223 1.772909 C 384.687514 1.772909 378.708347 18.048952 378.708347 34.095828 C 378.708347 49.647913 384.317722 65.048956 394.473973 65.205206 Z M 394.385431 11.632285 C 399.010432 11.77291 401.083348 20.929161 401.083348 30.65312 C 401.083348 41.949996 398.291682 54.116663 393.385431 54.116663 L 393.244806 54.116663 C 388.130222 53.903122 385.901056 45.116663 385.901056 35.606245 C 385.901056 24.163536 389.135431 11.632285 394.317723 11.632285 Z M 466.453146 5.236451 C 464.21877 13.653118 458.68752 29.84062 455.59377 43.304163 C 452.989603 40.512496 442.552102 3.142701 442.479185 3.142701 C 441.177102 -1.898966 436.875018 -4.852091 432.479184 -4.852091 C 428.296892 -4.852091 424.130225 -2.180216 422.463559 4.007284 C 420.526058 11.142702 419.7396 22.074994 419.7396 33.236453 C 419.7396 49.507288 421.45835 66.205206 424.062517 72.043748 C 425.135434 74.41354 427.718767 75.923957 430.177101 75.923957 C 432.619809 75.923957 434.99481 74.486457 435.99481 71.022915 C 437.296893 66.929165 439.24481 32.231245 439.24481 19.632286 C 440.614602 22.934369 441.33856 28.491661 448.739602 49.00208 C 450.177103 51.955205 452.270853 53.25208 454.21877 53.25208 C 456.453145 53.25208 458.546895 51.512497 459.244812 48.72083 C 460.338562 44.673954 469.916687 21.423952 470.848979 17.257285 C 470.057312 22.793744 469.406271 34.814579 469.406271 46.418746 C 469.406271 57.278122 469.984396 67.78854 471.427104 72.111457 C 472.078146 73.97604 474.66148 75.278124 477.177105 75.278124 C 479.338563 75.278124 481.427105 74.345832 482.010438 71.903123 C 483.218772 66.418748 488.265647 30.720828 488.265647 13.14791 C 488.265647 10.33541 488.125022 8.033326 487.843772 6.309368 C 486.541689 -1.320841 481.937522 -5.273966 477.244813 -5.273966 C 472.869813 -5.273966 468.406271 -1.831258 466.453146 5.236451 Z M 505.536482 70.16354 C 507.276066 67.50729 508.135441 53.09583 508.135441 51.371872 C 511.020857 52.163538 513.604191 52.53333 515.973983 52.53333 C 530.598984 52.53333 535.343776 38.210412 535.343776 25.236453 C 535.343776 17.330202 533.619818 9.840618 531.161484 6.449993 C 527.416692 1.262492 522.531275 -0.388549 518.348983 -0.388549 C 514.114608 -0.388549 510.651066 1.262492 509.718774 2.845826 C 509.281274 -0.388549 506.187524 -2.690633 502.880232 -2.690633 C 499.859398 -2.690633 496.677106 -0.810424 495.16669 4.007284 C 493.515648 9.262493 492.302106 24.814578 492.302106 39.929162 C 492.302106 52.392705 493.161481 64.627081 495.234398 70.460415 C 496.046898 72.252082 497.838565 73.111457 499.786482 73.111457 C 501.932315 73.111457 504.234399 72.043748 505.536482 70.16354 Z M 509.859399 8.752076 C 512.302108 6.746868 514.395858 5.798951 516.276066 5.798951 C 521.880233 5.798951 524.625025 14.58541 524.625025 24.236453 C 524.625025 35.976037 520.583358 49.00208 513.020858 49.00208 C 511.510441 49.00208 509.932316 48.491663 508.208357 47.418746 C 508.208357 47.34583 509.140649 9.403118 509.859399 8.752076 Z M 540.817735 11.351035 C 539.588568 15.095827 538.656276 25.028119 538.656276 35.538537 C 538.656276 49.069788 540.166693 63.694789 544.406277 67.434373 C 545.635444 68.50729 547.656277 69.371873 550.817736 69.371873 L 551.541694 69.371873 C 557.145861 69.231248 565.583362 66.715623 565.583362 64.324998 L 565.583362 64.116664 C 565.49482 63.762498 565.145862 63.606248 564.703154 63.606248 C 562.911487 63.606248 558.958361 65.554164 555.932319 65.554164 C 554.125028 65.554164 552.614611 64.835414 552.192736 62.533331 C 551.963569 60.741664 551.468777 56.205205 551.468777 52.741663 C 551.468777 50.861455 551.609402 49.351038 551.963569 48.72083 C 553.052111 47.278121 562.630237 48.788538 562.630237 45.538538 C 562.55732 44.324996 561.187528 44.028121 559.380236 44.028121 C 557.656278 44.028121 555.562528 44.324996 553.984403 44.324996 C 552.770861 44.324996 551.890652 44.184371 551.750027 43.533329 C 551.468777 42.371871 551.328152 39.418746 551.328152 35.74687 C 551.328152 27.767703 551.890652 16.465619 552.401069 13.215618 C 552.401069 12.142702 553.052111 10.564577 553.984403 10.33541 C 556.213569 9.611451 559.380236 9.330201 562.697945 9.330201 C 564.562529 9.330201 566.442737 9.403118 568.30732 9.611451 C 569.468779 9.611451 570.046904 9.048951 570.046904 8.257285 C 570.046904 7.96041 569.958362 7.67916 569.817737 7.309368 C 568.604196 5.168743 563.11982 3.653118 557.30732 3.653118 C 550.307319 3.653118 542.682318 5.798951 540.817735 11.351035 Z M 633.098992 0.699992 C 629.864617 -1.180216 615.890658 -3.039591 601.84899 -3.039591 C 592.427114 -3.039591 582.989613 -2.180216 576.802113 0.121867 C 575.218779 0.699992 574.427113 2.054159 574.427113 3.496868 C 574.427113 5.080201 575.432321 6.67916 577.59378 7.309368 C 578.890655 7.67916 590.635447 10.632285 595.890656 10.632285 C 595.239614 20.054161 594.937531 28.981245 594.937531 37.048954 C 594.937531 61.814581 597.468781 78.949999 599.19274 80.601041 C 599.843781 82.554166 601.708365 83.340624 603.729198 83.340624 C 606.09899 83.340624 608.63024 82.252082 608.984407 80.897916 C 611.427116 72.465623 614.890658 43.533329 614.890658 22.653119 C 614.890658 18.121869 614.750033 13.934369 614.380241 10.49166 C 618.770866 10.05416 629.651075 8.033326 632.885451 6.67916 C 634.098993 6.095826 634.817743 4.866659 634.817743 3.653118 C 634.817743 2.496868 634.328159 1.423951 633.098992 0.699992 Z M 641.093785 11.351035 C 639.864618 15.095827 638.932326 25.028119 638.932326 35.538537 C 638.932326 49.069788 640.442743 63.694789 644.677118 67.434373 C 645.906285 68.50729 647.932327 69.371873 651.093786 69.371873 L 651.812536 69.371873 C 657.421911 69.231248 665.859412 66.715623 665.859412 64.324998 L 665.859412 64.116664 C 665.77087 63.762498 665.416703 63.606248 664.979203 63.606248 C 663.187537 63.606248 659.229203 65.554164 656.208369 65.554164 C 654.395869 65.554164 652.885452 64.835414 652.463577 62.533331 C 652.234411 60.741664 651.744827 56.205205 651.744827 52.741663 C 651.744827 50.861455 651.885452 49.351038 652.234411 48.72083 C 653.328161 47.278121 662.906287 48.788538 662.906287 45.538538 C 662.83337 44.324996 661.463578 44.028121 659.651078 44.028121 C 657.932328 44.028121 655.838578 44.324996 654.255244 44.324996 C 653.046911 44.324996 652.166702 44.184371 652.026077 43.533329 C 651.744827 42.371871 651.604202 39.418746 651.604202 35.74687 C 651.604202 27.767703 652.166702 16.465619 652.677119 13.215618 C 652.677119 12.142702 653.328161 10.564577 654.255244 10.33541 C 656.489619 9.611451 659.651078 9.330201 662.973995 9.330201 C 664.838578 9.330201 666.718787 9.403118 668.58337 9.611451 C 669.73962 9.611451 670.322954 9.048951 670.322954 8.257285 C 670.322954 7.96041 670.234412 7.67916 670.093787 7.309368 C 668.880245 5.168743 663.39587 3.653118 657.578161 3.653118 C 650.583369 3.653118 642.958368 5.798951 641.093785 11.351035 Z M 716.671916 1.845826 C 714.651082 11.21041 712.932332 52.304163 712.859416 52.392705 C 705.796915 33.74687 700.328165 18.262494 692.984414 3.653118 C 690.750039 -0.810424 688.02608 -2.320841 685.562538 -2.320841 C 681.979205 -2.320841 678.86983 0.913534 678.307329 2.934368 C 676.286496 10.121868 675.213579 22.726036 675.213579 35.606245 C 675.213579 49.72083 676.494829 64.184373 679.098996 72.689582 C 679.958371 76.064582 682.333371 78.085415 684.703163 78.085415 C 686.583372 78.085415 688.515664 76.78854 689.817747 73.835415 C 693.125039 65.996873 693.489622 25.168744 693.770872 23.163536 C 696.005248 24.887494 705.442748 65.132289 717.255249 66.418748 L 717.817749 66.418748 C 728.187542 66.418748 731.281292 33.444787 731.281292 14.163535 C 731.281292 8.39791 731.000042 3.793743 730.557334 1.705201 C 729.697959 -2.477091 726.604208 -4.779175 723.510458 -4.779175 C 720.63025 -4.779175 717.677124 -2.690633 716.671916 1.845826 Z M 765.833378 -5.643758 L 765.182337 -5.643758 C 744.880252 -5.643758 735.463584 15.955202 735.463584 37.55937 C 735.463584 58.929164 744.739627 80.392707 761.947961 80.673957 C 777.135463 80.392707 781.666713 68.78854 781.968796 64.257289 L 781.968796 63.976039 C 781.968796 61.022914 779.505254 59.512497 776.921921 59.512497 C 774.338587 59.512497 771.739629 61.022914 771.458379 64.116664 C 770.875045 72.184373 766.270878 74.345832 762.666711 74.345832 L 762.458378 74.345832 C 755.041711 74.205207 751.22921 57.210414 751.22921 39.491662 C 751.22921 20.210411 755.760461 0.054159 764.974003 -0.0187576 L 765.041712 -0.0187576 C 771.947962 -0.0187576 773.250046 9.77291 773.250046 19.913536 C 773.250046 23.517703 773.109421 27.189578 772.968796 30.423953 L 772.968796 31.074995 C 772.968796 36.611454 775.760462 38.840621 778.875046 38.840621 C 782.531296 38.840621 786.713588 35.74687 787.151088 31.439578 C 787.36463 29.418745 787.505255 27.257286 787.505255 25.168744 C 787.505255 10.194785 781.599005 -5.273966 765.833378 -5.643758 Z M 805.130256 68.22604 C 805.937548 66.996873 808.380257 31.720828 808.380257 11.77291 C 808.380257 7.24166 808.239632 3.496868 807.942757 1.121867 C 807.520882 -1.831258 803.708381 -4.20105 800.031298 -4.20105 C 797.078173 -4.20105 794.265672 -2.690633 793.406297 1.423951 C 792.828172 5.658326 792.61463 11.49166 792.61463 17.981244 C 792.61463 39.210412 795.057339 67.210415 796.130256 68.720831 C 797.432339 70.387498 798.942756 71.090623 800.385464 71.090623 C 802.265673 71.090623 804.05734 69.949998 805.130256 68.22604 Z M 815.364632 11.351035 C 814.135466 15.095827 813.203174 25.028119 813.203174 35.538537 C 813.203174 49.069788 814.718799 63.694789 818.953174 67.434373 C 820.182341 68.50729 822.203175 69.371873 825.369841 69.371873 L 826.088592 69.371873 C 831.692759 69.231248 840.130259 66.715623 840.130259 64.324998 L 840.130259 64.116664 C 840.041718 63.762498 839.692759 63.606248 839.250051 63.606248 C 837.458384 63.606248 833.505259 65.554164 830.484425 65.554164 C 828.671925 65.554164 827.161508 64.835414 826.739633 62.533331 C 826.510467 60.741664 826.015675 56.205205 826.015675 52.741663 C 826.015675 50.861455 826.1563 49.351038 826.510467 48.72083 C 827.599008 47.278121 837.177134 48.788538 837.177134 45.538538 C 837.109426 44.324996 835.739634 44.028121 833.927134 44.028121 C 832.203175 44.028121 830.114634 44.324996 828.5313 44.324996 C 827.317758 44.324996 826.43755 44.184371 826.296925 43.533329 C 826.015675 42.371871 825.87505 39.418746 825.87505 35.74687 C 825.87505 27.767703 826.43755 16.465619 826.947967 13.215618 C 826.947967 12.142702 827.599008 10.564577 828.5313 10.33541 C 830.765675 9.611451 833.927134 9.330201 837.250051 9.330201 C 839.109426 9.330201 840.989634 9.403118 842.854218 9.611451 C 844.015676 9.611451 844.593801 9.048951 844.593801 8.257285 C 844.593801 7.96041 844.50526 7.67916 844.364635 7.309368 C 843.156301 5.168743 837.671926 3.653118 831.854217 3.653118 C 824.859425 3.653118 817.229216 5.798951 815.364632 11.351035 Z M 870.281303 0.262492 L 869.557345 0.262492 C 857.765677 0.262492 847.677135 15.814577 847.677135 31.580203 C 847.677135 35.908329 848.468802 40.283329 850.208385 44.392704 C 856.744844 59.580206 874.885471 56.137497 875.114637 62.903123 L 875.114637 62.970831 C 875.114637 65.345831 871.369845 67.278123 869.208387 67.35104 L 868.765678 67.35104 C 862.859428 67.35104 863.442761 60.439581 857.765677 60.439581 C 857.255261 60.439581 856.677136 60.512497 856.026094 60.668747 C 854.515677 60.949997 853.651094 62.319789 853.651094 64.116664 C 853.651094 67.78854 857.463594 73.252082 866.833387 73.97604 L 867.765678 73.97604 C 874.182345 73.97604 881.880263 69.090623 881.880263 62.741664 C 881.739638 48.491663 862.578178 52.601038 858.979219 30.210412 C 858.838594 29.418745 858.765678 28.048953 858.765678 26.46562 C 858.765678 20.772911 860.067761 11.49166 866.536512 8.611451 C 867.187553 8.330201 867.692762 8.189576 868.203178 8.189576 C 871.437554 8.189576 872.020887 13.86666 872.020887 20.283327 C 872.020887 23.585411 871.859429 27.189578 871.859429 30.210412 C 871.859429 32.304162 871.94797 34.095828 872.161512 35.397912 C 872.739637 38.491662 874.671929 39.788537 876.692762 39.788537 C 878.484429 39.788537 880.369846 38.772912 881.510471 37.116662 C 883.812555 33.814578 885.255263 27.981245 885.255263 21.934369 C 885.255263 11.705202 881.156304 0.913534 870.281303 0.262492 Z M 870.281303 0.262492 " stroke="#ff0099" stroke-width="2.699996" stroke-opacity="1" stroke-miterlimit="4"/></svg>