<svg xmlns="http://www.w3.org/2000/svg" xmlns:xlink="http://www.w3.org/1999/xlink" width="600" zoomAndPan="magnify" viewBox="0 0 450 74.999997" height="100" preserveAspectRatio="xMidYMid meet" version="1.0"><defs><g/><clipPath id="daf5408901"><path d="M 14 4.730469 L 53.855469 4.730469 L 53.855469 60 L 14 60 Z M 14 4.730469 " clip-rule="nonzero"/></clipPath><clipPath id="e725d7c9da"><path d="M 43 4.730469 L 53.855469 4.730469 L 53.855469 16 L 43 16 Z M 43 4.730469 " clip-rule="nonzero"/></clipPath><clipPath id="5e4c5a7cd6"><path d="M 5.105469 14 L 45 14 L 45 69.230469 L 5.105469 69.230469 Z M 5.105469 14 " clip-rule="nonzero"/></clipPath><clipPath id="2c685499ff"><path d="M 34.769531 34.519531 L 62.519531 34.519531 L 62.519531 70.519531 L 34.769531 70.519531 Z M 34.769531 34.519531 " clip-rule="nonzero"/></clipPath></defs><path fill="#2f81f7" d="M 68.8125 59.800781 L 431.859375 59.800781 L 431.859375 65.050781 L 68.8125 65.050781 Z M 68.8125 59.800781 " fill-opacity="1" fill-rule="nonzero"/><g fill="#2f81f7" fill-opacity="1"><g transform="translate(68.811471, 56.799999)"><g><path d="M 23.140625 -46.398438 C 22.445312 -46.398438 22.039062 -46.050781 21.863281 -45.355469 L 15.71875 -14.265625 L 9.628906 -45.355469 C 9.453125 -46.050781 9.046875 -46.398438 8.351562 -46.398438 L 2.84375 -46.398438 C 1.972656 -46.398438 1.625 -45.933594 1.796875 -45.121094 L 11.542969 -1.042969 C 11.714844 -0.347656 12.121094 0 12.816406 0 L 18.617188 0 C 19.3125 0 19.71875 -0.347656 19.894531 -1.042969 L 29.695312 -45.121094 C 29.867188 -45.933594 29.519531 -46.398438 28.652344 -46.398438 Z M 23.140625 -46.398438 "/></g></g></g><g fill="#2f81f7" fill-opacity="1"><g transform="translate(100.303378, 56.799999)"><g><path d="M 3.828125 -46.398438 C 3.191406 -46.398438 2.898438 -46.050781 2.898438 -45.46875 L 2.898438 -0.929688 C 2.898438 -0.347656 3.191406 0 3.828125 0 L 9.859375 0 C 10.441406 0 10.789062 -0.347656 10.789062 -0.929688 L 10.789062 -45.46875 C 10.789062 -46.050781 10.441406 -46.398438 9.859375 -46.398438 Z M 3.828125 -46.398438 "/></g></g></g><g fill="#2f81f7" fill-opacity="1"><g transform="translate(113.990465, 56.799999)"><g><path d="M 26.039062 -45.46875 C 26.039062 -46.050781 25.808594 -46.398438 25.113281 -46.398438 L 3.769531 -46.398438 C 3.246094 -46.398438 2.898438 -46.050781 2.898438 -45.46875 L 2.898438 -0.929688 C 2.898438 -0.347656 3.246094 0 3.769531 0 L 25.113281 0 C 25.808594 0 26.039062 -0.347656 26.039062 -0.929688 L 26.039062 -6.726562 C 26.039062 -7.367188 25.808594 -7.65625 25.113281 -7.65625 L 10.613281 -7.65625 L 10.613281 -19.371094 L 21.691406 -19.371094 C 22.269531 -19.371094 22.617188 -19.71875 22.617188 -20.355469 L 22.617188 -26.097656 C 22.617188 -26.738281 22.269531 -27.085938 21.691406 -27.085938 L 10.613281 -27.085938 L 10.613281 -38.683594 L 25.113281 -38.683594 C 25.808594 -38.683594 26.039062 -39.089844 26.039062 -39.671875 Z M 26.039062 -45.46875 "/></g></g></g><g fill="#2f81f7" fill-opacity="1"><g transform="translate(142.930545, 56.799999)"><g><path d="M 34.625 -46.398438 C 33.929688 -46.398438 33.464844 -45.992188 33.40625 -45.296875 L 31.027344 -18.152344 L 30.738281 -18.152344 L 25.054688 -45.355469 C 24.882812 -46.050781 24.476562 -46.398438 23.777344 -46.398438 L 20.300781 -46.398438 C 19.601562 -46.398438 19.195312 -46.050781 19.023438 -45.355469 L 13.28125 -18.152344 L 12.992188 -18.152344 L 10.730469 -45.296875 C 10.671875 -45.992188 10.207031 -46.398438 9.511719 -46.398438 L 4 -46.398438 C 3.246094 -46.398438 2.84375 -45.933594 2.898438 -45.179688 L 7.65625 -1.101562 C 7.714844 -0.347656 8.121094 0 8.875 0 L 14.671875 0 C 15.371094 0 15.773438 -0.347656 15.949219 -0.984375 L 22.039062 -27.257812 L 28.070312 -1.042969 C 28.246094 -0.347656 28.652344 0 29.347656 0 L 35.03125 0 C 35.785156 0 36.191406 -0.347656 36.25 -1.101562 L 41.234375 -45.179688 C 41.292969 -45.933594 40.886719 -46.398438 40.132812 -46.398438 Z M 34.625 -46.398438 "/></g></g></g><g fill="#2f81f7" fill-opacity="1"><g transform="translate(187.06562, 56.799999)"><g/></g></g><g fill="#2f81f7" fill-opacity="1"><g transform="translate(201.564654, 56.799999)"><g><path d="M 2.898438 -0.929688 C 2.898438 -0.347656 3.246094 0 3.828125 0 L 9.859375 0 C 10.496094 0 10.789062 -0.347656 10.789062 -0.929688 L 10.789062 -15.542969 L 17.746094 -15.542969 C 23.199219 -15.542969 26.097656 -18.5 26.097656 -23.894531 L 26.097656 -38.046875 C 26.097656 -43.5 23.199219 -46.398438 17.746094 -46.398438 L 3.828125 -46.398438 C 3.246094 -46.398438 2.898438 -46.050781 2.898438 -45.46875 Z M 10.789062 -23.199219 L 10.789062 -38.742188 L 15.890625 -38.742188 C 17.457031 -38.742188 18.210938 -37.929688 18.210938 -36.421875 L 18.210938 -25.519531 C 18.210938 -24.070312 17.457031 -23.199219 15.890625 -23.199219 Z M 10.789062 -23.199219 "/></g></g></g><g fill="#2f81f7" fill-opacity="1"><g transform="translate(230.562733, 56.799999)"><g><path d="M 26.738281 -38.046875 C 26.738281 -43.5 23.835938 -46.398438 18.386719 -46.398438 L 3.828125 -46.398438 C 3.246094 -46.398438 2.898438 -46.050781 2.898438 -45.46875 L 2.898438 -0.929688 C 2.898438 -0.347656 3.246094 0 3.828125 0 L 9.859375 0 C 10.441406 0 10.789062 -0.347656 10.789062 -0.929688 L 10.789062 -15.542969 L 14.789062 -15.542969 L 18.675781 -0.8125 C 18.792969 -0.289062 19.082031 0 19.660156 0 L 25.691406 0 C 26.332031 0 26.679688 -0.347656 26.503906 -1.042969 L 22.503906 -16.238281 C 25.285156 -17.457031 26.738281 -20.007812 26.738281 -23.894531 Z M 10.789062 -23.199219 L 10.789062 -38.742188 L 16.527344 -38.742188 C 18.039062 -38.742188 18.847656 -37.929688 18.847656 -36.421875 L 18.847656 -25.519531 C 18.847656 -24.011719 18.039062 -23.199219 16.527344 -23.199219 Z M 10.789062 -23.199219 "/></g></g></g><g fill="#2f81f7" fill-opacity="1"><g transform="translate(260.198762, 56.799999)"><g><path d="M 2.898438 -8.351562 C 2.898438 -2.898438 5.800781 0 11.25 0 L 17.746094 0 C 23.199219 0 26.097656 -2.898438 26.097656 -8.351562 L 26.097656 -38.046875 C 26.097656 -43.5 23.199219 -46.398438 17.746094 -46.398438 L 11.25 -46.398438 C 5.800781 -46.398438 2.898438 -43.5 2.898438 -38.046875 Z M 12.933594 -7.480469 C 11.425781 -7.480469 10.613281 -8.234375 10.613281 -9.800781 L 10.613281 -36.597656 C 10.613281 -38.105469 11.425781 -38.917969 12.933594 -38.917969 L 16.296875 -38.917969 C 17.804688 -38.917969 18.617188 -38.105469 18.617188 -36.597656 L 18.617188 -9.800781 C 18.617188 -8.234375 17.804688 -7.480469 16.296875 -7.480469 Z M 12.933594 -7.480469 "/></g></g></g><g fill="#2f81f7" fill-opacity="1"><g transform="translate(289.196829, 56.799999)"><g><path d="M 18.210938 -9.976562 C 18.210938 -8.46875 17.398438 -7.65625 15.890625 -7.65625 L 12.875 -7.65625 C 11.367188 -7.65625 10.554688 -8.46875 10.554688 -9.976562 L 10.554688 -14.382812 C 10.554688 -14.964844 10.207031 -15.3125 9.628906 -15.3125 L 3.828125 -15.3125 C 3.191406 -15.3125 2.898438 -14.964844 2.898438 -14.382812 L 2.898438 -8.351562 C 2.898438 -2.898438 5.800781 0 11.25 0 L 17.746094 0 C 23.140625 0 26.097656 -2.898438 26.097656 -8.351562 L 26.097656 -45.46875 C 26.097656 -46.050781 25.75 -46.398438 25.171875 -46.398438 L 19.140625 -46.398438 C 18.5 -46.398438 18.210938 -46.050781 18.210938 -45.46875 Z M 18.210938 -9.976562 "/></g></g></g><g fill="#2f81f7" fill-opacity="1"><g transform="translate(318.19492, 56.799999)"><g><path d="M 26.039062 -45.46875 C 26.039062 -46.050781 25.808594 -46.398438 25.113281 -46.398438 L 3.769531 -46.398438 C 3.246094 -46.398438 2.898438 -46.050781 2.898438 -45.46875 L 2.898438 -0.929688 C 2.898438 -0.347656 3.246094 0 3.769531 0 L 25.113281 0 C 25.808594 0 26.039062 -0.347656 26.039062 -0.929688 L 26.039062 -6.726562 C 26.039062 -7.367188 25.808594 -7.65625 25.113281 -7.65625 L 10.613281 -7.65625 L 10.613281 -19.371094 L 21.691406 -19.371094 C 22.269531 -19.371094 22.617188 -19.71875 22.617188 -20.355469 L 22.617188 -26.097656 C 22.617188 -26.738281 22.269531 -27.085938 21.691406 -27.085938 L 10.613281 -27.085938 L 10.613281 -38.683594 L 25.113281 -38.683594 C 25.808594 -38.683594 26.039062 -39.089844 26.039062 -39.671875 Z M 26.039062 -45.46875 "/></g></g></g><g fill="#2f81f7" fill-opacity="1"><g transform="translate(347.135012, 56.799999)"><g><path d="M 26.15625 -38.046875 C 26.15625 -43.5 23.199219 -46.398438 17.804688 -46.398438 L 11.308594 -46.398438 C 5.859375 -46.398438 2.898438 -43.5 2.898438 -38.046875 L 2.898438 -8.351562 C 2.898438 -2.898438 5.859375 0 11.308594 0 L 17.804688 0 C 23.199219 0 26.15625 -2.898438 26.15625 -8.351562 L 26.15625 -14.617188 C 26.15625 -15.195312 25.808594 -15.542969 25.230469 -15.542969 L 19.429688 -15.542969 C 18.792969 -15.542969 18.5 -15.195312 18.5 -14.617188 L 18.5 -9.976562 C 18.5 -8.410156 17.6875 -7.65625 16.179688 -7.65625 L 13.164062 -7.65625 C 11.65625 -7.65625 10.84375 -8.410156 10.84375 -9.976562 L 10.84375 -36.421875 C 10.84375 -37.929688 11.597656 -38.742188 13.164062 -38.742188 L 16.179688 -38.742188 C 17.6875 -38.742188 18.5 -37.929688 18.5 -36.421875 L 18.5 -31.78125 C 18.5 -31.203125 18.792969 -30.855469 19.429688 -30.855469 L 25.230469 -30.855469 C 25.808594 -30.855469 26.15625 -31.203125 26.15625 -31.78125 Z M 26.15625 -38.046875 "/></g></g></g><g fill="#2f81f7" fill-opacity="1"><g transform="translate(376.191078, 56.799999)"><g><path d="M 2.667969 -46.398438 C 2.089844 -46.398438 1.738281 -46.050781 1.738281 -45.46875 L 1.738281 -39.671875 C 1.738281 -39.089844 2.089844 -38.742188 2.667969 -38.742188 L 9.394531 -38.742188 L 9.394531 -0.929688 C 9.394531 -0.289062 9.742188 0 10.324219 0 L 16.355469 0 C 16.992188 0 17.285156 -0.289062 17.285156 -0.929688 L 17.285156 -38.742188 L 24.011719 -38.742188 C 24.648438 -38.742188 24.9375 -39.089844 24.9375 -39.671875 L 24.9375 -45.46875 C 24.9375 -46.050781 24.648438 -46.398438 24.011719 -46.398438 Z M 2.667969 -46.398438 "/></g></g></g><g fill="#2f81f7" fill-opacity="1"><g transform="translate(402.869291, 56.799999)"><g><path d="M 11.25 -46.398438 C 5.859375 -46.398438 2.898438 -43.5 2.898438 -38.046875 L 2.898438 -24.359375 C 2.898438 -23.257812 3.421875 -22.5625 4.464844 -22.214844 L 18.210938 -17.6875 L 18.210938 -9.976562 C 18.210938 -8.410156 17.398438 -7.65625 15.890625 -7.65625 L 13.109375 -7.65625 C 11.65625 -7.65625 10.789062 -8.410156 10.789062 -9.976562 L 10.789062 -14.441406 C 10.789062 -15.078125 10.496094 -15.371094 9.859375 -15.371094 L 3.828125 -15.371094 C 3.246094 -15.371094 2.898438 -15.078125 2.898438 -14.441406 L 2.898438 -8.351562 C 2.898438 -2.898438 5.859375 0 11.25 0 L 17.746094 0 C 23.199219 0 26.097656 -2.898438 26.097656 -8.351562 L 26.097656 -21.75 C 26.097656 -22.851562 25.578125 -23.488281 24.589844 -23.894531 L 10.789062 -28.417969 L 10.789062 -36.421875 C 10.789062 -37.929688 11.65625 -38.742188 13.109375 -38.742188 L 15.890625 -38.742188 C 17.457031 -38.742188 18.210938 -37.929688 18.210938 -36.421875 L 18.210938 -31.898438 C 18.210938 -31.320312 18.558594 -30.96875 19.140625 -30.96875 L 25.171875 -30.96875 C 25.808594 -30.96875 26.097656 -31.320312 26.097656 -31.898438 L 26.097656 -38.046875 C 26.097656 -43.5 23.199219 -46.398438 17.746094 -46.398438 Z M 11.25 -46.398438 "/></g></g></g><path fill="#2f81f7" d="M 431.859375 59.800781 L 446.355469 59.800781 L 446.355469 65.050781 L 431.859375 65.050781 Z M 431.859375 59.800781 " fill-opacity="1" fill-rule="nonzero"/><g fill="#2f81f7" fill-opacity="1"><g transform="translate(431.858317, 56.799999)"><g/></g></g><g clip-path="url(#daf5408901)"><path fill="#ffcd6f" d="M 53.851562 15.058594 L 53.851562 55.785156 C 53.851562 57.671875 52.300781 59.214844 50.402344 59.214844 L 17.882812 59.214844 C 15.984375 59.214844 14.429688 57.671875 14.429688 55.785156 L 14.429688 8.167969 C 14.429688 6.28125 15.984375 4.738281 17.882812 4.738281 L 43.46875 4.738281 Z M 53.851562 15.058594 " fill-opacity="1" fill-rule="nonzero"/></g><g clip-path="url(#e725d7c9da)"><path fill="#ffe1a9" d="M 53.851562 15.058594 L 46.53125 14.644531 C 45.105469 14.5625 43.964844 13.429688 43.886719 12.011719 L 43.46875 4.738281 Z M 53.851562 15.058594 " fill-opacity="1" fill-rule="nonzero"/></g><path fill="#8fc28c" d="M 49.257812 20.238281 L 49.257812 60.964844 C 49.257812 62.851562 47.703125 64.394531 45.804688 64.394531 L 13.289062 64.394531 C 11.390625 64.394531 9.835938 62.851562 9.835938 60.964844 L 9.835938 13.347656 C 9.835938 11.460938 11.390625 9.917969 13.289062 9.917969 L 38.875 9.917969 Z M 49.257812 20.238281 " fill-opacity="1" fill-rule="nonzero"/><path fill="#bcdaba" d="M 49.257812 20.238281 L 41.9375 19.824219 C 40.511719 19.742188 39.371094 18.613281 39.289062 17.195312 L 38.875 9.917969 Z M 49.257812 20.238281 " fill-opacity="1" fill-rule="nonzero"/><g clip-path="url(#5e4c5a7cd6)"><path fill="#59818e" d="M 44.527344 25.0625 L 44.527344 65.792969 C 44.527344 67.679688 42.972656 69.222656 41.074219 69.222656 L 8.554688 69.222656 C 6.65625 69.222656 5.105469 67.679688 5.105469 65.792969 L 5.105469 18.175781 C 5.105469 16.289062 6.65625 14.746094 8.554688 14.746094 L 34.140625 14.746094 Z M 44.527344 25.0625 " fill-opacity="1" fill-rule="nonzero"/></g><path fill="#9bb3bb" d="M 44.527344 25.0625 L 37.207031 24.652344 C 35.777344 24.570312 34.640625 23.4375 34.558594 22.019531 L 34.140625 14.746094 Z M 44.527344 25.0625 " fill-opacity="1" fill-rule="nonzero"/><path fill="#dee6e8" d="M 40.273438 37.15625 L 9.355469 37.15625 C 9.191406 37.15625 9.054688 37.023438 9.054688 36.855469 L 9.054688 36.835938 C 9.054688 36.671875 9.191406 36.535156 9.355469 36.535156 L 40.273438 36.535156 C 40.441406 36.535156 40.578125 36.671875 40.578125 36.835938 L 40.578125 36.855469 C 40.578125 37.023438 40.441406 37.15625 40.273438 37.15625 Z M 40.273438 37.15625 " fill-opacity="1" fill-rule="nonzero"/><path fill="#dee6e8" d="M 40.273438 40.933594 L 9.355469 40.933594 C 9.191406 40.933594 9.054688 40.800781 9.054688 40.632812 L 9.054688 40.613281 C 9.054688 40.445312 9.191406 40.3125 9.355469 40.3125 L 40.273438 40.3125 C 40.441406 40.3125 40.578125 40.445312 40.578125 40.613281 L 40.578125 40.632812 C 40.578125 40.800781 40.441406 40.933594 40.273438 40.933594 Z M 40.273438 40.933594 " fill-opacity="1" fill-rule="nonzero"/><path fill="#dee6e8" d="M 40.273438 44.710938 L 9.355469 44.710938 C 9.191406 44.710938 9.054688 44.574219 9.054688 44.410156 L 9.054688 44.386719 C 9.054688 44.222656 9.191406 44.085938 9.355469 44.085938 L 40.273438 44.085938 C 40.441406 44.085938 40.578125 44.222656 40.578125 44.386719 L 40.578125 44.410156 C 40.578125 44.574219 40.441406 44.710938 40.273438 44.710938 Z M 40.273438 44.710938 " fill-opacity="1" fill-rule="nonzero"/><path fill="#dee6e8" d="M 27.671875 48.484375 L 9.367188 48.484375 C 9.195312 48.484375 9.054688 48.347656 9.054688 48.175781 C 9.054688 48.003906 9.195312 47.863281 9.367188 47.863281 L 27.671875 47.863281 C 27.84375 47.863281 27.984375 48.003906 27.984375 48.175781 C 27.984375 48.347656 27.84375 48.484375 27.671875 48.484375 Z M 27.671875 48.484375 " fill-opacity="1" fill-rule="nonzero"/><path fill="#ffcd6f" d="M 40.273438 52.261719 L 9.355469 52.261719 C 9.191406 52.261719 9.054688 52.128906 9.054688 51.960938 L 9.054688 51.941406 C 9.054688 51.773438 9.191406 51.640625 9.355469 51.640625 L 40.273438 51.640625 C 40.441406 51.640625 40.578125 51.773438 40.578125 51.941406 L 40.578125 51.960938 C 40.578125 52.128906 40.441406 52.261719 40.273438 52.261719 Z M 40.273438 52.261719 " fill-opacity="1" fill-rule="nonzero"/><path fill="#dee6e8" d="M 40.273438 56.039062 L 9.355469 56.039062 C 9.191406 56.039062 9.054688 55.902344 9.054688 55.738281 L 9.054688 55.71875 C 9.054688 55.550781 9.191406 55.417969 9.355469 55.417969 L 40.273438 55.417969 C 40.441406 55.417969 40.578125 55.550781 40.578125 55.71875 L 40.578125 55.738281 C 40.578125 55.902344 40.441406 56.039062 40.273438 56.039062 Z M 40.273438 56.039062 " fill-opacity="1" fill-rule="nonzero"/><path fill="#dee6e8" d="M 40.273438 59.816406 L 9.355469 59.816406 C 9.191406 59.816406 9.054688 59.679688 9.054688 59.515625 L 9.054688 59.492188 C 9.054688 59.328125 9.191406 59.191406 9.355469 59.191406 L 40.273438 59.191406 C 40.441406 59.191406 40.578125 59.328125 40.578125 59.492188 L 40.578125 59.515625 C 40.578125 59.679688 40.441406 59.816406 40.273438 59.816406 Z M 40.273438 59.816406 " fill-opacity="1" fill-rule="nonzero"/><path fill="#dee6e8" d="M 40.261719 33.382812 L 9.367188 33.382812 C 9.195312 33.382812 9.054688 33.242188 9.054688 33.070312 C 9.054688 32.898438 9.195312 32.757812 9.367188 32.757812 L 40.261719 32.757812 C 40.4375 32.757812 40.578125 32.898438 40.578125 33.070312 C 40.578125 33.242188 40.4375 33.382812 40.261719 33.382812 Z M 40.261719 33.382812 " fill-opacity="1" fill-rule="nonzero"/><path fill="#dee6e8" d="M 40.261719 29.605469 L 9.367188 29.605469 C 9.195312 29.605469 9.054688 29.464844 9.054688 29.292969 C 9.054688 29.121094 9.195312 28.984375 9.367188 28.984375 L 40.261719 28.984375 C 40.4375 28.984375 40.578125 29.121094 40.578125 29.292969 C 40.578125 29.464844 40.4375 29.605469 40.261719 29.605469 Z M 40.261719 29.605469 " fill-opacity="1" fill-rule="nonzero"/><path fill="#dee6e8" d="M 35.773438 25.828125 L 9.367188 25.828125 C 9.195312 25.828125 9.054688 25.691406 9.054688 25.519531 C 9.054688 25.347656 9.195312 25.207031 9.367188 25.207031 L 35.773438 25.207031 C 35.945312 25.207031 36.085938 25.347656 36.085938 25.519531 C 36.085938 25.691406 35.945312 25.828125 35.773438 25.828125 Z M 35.773438 25.828125 " fill-opacity="1" fill-rule="nonzero"/><path fill="#ffcd6f" d="M 32.601562 22.054688 L 9.367188 22.054688 C 9.195312 22.054688 9.054688 21.914062 9.054688 21.742188 C 9.054688 21.570312 9.195312 21.429688 9.367188 21.429688 L 32.601562 21.429688 C 32.773438 21.429688 32.914062 21.570312 32.914062 21.742188 C 32.914062 21.914062 32.773438 22.054688 32.601562 22.054688 Z M 32.601562 22.054688 " fill-opacity="1" fill-rule="nonzero"/><path fill="#dee6e8" d="M 27.414062 63.589844 L 9.113281 63.589844 C 8.9375 63.589844 8.796875 63.453125 8.796875 63.28125 C 8.796875 63.109375 8.9375 62.96875 9.113281 62.96875 L 27.414062 62.96875 C 27.589844 62.96875 27.726562 63.109375 27.726562 63.28125 C 27.730469 63.453125 27.589844 63.589844 27.414062 63.589844 Z M 27.414062 63.589844 " fill-opacity="1" fill-rule="nonzero"/><path fill="#fefefe" d="M 44.539062 68.992188 L 44.539062 65.46875 L 42.976562 65.46875 L 42.976562 62.335938 L 41.414062 62.335938 L 41.414062 59.203125 L 39.851562 59.203125 L 39.851562 55.675781 L 37.894531 55.675781 L 37.894531 54.109375 L 36.332031 54.109375 L 36.332031 50.976562 L 39.851562 50.976562 L 39.851562 52.542969 L 41.414062 52.542969 L 41.414062 57.242188 L 42.976562 57.242188 L 42.976562 36.09375 L 46.105469 36.09375 L 46.105469 50.976562 L 47.667969 50.976562 L 47.667969 44.316406 L 51.183594 44.316406 L 51.183594 50.976562 L 52.75 50.976562 L 52.75 45.882812 L 55.875 45.882812 L 55.875 52.542969 L 57.4375 52.542969 L 57.4375 47.449219 L 59.394531 47.449219 L 59.394531 49.410156 L 60.957031 49.410156 L 60.957031 60.769531 L 59.394531 60.769531 L 59.394531 65.46875 L 57.4375 65.46875 L 57.4375 68.992188 Z M 44.539062 68.992188 " fill-opacity="1" fill-rule="nonzero"/><g clip-path="url(#2c685499ff)"><path fill="#000000" d="M 42.976562 70.558594 L 42.976562 65.46875 L 41.414062 65.46875 L 41.414062 62.335938 L 39.851562 62.335938 L 39.851562 59.203125 L 37.894531 59.203125 L 37.894531 55.675781 L 36.332031 55.675781 L 36.332031 54.109375 L 34.769531 54.109375 L 34.769531 49.410156 L 39.851562 49.410156 L 39.851562 50.976562 L 41.414062 50.976562 L 41.414062 36.09375 L 42.976562 36.09375 L 42.976562 34.527344 L 46.105469 34.527344 L 46.105469 36.09375 L 47.667969 36.09375 L 47.667969 42.75 L 51.183594 42.75 L 51.183594 44.316406 L 55.875 44.316406 L 55.875 45.882812 L 59.394531 45.882812 L 59.394531 47.449219 L 60.957031 47.449219 L 60.957031 49.410156 L 62.519531 49.410156 L 62.519531 60.769531 L 60.957031 60.769531 L 60.957031 65.46875 L 59.394531 65.46875 L 59.394531 70.558594 Z M 57.4375 68.992188 L 57.4375 65.46875 L 59.394531 65.46875 L 59.394531 60.769531 L 60.957031 60.769531 L 60.957031 49.410156 L 59.394531 49.410156 L 59.394531 47.449219 L 57.4375 47.449219 L 57.4375 52.542969 L 55.875 52.542969 L 55.875 45.882812 L 52.75 45.882812 L 52.75 50.976562 L 51.183594 50.976562 L 51.183594 44.316406 L 47.667969 44.316406 L 47.667969 50.976562 L 46.105469 50.976562 L 46.105469 36.09375 L 42.976562 36.09375 L 42.976562 57.242188 L 41.414062 57.242188 L 41.414062 52.542969 L 39.851562 52.542969 L 39.851562 50.976562 L 36.332031 50.976562 L 36.332031 54.109375 L 37.894531 54.109375 L 37.894531 55.675781 L 39.851562 55.675781 L 39.851562 59.203125 L 41.414062 59.203125 L 41.414062 62.335938 L 42.976562 62.335938 L 42.976562 65.46875 L 44.539062 65.46875 L 44.539062 68.992188 Z M 57.4375 68.992188 " fill-opacity="1" fill-rule="nonzero"/></g></svg>