<svg xmlns="http://www.w3.org/2000/svg" xmlns:xlink="http://www.w3.org/1999/xlink" width="520" zoomAndPan="magnify" viewBox="0 0 390 74.999997" height="100" preserveAspectRatio="xMidYMid meet" version="1.0"><defs><g/><clipPath id="282cea9602"><path d="M 8 5.253906 L 51 5.253906 L 51 67 L 8 67 Z M 8 5.253906 " clip-rule="nonzero"/></clipPath><clipPath id="367bfef3c8"><path d="M 7.5 5.253906 L 51 5.253906 L 51 67.503906 L 7.5 67.503906 Z M 7.5 5.253906 " clip-rule="nonzero"/></clipPath><clipPath id="a916465bda"><path d="M 33.125 34 L 60.875 34 L 60.875 69.996094 L 33.125 69.996094 Z M 33.125 34 " clip-rule="nonzero"/></clipPath></defs><g clip-path="url(#282cea9602)"><path fill="#e6e6e6" d="M 47.789062 66.976562 L 10.710938 66.976562 C 9.222656 66.976562 8.03125 65.789062 8.03125 64.3125 L 8.03125 8.445312 C 8.03125 6.96875 9.222656 5.78125 10.710938 5.78125 L 47.789062 5.78125 C 49.277344 5.78125 50.46875 6.96875 50.46875 8.445312 L 50.46875 64.3125 C 50.46875 65.789062 49.277344 66.976562 47.789062 66.976562 Z M 47.789062 66.976562 " fill-opacity="1" fill-rule="nonzero"/></g><path fill="#fcac3f" d="M 25.007812 20.554688 L 25.007812 34.269531 L 22.882812 34.269531 L 18.640625 32.160156 L 15.457031 34.269531 L 13.335938 34.269531 L 13.335938 20.554688 Z M 25.007812 20.554688 " fill-opacity="1" fill-rule="nonzero"/><path fill="#305586" d="M 20.097656 27.9375 L 18.242188 27.9375 C 16.703125 27.9375 15.457031 29.179688 15.457031 30.707031 L 15.457031 34.269531 L 22.882812 34.269531 L 22.882812 30.707031 C 22.882812 29.179688 21.636719 27.9375 20.097656 27.9375 Z M 20.097656 27.9375 " fill-opacity="1" fill-rule="nonzero"/><path fill="#305586" d="M 21.824219 25.300781 C 21.824219 23.851562 20.628906 22.664062 19.171875 22.664062 C 17.710938 22.664062 16.519531 23.851562 16.519531 25.300781 C 16.519531 26.75 17.710938 27.9375 19.171875 27.9375 C 20.628906 27.9375 21.824219 26.75 21.824219 25.300781 Z M 21.824219 25.300781 " fill-opacity="1" fill-rule="nonzero"/><g clip-path="url(#367bfef3c8)"><path fill="#000000" d="M 47.789062 5.253906 L 10.710938 5.253906 C 8.945312 5.253906 7.5 6.691406 7.5 8.445312 L 7.5 64.3125 C 7.5 66.066406 8.945312 67.503906 10.710938 67.503906 L 47.789062 67.503906 C 49.554688 67.503906 51 66.066406 51 64.3125 L 51 8.445312 C 51 6.691406 49.554688 5.253906 47.789062 5.253906 Z M 49.9375 64.3125 C 49.9375 65.484375 48.972656 66.445312 47.789062 66.445312 L 10.710938 66.445312 C 9.527344 66.445312 8.5625 65.484375 8.5625 64.3125 L 8.5625 8.445312 C 8.5625 7.273438 9.527344 6.3125 10.710938 6.3125 L 47.789062 6.3125 C 48.972656 6.3125 49.9375 7.273438 49.9375 8.445312 Z M 49.9375 64.3125 " fill-opacity="1" fill-rule="nonzero"/></g><path fill="#000000" d="M 13.335938 34.796875 L 25.007812 34.796875 C 25.296875 34.796875 25.535156 34.558594 25.535156 34.269531 L 25.535156 20.554688 C 25.535156 20.261719 25.296875 20.027344 25.007812 20.027344 L 13.335938 20.027344 C 13.042969 20.027344 12.804688 20.261719 12.804688 20.554688 L 12.804688 34.269531 C 12.804688 34.558594 13.042969 34.796875 13.335938 34.796875 Z M 19.171875 27.410156 C 18.003906 27.410156 17.046875 26.460938 17.046875 25.300781 C 17.046875 24.140625 18.003906 23.191406 19.171875 23.191406 C 20.335938 23.191406 21.292969 24.140625 21.292969 25.300781 C 21.292969 26.460938 20.335938 27.410156 19.171875 27.410156 Z M 20.097656 28.464844 C 21.347656 28.464844 22.355469 29.46875 22.355469 30.707031 L 22.355469 33.742188 L 15.988281 33.742188 L 15.988281 30.707031 C 15.988281 29.46875 16.996094 28.464844 18.242188 28.464844 Z M 13.867188 21.082031 L 24.476562 21.082031 L 24.476562 33.742188 L 23.414062 33.742188 L 23.414062 30.707031 C 23.414062 29.324219 22.539062 28.125 21.320312 27.648438 C 21.957031 27.066406 22.355469 26.238281 22.355469 25.3125 C 22.355469 23.574219 20.921875 22.148438 19.171875 22.148438 C 17.421875 22.148438 15.988281 23.574219 15.988281 25.3125 C 15.988281 26.238281 16.386719 27.066406 17.023438 27.648438 C 15.789062 28.125 14.925781 29.324219 14.925781 30.707031 L 14.925781 33.742188 L 13.867188 33.742188 Z M 13.867188 21.082031 " fill-opacity="1" fill-rule="nonzero"/><path fill="#000000" d="M 13.824219 13.972656 L 14.609375 13.972656 C 15.363281 14 15.710938 14.328125 15.894531 15.210938 C 16.082031 16.003906 16.214844 16.558594 16.320312 16.742188 L 17.179688 16.742188 C 17.046875 16.492188 16.890625 15.871094 16.691406 14.988281 C 16.53125 14.328125 16.238281 13.867188 15.75 13.695312 L 15.75 13.667969 C 16.425781 13.445312 16.957031 12.878906 16.957031 12.035156 C 16.957031 11.546875 16.769531 11.097656 16.453125 10.820312 C 16.054688 10.464844 15.484375 10.292969 14.59375 10.292969 C 14.023438 10.292969 13.414062 10.347656 13.003906 10.425781 L 13.003906 16.742188 L 13.839844 16.742188 L 13.839844 13.972656 Z M 13.824219 11.003906 C 13.957031 10.964844 14.25 10.925781 14.648438 10.925781 C 15.523438 10.941406 16.132812 11.296875 16.132812 12.125 C 16.132812 12.851562 15.578125 13.339844 14.6875 13.339844 L 13.839844 13.339844 L 13.839844 11.003906 Z M 13.824219 11.003906 " fill-opacity="1" fill-rule="nonzero"/><path fill="#000000" d="M 21.757812 16.054688 L 18.972656 16.054688 L 18.972656 13.75 L 21.464844 13.75 L 21.464844 13.0625 L 18.972656 13.0625 L 18.972656 11.03125 L 21.609375 11.03125 L 21.609375 10.347656 L 18.136719 10.347656 L 18.136719 16.742188 L 21.757812 16.742188 Z M 21.757812 16.054688 " fill-opacity="1" fill-rule="nonzero"/><path fill="#000000" d="M 24.210938 16.160156 C 23.640625 16.160156 23.097656 15.976562 22.726562 15.738281 L 22.511719 16.4375 C 22.859375 16.664062 23.535156 16.847656 24.15625 16.847656 C 25.667969 16.847656 26.410156 15.992188 26.410156 15 C 26.410156 14.066406 25.855469 13.539062 24.765625 13.117188 C 23.878906 12.773438 23.496094 12.484375 23.496094 11.875 C 23.496094 11.441406 23.824219 10.914062 24.699219 10.914062 C 25.285156 10.914062 25.710938 11.097656 25.921875 11.214844 L 26.148438 10.542969 C 25.855469 10.386719 25.378906 10.226562 24.726562 10.226562 C 23.480469 10.226562 22.644531 10.964844 22.644531 11.96875 C 22.644531 12.863281 23.296875 13.40625 24.34375 13.789062 C 25.21875 14.117188 25.550781 14.460938 25.550781 15.054688 C 25.5625 15.714844 25.058594 16.160156 24.210938 16.160156 Z M 24.210938 16.160156 " fill-opacity="1" fill-rule="nonzero"/><path fill="#000000" d="M 29.847656 16.847656 C 31.238281 16.847656 32.285156 16.042969 32.285156 14.078125 L 32.285156 10.347656 L 31.453125 10.347656 L 31.453125 14.132812 C 31.453125 15.542969 30.839844 16.175781 29.886719 16.175781 C 29.023438 16.175781 28.386719 15.570312 28.386719 14.132812 L 28.386719 10.347656 L 27.550781 10.347656 L 27.550781 14.117188 C 27.539062 16.097656 28.519531 16.847656 29.847656 16.847656 Z M 29.847656 16.847656 " fill-opacity="1" fill-rule="nonzero"/><path fill="#000000" d="M 34.515625 14 C 34.566406 13.035156 34.621094 11.96875 34.632812 11.164062 L 34.648438 11.164062 C 34.832031 11.929688 35.085938 12.746094 35.390625 13.65625 L 36.425781 16.703125 L 37.0625 16.703125 L 38.203125 13.605469 C 38.519531 12.71875 38.796875 11.929688 39.011719 11.175781 L 39.039062 11.175781 C 39.023438 11.96875 39.089844 13.050781 39.128906 13.945312 L 39.289062 16.753906 L 40.097656 16.753906 L 39.699219 10.359375 L 38.640625 10.359375 L 37.5 13.457031 C 37.207031 14.261719 36.980469 14.960938 36.824219 15.609375 L 36.808594 15.609375 C 36.648438 14.949219 36.425781 14.238281 36.160156 13.457031 L 35.058594 10.359375 L 33.996094 10.359375 L 33.546875 16.753906 L 34.34375 16.753906 Z M 34.515625 14 " fill-opacity="1" fill-rule="nonzero"/><path fill="#000000" d="M 45.019531 16.054688 L 42.234375 16.054688 L 42.234375 13.75 L 44.726562 13.75 L 44.726562 13.0625 L 42.234375 13.0625 L 42.234375 11.03125 L 44.871094 11.03125 L 44.871094 10.347656 L 41.398438 10.347656 L 41.398438 16.742188 L 45.019531 16.742188 Z M 45.019531 16.054688 " fill-opacity="1" fill-rule="nonzero"/><path fill="#000000" d="M 45.164062 20.554688 L 31.371094 20.554688 C 30.789062 20.554688 30.3125 21.027344 30.3125 21.609375 C 30.3125 22.1875 30.789062 22.664062 31.371094 22.664062 L 45.164062 22.664062 C 45.75 22.664062 46.226562 22.1875 46.226562 21.609375 C 46.226562 21.027344 45.75 20.554688 45.164062 20.554688 Z M 45.164062 20.554688 " fill-opacity="1" fill-rule="nonzero"/><path fill="#000000" d="M 31.371094 26.355469 L 38.796875 26.355469 C 39.089844 26.355469 39.328125 26.117188 39.328125 25.828125 C 39.328125 25.539062 39.089844 25.300781 38.796875 25.300781 L 31.371094 25.300781 C 31.082031 25.300781 30.839844 25.539062 30.839844 25.828125 C 30.839844 26.117188 31.082031 26.355469 31.371094 26.355469 Z M 31.371094 26.355469 " fill-opacity="1" fill-rule="nonzero"/><path fill="#000000" d="M 31.371094 29.519531 L 38.796875 29.519531 C 39.089844 29.519531 39.328125 29.285156 39.328125 28.992188 C 39.328125 28.703125 39.089844 28.464844 38.796875 28.464844 L 31.371094 28.464844 C 31.082031 28.464844 30.839844 28.703125 30.839844 28.992188 C 30.839844 29.285156 31.082031 29.519531 31.371094 29.519531 Z M 31.371094 29.519531 " fill-opacity="1" fill-rule="nonzero"/><path fill="#000000" d="M 31.371094 32.6875 L 38.796875 32.6875 C 39.089844 32.6875 39.328125 32.449219 39.328125 32.160156 C 39.328125 31.867188 39.089844 31.632812 38.796875 31.632812 L 31.371094 31.632812 C 31.082031 31.632812 30.839844 31.867188 30.839844 32.160156 C 30.839844 32.449219 31.082031 32.6875 31.371094 32.6875 Z M 31.371094 32.6875 " fill-opacity="1" fill-rule="nonzero"/><path fill="#000000" d="M 12.273438 44.292969 L 34.554688 44.292969 C 34.847656 44.292969 35.085938 44.054688 35.085938 43.765625 C 35.085938 43.472656 34.847656 43.238281 34.554688 43.238281 L 12.273438 43.238281 C 11.984375 43.238281 11.742188 43.472656 11.742188 43.765625 C 11.742188 44.054688 11.984375 44.292969 12.273438 44.292969 Z M 12.273438 44.292969 " fill-opacity="1" fill-rule="nonzero"/><path fill="#000000" d="M 12.273438 47.457031 L 34.554688 47.457031 C 34.847656 47.457031 35.085938 47.21875 35.085938 46.929688 C 35.085938 46.640625 34.847656 46.402344 34.554688 46.402344 L 12.273438 46.402344 C 11.984375 46.402344 11.742188 46.640625 11.742188 46.929688 C 11.742188 47.21875 11.984375 47.457031 12.273438 47.457031 Z M 12.273438 47.457031 " fill-opacity="1" fill-rule="nonzero"/><path fill="#000000" d="M 12.273438 50.621094 L 34.554688 50.621094 C 34.847656 50.621094 35.085938 50.382812 35.085938 50.09375 C 35.085938 49.804688 34.847656 49.566406 34.554688 49.566406 L 12.273438 49.566406 C 11.984375 49.566406 11.742188 49.804688 11.742188 50.09375 C 11.742188 50.382812 11.984375 50.621094 12.273438 50.621094 Z M 12.273438 50.621094 " fill-opacity="1" fill-rule="nonzero"/><path fill="#000000" d="M 12.273438 59.0625 L 32.433594 59.0625 C 32.726562 59.0625 32.964844 58.824219 32.964844 58.535156 C 32.964844 58.246094 32.726562 58.007812 32.433594 58.007812 L 12.273438 58.007812 C 11.984375 58.007812 11.742188 58.246094 11.742188 58.535156 C 11.742188 58.824219 11.984375 59.0625 12.273438 59.0625 Z M 12.273438 59.0625 " fill-opacity="1" fill-rule="nonzero"/><path fill="#000000" d="M 44.105469 61.171875 L 12.273438 61.171875 C 11.984375 61.171875 11.742188 61.410156 11.742188 61.699219 C 11.742188 61.988281 11.984375 62.226562 12.273438 62.226562 L 44.105469 62.226562 C 44.394531 62.226562 44.632812 61.988281 44.632812 61.699219 C 44.632812 61.410156 44.394531 61.171875 44.105469 61.171875 Z M 44.105469 61.171875 " fill-opacity="1" fill-rule="nonzero"/><path fill="#000000" d="M 13.335938 40.597656 L 22.882812 40.597656 C 23.46875 40.597656 23.945312 40.125 23.945312 39.542969 C 23.945312 38.964844 23.46875 38.488281 22.882812 38.488281 L 13.335938 38.488281 C 12.75 38.488281 12.273438 38.964844 12.273438 39.542969 C 12.273438 40.125 12.75 40.597656 13.335938 40.597656 Z M 13.335938 40.597656 " fill-opacity="1" fill-rule="nonzero"/><path fill="#000000" d="M 13.335938 53.257812 C 12.75 53.257812 12.273438 53.734375 12.273438 54.3125 C 12.273438 54.894531 12.75 55.371094 13.335938 55.371094 L 22.882812 55.371094 C 23.46875 55.371094 23.945312 54.894531 23.945312 54.3125 C 23.945312 53.734375 23.46875 53.257812 22.882812 53.257812 Z M 13.335938 53.257812 " fill-opacity="1" fill-rule="nonzero"/><path fill="#fefefe" d="M 42.894531 68.46875 L 42.894531 64.945312 L 41.332031 64.945312 L 41.332031 61.8125 L 39.769531 61.8125 L 39.769531 58.675781 L 38.207031 58.675781 L 38.207031 55.152344 L 36.25 55.152344 L 36.25 53.585938 L 34.6875 53.585938 L 34.6875 50.453125 L 38.207031 50.453125 L 38.207031 52.019531 L 39.769531 52.019531 L 39.769531 56.71875 L 41.332031 56.71875 L 41.332031 35.570312 L 44.457031 35.570312 L 44.457031 50.453125 L 46.023438 50.453125 L 46.023438 43.792969 L 49.539062 43.792969 L 49.539062 50.453125 L 51.101562 50.453125 L 51.101562 45.359375 L 54.230469 45.359375 L 54.230469 52.019531 L 55.792969 52.019531 L 55.792969 46.925781 L 57.746094 46.925781 L 57.746094 48.886719 L 59.3125 48.886719 L 59.3125 60.242188 L 57.746094 60.242188 L 57.746094 64.945312 L 55.792969 64.945312 L 55.792969 68.46875 Z M 42.894531 68.46875 " fill-opacity="1" fill-rule="nonzero"/><g clip-path="url(#a916465bda)"><path fill="#000000" d="M 41.332031 70.035156 L 41.332031 64.945312 L 39.769531 64.945312 L 39.769531 61.8125 L 38.207031 61.8125 L 38.207031 58.675781 L 36.25 58.675781 L 36.25 55.152344 L 34.6875 55.152344 L 34.6875 53.585938 L 33.125 53.585938 L 33.125 48.886719 L 38.207031 48.886719 L 38.207031 50.453125 L 39.769531 50.453125 L 39.769531 35.570312 L 41.332031 35.570312 L 41.332031 34 L 44.457031 34 L 44.457031 35.570312 L 46.023438 35.570312 L 46.023438 42.226562 L 49.539062 42.226562 L 49.539062 43.792969 L 54.230469 43.792969 L 54.230469 45.359375 L 57.746094 45.359375 L 57.746094 46.925781 L 59.3125 46.925781 L 59.3125 48.886719 L 60.875 48.886719 L 60.875 60.242188 L 59.3125 60.242188 L 59.3125 64.945312 L 57.746094 64.945312 L 57.746094 70.035156 Z M 55.792969 68.46875 L 55.792969 64.945312 L 57.746094 64.945312 L 57.746094 60.242188 L 59.3125 60.242188 L 59.3125 48.886719 L 57.746094 48.886719 L 57.746094 46.925781 L 55.792969 46.925781 L 55.792969 52.019531 L 54.230469 52.019531 L 54.230469 45.359375 L 51.101562 45.359375 L 51.101562 50.453125 L 49.539062 50.453125 L 49.539062 43.792969 L 46.023438 43.792969 L 46.023438 50.453125 L 44.457031 50.453125 L 44.457031 35.570312 L 41.332031 35.570312 L 41.332031 56.71875 L 39.769531 56.71875 L 39.769531 52.019531 L 38.207031 52.019531 L 38.207031 50.453125 L 34.6875 50.453125 L 34.6875 53.585938 L 36.25 53.585938 L 36.25 55.152344 L 38.207031 55.152344 L 38.207031 58.675781 L 39.769531 58.675781 L 39.769531 61.8125 L 41.332031 61.8125 L 41.332031 64.945312 L 42.894531 64.945312 L 42.894531 68.46875 Z M 55.792969 68.46875 " fill-opacity="1" fill-rule="nonzero"/></g><path fill="#2f81f7" d="M 67.324219 59.800781 L 384.445312 59.800781 L 384.445312 65.050781 L 67.324219 65.050781 Z M 67.324219 59.800781 " fill-opacity="1" fill-rule="nonzero"/><g fill="#2f81f7" fill-opacity="1"><g transform="translate(67.325606, 56.799999)"><g><path d="M 23.140625 -46.398438 C 22.445312 -46.398438 22.039062 -46.050781 21.863281 -45.355469 L 15.71875 -14.265625 L 9.628906 -45.355469 C 9.453125 -46.050781 9.046875 -46.398438 8.351562 -46.398438 L 2.84375 -46.398438 C 1.972656 -46.398438 1.625 -45.933594 1.796875 -45.121094 L 11.542969 -1.042969 C 11.714844 -0.347656 12.121094 0 12.816406 0 L 18.617188 0 C 19.3125 0 19.71875 -0.347656 19.894531 -1.042969 L 29.695312 -45.121094 C 29.867188 -45.933594 29.519531 -46.398438 28.652344 -46.398438 Z M 23.140625 -46.398438 "/></g></g></g><g fill="#2f81f7" fill-opacity="1"><g transform="translate(98.817513, 56.799999)"><g><path d="M 3.828125 -46.398438 C 3.191406 -46.398438 2.898438 -46.050781 2.898438 -45.46875 L 2.898438 -0.929688 C 2.898438 -0.347656 3.191406 0 3.828125 0 L 9.859375 0 C 10.441406 0 10.789062 -0.347656 10.789062 -0.929688 L 10.789062 -45.46875 C 10.789062 -46.050781 10.441406 -46.398438 9.859375 -46.398438 Z M 3.828125 -46.398438 "/></g></g></g><g fill="#2f81f7" fill-opacity="1"><g transform="translate(112.5046, 56.799999)"><g><path d="M 26.039062 -45.46875 C 26.039062 -46.050781 25.808594 -46.398438 25.113281 -46.398438 L 3.769531 -46.398438 C 3.246094 -46.398438 2.898438 -46.050781 2.898438 -45.46875 L 2.898438 -0.929688 C 2.898438 -0.347656 3.246094 0 3.769531 0 L 25.113281 0 C 25.808594 0 26.039062 -0.347656 26.039062 -0.929688 L 26.039062 -6.726562 C 26.039062 -7.367188 25.808594 -7.65625 25.113281 -7.65625 L 10.613281 -7.65625 L 10.613281 -19.371094 L 21.691406 -19.371094 C 22.269531 -19.371094 22.617188 -19.71875 22.617188 -20.355469 L 22.617188 -26.097656 C 22.617188 -26.738281 22.269531 -27.085938 21.691406 -27.085938 L 10.613281 -27.085938 L 10.613281 -38.683594 L 25.113281 -38.683594 C 25.808594 -38.683594 26.039062 -39.089844 26.039062 -39.671875 Z M 26.039062 -45.46875 "/></g></g></g><g fill="#2f81f7" fill-opacity="1"><g transform="translate(141.44468, 56.799999)"><g><path d="M 34.625 -46.398438 C 33.929688 -46.398438 33.464844 -45.992188 33.40625 -45.296875 L 31.027344 -18.152344 L 30.738281 -18.152344 L 25.054688 -45.355469 C 24.882812 -46.050781 24.476562 -46.398438 23.777344 -46.398438 L 20.300781 -46.398438 C 19.601562 -46.398438 19.195312 -46.050781 19.023438 -45.355469 L 13.28125 -18.152344 L 12.992188 -18.152344 L 10.730469 -45.296875 C 10.671875 -45.992188 10.207031 -46.398438 9.511719 -46.398438 L 4 -46.398438 C 3.246094 -46.398438 2.84375 -45.933594 2.898438 -45.179688 L 7.65625 -1.101562 C 7.714844 -0.347656 8.121094 0 8.875 0 L 14.671875 0 C 15.371094 0 15.773438 -0.347656 15.949219 -0.984375 L 22.039062 -27.257812 L 28.070312 -1.042969 C 28.246094 -0.347656 28.652344 0 29.347656 0 L 35.03125 0 C 35.785156 0 36.191406 -0.347656 36.25 -1.101562 L 41.234375 -45.179688 C 41.292969 -45.933594 40.886719 -46.398438 40.132812 -46.398438 Z M 34.625 -46.398438 "/></g></g></g><g fill="#2f81f7" fill-opacity="1"><g transform="translate(185.579755, 56.799999)"><g/></g></g><g fill="#2f81f7" fill-opacity="1"><g transform="translate(200.078789, 56.799999)"><g><path d="M 26.738281 -38.046875 C 26.738281 -43.5 23.835938 -46.398438 18.386719 -46.398438 L 3.828125 -46.398438 C 3.246094 -46.398438 2.898438 -46.050781 2.898438 -45.46875 L 2.898438 -0.929688 C 2.898438 -0.347656 3.246094 0 3.828125 0 L 9.859375 0 C 10.441406 0 10.789062 -0.347656 10.789062 -0.929688 L 10.789062 -15.542969 L 14.789062 -15.542969 L 18.675781 -0.8125 C 18.792969 -0.289062 19.082031 0 19.660156 0 L 25.691406 0 C 26.332031 0 26.679688 -0.347656 26.503906 -1.042969 L 22.503906 -16.238281 C 25.285156 -17.457031 26.738281 -20.007812 26.738281 -23.894531 Z M 10.789062 -23.199219 L 10.789062 -38.742188 L 16.527344 -38.742188 C 18.039062 -38.742188 18.847656 -37.929688 18.847656 -36.421875 L 18.847656 -25.519531 C 18.847656 -24.011719 18.039062 -23.199219 16.527344 -23.199219 Z M 10.789062 -23.199219 "/></g></g></g><g fill="#2f81f7" fill-opacity="1"><g transform="translate(229.714818, 56.799999)"><g><path d="M 26.039062 -45.46875 C 26.039062 -46.050781 25.808594 -46.398438 25.113281 -46.398438 L 3.769531 -46.398438 C 3.246094 -46.398438 2.898438 -46.050781 2.898438 -45.46875 L 2.898438 -0.929688 C 2.898438 -0.347656 3.246094 0 3.769531 0 L 25.113281 0 C 25.808594 0 26.039062 -0.347656 26.039062 -0.929688 L 26.039062 -6.726562 C 26.039062 -7.367188 25.808594 -7.65625 25.113281 -7.65625 L 10.613281 -7.65625 L 10.613281 -19.371094 L 21.691406 -19.371094 C 22.269531 -19.371094 22.617188 -19.71875 22.617188 -20.355469 L 22.617188 -26.097656 C 22.617188 -26.738281 22.269531 -27.085938 21.691406 -27.085938 L 10.613281 -27.085938 L 10.613281 -38.683594 L 25.113281 -38.683594 C 25.808594 -38.683594 26.039062 -39.089844 26.039062 -39.671875 Z M 26.039062 -45.46875 "/></g></g></g><g fill="#2f81f7" fill-opacity="1"><g transform="translate(258.654899, 56.799999)"><g><path d="M 11.25 -46.398438 C 5.859375 -46.398438 2.898438 -43.5 2.898438 -38.046875 L 2.898438 -24.359375 C 2.898438 -23.257812 3.421875 -22.5625 4.464844 -22.214844 L 18.210938 -17.6875 L 18.210938 -9.976562 C 18.210938 -8.410156 17.398438 -7.65625 15.890625 -7.65625 L 13.109375 -7.65625 C 11.65625 -7.65625 10.789062 -8.410156 10.789062 -9.976562 L 10.789062 -14.441406 C 10.789062 -15.078125 10.496094 -15.371094 9.859375 -15.371094 L 3.828125 -15.371094 C 3.246094 -15.371094 2.898438 -15.078125 2.898438 -14.441406 L 2.898438 -8.351562 C 2.898438 -2.898438 5.859375 0 11.25 0 L 17.746094 0 C 23.199219 0 26.097656 -2.898438 26.097656 -8.351562 L 26.097656 -21.75 C 26.097656 -22.851562 25.578125 -23.488281 24.589844 -23.894531 L 10.789062 -28.417969 L 10.789062 -36.421875 C 10.789062 -37.929688 11.65625 -38.742188 13.109375 -38.742188 L 15.890625 -38.742188 C 17.457031 -38.742188 18.210938 -37.929688 18.210938 -36.421875 L 18.210938 -31.898438 C 18.210938 -31.320312 18.558594 -30.96875 19.140625 -30.96875 L 25.171875 -30.96875 C 25.808594 -30.96875 26.097656 -31.320312 26.097656 -31.898438 L 26.097656 -38.046875 C 26.097656 -43.5 23.199219 -46.398438 17.746094 -46.398438 Z M 11.25 -46.398438 "/></g></g></g><g fill="#2f81f7" fill-opacity="1"><g transform="translate(287.652966, 56.799999)"><g><path d="M 19.601562 -46.398438 C 18.964844 -46.398438 18.441406 -45.875 18.441406 -45.238281 L 18.441406 -9.976562 C 18.441406 -8.410156 17.632812 -7.65625 16.125 -7.65625 L 13.109375 -7.65625 C 11.597656 -7.65625 10.789062 -8.410156 10.789062 -9.976562 L 10.789062 -45.238281 C 10.789062 -45.875 10.265625 -46.398438 9.628906 -46.398438 L 4.058594 -46.398438 C 3.421875 -46.398438 2.898438 -45.875 2.898438 -45.238281 L 2.898438 -8.351562 C 2.898438 -2.898438 5.800781 0 11.25 0 L 17.746094 0 C 23.199219 0 26.097656 -2.898438 26.097656 -8.351562 L 26.097656 -45.238281 C 26.097656 -45.875 25.578125 -46.398438 24.9375 -46.398438 Z M 19.601562 -46.398438 "/></g></g></g><g fill="#2f81f7" fill-opacity="1"><g transform="translate(316.651057, 56.799999)"><g><path d="M 27.144531 -46.398438 C 26.445312 -46.398438 26.039062 -46.050781 25.867188 -45.355469 L 19.429688 -16.472656 L 12.992188 -45.355469 C 12.816406 -46.050781 12.410156 -46.398438 11.714844 -46.398438 L 4.058594 -46.398438 C 3.304688 -46.398438 2.898438 -45.992188 2.898438 -45.238281 L 2.898438 -1.160156 C 2.898438 -0.40625 3.304688 0 4.058594 0 L 9.394531 0 C 10.148438 0 10.554688 -0.40625 10.554688 -1.160156 L 10.554688 -27.257812 L 10.960938 -27.257812 L 16.703125 -1.042969 C 16.878906 -0.347656 17.285156 0 17.980469 0 L 20.820312 0 C 21.515625 0 21.921875 -0.347656 22.097656 -1.042969 L 27.839844 -27.257812 L 28.246094 -27.257812 L 28.246094 -1.160156 C 28.246094 -0.40625 28.652344 0 29.40625 0 L 34.796875 0 C 35.550781 0 35.957031 -0.40625 35.957031 -1.160156 L 35.957031 -45.238281 C 35.957031 -45.992188 35.550781 -46.398438 34.796875 -46.398438 Z M 27.144531 -46.398438 "/></g></g></g><g fill="#2f81f7" fill-opacity="1"><g transform="translate(355.50846, 56.799999)"><g><path d="M 26.039062 -45.46875 C 26.039062 -46.050781 25.808594 -46.398438 25.113281 -46.398438 L 3.769531 -46.398438 C 3.246094 -46.398438 2.898438 -46.050781 2.898438 -45.46875 L 2.898438 -0.929688 C 2.898438 -0.347656 3.246094 0 3.769531 0 L 25.113281 0 C 25.808594 0 26.039062 -0.347656 26.039062 -0.929688 L 26.039062 -6.726562 C 26.039062 -7.367188 25.808594 -7.65625 25.113281 -7.65625 L 10.613281 -7.65625 L 10.613281 -19.371094 L 21.691406 -19.371094 C 22.269531 -19.371094 22.617188 -19.71875 22.617188 -20.355469 L 22.617188 -26.097656 C 22.617188 -26.738281 22.269531 -27.085938 21.691406 -27.085938 L 10.613281 -27.085938 L 10.613281 -38.683594 L 25.113281 -38.683594 C 25.808594 -38.683594 26.039062 -39.089844 26.039062 -39.671875 Z M 26.039062 -45.46875 "/></g></g></g><path fill="#2f81f7" d="M 384.445312 59.800781 L 398.941406 59.800781 L 398.941406 65.050781 L 384.445312 65.050781 Z M 384.445312 59.800781 " fill-opacity="1" fill-rule="nonzero"/><g fill="#2f81f7" fill-opacity="1"><g transform="translate(384.446678, 56.799999)"><g/></g></g></svg>