<svg xmlns="http://www.w3.org/2000/svg" xmlns:xlink="http://www.w3.org/1999/xlink" width="600" zoomAndPan="magnify" viewBox="0 0 450 74.999997" height="100" preserveAspectRatio="xMidYMid meet" version="1.0"><defs><g/><clipPath id="b17f8c1cd3"><path d="M 14 4.730469 L 53.855469 4.730469 L 53.855469 60 L 14 60 Z M 14 4.730469 " clip-rule="nonzero"/></clipPath><clipPath id="db188572f5"><path d="M 43 4.730469 L 53.855469 4.730469 L 53.855469 16 L 43 16 Z M 43 4.730469 " clip-rule="nonzero"/></clipPath><clipPath id="da3afb1e8e"><path d="M 5.105469 14 L 45 14 L 45 69.230469 L 5.105469 69.230469 Z M 5.105469 14 " clip-rule="nonzero"/></clipPath><clipPath id="d809b609d8"><path d="M 34.769531 34.519531 L 62.519531 34.519531 L 62.519531 70.519531 L 34.769531 70.519531 Z M 34.769531 34.519531 " clip-rule="nonzero"/></clipPath></defs><g fill="#ffffff" fill-opacity="1"><g transform="translate(61.765624, 54.898928)"><g><path d="M 20.015625 -18.578125 L 23.109375 -30.40625 C 23.171875 -30.675781 23.226562 -30.921875 23.28125 -31.140625 C 23.34375 -31.367188 23.421875 -31.566406 23.515625 -31.734375 C 23.617188 -31.898438 23.75 -32.023438 23.90625 -32.109375 C 24.0625 -32.203125 24.273438 -32.25 24.546875 -32.25 L 26.8125 -32.25 C 27.039062 -32.25 27.222656 -32.203125 27.359375 -32.109375 C 27.492188 -32.023438 27.5625 -31.878906 27.5625 -31.671875 C 27.5625 -31.390625 27.484375 -31.015625 27.328125 -30.546875 L 17.953125 -2.109375 C 17.722656 -1.421875 17.453125 -0.894531 17.140625 -0.53125 C 16.835938 -0.175781 16.363281 0 15.71875 0 L 12.59375 0 C 12.25 0 11.960938 -0.0664062 11.734375 -0.203125 C 11.515625 -0.335938 11.328125 -0.503906 11.171875 -0.703125 C 11.015625 -0.910156 10.882812 -1.132812 10.78125 -1.375 C 10.6875 -1.613281 10.601562 -1.84375 10.53125 -2.0625 L 0.21875 -29.625 C 0.0703125 -30.007812 0 -30.363281 0 -30.6875 C 0 -31.207031 0.160156 -31.597656 0.484375 -31.859375 C 0.816406 -32.117188 1.164062 -32.25 1.53125 -32.25 L 14.265625 -32.25 C 14.640625 -32.25 14.957031 -32.207031 15.21875 -32.125 C 15.476562 -32.039062 15.695312 -31.921875 15.875 -31.765625 C 16.0625 -31.609375 16.210938 -31.421875 16.328125 -31.203125 C 16.453125 -30.992188 16.550781 -30.757812 16.625 -30.5 Z M 20.015625 -18.578125 "/></g></g></g><g fill="#ffffff" fill-opacity="1"><g transform="translate(89.367776, 54.898928)"><g><path d="M 2.0625 -29.109375 C 2.0625 -29.628906 2.109375 -30.082031 2.203125 -30.46875 C 2.296875 -30.863281 2.46875 -31.191406 2.71875 -31.453125 C 2.96875 -31.710938 3.316406 -31.910156 3.765625 -32.046875 C 4.222656 -32.179688 4.8125 -32.25 5.53125 -32.25 L 15.546875 -32.25 C 16.410156 -32.25 17.070312 -32.117188 17.53125 -31.859375 C 17.988281 -31.609375 18.3125 -31.289062 18.5 -30.90625 C 18.6875 -30.53125 18.785156 -30.128906 18.796875 -29.703125 C 18.816406 -29.273438 18.828125 -28.882812 18.828125 -28.53125 L 18.828125 -3.640625 C 18.828125 -3.296875 18.796875 -2.910156 18.734375 -2.484375 C 18.671875 -2.066406 18.519531 -1.675781 18.28125 -1.3125 C 18.039062 -0.945312 17.671875 -0.632812 17.171875 -0.375 C 16.679688 -0.125 16.003906 0 15.140625 0 L 5.53125 0 C 4.8125 0 4.222656 -0.0664062 3.765625 -0.203125 C 3.316406 -0.335938 2.96875 -0.53125 2.71875 -0.78125 C 2.46875 -1.039062 2.296875 -1.363281 2.203125 -1.75 C 2.109375 -2.144531 2.0625 -2.601562 2.0625 -3.125 Z M 2.0625 -29.109375 "/></g></g></g><g fill="#ffffff" fill-opacity="1"><g transform="translate(110.277136, 54.898928)"><g><path d="M 18.828125 -20.984375 L 18.828125 -2.765625 C 20.273438 -2.972656 21.609375 -3.160156 22.828125 -3.328125 C 23.328125 -3.398438 23.835938 -3.46875 24.359375 -3.53125 C 24.878906 -3.601562 25.351562 -3.664062 25.78125 -3.71875 C 26.21875 -3.78125 26.59375 -3.828125 26.90625 -3.859375 C 27.21875 -3.890625 27.4375 -3.90625 27.5625 -3.90625 C 27.8125 -3.90625 28.023438 -3.851562 28.203125 -3.75 C 28.390625 -3.65625 28.484375 -3.460938 28.484375 -3.171875 L 28.484375 -1.09375 C 28.484375 -0.832031 28.414062 -0.582031 28.28125 -0.34375 C 28.144531 -0.113281 27.820312 0 27.3125 0 L 5.484375 0 C 4.773438 0 4.195312 -0.0664062 3.75 -0.203125 C 3.3125 -0.335938 2.96875 -0.53125 2.71875 -0.78125 C 2.46875 -1.039062 2.296875 -1.363281 2.203125 -1.75 C 2.109375 -2.144531 2.0625 -2.601562 2.0625 -3.125 L 2.0625 -28.34375 C 2.0625 -29.195312 2.160156 -29.878906 2.359375 -30.390625 C 2.554688 -30.910156 2.832031 -31.304688 3.1875 -31.578125 C 3.550781 -31.859375 3.984375 -32.039062 4.484375 -32.125 C 4.984375 -32.207031 5.539062 -32.25 6.15625 -32.25 L 26.453125 -32.25 C 26.960938 -32.25 27.289062 -32.132812 27.4375 -31.90625 C 27.582031 -31.675781 27.65625 -31.414062 27.65625 -31.125 L 27.65625 -29.53125 C 27.65625 -29.238281 27.570312 -29.039062 27.40625 -28.9375 C 27.25 -28.84375 27.046875 -28.796875 26.796875 -28.796875 C 26.648438 -28.796875 26.421875 -28.8125 26.109375 -28.84375 C 25.804688 -28.875 25.453125 -28.914062 25.046875 -28.96875 C 24.640625 -29.019531 24.203125 -29.070312 23.734375 -29.125 C 23.273438 -29.1875 22.8125 -29.253906 22.34375 -29.328125 C 21.269531 -29.492188 20.097656 -29.679688 18.828125 -29.890625 L 18.828125 -24.1875 L 27.171875 -24.1875 C 27.492188 -24.1875 27.65625 -24.03125 27.65625 -23.71875 L 27.65625 -21.46875 C 27.65625 -21.144531 27.492188 -20.984375 27.171875 -20.984375 Z M 18.828125 -20.984375 "/></g></g></g><g fill="#ffffff" fill-opacity="1"><g transform="translate(139.67601, 54.898928)"><g><path d="M 34.234375 -16.375 L 37.875 -30.40625 C 37.925781 -30.675781 37.984375 -30.921875 38.046875 -31.140625 C 38.109375 -31.367188 38.179688 -31.566406 38.265625 -31.734375 C 38.359375 -31.898438 38.476562 -32.023438 38.625 -32.109375 C 38.78125 -32.203125 38.984375 -32.25 39.234375 -32.25 L 41.46875 -32.25 C 42 -32.25 42.265625 -32.054688 42.265625 -31.671875 C 42.265625 -31.390625 42.191406 -31.015625 42.046875 -30.546875 L 33.125 -2.109375 C 32.914062 -1.410156 32.640625 -0.882812 32.296875 -0.53125 C 31.953125 -0.175781 31.507812 0 30.96875 0 L 27.78125 0 C 27.457031 0 27.175781 -0.0664062 26.9375 -0.203125 C 26.707031 -0.335938 26.515625 -0.503906 26.359375 -0.703125 C 26.203125 -0.910156 26.070312 -1.132812 25.96875 -1.375 C 25.863281 -1.613281 25.78125 -1.84375 25.71875 -2.0625 L 21.65625 -15.296875 L 17.953125 -2.109375 C 17.753906 -1.410156 17.492188 -0.882812 17.171875 -0.53125 C 16.847656 -0.175781 16.425781 0 15.90625 0 L 12.15625 0 C 11.8125 0 11.523438 -0.0664062 11.296875 -0.203125 C 11.078125 -0.335938 10.882812 -0.503906 10.71875 -0.703125 C 10.5625 -0.910156 10.4375 -1.132812 10.34375 -1.375 C 10.25 -1.625 10.160156 -1.851562 10.078125 -2.0625 L 0.21875 -29.625 C 0.0703125 -30.007812 0 -30.378906 0 -30.734375 C 0 -31.253906 0.148438 -31.632812 0.453125 -31.875 C 0.753906 -32.125 1.117188 -32.25 1.546875 -32.25 L 11.046875 -32.25 C 11.421875 -32.25 11.742188 -32.203125 12.015625 -32.109375 C 12.285156 -32.015625 12.507812 -31.898438 12.6875 -31.765625 C 12.863281 -31.628906 13 -31.484375 13.09375 -31.328125 C 13.1875 -31.171875 13.253906 -31.03125 13.296875 -30.90625 L 18.078125 -16.375 L 19.5625 -22.0625 L 17.25 -29.625 C 17.175781 -29.832031 17.117188 -30.035156 17.078125 -30.234375 C 17.046875 -30.429688 17.03125 -30.609375 17.03125 -30.765625 C 17.03125 -31.296875 17.171875 -31.675781 17.453125 -31.90625 C 17.734375 -32.132812 18.09375 -32.25 18.53125 -32.25 L 28.046875 -32.25 C 28.421875 -32.25 28.738281 -32.21875 29 -32.15625 C 29.269531 -32.101562 29.484375 -32.019531 29.640625 -31.90625 C 29.804688 -31.789062 29.941406 -31.644531 30.046875 -31.46875 C 30.148438 -31.300781 30.242188 -31.113281 30.328125 -30.90625 Z M 34.234375 -16.375 "/></g></g></g><g fill="#ffffff" fill-opacity="1"><g transform="translate(181.98882, 54.898928)"><g/></g></g><g fill="#ffffff" fill-opacity="1"><g transform="translate(195.778663, 54.898928)"><g><path d="M 2.0625 -29.109375 C 2.0625 -29.628906 2.109375 -30.082031 2.203125 -30.46875 C 2.296875 -30.863281 2.46875 -31.191406 2.71875 -31.453125 C 2.96875 -31.710938 3.316406 -31.910156 3.765625 -32.046875 C 4.222656 -32.179688 4.8125 -32.25 5.53125 -32.25 L 15.546875 -32.25 C 16.578125 -32.25 17.597656 -32.1875 18.609375 -32.0625 C 19.628906 -31.9375 20.609375 -31.722656 21.546875 -31.421875 C 22.484375 -31.117188 23.351562 -30.726562 24.15625 -30.25 C 24.957031 -29.769531 25.65625 -29.175781 26.25 -28.46875 C 26.84375 -27.757812 27.304688 -26.925781 27.640625 -25.96875 C 27.972656 -25.019531 28.140625 -23.925781 28.140625 -22.6875 C 28.140625 -20.84375 27.890625 -19.285156 27.390625 -18.015625 C 26.890625 -16.753906 26.210938 -15.710938 25.359375 -14.890625 C 24.503906 -14.066406 23.507812 -13.4375 22.375 -13 C 21.25 -12.570312 20.066406 -12.257812 18.828125 -12.0625 L 18.828125 -3.640625 C 18.828125 -3.296875 18.796875 -2.910156 18.734375 -2.484375 C 18.671875 -2.066406 18.519531 -1.675781 18.28125 -1.3125 C 18.039062 -0.945312 17.671875 -0.632812 17.171875 -0.375 C 16.679688 -0.125 16.003906 0 15.140625 0 L 5.53125 0 C 4.8125 0 4.222656 -0.0664062 3.765625 -0.203125 C 3.316406 -0.335938 2.96875 -0.53125 2.71875 -0.78125 C 2.46875 -1.039062 2.296875 -1.363281 2.203125 -1.75 C 2.109375 -2.144531 2.0625 -2.601562 2.0625 -3.125 Z M 24.984375 -22.34375 C 24.984375 -23.25 24.863281 -24.078125 24.625 -24.828125 C 24.382812 -25.585938 24.015625 -26.25 23.515625 -26.8125 C 23.023438 -27.382812 22.390625 -27.859375 21.609375 -28.234375 C 20.828125 -28.609375 19.898438 -28.863281 18.828125 -29 L 18.828125 -15.046875 C 19.898438 -15.210938 20.828125 -15.507812 21.609375 -15.9375 C 22.390625 -16.375 23.023438 -16.914062 23.515625 -17.5625 C 24.015625 -18.207031 24.382812 -18.9375 24.625 -19.75 C 24.863281 -20.570312 24.984375 -21.4375 24.984375 -22.34375 Z M 24.984375 -22.34375 "/></g></g></g><g fill="#ffffff" fill-opacity="1"><g transform="translate(224.840645, 54.898928)"><g><path d="M 22.390625 -6.109375 C 21.828125 -5.796875 21.25 -5.535156 20.65625 -5.328125 C 20.0625 -5.117188 19.453125 -4.945312 18.828125 -4.8125 L 18.828125 -3.125 C 18.828125 -2.644531 18.773438 -2.210938 18.671875 -1.828125 C 18.566406 -1.453125 18.378906 -1.128906 18.109375 -0.859375 C 17.847656 -0.585938 17.503906 -0.375 17.078125 -0.21875 C 16.648438 -0.0703125 16.113281 0 15.46875 0 L 5.53125 0 C 4.8125 0 4.222656 -0.0664062 3.765625 -0.203125 C 3.316406 -0.335938 2.96875 -0.53125 2.71875 -0.78125 C 2.46875 -1.039062 2.296875 -1.363281 2.203125 -1.75 C 2.109375 -2.144531 2.0625 -2.601562 2.0625 -3.125 L 2.0625 -29.109375 C 2.0625 -29.628906 2.109375 -30.082031 2.203125 -30.46875 C 2.296875 -30.863281 2.46875 -31.191406 2.71875 -31.453125 C 2.96875 -31.710938 3.316406 -31.910156 3.765625 -32.046875 C 4.222656 -32.179688 4.8125 -32.25 5.53125 -32.25 L 15.546875 -32.25 C 16.617188 -32.25 17.675781 -32.160156 18.71875 -31.984375 C 19.757812 -31.804688 20.75 -31.519531 21.6875 -31.125 C 22.625 -30.726562 23.484375 -30.195312 24.265625 -29.53125 C 25.054688 -28.875 25.738281 -28.0625 26.3125 -27.09375 C 26.882812 -26.132812 27.332031 -25.007812 27.65625 -23.71875 C 27.976562 -22.425781 28.140625 -20.941406 28.140625 -19.265625 C 28.140625 -17.828125 28.050781 -16.523438 27.875 -15.359375 C 27.695312 -14.191406 27.445312 -13.132812 27.125 -12.1875 C 26.8125 -11.25 26.4375 -10.414062 26 -9.6875 C 25.5625 -8.96875 25.070312 -8.328125 24.53125 -7.765625 L 29.015625 -1.84375 C 29.171875 -1.632812 29.25 -1.429688 29.25 -1.234375 C 29.25 -1.015625 29.164062 -0.820312 29 -0.65625 C 28.84375 -0.488281 28.675781 -0.351562 28.5 -0.25 L 27.15625 0.546875 C 27.050781 0.597656 26.941406 0.640625 26.828125 0.671875 C 26.710938 0.710938 26.597656 0.734375 26.484375 0.734375 C 26.316406 0.734375 26.148438 0.679688 25.984375 0.578125 C 25.816406 0.472656 25.664062 0.296875 25.53125 0.046875 Z M 24.984375 -18.875 C 24.984375 -20.21875 24.863281 -21.457031 24.625 -22.59375 C 24.382812 -23.726562 24.015625 -24.726562 23.515625 -25.59375 C 23.023438 -26.46875 22.390625 -27.1875 21.609375 -27.75 C 20.828125 -28.320312 19.898438 -28.71875 18.828125 -28.9375 L 18.828125 -7.75 C 19.898438 -7.988281 20.828125 -8.425781 21.609375 -9.0625 C 22.390625 -9.695312 23.023438 -10.492188 23.515625 -11.453125 C 24.015625 -12.410156 24.382812 -13.515625 24.625 -14.765625 C 24.863281 -16.015625 24.984375 -17.382812 24.984375 -18.875 Z M 24.984375 -18.875 "/></g></g></g><g fill="#ffffff" fill-opacity="1"><g transform="translate(254.531492, 54.898928)"><g><path d="M 16.328125 0.875 C 15.128906 0.875 13.925781 0.769531 12.71875 0.5625 C 11.519531 0.351562 10.363281 -0.00390625 9.25 -0.515625 C 8.144531 -1.023438 7.113281 -1.703125 6.15625 -2.546875 C 5.195312 -3.390625 4.359375 -4.441406 3.640625 -5.703125 C 2.929688 -6.972656 2.375 -8.472656 1.96875 -10.203125 C 1.570312 -11.929688 1.375 -13.941406 1.375 -16.234375 C 1.375 -18.515625 1.570312 -20.519531 1.96875 -22.25 C 2.375 -23.988281 2.929688 -25.488281 3.640625 -26.75 C 4.359375 -28.019531 5.195312 -29.070312 6.15625 -29.90625 C 7.113281 -30.75 8.144531 -31.421875 9.25 -31.921875 C 10.363281 -32.429688 11.519531 -32.789062 12.71875 -33 C 13.925781 -33.207031 15.128906 -33.3125 16.328125 -33.3125 C 17.523438 -33.3125 18.726562 -33.207031 19.9375 -33 C 21.15625 -32.789062 22.316406 -32.429688 23.421875 -31.921875 C 24.535156 -31.421875 25.570312 -30.75 26.53125 -29.90625 C 27.488281 -29.070312 28.316406 -28.019531 29.015625 -26.75 C 29.722656 -25.488281 30.273438 -23.988281 30.671875 -22.25 C 31.078125 -20.519531 31.28125 -18.515625 31.28125 -16.234375 C 31.28125 -13.960938 31.078125 -11.957031 30.671875 -10.21875 C 30.273438 -8.476562 29.722656 -6.972656 29.015625 -5.703125 C 28.316406 -4.441406 27.488281 -3.390625 26.53125 -2.546875 C 25.570312 -1.703125 24.535156 -1.023438 23.421875 -0.515625 C 22.316406 -0.00390625 21.15625 0.351562 19.9375 0.5625 C 18.726562 0.769531 17.523438 0.875 16.328125 0.875 Z M 18.34375 -16.234375 C 18.34375 -14.367188 18.484375 -12.804688 18.765625 -11.546875 C 19.046875 -10.285156 19.414062 -9.273438 19.875 -8.515625 C 20.34375 -7.753906 20.863281 -7.210938 21.4375 -6.890625 C 22.007812 -6.566406 22.601562 -6.40625 23.21875 -6.40625 C 23.832031 -6.40625 24.429688 -6.566406 25.015625 -6.890625 C 25.597656 -7.210938 26.117188 -7.753906 26.578125 -8.515625 C 27.035156 -9.273438 27.398438 -10.285156 27.671875 -11.546875 C 27.953125 -12.804688 28.09375 -14.367188 28.09375 -16.234375 C 28.09375 -18.109375 27.953125 -19.675781 27.671875 -20.9375 C 27.398438 -22.195312 27.035156 -23.207031 26.578125 -23.96875 C 26.117188 -24.726562 25.597656 -25.269531 25.015625 -25.59375 C 24.429688 -25.914062 23.832031 -26.078125 23.21875 -26.078125 C 22.601562 -26.078125 22.007812 -25.914062 21.4375 -25.59375 C 20.863281 -25.269531 20.34375 -24.726562 19.875 -23.96875 C 19.414062 -23.207031 19.046875 -22.195312 18.765625 -20.9375 C 18.484375 -19.675781 18.34375 -18.109375 18.34375 -16.234375 Z M 18.34375 -16.234375 "/></g></g></g><g fill="#ffffff" fill-opacity="1"><g transform="translate(287.186931, 54.898928)"><g><path d="M 0.453125 -3.078125 C 0.453125 -3.273438 0.476562 -3.398438 0.53125 -3.453125 C 0.59375 -3.503906 0.671875 -3.53125 0.765625 -3.53125 C 0.941406 -3.53125 1.226562 -3.460938 1.625 -3.328125 C 2.019531 -3.191406 2.550781 -3.125 3.21875 -3.125 C 5.082031 -3.125 6.015625 -4.285156 6.015625 -6.609375 L 6.015625 -29.125 C 6.015625 -29.476562 6.039062 -29.835938 6.09375 -30.203125 C 6.144531 -30.566406 6.28125 -30.898438 6.5 -31.203125 C 6.71875 -31.515625 7.039062 -31.765625 7.46875 -31.953125 C 7.90625 -32.148438 8.515625 -32.25 9.296875 -32.25 L 19.3125 -32.25 C 20.03125 -32.25 20.613281 -32.179688 21.0625 -32.046875 C 21.519531 -31.910156 21.875 -31.710938 22.125 -31.453125 C 22.375 -31.191406 22.546875 -30.863281 22.640625 -30.46875 C 22.734375 -30.082031 22.78125 -29.628906 22.78125 -29.109375 L 22.78125 -11.296875 C 22.78125 -9.503906 22.578125 -7.953125 22.171875 -6.640625 C 21.765625 -5.328125 21.21875 -4.222656 20.53125 -3.328125 C 19.851562 -2.429688 19.066406 -1.703125 18.171875 -1.140625 C 17.273438 -0.585938 16.335938 -0.164062 15.359375 0.125 C 14.390625 0.425781 13.40625 0.625 12.40625 0.71875 C 11.414062 0.820312 10.476562 0.875 9.59375 0.875 C 7.601562 0.875 5.882812 0.742188 4.4375 0.484375 C 2.988281 0.222656 1.796875 -0.144531 0.859375 -0.625 C 0.773438 -0.65625 0.6875 -0.71875 0.59375 -0.8125 C 0.5 -0.914062 0.453125 -1.09375 0.453125 -1.34375 Z M 0.453125 -3.078125 "/></g></g></g><g fill="#ffffff" fill-opacity="1"><g transform="translate(312.026605, 54.898928)"><g><path d="M 18.828125 -20.984375 L 18.828125 -2.765625 C 20.273438 -2.972656 21.609375 -3.160156 22.828125 -3.328125 C 23.328125 -3.398438 23.835938 -3.46875 24.359375 -3.53125 C 24.878906 -3.601562 25.351562 -3.664062 25.78125 -3.71875 C 26.21875 -3.78125 26.59375 -3.828125 26.90625 -3.859375 C 27.21875 -3.890625 27.4375 -3.90625 27.5625 -3.90625 C 27.8125 -3.90625 28.023438 -3.851562 28.203125 -3.75 C 28.390625 -3.65625 28.484375 -3.460938 28.484375 -3.171875 L 28.484375 -1.09375 C 28.484375 -0.832031 28.414062 -0.582031 28.28125 -0.34375 C 28.144531 -0.113281 27.820312 0 27.3125 0 L 5.484375 0 C 4.773438 0 4.195312 -0.0664062 3.75 -0.203125 C 3.3125 -0.335938 2.96875 -0.53125 2.71875 -0.78125 C 2.46875 -1.039062 2.296875 -1.363281 2.203125 -1.75 C 2.109375 -2.144531 2.0625 -2.601562 2.0625 -3.125 L 2.0625 -28.34375 C 2.0625 -29.195312 2.160156 -29.878906 2.359375 -30.390625 C 2.554688 -30.910156 2.832031 -31.304688 3.1875 -31.578125 C 3.550781 -31.859375 3.984375 -32.039062 4.484375 -32.125 C 4.984375 -32.207031 5.539062 -32.25 6.15625 -32.25 L 26.453125 -32.25 C 26.960938 -32.25 27.289062 -32.132812 27.4375 -31.90625 C 27.582031 -31.675781 27.65625 -31.414062 27.65625 -31.125 L 27.65625 -29.53125 C 27.65625 -29.238281 27.570312 -29.039062 27.40625 -28.9375 C 27.25 -28.84375 27.046875 -28.796875 26.796875 -28.796875 C 26.648438 -28.796875 26.421875 -28.8125 26.109375 -28.84375 C 25.804688 -28.875 25.453125 -28.914062 25.046875 -28.96875 C 24.640625 -29.019531 24.203125 -29.070312 23.734375 -29.125 C 23.273438 -29.1875 22.8125 -29.253906 22.34375 -29.328125 C 21.269531 -29.492188 20.097656 -29.679688 18.828125 -29.890625 L 18.828125 -24.1875 L 27.171875 -24.1875 C 27.492188 -24.1875 27.65625 -24.03125 27.65625 -23.71875 L 27.65625 -21.46875 C 27.65625 -21.144531 27.492188 -20.984375 27.171875 -20.984375 Z M 18.828125 -20.984375 "/></g></g></g><g fill="#ffffff" fill-opacity="1"><g transform="translate(341.425467, 54.898928)"><g><path d="M 18.34375 -16.21875 C 18.34375 -14.375 18.414062 -12.78125 18.5625 -11.4375 C 18.71875 -10.101562 18.921875 -8.96875 19.171875 -8.03125 C 19.421875 -7.09375 19.710938 -6.332031 20.046875 -5.75 C 20.378906 -5.175781 20.722656 -4.726562 21.078125 -4.40625 C 21.441406 -4.09375 21.804688 -3.878906 22.171875 -3.765625 C 22.546875 -3.648438 22.894531 -3.59375 23.21875 -3.59375 C 23.59375 -3.59375 23.929688 -3.640625 24.234375 -3.734375 C 24.535156 -3.835938 24.804688 -3.953125 25.046875 -4.078125 C 25.285156 -4.203125 25.484375 -4.3125 25.640625 -4.40625 C 25.796875 -4.507812 25.921875 -4.5625 26.015625 -4.5625 C 26.128906 -4.5625 26.234375 -4.492188 26.328125 -4.359375 L 27.296875 -2.828125 C 27.335938 -2.742188 27.359375 -2.671875 27.359375 -2.609375 C 27.359375 -2.535156 27.328125 -2.472656 27.265625 -2.421875 C 27.203125 -2.367188 27.148438 -2.316406 27.109375 -2.265625 C 26.648438 -1.910156 26.0625 -1.546875 25.34375 -1.171875 C 24.625 -0.796875 23.800781 -0.457031 22.875 -0.15625 C 21.957031 0.144531 20.941406 0.390625 19.828125 0.578125 C 18.722656 0.773438 17.554688 0.875 16.328125 0.875 C 15.203125 0.875 14.050781 0.765625 12.875 0.546875 C 11.707031 0.328125 10.566406 -0.0351562 9.453125 -0.546875 C 8.347656 -1.066406 7.304688 -1.753906 6.328125 -2.609375 C 5.347656 -3.460938 4.488281 -4.519531 3.75 -5.78125 C 3.019531 -7.050781 2.441406 -8.539062 2.015625 -10.25 C 1.585938 -11.96875 1.375 -13.957031 1.375 -16.21875 C 1.375 -18.476562 1.585938 -20.460938 2.015625 -22.171875 C 2.441406 -23.890625 3.019531 -25.378906 3.75 -26.640625 C 4.488281 -27.910156 5.347656 -28.972656 6.328125 -29.828125 C 7.304688 -30.679688 8.347656 -31.363281 9.453125 -31.875 C 10.566406 -32.394531 11.707031 -32.765625 12.875 -32.984375 C 14.050781 -33.203125 15.203125 -33.3125 16.328125 -33.3125 C 17.554688 -33.3125 18.722656 -33.210938 19.828125 -33.015625 C 20.941406 -32.816406 21.957031 -32.566406 22.875 -32.265625 C 23.800781 -31.972656 24.625 -31.640625 25.34375 -31.265625 C 26.0625 -30.890625 26.648438 -30.523438 27.109375 -30.171875 C 27.148438 -30.117188 27.203125 -30.066406 27.265625 -30.015625 C 27.328125 -29.960938 27.359375 -29.898438 27.359375 -29.828125 C 27.359375 -29.765625 27.335938 -29.691406 27.296875 -29.609375 L 26.328125 -28.078125 C 26.234375 -27.941406 26.128906 -27.875 26.015625 -27.875 C 25.921875 -27.875 25.796875 -27.921875 25.640625 -28.015625 C 25.484375 -28.117188 25.285156 -28.234375 25.046875 -28.359375 C 24.804688 -28.484375 24.535156 -28.59375 24.234375 -28.6875 C 23.929688 -28.789062 23.59375 -28.84375 23.21875 -28.84375 C 22.894531 -28.84375 22.546875 -28.785156 22.171875 -28.671875 C 21.804688 -28.554688 21.441406 -28.335938 21.078125 -28.015625 C 20.722656 -27.691406 20.378906 -27.242188 20.046875 -26.671875 C 19.710938 -26.097656 19.421875 -25.34375 19.171875 -24.40625 C 18.921875 -23.46875 18.71875 -22.328125 18.5625 -20.984375 C 18.414062 -19.648438 18.34375 -18.0625 18.34375 -16.21875 Z M 18.34375 -16.21875 "/></g></g></g><g fill="#ffffff" fill-opacity="1"><g transform="translate(369.454334, 54.898928)"><g><path d="M 7.5 -28.96875 C 6.53125 -28.757812 5.632812 -28.570312 4.8125 -28.40625 C 4.445312 -28.332031 4.085938 -28.265625 3.734375 -28.203125 C 3.390625 -28.148438 3.054688 -28.097656 2.734375 -28.046875 C 2.421875 -27.992188 2.140625 -27.953125 1.890625 -27.921875 C 1.648438 -27.890625 1.46875 -27.875 1.34375 -27.875 C 1.09375 -27.875 0.878906 -27.921875 0.703125 -28.015625 C 0.535156 -28.117188 0.453125 -28.316406 0.453125 -28.609375 L 0.453125 -31.125 C 0.453125 -31.414062 0.570312 -31.675781 0.8125 -31.90625 C 1.050781 -32.132812 1.425781 -32.25 1.9375 -32.25 L 29.8125 -32.25 C 30.3125 -32.25 30.679688 -32.132812 30.921875 -31.90625 C 31.160156 -31.675781 31.28125 -31.414062 31.28125 -31.125 L 31.28125 -28.609375 C 31.28125 -28.316406 31.191406 -28.117188 31.015625 -28.015625 C 30.847656 -27.921875 30.640625 -27.875 30.390625 -27.875 C 30.253906 -27.875 30.066406 -27.890625 29.828125 -27.921875 C 29.585938 -27.953125 29.3125 -27.992188 29 -28.046875 C 28.6875 -28.097656 28.351562 -28.148438 28 -28.203125 C 27.644531 -28.265625 27.289062 -28.332031 26.9375 -28.40625 C 26.113281 -28.570312 25.210938 -28.757812 24.234375 -28.96875 L 24.234375 -3.078125 C 24.234375 -2.566406 24.1875 -2.117188 24.09375 -1.734375 C 24.007812 -1.359375 23.84375 -1.035156 23.59375 -0.765625 C 23.34375 -0.503906 23 -0.3125 22.5625 -0.1875 C 22.132812 -0.0625 21.582031 0 20.90625 0 L 10.890625 0 C 10.191406 0 9.617188 -0.0664062 9.171875 -0.203125 C 8.734375 -0.335938 8.390625 -0.53125 8.140625 -0.78125 C 7.890625 -1.039062 7.71875 -1.363281 7.625 -1.75 C 7.539062 -2.144531 7.5 -2.601562 7.5 -3.125 Z M 7.5 -28.96875 "/></g></g></g><g fill="#ffffff" fill-opacity="1"><g transform="translate(401.188935, 54.898928)"><g><path d="M 7.328125 -24.53125 C 7.484375 -26.15625 7.921875 -27.515625 8.640625 -28.609375 C 9.359375 -29.703125 10.25 -30.570312 11.3125 -31.21875 C 12.382812 -31.875 13.570312 -32.335938 14.875 -32.609375 C 16.175781 -32.878906 17.492188 -33.015625 18.828125 -33.015625 C 19.921875 -33.015625 20.988281 -32.96875 22.03125 -32.875 C 23.082031 -32.789062 24.046875 -32.6875 24.921875 -32.5625 C 25.804688 -32.445312 26.570312 -32.328125 27.21875 -32.203125 C 27.863281 -32.085938 28.335938 -32 28.640625 -31.9375 C 28.816406 -31.894531 28.90625 -31.8125 28.90625 -31.6875 C 28.90625 -31.65625 28.890625 -31.566406 28.859375 -31.421875 L 28.53125 -29.8125 C 28.5 -29.707031 28.457031 -29.640625 28.40625 -29.609375 C 28.351562 -29.585938 28.300781 -29.578125 28.25 -29.578125 C 27.59375 -29.578125 27.023438 -29.460938 26.546875 -29.234375 C 26.066406 -29.015625 25.671875 -28.703125 25.359375 -28.296875 C 25.046875 -27.890625 24.804688 -27.410156 24.640625 -26.859375 C 24.472656 -26.304688 24.359375 -25.707031 24.296875 -25.0625 L 22.953125 -8.734375 C 22.835938 -7.421875 22.5 -6.175781 21.9375 -5 C 21.382812 -3.832031 20.613281 -2.816406 19.625 -1.953125 C 18.644531 -1.085938 17.4375 -0.398438 16 0.109375 C 14.5625 0.617188 12.910156 0.875 11.046875 0.875 C 9.804688 0.875 8.609375 0.8125 7.453125 0.6875 C 6.304688 0.570312 5.257812 0.429688 4.3125 0.265625 C 3.363281 0.0976562 2.550781 -0.0625 1.875 -0.21875 C 1.195312 -0.375 0.707031 -0.488281 0.40625 -0.5625 C 0.226562 -0.601562 0.140625 -0.6875 0.140625 -0.8125 C 0.140625 -0.820312 0.15625 -0.90625 0.1875 -1.0625 L 0.5625 -2.765625 C 0.59375 -2.867188 0.632812 -2.929688 0.6875 -2.953125 C 0.738281 -2.972656 0.785156 -2.984375 0.828125 -2.984375 C 1.484375 -2.984375 2.09375 -3.082031 2.65625 -3.28125 C 3.21875 -3.476562 3.707031 -3.800781 4.125 -4.25 C 4.550781 -4.695312 4.898438 -5.28125 5.171875 -6 C 5.453125 -6.71875 5.644531 -7.597656 5.75 -8.640625 Z M 7.328125 -24.53125 "/></g></g></g><g fill="#ffffff" fill-opacity="1"><g transform="translate(430.226535, 54.898928)"><g/></g></g><g fill="#6660e0" fill-opacity="1"><g transform="translate(66.353243, 55.912601)"><g><path d="M 20.015625 -18.578125 L 23.109375 -30.40625 C 23.171875 -30.675781 23.226562 -30.921875 23.28125 -31.140625 C 23.34375 -31.367188 23.421875 -31.566406 23.515625 -31.734375 C 23.617188 -31.898438 23.75 -32.023438 23.90625 -32.109375 C 24.0625 -32.203125 24.273438 -32.25 24.546875 -32.25 L 26.8125 -32.25 C 27.039062 -32.25 27.222656 -32.203125 27.359375 -32.109375 C 27.492188 -32.023438 27.5625 -31.878906 27.5625 -31.671875 C 27.5625 -31.390625 27.484375 -31.015625 27.328125 -30.546875 L 17.953125 -2.109375 C 17.722656 -1.421875 17.453125 -0.894531 17.140625 -0.53125 C 16.835938 -0.175781 16.363281 0 15.71875 0 L 12.59375 0 C 12.25 0 11.960938 -0.0664062 11.734375 -0.203125 C 11.515625 -0.335938 11.328125 -0.503906 11.171875 -0.703125 C 11.015625 -0.910156 10.882812 -1.132812 10.78125 -1.375 C 10.6875 -1.613281 10.601562 -1.84375 10.53125 -2.0625 L 0.21875 -29.625 C 0.0703125 -30.007812 0 -30.363281 0 -30.6875 C 0 -31.207031 0.160156 -31.597656 0.484375 -31.859375 C 0.816406 -32.117188 1.164062 -32.25 1.53125 -32.25 L 14.265625 -32.25 C 14.640625 -32.25 14.957031 -32.207031 15.21875 -32.125 C 15.476562 -32.039062 15.695312 -31.921875 15.875 -31.765625 C 16.0625 -31.609375 16.210938 -31.421875 16.328125 -31.203125 C 16.453125 -30.992188 16.550781 -30.757812 16.625 -30.5 Z M 20.015625 -18.578125 "/></g></g></g><g fill="#6660e0" fill-opacity="1"><g transform="translate(93.955395, 55.912601)"><g><path d="M 2.0625 -29.109375 C 2.0625 -29.628906 2.109375 -30.082031 2.203125 -30.46875 C 2.296875 -30.863281 2.46875 -31.191406 2.71875 -31.453125 C 2.96875 -31.710938 3.316406 -31.910156 3.765625 -32.046875 C 4.222656 -32.179688 4.8125 -32.25 5.53125 -32.25 L 15.546875 -32.25 C 16.410156 -32.25 17.070312 -32.117188 17.53125 -31.859375 C 17.988281 -31.609375 18.3125 -31.289062 18.5 -30.90625 C 18.6875 -30.53125 18.785156 -30.128906 18.796875 -29.703125 C 18.816406 -29.273438 18.828125 -28.882812 18.828125 -28.53125 L 18.828125 -3.640625 C 18.828125 -3.296875 18.796875 -2.910156 18.734375 -2.484375 C 18.671875 -2.066406 18.519531 -1.675781 18.28125 -1.3125 C 18.039062 -0.945312 17.671875 -0.632812 17.171875 -0.375 C 16.679688 -0.125 16.003906 0 15.140625 0 L 5.53125 0 C 4.8125 0 4.222656 -0.0664062 3.765625 -0.203125 C 3.316406 -0.335938 2.96875 -0.53125 2.71875 -0.78125 C 2.46875 -1.039062 2.296875 -1.363281 2.203125 -1.75 C 2.109375 -2.144531 2.0625 -2.601562 2.0625 -3.125 Z M 2.0625 -29.109375 "/></g></g></g><g fill="#6660e0" fill-opacity="1"><g transform="translate(114.864755, 55.912601)"><g><path d="M 18.828125 -20.984375 L 18.828125 -2.765625 C 20.273438 -2.972656 21.609375 -3.160156 22.828125 -3.328125 C 23.328125 -3.398438 23.835938 -3.46875 24.359375 -3.53125 C 24.878906 -3.601562 25.351562 -3.664062 25.78125 -3.71875 C 26.21875 -3.78125 26.59375 -3.828125 26.90625 -3.859375 C 27.21875 -3.890625 27.4375 -3.90625 27.5625 -3.90625 C 27.8125 -3.90625 28.023438 -3.851562 28.203125 -3.75 C 28.390625 -3.65625 28.484375 -3.460938 28.484375 -3.171875 L 28.484375 -1.09375 C 28.484375 -0.832031 28.414062 -0.582031 28.28125 -0.34375 C 28.144531 -0.113281 27.820312 0 27.3125 0 L 5.484375 0 C 4.773438 0 4.195312 -0.0664062 3.75 -0.203125 C 3.3125 -0.335938 2.96875 -0.53125 2.71875 -0.78125 C 2.46875 -1.039062 2.296875 -1.363281 2.203125 -1.75 C 2.109375 -2.144531 2.0625 -2.601562 2.0625 -3.125 L 2.0625 -28.34375 C 2.0625 -29.195312 2.160156 -29.878906 2.359375 -30.390625 C 2.554688 -30.910156 2.832031 -31.304688 3.1875 -31.578125 C 3.550781 -31.859375 3.984375 -32.039062 4.484375 -32.125 C 4.984375 -32.207031 5.539062 -32.25 6.15625 -32.25 L 26.453125 -32.25 C 26.960938 -32.25 27.289062 -32.132812 27.4375 -31.90625 C 27.582031 -31.675781 27.65625 -31.414062 27.65625 -31.125 L 27.65625 -29.53125 C 27.65625 -29.238281 27.570312 -29.039062 27.40625 -28.9375 C 27.25 -28.84375 27.046875 -28.796875 26.796875 -28.796875 C 26.648438 -28.796875 26.421875 -28.8125 26.109375 -28.84375 C 25.804688 -28.875 25.453125 -28.914062 25.046875 -28.96875 C 24.640625 -29.019531 24.203125 -29.070312 23.734375 -29.125 C 23.273438 -29.1875 22.8125 -29.253906 22.34375 -29.328125 C 21.269531 -29.492188 20.097656 -29.679688 18.828125 -29.890625 L 18.828125 -24.1875 L 27.171875 -24.1875 C 27.492188 -24.1875 27.65625 -24.03125 27.65625 -23.71875 L 27.65625 -21.46875 C 27.65625 -21.144531 27.492188 -20.984375 27.171875 -20.984375 Z M 18.828125 -20.984375 "/></g></g></g><g fill="#6660e0" fill-opacity="1"><g transform="translate(144.26363, 55.912601)"><g><path d="M 34.234375 -16.375 L 37.875 -30.40625 C 37.925781 -30.675781 37.984375 -30.921875 38.046875 -31.140625 C 38.109375 -31.367188 38.179688 -31.566406 38.265625 -31.734375 C 38.359375 -31.898438 38.476562 -32.023438 38.625 -32.109375 C 38.78125 -32.203125 38.984375 -32.25 39.234375 -32.25 L 41.46875 -32.25 C 42 -32.25 42.265625 -32.054688 42.265625 -31.671875 C 42.265625 -31.390625 42.191406 -31.015625 42.046875 -30.546875 L 33.125 -2.109375 C 32.914062 -1.410156 32.640625 -0.882812 32.296875 -0.53125 C 31.953125 -0.175781 31.507812 0 30.96875 0 L 27.78125 0 C 27.457031 0 27.175781 -0.0664062 26.9375 -0.203125 C 26.707031 -0.335938 26.515625 -0.503906 26.359375 -0.703125 C 26.203125 -0.910156 26.070312 -1.132812 25.96875 -1.375 C 25.863281 -1.613281 25.78125 -1.84375 25.71875 -2.0625 L 21.65625 -15.296875 L 17.953125 -2.109375 C 17.753906 -1.410156 17.492188 -0.882812 17.171875 -0.53125 C 16.847656 -0.175781 16.425781 0 15.90625 0 L 12.15625 0 C 11.8125 0 11.523438 -0.0664062 11.296875 -0.203125 C 11.078125 -0.335938 10.882812 -0.503906 10.71875 -0.703125 C 10.5625 -0.910156 10.4375 -1.132812 10.34375 -1.375 C 10.25 -1.625 10.160156 -1.851562 10.078125 -2.0625 L 0.21875 -29.625 C 0.0703125 -30.007812 0 -30.378906 0 -30.734375 C 0 -31.253906 0.148438 -31.632812 0.453125 -31.875 C 0.753906 -32.125 1.117188 -32.25 1.546875 -32.25 L 11.046875 -32.25 C 11.421875 -32.25 11.742188 -32.203125 12.015625 -32.109375 C 12.285156 -32.015625 12.507812 -31.898438 12.6875 -31.765625 C 12.863281 -31.628906 13 -31.484375 13.09375 -31.328125 C 13.1875 -31.171875 13.253906 -31.03125 13.296875 -30.90625 L 18.078125 -16.375 L 19.5625 -22.0625 L 17.25 -29.625 C 17.175781 -29.832031 17.117188 -30.035156 17.078125 -30.234375 C 17.046875 -30.429688 17.03125 -30.609375 17.03125 -30.765625 C 17.03125 -31.296875 17.171875 -31.675781 17.453125 -31.90625 C 17.734375 -32.132812 18.09375 -32.25 18.53125 -32.25 L 28.046875 -32.25 C 28.421875 -32.25 28.738281 -32.21875 29 -32.15625 C 29.269531 -32.101562 29.484375 -32.019531 29.640625 -31.90625 C 29.804688 -31.789062 29.941406 -31.644531 30.046875 -31.46875 C 30.148438 -31.300781 30.242188 -31.113281 30.328125 -30.90625 Z M 34.234375 -16.375 "/></g></g></g><g fill="#6660e0" fill-opacity="1"><g transform="translate(186.576439, 55.912601)"><g/></g></g><g fill="#6660e0" fill-opacity="1"><g transform="translate(200.366282, 55.912601)"><g><path d="M 2.0625 -29.109375 C 2.0625 -29.628906 2.109375 -30.082031 2.203125 -30.46875 C 2.296875 -30.863281 2.46875 -31.191406 2.71875 -31.453125 C 2.96875 -31.710938 3.316406 -31.910156 3.765625 -32.046875 C 4.222656 -32.179688 4.8125 -32.25 5.53125 -32.25 L 15.546875 -32.25 C 16.578125 -32.25 17.597656 -32.1875 18.609375 -32.0625 C 19.628906 -31.9375 20.609375 -31.722656 21.546875 -31.421875 C 22.484375 -31.117188 23.351562 -30.726562 24.15625 -30.25 C 24.957031 -29.769531 25.65625 -29.175781 26.25 -28.46875 C 26.84375 -27.757812 27.304688 -26.925781 27.640625 -25.96875 C 27.972656 -25.019531 28.140625 -23.925781 28.140625 -22.6875 C 28.140625 -20.84375 27.890625 -19.285156 27.390625 -18.015625 C 26.890625 -16.753906 26.210938 -15.710938 25.359375 -14.890625 C 24.503906 -14.066406 23.507812 -13.4375 22.375 -13 C 21.25 -12.570312 20.066406 -12.257812 18.828125 -12.0625 L 18.828125 -3.640625 C 18.828125 -3.296875 18.796875 -2.910156 18.734375 -2.484375 C 18.671875 -2.066406 18.519531 -1.675781 18.28125 -1.3125 C 18.039062 -0.945312 17.671875 -0.632812 17.171875 -0.375 C 16.679688 -0.125 16.003906 0 15.140625 0 L 5.53125 0 C 4.8125 0 4.222656 -0.0664062 3.765625 -0.203125 C 3.316406 -0.335938 2.96875 -0.53125 2.71875 -0.78125 C 2.46875 -1.039062 2.296875 -1.363281 2.203125 -1.75 C 2.109375 -2.144531 2.0625 -2.601562 2.0625 -3.125 Z M 24.984375 -22.34375 C 24.984375 -23.25 24.863281 -24.078125 24.625 -24.828125 C 24.382812 -25.585938 24.015625 -26.25 23.515625 -26.8125 C 23.023438 -27.382812 22.390625 -27.859375 21.609375 -28.234375 C 20.828125 -28.609375 19.898438 -28.863281 18.828125 -29 L 18.828125 -15.046875 C 19.898438 -15.210938 20.828125 -15.507812 21.609375 -15.9375 C 22.390625 -16.375 23.023438 -16.914062 23.515625 -17.5625 C 24.015625 -18.207031 24.382812 -18.9375 24.625 -19.75 C 24.863281 -20.570312 24.984375 -21.4375 24.984375 -22.34375 Z M 24.984375 -22.34375 "/></g></g></g><g fill="#6660e0" fill-opacity="1"><g transform="translate(229.428265, 55.912601)"><g><path d="M 22.390625 -6.109375 C 21.828125 -5.796875 21.25 -5.535156 20.65625 -5.328125 C 20.0625 -5.117188 19.453125 -4.945312 18.828125 -4.8125 L 18.828125 -3.125 C 18.828125 -2.644531 18.773438 -2.210938 18.671875 -1.828125 C 18.566406 -1.453125 18.378906 -1.128906 18.109375 -0.859375 C 17.847656 -0.585938 17.503906 -0.375 17.078125 -0.21875 C 16.648438 -0.0703125 16.113281 0 15.46875 0 L 5.53125 0 C 4.8125 0 4.222656 -0.0664062 3.765625 -0.203125 C 3.316406 -0.335938 2.96875 -0.53125 2.71875 -0.78125 C 2.46875 -1.039062 2.296875 -1.363281 2.203125 -1.75 C 2.109375 -2.144531 2.0625 -2.601562 2.0625 -3.125 L 2.0625 -29.109375 C 2.0625 -29.628906 2.109375 -30.082031 2.203125 -30.46875 C 2.296875 -30.863281 2.46875 -31.191406 2.71875 -31.453125 C 2.96875 -31.710938 3.316406 -31.910156 3.765625 -32.046875 C 4.222656 -32.179688 4.8125 -32.25 5.53125 -32.25 L 15.546875 -32.25 C 16.617188 -32.25 17.675781 -32.160156 18.71875 -31.984375 C 19.757812 -31.804688 20.75 -31.519531 21.6875 -31.125 C 22.625 -30.726562 23.484375 -30.195312 24.265625 -29.53125 C 25.054688 -28.875 25.738281 -28.0625 26.3125 -27.09375 C 26.882812 -26.132812 27.332031 -25.007812 27.65625 -23.71875 C 27.976562 -22.425781 28.140625 -20.941406 28.140625 -19.265625 C 28.140625 -17.828125 28.050781 -16.523438 27.875 -15.359375 C 27.695312 -14.191406 27.445312 -13.132812 27.125 -12.1875 C 26.8125 -11.25 26.4375 -10.414062 26 -9.6875 C 25.5625 -8.96875 25.070312 -8.328125 24.53125 -7.765625 L 29.015625 -1.84375 C 29.171875 -1.632812 29.25 -1.429688 29.25 -1.234375 C 29.25 -1.015625 29.164062 -0.820312 29 -0.65625 C 28.84375 -0.488281 28.675781 -0.351562 28.5 -0.25 L 27.15625 0.546875 C 27.050781 0.597656 26.941406 0.640625 26.828125 0.671875 C 26.710938 0.710938 26.597656 0.734375 26.484375 0.734375 C 26.316406 0.734375 26.148438 0.679688 25.984375 0.578125 C 25.816406 0.472656 25.664062 0.296875 25.53125 0.046875 Z M 24.984375 -18.875 C 24.984375 -20.21875 24.863281 -21.457031 24.625 -22.59375 C 24.382812 -23.726562 24.015625 -24.726562 23.515625 -25.59375 C 23.023438 -26.46875 22.390625 -27.1875 21.609375 -27.75 C 20.828125 -28.320312 19.898438 -28.71875 18.828125 -28.9375 L 18.828125 -7.75 C 19.898438 -7.988281 20.828125 -8.425781 21.609375 -9.0625 C 22.390625 -9.695312 23.023438 -10.492188 23.515625 -11.453125 C 24.015625 -12.410156 24.382812 -13.515625 24.625 -14.765625 C 24.863281 -16.015625 24.984375 -17.382812 24.984375 -18.875 Z M 24.984375 -18.875 "/></g></g></g><g fill="#6660e0" fill-opacity="1"><g transform="translate(259.119111, 55.912601)"><g><path d="M 16.328125 0.875 C 15.128906 0.875 13.925781 0.769531 12.71875 0.5625 C 11.519531 0.351562 10.363281 -0.00390625 9.25 -0.515625 C 8.144531 -1.023438 7.113281 -1.703125 6.15625 -2.546875 C 5.195312 -3.390625 4.359375 -4.441406 3.640625 -5.703125 C 2.929688 -6.972656 2.375 -8.472656 1.96875 -10.203125 C 1.570312 -11.929688 1.375 -13.941406 1.375 -16.234375 C 1.375 -18.515625 1.570312 -20.519531 1.96875 -22.25 C 2.375 -23.988281 2.929688 -25.488281 3.640625 -26.75 C 4.359375 -28.019531 5.195312 -29.070312 6.15625 -29.90625 C 7.113281 -30.75 8.144531 -31.421875 9.25 -31.921875 C 10.363281 -32.429688 11.519531 -32.789062 12.71875 -33 C 13.925781 -33.207031 15.128906 -33.3125 16.328125 -33.3125 C 17.523438 -33.3125 18.726562 -33.207031 19.9375 -33 C 21.15625 -32.789062 22.316406 -32.429688 23.421875 -31.921875 C 24.535156 -31.421875 25.570312 -30.75 26.53125 -29.90625 C 27.488281 -29.070312 28.316406 -28.019531 29.015625 -26.75 C 29.722656 -25.488281 30.273438 -23.988281 30.671875 -22.25 C 31.078125 -20.519531 31.28125 -18.515625 31.28125 -16.234375 C 31.28125 -13.960938 31.078125 -11.957031 30.671875 -10.21875 C 30.273438 -8.476562 29.722656 -6.972656 29.015625 -5.703125 C 28.316406 -4.441406 27.488281 -3.390625 26.53125 -2.546875 C 25.570312 -1.703125 24.535156 -1.023438 23.421875 -0.515625 C 22.316406 -0.00390625 21.15625 0.351562 19.9375 0.5625 C 18.726562 0.769531 17.523438 0.875 16.328125 0.875 Z M 18.34375 -16.234375 C 18.34375 -14.367188 18.484375 -12.804688 18.765625 -11.546875 C 19.046875 -10.285156 19.414062 -9.273438 19.875 -8.515625 C 20.34375 -7.753906 20.863281 -7.210938 21.4375 -6.890625 C 22.007812 -6.566406 22.601562 -6.40625 23.21875 -6.40625 C 23.832031 -6.40625 24.429688 -6.566406 25.015625 -6.890625 C 25.597656 -7.210938 26.117188 -7.753906 26.578125 -8.515625 C 27.035156 -9.273438 27.398438 -10.285156 27.671875 -11.546875 C 27.953125 -12.804688 28.09375 -14.367188 28.09375 -16.234375 C 28.09375 -18.109375 27.953125 -19.675781 27.671875 -20.9375 C 27.398438 -22.195312 27.035156 -23.207031 26.578125 -23.96875 C 26.117188 -24.726562 25.597656 -25.269531 25.015625 -25.59375 C 24.429688 -25.914062 23.832031 -26.078125 23.21875 -26.078125 C 22.601562 -26.078125 22.007812 -25.914062 21.4375 -25.59375 C 20.863281 -25.269531 20.34375 -24.726562 19.875 -23.96875 C 19.414062 -23.207031 19.046875 -22.195312 18.765625 -20.9375 C 18.484375 -19.675781 18.34375 -18.109375 18.34375 -16.234375 Z M 18.34375 -16.234375 "/></g></g></g><g fill="#6660e0" fill-opacity="1"><g transform="translate(291.77455, 55.912601)"><g><path d="M 0.453125 -3.078125 C 0.453125 -3.273438 0.476562 -3.398438 0.53125 -3.453125 C 0.59375 -3.503906 0.671875 -3.53125 0.765625 -3.53125 C 0.941406 -3.53125 1.226562 -3.460938 1.625 -3.328125 C 2.019531 -3.191406 2.550781 -3.125 3.21875 -3.125 C 5.082031 -3.125 6.015625 -4.285156 6.015625 -6.609375 L 6.015625 -29.125 C 6.015625 -29.476562 6.039062 -29.835938 6.09375 -30.203125 C 6.144531 -30.566406 6.28125 -30.898438 6.5 -31.203125 C 6.71875 -31.515625 7.039062 -31.765625 7.46875 -31.953125 C 7.90625 -32.148438 8.515625 -32.25 9.296875 -32.25 L 19.3125 -32.25 C 20.03125 -32.25 20.613281 -32.179688 21.0625 -32.046875 C 21.519531 -31.910156 21.875 -31.710938 22.125 -31.453125 C 22.375 -31.191406 22.546875 -30.863281 22.640625 -30.46875 C 22.734375 -30.082031 22.78125 -29.628906 22.78125 -29.109375 L 22.78125 -11.296875 C 22.78125 -9.503906 22.578125 -7.953125 22.171875 -6.640625 C 21.765625 -5.328125 21.21875 -4.222656 20.53125 -3.328125 C 19.851562 -2.429688 19.066406 -1.703125 18.171875 -1.140625 C 17.273438 -0.585938 16.335938 -0.164062 15.359375 0.125 C 14.390625 0.425781 13.40625 0.625 12.40625 0.71875 C 11.414062 0.820312 10.476562 0.875 9.59375 0.875 C 7.601562 0.875 5.882812 0.742188 4.4375 0.484375 C 2.988281 0.222656 1.796875 -0.144531 0.859375 -0.625 C 0.773438 -0.65625 0.6875 -0.71875 0.59375 -0.8125 C 0.5 -0.914062 0.453125 -1.09375 0.453125 -1.34375 Z M 0.453125 -3.078125 "/></g></g></g><g fill="#6660e0" fill-opacity="1"><g transform="translate(316.614224, 55.912601)"><g><path d="M 18.828125 -20.984375 L 18.828125 -2.765625 C 20.273438 -2.972656 21.609375 -3.160156 22.828125 -3.328125 C 23.328125 -3.398438 23.835938 -3.46875 24.359375 -3.53125 C 24.878906 -3.601562 25.351562 -3.664062 25.78125 -3.71875 C 26.21875 -3.78125 26.59375 -3.828125 26.90625 -3.859375 C 27.21875 -3.890625 27.4375 -3.90625 27.5625 -3.90625 C 27.8125 -3.90625 28.023438 -3.851562 28.203125 -3.75 C 28.390625 -3.65625 28.484375 -3.460938 28.484375 -3.171875 L 28.484375 -1.09375 C 28.484375 -0.832031 28.414062 -0.582031 28.28125 -0.34375 C 28.144531 -0.113281 27.820312 0 27.3125 0 L 5.484375 0 C 4.773438 0 4.195312 -0.0664062 3.75 -0.203125 C 3.3125 -0.335938 2.96875 -0.53125 2.71875 -0.78125 C 2.46875 -1.039062 2.296875 -1.363281 2.203125 -1.75 C 2.109375 -2.144531 2.0625 -2.601562 2.0625 -3.125 L 2.0625 -28.34375 C 2.0625 -29.195312 2.160156 -29.878906 2.359375 -30.390625 C 2.554688 -30.910156 2.832031 -31.304688 3.1875 -31.578125 C 3.550781 -31.859375 3.984375 -32.039062 4.484375 -32.125 C 4.984375 -32.207031 5.539062 -32.25 6.15625 -32.25 L 26.453125 -32.25 C 26.960938 -32.25 27.289062 -32.132812 27.4375 -31.90625 C 27.582031 -31.675781 27.65625 -31.414062 27.65625 -31.125 L 27.65625 -29.53125 C 27.65625 -29.238281 27.570312 -29.039062 27.40625 -28.9375 C 27.25 -28.84375 27.046875 -28.796875 26.796875 -28.796875 C 26.648438 -28.796875 26.421875 -28.8125 26.109375 -28.84375 C 25.804688 -28.875 25.453125 -28.914062 25.046875 -28.96875 C 24.640625 -29.019531 24.203125 -29.070312 23.734375 -29.125 C 23.273438 -29.1875 22.8125 -29.253906 22.34375 -29.328125 C 21.269531 -29.492188 20.097656 -29.679688 18.828125 -29.890625 L 18.828125 -24.1875 L 27.171875 -24.1875 C 27.492188 -24.1875 27.65625 -24.03125 27.65625 -23.71875 L 27.65625 -21.46875 C 27.65625 -21.144531 27.492188 -20.984375 27.171875 -20.984375 Z M 18.828125 -20.984375 "/></g></g></g><g fill="#6660e0" fill-opacity="1"><g transform="translate(346.013086, 55.912601)"><g><path d="M 18.34375 -16.21875 C 18.34375 -14.375 18.414062 -12.78125 18.5625 -11.4375 C 18.71875 -10.101562 18.921875 -8.96875 19.171875 -8.03125 C 19.421875 -7.09375 19.710938 -6.332031 20.046875 -5.75 C 20.378906 -5.175781 20.722656 -4.726562 21.078125 -4.40625 C 21.441406 -4.09375 21.804688 -3.878906 22.171875 -3.765625 C 22.546875 -3.648438 22.894531 -3.59375 23.21875 -3.59375 C 23.59375 -3.59375 23.929688 -3.640625 24.234375 -3.734375 C 24.535156 -3.835938 24.804688 -3.953125 25.046875 -4.078125 C 25.285156 -4.203125 25.484375 -4.3125 25.640625 -4.40625 C 25.796875 -4.507812 25.921875 -4.5625 26.015625 -4.5625 C 26.128906 -4.5625 26.234375 -4.492188 26.328125 -4.359375 L 27.296875 -2.828125 C 27.335938 -2.742188 27.359375 -2.671875 27.359375 -2.609375 C 27.359375 -2.535156 27.328125 -2.472656 27.265625 -2.421875 C 27.203125 -2.367188 27.148438 -2.316406 27.109375 -2.265625 C 26.648438 -1.910156 26.0625 -1.546875 25.34375 -1.171875 C 24.625 -0.796875 23.800781 -0.457031 22.875 -0.15625 C 21.957031 0.144531 20.941406 0.390625 19.828125 0.578125 C 18.722656 0.773438 17.554688 0.875 16.328125 0.875 C 15.203125 0.875 14.050781 0.765625 12.875 0.546875 C 11.707031 0.328125 10.566406 -0.0351562 9.453125 -0.546875 C 8.347656 -1.066406 7.304688 -1.753906 6.328125 -2.609375 C 5.347656 -3.460938 4.488281 -4.519531 3.75 -5.78125 C 3.019531 -7.050781 2.441406 -8.539062 2.015625 -10.25 C 1.585938 -11.96875 1.375 -13.957031 1.375 -16.21875 C 1.375 -18.476562 1.585938 -20.460938 2.015625 -22.171875 C 2.441406 -23.890625 3.019531 -25.378906 3.75 -26.640625 C 4.488281 -27.910156 5.347656 -28.972656 6.328125 -29.828125 C 7.304688 -30.679688 8.347656 -31.363281 9.453125 -31.875 C 10.566406 -32.394531 11.707031 -32.765625 12.875 -32.984375 C 14.050781 -33.203125 15.203125 -33.3125 16.328125 -33.3125 C 17.554688 -33.3125 18.722656 -33.210938 19.828125 -33.015625 C 20.941406 -32.816406 21.957031 -32.566406 22.875 -32.265625 C 23.800781 -31.972656 24.625 -31.640625 25.34375 -31.265625 C 26.0625 -30.890625 26.648438 -30.523438 27.109375 -30.171875 C 27.148438 -30.117188 27.203125 -30.066406 27.265625 -30.015625 C 27.328125 -29.960938 27.359375 -29.898438 27.359375 -29.828125 C 27.359375 -29.765625 27.335938 -29.691406 27.296875 -29.609375 L 26.328125 -28.078125 C 26.234375 -27.941406 26.128906 -27.875 26.015625 -27.875 C 25.921875 -27.875 25.796875 -27.921875 25.640625 -28.015625 C 25.484375 -28.117188 25.285156 -28.234375 25.046875 -28.359375 C 24.804688 -28.484375 24.535156 -28.59375 24.234375 -28.6875 C 23.929688 -28.789062 23.59375 -28.84375 23.21875 -28.84375 C 22.894531 -28.84375 22.546875 -28.785156 22.171875 -28.671875 C 21.804688 -28.554688 21.441406 -28.335938 21.078125 -28.015625 C 20.722656 -27.691406 20.378906 -27.242188 20.046875 -26.671875 C 19.710938 -26.097656 19.421875 -25.34375 19.171875 -24.40625 C 18.921875 -23.46875 18.71875 -22.328125 18.5625 -20.984375 C 18.414062 -19.648438 18.34375 -18.0625 18.34375 -16.21875 Z M 18.34375 -16.21875 "/></g></g></g><g fill="#6660e0" fill-opacity="1"><g transform="translate(374.041953, 55.912601)"><g><path d="M 7.5 -28.96875 C 6.53125 -28.757812 5.632812 -28.570312 4.8125 -28.40625 C 4.445312 -28.332031 4.085938 -28.265625 3.734375 -28.203125 C 3.390625 -28.148438 3.054688 -28.097656 2.734375 -28.046875 C 2.421875 -27.992188 2.140625 -27.953125 1.890625 -27.921875 C 1.648438 -27.890625 1.46875 -27.875 1.34375 -27.875 C 1.09375 -27.875 0.878906 -27.921875 0.703125 -28.015625 C 0.535156 -28.117188 0.453125 -28.316406 0.453125 -28.609375 L 0.453125 -31.125 C 0.453125 -31.414062 0.570312 -31.675781 0.8125 -31.90625 C 1.050781 -32.132812 1.425781 -32.25 1.9375 -32.25 L 29.8125 -32.25 C 30.3125 -32.25 30.679688 -32.132812 30.921875 -31.90625 C 31.160156 -31.675781 31.28125 -31.414062 31.28125 -31.125 L 31.28125 -28.609375 C 31.28125 -28.316406 31.191406 -28.117188 31.015625 -28.015625 C 30.847656 -27.921875 30.640625 -27.875 30.390625 -27.875 C 30.253906 -27.875 30.066406 -27.890625 29.828125 -27.921875 C 29.585938 -27.953125 29.3125 -27.992188 29 -28.046875 C 28.6875 -28.097656 28.351562 -28.148438 28 -28.203125 C 27.644531 -28.265625 27.289062 -28.332031 26.9375 -28.40625 C 26.113281 -28.570312 25.210938 -28.757812 24.234375 -28.96875 L 24.234375 -3.078125 C 24.234375 -2.566406 24.1875 -2.117188 24.09375 -1.734375 C 24.007812 -1.359375 23.84375 -1.035156 23.59375 -0.765625 C 23.34375 -0.503906 23 -0.3125 22.5625 -0.1875 C 22.132812 -0.0625 21.582031 0 20.90625 0 L 10.890625 0 C 10.191406 0 9.617188 -0.0664062 9.171875 -0.203125 C 8.734375 -0.335938 8.390625 -0.53125 8.140625 -0.78125 C 7.890625 -1.039062 7.71875 -1.363281 7.625 -1.75 C 7.539062 -2.144531 7.5 -2.601562 7.5 -3.125 Z M 7.5 -28.96875 "/></g></g></g><g fill="#6660e0" fill-opacity="1"><g transform="translate(405.776554, 55.912601)"><g><path d="M 7.328125 -24.53125 C 7.484375 -26.15625 7.921875 -27.515625 8.640625 -28.609375 C 9.359375 -29.703125 10.25 -30.570312 11.3125 -31.21875 C 12.382812 -31.875 13.570312 -32.335938 14.875 -32.609375 C 16.175781 -32.878906 17.492188 -33.015625 18.828125 -33.015625 C 19.921875 -33.015625 20.988281 -32.96875 22.03125 -32.875 C 23.082031 -32.789062 24.046875 -32.6875 24.921875 -32.5625 C 25.804688 -32.445312 26.570312 -32.328125 27.21875 -32.203125 C 27.863281 -32.085938 28.335938 -32 28.640625 -31.9375 C 28.816406 -31.894531 28.90625 -31.8125 28.90625 -31.6875 C 28.90625 -31.65625 28.890625 -31.566406 28.859375 -31.421875 L 28.53125 -29.8125 C 28.5 -29.707031 28.457031 -29.640625 28.40625 -29.609375 C 28.351562 -29.585938 28.300781 -29.578125 28.25 -29.578125 C 27.59375 -29.578125 27.023438 -29.460938 26.546875 -29.234375 C 26.066406 -29.015625 25.671875 -28.703125 25.359375 -28.296875 C 25.046875 -27.890625 24.804688 -27.410156 24.640625 -26.859375 C 24.472656 -26.304688 24.359375 -25.707031 24.296875 -25.0625 L 22.953125 -8.734375 C 22.835938 -7.421875 22.5 -6.175781 21.9375 -5 C 21.382812 -3.832031 20.613281 -2.816406 19.625 -1.953125 C 18.644531 -1.085938 17.4375 -0.398438 16 0.109375 C 14.5625 0.617188 12.910156 0.875 11.046875 0.875 C 9.804688 0.875 8.609375 0.8125 7.453125 0.6875 C 6.304688 0.570312 5.257812 0.429688 4.3125 0.265625 C 3.363281 0.0976562 2.550781 -0.0625 1.875 -0.21875 C 1.195312 -0.375 0.707031 -0.488281 0.40625 -0.5625 C 0.226562 -0.601562 0.140625 -0.6875 0.140625 -0.8125 C 0.140625 -0.820312 0.15625 -0.90625 0.1875 -1.0625 L 0.5625 -2.765625 C 0.59375 -2.867188 0.632812 -2.929688 0.6875 -2.953125 C 0.738281 -2.972656 0.785156 -2.984375 0.828125 -2.984375 C 1.484375 -2.984375 2.09375 -3.082031 2.65625 -3.28125 C 3.21875 -3.476562 3.707031 -3.800781 4.125 -4.25 C 4.550781 -4.695312 4.898438 -5.28125 5.171875 -6 C 5.453125 -6.71875 5.644531 -7.597656 5.75 -8.640625 Z M 7.328125 -24.53125 "/></g></g></g><path stroke-linecap="butt" transform="matrix(0.75, 0, 0, 0.75, 61.636718, 14.129673)" fill="none" stroke-linejoin="miter" d="M 30.260421 28.233355 L 34.390629 12.452104 C 34.473963 12.092729 34.552088 11.764604 34.630213 11.46252 C 34.713546 11.165645 34.817713 10.905229 34.947921 10.686479 C 35.078129 10.467729 35.244796 10.295854 35.458338 10.176062 C 35.666671 10.05627 35.947921 9.998979 36.307296 9.998979 L 39.333338 9.998979 C 39.635421 9.998979 39.875005 10.05627 40.052088 10.176062 C 40.23438 10.295854 40.322922 10.49377 40.322922 10.77502 C 40.322922 11.155229 40.223963 11.655229 40.020838 12.27502 L 27.505212 50.186482 C 27.208337 51.103149 26.848962 51.801065 26.442712 52.280232 C 26.031254 52.759399 25.401045 52.998982 24.54167 52.998982 L 20.380212 52.998982 C 19.91667 52.998982 19.54167 52.91044 19.239586 52.728149 C 18.942711 52.551065 18.687503 52.327107 18.473961 52.056274 C 18.265628 51.78544 18.098961 51.493774 17.968753 51.170857 C 17.838545 50.853149 17.723961 50.545857 17.625003 50.243774 L 3.875002 13.498979 C 3.677085 12.983354 3.578127 12.514604 3.578127 12.092729 C 3.578127 11.394812 3.796877 10.86877 4.234377 10.519812 C 4.677085 10.170854 5.135419 9.998979 5.614585 9.998979 L 22.593753 9.998979 C 23.093753 9.998979 23.515628 10.051062 23.864587 10.160437 C 24.213545 10.269812 24.51042 10.43127 24.750004 10.639604 C 24.989587 10.853145 25.187504 11.097937 25.348962 11.389604 C 25.51042 11.68127 25.640629 11.99377 25.739587 12.332312 Z M 43.135422 14.191687 C 43.135422 13.488562 43.197922 12.884396 43.317713 12.363562 C 43.437505 11.842729 43.666672 11.410437 44.005214 11.061479 C 44.343755 10.71252 44.812505 10.446895 45.411464 10.264604 C 46.010422 10.08752 46.791672 9.998979 47.750005 9.998979 L 61.104173 9.998979 C 62.260423 9.998979 63.14584 10.165645 63.755215 10.504187 C 64.36459 10.847937 64.791674 11.269812 65.041674 11.780229 C 65.291674 12.285437 65.42709 12.827104 65.447924 13.394812 C 65.463549 13.962521 65.473965 14.488562 65.473965 14.967729 L 65.473965 48.150023 C 65.473965 48.608357 65.437507 49.118773 65.354174 49.676065 C 65.276049 50.233357 65.078132 50.759399 64.755215 51.248982 C 64.437507 51.738565 63.947923 52.150024 63.291673 52.488565 C 62.630215 52.832315 61.723965 52.998982 60.562507 52.998982 L 47.750005 52.998982 C 46.791672 52.998982 46.010422 52.91044 45.411464 52.728149 C 44.812505 52.551065 44.343755 52.290649 44.005214 51.952107 C 43.666672 51.613565 43.437505 51.181274 43.317713 50.665649 C 43.197922 50.144815 43.135422 49.53544 43.135422 48.837523 Z M 93.354176 25.03023 L 93.354176 49.31669 C 95.291676 49.03544 97.067718 48.78544 98.68751 48.56669 C 99.364593 48.467732 100.046885 48.373982 100.734385 48.28544 C 101.427093 48.19169 102.057302 48.108357 102.640635 48.030232 C 103.21876 47.946898 103.71876 47.889607 104.135427 47.84794 C 104.557302 47.811482 104.84376 47.790648 105.005218 47.790648 C 105.34376 47.790648 105.635427 47.853148 105.87501 47.983357 C 106.114594 48.113565 106.234385 48.37919 106.234385 48.775023 L 106.234385 51.530232 C 106.234385 51.889607 106.140635 52.228149 105.963552 52.53544 C 105.78126 52.842732 105.354177 52.998982 104.677093 52.998982 L 75.567716 52.998982 C 74.630216 52.998982 73.864591 52.91044 73.276049 52.728149 C 72.687508 52.551065 72.223966 52.290649 71.885424 51.952107 C 71.541674 51.613565 71.312507 51.181274 71.192716 50.665649 C 71.072924 50.144815 71.015632 49.53544 71.015632 48.837523 L 71.015632 15.207312 C 71.015632 14.071896 71.145841 13.155229 71.406257 12.467729 C 71.661466 11.780229 72.031257 11.248979 72.510424 10.879187 C 72.989591 10.509395 73.567716 10.269812 74.234383 10.160437 C 74.901049 10.051062 75.645841 9.998979 76.463549 9.998979 L 103.536468 9.998979 C 104.213552 9.998979 104.651052 10.15002 104.838552 10.46252 C 105.03126 10.769812 105.12501 11.113562 105.12501 11.49377 L 105.12501 13.618771 C 105.12501 14.019812 105.020843 14.285437 104.807302 14.415646 C 104.598968 14.545854 104.322927 14.608354 103.984385 14.608354 C 103.786468 14.608354 103.484385 14.587521 103.072927 14.551062 C 102.661468 14.509396 102.18751 14.452104 101.651052 14.384396 C 101.109385 14.316687 100.53126 14.238562 99.911468 14.160437 C 99.296885 14.082312 98.677093 13.988562 98.057301 13.889604 C 96.619801 13.670854 95.052093 13.420854 93.354176 13.139604 L 93.354176 20.74898 L 104.494802 20.74898 C 104.916677 20.74898 105.12501 20.957313 105.12501 21.379188 L 105.12501 24.368771 C 105.12501 24.81148 104.916677 25.03023 104.494802 25.03023 Z M 153.098972 31.170855 L 157.947931 12.452104 C 158.026056 12.092729 158.109389 11.764604 158.187514 11.46252 C 158.26564 11.165645 158.369806 10.905229 158.489598 10.686479 C 158.60939 10.467729 158.76564 10.295854 158.968765 10.176062 C 159.166681 10.05627 159.437515 9.998979 159.776056 9.998979 L 162.739598 9.998979 C 163.458348 9.998979 163.817723 10.254187 163.817723 10.77502 C 163.817723 11.155229 163.718765 11.655229 163.51564 12.27502 L 151.630222 50.186482 C 151.348972 51.123982 150.979181 51.827107 150.520847 52.295857 C 150.062514 52.764607 149.473972 52.998982 148.755222 52.998982 L 144.500013 52.998982 C 144.062513 52.998982 143.687513 52.91044 143.380222 52.728149 C 143.067722 52.551065 142.812513 52.327107 142.598972 52.056274 C 142.390638 51.78544 142.218763 51.493774 142.078138 51.170857 C 141.937513 50.853149 141.828138 50.545857 141.744805 50.243774 L 136.328138 32.608355 L 131.385429 50.186482 C 131.125012 51.123982 130.781262 51.827107 130.354179 52.295857 C 129.921887 52.764607 129.359387 52.998982 128.66147 52.998982 L 123.66147 52.998982 C 123.197928 52.998982 122.822928 52.91044 122.520845 52.728149 C 122.22397 52.551065 121.968762 52.327107 121.760428 52.056274 C 121.546887 51.78544 121.38022 51.488565 121.250011 51.16044 C 121.119803 50.827107 121.00522 50.525024 120.906261 50.243774 L 107.760427 13.498979 C 107.557302 12.983354 107.458344 12.493771 107.458344 12.035437 C 107.458344 11.332312 107.65626 10.821895 108.057302 10.49377 C 108.458344 10.160437 108.947927 9.998979 109.526052 9.998979 L 122.19272 9.998979 C 122.69272 9.998979 123.119803 10.061479 123.479178 10.191687 C 123.838553 10.321895 124.140637 10.478145 124.38022 10.655229 C 124.619803 10.83752 124.796887 11.030229 124.916678 11.238562 C 125.03647 11.452104 125.125012 11.634395 125.187512 11.795854 L 131.567721 31.170855 L 133.541679 23.59273 L 130.458346 13.498979 C 130.359387 13.222937 130.281262 12.952104 130.234387 12.691687 C 130.182304 12.431271 130.156262 12.191687 130.156262 11.972937 C 130.156262 11.27502 130.348971 10.769812 130.729179 10.46252 C 131.104179 10.15002 131.583346 9.998979 132.166679 9.998979 L 144.859388 9.998979 C 145.359388 9.998979 145.786472 10.035437 146.13543 10.11877 C 146.484389 10.196895 146.765639 10.311479 146.989597 10.46252 C 147.208347 10.613562 147.38543 10.801062 147.526055 11.030229 C 147.66668 11.259395 147.786472 11.514604 147.88543 11.795854 Z M 185.015642 14.191687 C 185.015642 13.488562 185.078142 12.884396 185.197933 12.363562 C 185.317725 11.842729 185.546892 11.410437 185.885433 11.061479 C 186.223975 10.71252 186.692725 10.446895 187.291684 10.264604 C 187.890642 10.08752 188.671892 9.998979 189.630225 9.998979 L 202.984393 9.998979 C 204.364602 9.998979 205.729185 10.082312 207.08856 10.254187 C 208.442727 10.420854 209.750019 10.707312 210.99481 11.103145 C 212.244811 11.504187 213.401061 12.02502 214.468769 12.660437 C 215.536478 13.301062 216.463561 14.092729 217.255228 15.040646 C 218.041686 15.993771 218.661478 17.097938 219.109394 18.368771 C 219.56252 19.634396 219.786478 21.097938 219.786478 22.754188 C 219.786478 25.207313 219.447936 27.28023 218.781269 28.96773 C 218.114603 30.65523 217.208353 32.045855 216.072936 33.144814 C 214.932311 34.243772 213.609394 35.082314 212.104186 35.660439 C 210.593769 36.238564 209.015644 36.660439 207.359394 36.920856 L 207.359394 48.150023 C 207.359394 48.608357 207.317727 49.118773 207.239602 49.676065 C 207.156268 50.233357 206.958352 50.759399 206.640643 51.248982 C 206.317727 51.738565 205.828143 52.150024 205.171893 52.488565 C 204.510435 52.832315 203.604185 52.998982 202.447935 52.998982 L 189.630225 52.998982 C 188.671892 52.998982 187.890642 52.91044 187.291684 52.728149 C 186.692725 52.551065 186.223975 52.290649 185.885433 51.952107 C 185.546892 51.613565 185.317725 51.181274 185.197933 50.665649 C 185.078142 50.144815 185.015642 49.53544 185.015642 48.837523 Z M 215.562519 23.202105 C 215.562519 22.004188 215.401061 20.900021 215.083352 19.894813 C 214.765644 18.884396 214.276061 18.004188 213.614602 17.243771 C 212.958352 16.483354 212.109394 15.858354 211.072935 15.358354 C 210.031269 14.858354 208.796894 14.519812 207.359394 14.337521 L 207.359394 32.936481 C 208.796894 32.71773 210.031269 32.316689 211.072935 31.738564 C 212.109394 31.160439 212.958352 30.441689 213.614602 29.582314 C 214.276061 28.722938 214.765644 27.74898 215.083352 26.660438 C 215.401061 25.571897 215.562519 24.420855 215.562519 23.202105 Z M 250.869814 44.853148 C 250.109397 45.275023 249.333355 45.623982 248.546897 45.905232 C 247.760438 46.181273 246.94273 46.41044 246.104188 46.592732 L 246.104188 48.837523 C 246.104188 49.478149 246.03648 50.051065 245.895855 50.561482 C 245.75523 51.06669 245.510438 51.50419 245.16148 51.863565 C 244.812522 52.22294 244.354188 52.498982 243.78648 52.702107 C 243.218771 52.900024 242.50523 52.998982 241.645855 52.998982 L 228.380229 52.998982 C 227.421895 52.998982 226.640645 52.91044 226.041687 52.728149 C 225.442728 52.551065 224.973978 52.290649 224.635437 51.952107 C 224.296895 51.613565 224.067728 51.181274 223.947937 50.665649 C 223.828145 50.144815 223.765645 49.53544 223.765645 48.837523 L 223.765645 14.191687 C 223.765645 13.488562 223.828145 12.884396 223.947937 12.363562 C 224.067728 11.842729 224.296895 11.410437 224.635437 11.061479 C 224.973978 10.71252 225.442728 10.446895 226.041687 10.264604 C 226.640645 10.08752 227.421895 9.998979 228.380229 9.998979 L 241.734396 9.998979 C 243.171896 9.998979 244.583355 10.11877 245.97398 10.358354 C 247.359397 10.597937 248.677105 10.978145 249.927105 11.509395 C 251.171897 12.040645 252.322939 12.743771 253.369814 13.618771 C 254.416689 14.498979 255.322939 15.582312 256.093772 16.868771 C 256.864606 18.155229 257.463564 19.660438 257.890648 21.379188 C 258.317731 23.09273 258.536481 25.071897 258.536481 27.306272 C 258.536481 29.222939 258.416689 30.957314 258.177106 32.514605 C 257.937523 34.071897 257.604189 35.483356 257.187523 36.738564 C 256.765648 37.998981 256.265648 39.108356 255.671897 40.077106 C 255.083356 41.045856 254.432314 41.900023 253.713564 42.639606 L 259.703148 50.545857 C 259.901064 50.821899 260.000023 51.092732 260.000023 51.353149 C 260.000023 51.650024 259.895856 51.91044 259.687523 52.12919 C 259.479189 52.353149 259.255231 52.530232 259.015648 52.670857 L 257.218773 53.717732 C 257.078148 53.801066 256.932314 53.863566 256.781273 53.915649 C 256.630231 53.962524 256.479189 53.988566 256.317731 53.988566 C 256.098981 53.988566 255.880231 53.920857 255.661481 53.780232 C 255.437522 53.639607 255.239606 53.400024 255.062522 53.061482 Z M 254.312522 27.84273 C 254.312522 26.045855 254.151064 24.389605 253.833356 22.87398 C 253.515647 21.358355 253.026064 20.019813 252.364606 18.863563 C 251.708355 17.702104 250.859397 16.743771 249.81773 15.988562 C 248.781272 15.228146 247.541688 14.707312 246.104188 14.431271 L 246.104188 42.670856 C 247.541688 42.34794 248.781272 41.764606 249.81773 40.915648 C 250.859397 40.066689 251.708355 39.004189 252.364606 37.728148 C 253.026064 36.452106 253.515647 34.978147 253.833356 33.311481 C 254.151064 31.644814 254.312522 29.821897 254.312522 27.84273 Z M 282.369816 54.165649 C 280.770858 54.165649 279.171899 54.030232 277.562524 53.748982 C 275.958357 53.467732 274.416691 52.988565 272.937524 52.311482 C 271.458357 51.634399 270.083357 50.728149 268.802107 49.603149 C 267.526065 48.47294 266.411482 47.06669 265.463565 45.37919 C 264.515648 43.69169 263.776065 41.696898 263.234398 39.389606 C 262.69794 37.082314 262.427106 34.405231 262.427106 31.347939 C 262.427106 28.316688 262.69794 25.639605 263.234398 23.321896 C 263.776065 21.009396 264.515648 19.004188 265.463565 17.316688 C 266.411482 15.634396 267.526065 14.228146 268.802107 13.113562 C 270.083357 11.99377 271.458357 11.097937 272.937524 10.43127 C 274.416691 9.764604 275.958357 9.290645 277.562524 9.009395 C 279.171899 8.728145 280.770858 8.58752 282.369816 8.58752 C 283.968775 8.58752 285.572942 8.728145 287.192733 9.009395 C 288.807317 9.290645 290.354192 9.764604 291.833359 10.43127 C 293.312526 11.097937 294.687526 11.99377 295.963567 13.113562 C 297.244818 14.228146 298.354193 15.634396 299.291693 17.316688 C 300.229193 19.004188 300.968776 21.009396 301.505235 23.321896 C 302.046901 25.639605 302.312526 28.316688 302.312526 31.347939 C 302.312526 34.384397 302.046901 37.056273 301.505235 39.373981 C 300.968776 41.69169 300.229193 43.69169 299.291693 45.37919 C 298.354193 47.06669 297.244818 48.47294 295.963567 49.603149 C 294.687526 50.728149 293.312526 51.634399 291.833359 52.311482 C 290.354192 52.988565 288.807317 53.467732 287.192733 53.748982 C 285.572942 54.030232 283.968775 54.165649 282.369816 54.165649 Z M 285.067733 31.347939 C 285.067733 33.842731 285.250025 35.931272 285.619817 37.608356 C 285.989608 39.285439 286.4844 40.634398 287.104192 41.650023 C 287.718775 42.670856 288.416692 43.394815 289.182317 43.821898 C 289.95315 44.248981 290.744817 44.467731 291.562525 44.467731 C 292.380234 44.467731 293.182317 44.248981 293.958359 43.821898 C 294.739609 43.394815 295.432317 42.670856 296.041692 41.650023 C 296.651067 40.634398 297.140651 39.285439 297.510443 37.608356 C 297.875026 35.931272 298.062526 33.842731 298.062526 31.347939 C 298.062526 28.853147 297.875026 26.764605 297.510443 25.087522 C 297.140651 23.415646 296.651067 22.066688 296.041692 21.045855 C 295.432317 20.030229 294.739609 19.306271 293.958359 18.873979 C 293.182317 18.446896 292.380234 18.233354 291.562525 18.233354 C 290.744817 18.233354 289.95315 18.446896 289.182317 18.873979 C 288.416692 19.306271 287.718775 20.030229 287.104192 21.045855 C 286.4844 22.066688 285.989608 23.415646 285.619817 25.087522 C 285.250025 26.764605 285.067733 28.853147 285.067733 31.347939 Z M 304.73961 48.894815 C 304.73961 48.639607 304.781276 48.47294 304.859401 48.405232 C 304.937526 48.332315 305.036485 48.295857 305.156276 48.295857 C 305.39586 48.295857 305.781277 48.389607 306.312527 48.56669 C 306.838568 48.748982 307.541693 48.837523 308.421902 48.837523 C 310.916694 48.837523 312.166694 47.290648 312.166694 44.196898 L 312.166694 14.160437 C 312.166694 13.702104 312.197944 13.228146 312.27086 12.738562 C 312.338569 12.248979 312.52086 11.801062 312.807319 11.389604 C 313.098985 10.978145 313.531277 10.644812 314.109402 10.384395 C 314.692736 10.129187 315.500027 9.998979 316.536486 9.998979 L 329.895862 9.998979 C 330.854195 9.998979 331.630237 10.08752 332.229195 10.264604 C 332.828154 10.446895 333.296904 10.71252 333.635445 11.061479 C 333.973987 11.410437 334.208362 11.842729 334.328154 12.363562 C 334.447946 12.884396 334.505237 13.488562 334.505237 14.191687 L 334.505237 37.936481 C 334.505237 40.332314 334.234404 42.405231 333.697945 44.150023 C 333.156279 45.900023 332.43232 47.368773 331.52607 48.56669 C 330.61982 49.764607 329.562528 50.733357 328.364612 51.47294 C 327.166695 52.212524 325.921903 52.780232 324.625028 53.181274 C 323.322945 53.577107 322.010445 53.842732 320.687528 53.972941 C 319.359403 54.103149 318.104194 54.165649 316.927111 54.165649 C 314.270861 54.165649 311.979194 53.993774 310.05211 53.644816 C 308.130235 53.295857 306.536485 52.801065 305.276068 52.16044 C 305.17711 52.123982 305.062526 52.03544 304.932318 51.905232 C 304.80211 51.775024 304.73961 51.540649 304.73961 51.202107 Z M 362.354198 25.03023 L 362.354198 49.31669 C 364.291698 49.03544 366.06774 48.78544 367.682323 48.56669 C 368.364615 48.467732 369.046907 48.373982 369.734407 48.28544 C 370.427115 48.19169 371.057324 48.108357 371.635449 48.030232 C 372.218782 47.946898 372.713574 47.889607 373.135449 47.84794 C 373.552115 47.811482 373.843782 47.790648 374.00524 47.790648 C 374.343782 47.790648 374.630241 47.853148 374.869824 47.983357 C 375.109407 48.113565 375.229199 48.37919 375.229199 48.775023 L 375.229199 51.530232 C 375.229199 51.889607 375.140657 52.228149 374.963574 52.53544 C 374.781282 52.842732 374.354199 52.998982 373.671907 52.998982 L 344.567738 52.998982 C 343.630238 52.998982 342.864613 52.91044 342.276071 52.728149 C 341.687529 52.551065 341.223988 52.290649 340.885446 51.952107 C 340.541696 51.613565 340.312529 51.181274 340.192738 50.665649 C 340.072946 50.144815 340.015654 49.53544 340.015654 48.837523 L 340.015654 15.207312 C 340.015654 14.071896 340.145863 13.155229 340.406279 12.467729 C 340.661488 11.780229 341.031279 11.248979 341.510446 10.879187 C 341.989613 10.509395 342.56253 10.269812 343.234405 10.160437 C 343.901071 10.051062 344.645863 9.998979 345.463571 9.998979 L 372.53649 9.998979 C 373.213574 9.998979 373.651074 10.15002 373.838574 10.46252 C 374.026074 10.769812 374.125032 11.113562 374.125032 11.49377 L 374.125032 13.618771 C 374.125032 14.019812 374.020865 14.285437 373.807324 14.415646 C 373.59899 14.545854 373.322949 14.608354 372.984407 14.608354 C 372.78649 14.608354 372.479199 14.587521 372.072949 14.551062 C 371.66149 14.509396 371.187532 14.452104 370.651074 14.384396 C 370.109407 14.316687 369.531282 14.238562 368.91149 14.160437 C 368.291698 14.082312 367.677115 13.988562 367.057323 13.889604 C 365.619823 13.670854 364.052115 13.420854 362.354198 13.139604 L 362.354198 20.74898 L 373.494824 20.74898 C 373.91149 20.74898 374.125032 20.957313 374.125032 21.379188 L 374.125032 24.368771 C 374.125032 24.81148 373.91149 25.03023 373.494824 25.03023 Z M 400.921909 31.379189 C 400.921909 33.832314 401.026076 35.957314 401.223993 37.743773 C 401.421909 39.530231 401.687534 41.045856 402.015659 42.295856 C 402.348993 43.540648 402.734409 44.551065 403.187535 45.31669 C 403.635451 46.087523 404.098993 46.686482 404.57816 47.113565 C 405.057326 47.545857 405.541701 47.832315 406.031285 47.983357 C 406.520868 48.134398 406.98441 48.207315 407.42191 48.207315 C 407.92191 48.207315 408.369827 48.144815 408.770868 48.014607 C 409.166702 47.884398 409.526077 47.733357 409.848993 47.56669 C 410.166702 47.394815 410.432327 47.243773 410.64066 47.113565 C 410.848993 46.983357 411.01566 46.920857 411.135452 46.920857 C 411.29691 46.920857 411.437535 47.009398 411.557327 47.19169 L 412.843785 49.228149 C 412.901077 49.34794 412.932327 49.446899 412.932327 49.525024 C 412.932327 49.623982 412.89066 49.712524 412.812535 49.780232 C 412.73441 49.853149 412.661494 49.915649 412.604202 49.97294 C 411.98441 50.452107 411.197952 50.94169 410.239618 51.44169 C 409.281285 51.94169 408.187535 52.389607 406.958368 52.790649 C 405.729201 53.19169 404.380243 53.519816 402.901076 53.780232 C 401.421909 54.040649 399.864618 54.165649 398.229201 54.165649 C 396.729201 54.165649 395.197951 54.025024 393.630242 53.733357 C 392.062534 53.441691 390.5417 52.957315 389.067742 52.264607 C 387.588575 51.577107 386.19795 50.665649 384.88545 49.525024 C 383.578158 48.389607 382.437533 46.978148 381.458366 45.290648 C 380.479199 43.603148 379.708366 41.613565 379.140658 39.327106 C 378.567741 37.045856 378.286491 34.394814 378.286491 31.379189 C 378.286491 28.363563 378.567741 25.712522 379.140658 23.426063 C 379.708366 21.139605 380.479199 19.155229 381.458366 17.467729 C 382.437533 15.780229 383.578158 14.368771 384.88545 13.233354 C 386.19795 12.092729 387.588575 11.18127 389.067742 10.49377 C 390.5417 9.801062 392.062534 9.311479 393.630242 9.02502 C 395.197951 8.733354 396.729201 8.58752 398.229201 8.58752 C 399.864618 8.58752 401.421909 8.717729 402.901076 8.978145 C 404.380243 9.238562 405.729201 9.566687 406.958368 9.967729 C 408.187535 10.36877 409.281285 10.816687 410.239618 11.316687 C 411.197952 11.811479 411.98441 12.301062 412.604202 12.780229 C 412.661494 12.842729 412.73441 12.905229 412.812535 12.978146 C 412.89066 13.045854 412.932327 13.129187 412.932327 13.233354 C 412.932327 13.311479 412.901077 13.410437 412.843785 13.530229 L 411.557327 15.566687 C 411.437535 15.748979 411.29691 15.837521 411.135452 15.837521 C 411.01566 15.837521 410.848993 15.769812 410.64066 15.639604 C 410.432327 15.514604 410.166702 15.363562 409.848993 15.191687 C 409.526077 15.025021 409.166702 14.873979 408.770868 14.743771 C 408.369827 14.613562 407.92191 14.551062 407.42191 14.551062 C 406.98441 14.551062 406.520868 14.623979 406.031285 14.775021 C 405.541701 14.920854 405.057326 15.212521 404.57816 15.639604 C 404.098993 16.071896 403.635451 16.670854 403.187535 17.436479 C 402.734409 18.207313 402.348993 19.217729 402.015659 20.462521 C 401.687534 21.712521 401.421909 23.228146 401.223993 25.014605 C 401.026076 26.801063 400.921909 28.920855 400.921909 31.379189 Z M 423.83337 14.368771 C 422.536494 14.650021 421.338578 14.900021 420.239619 15.118771 C 419.760453 15.217729 419.286494 15.306271 418.817744 15.389604 C 418.348994 15.467729 417.901077 15.540646 417.484411 15.613562 C 417.062536 15.681271 416.687536 15.738562 416.359411 15.775021 C 416.031286 15.816687 415.786494 15.837521 415.625036 15.837521 C 415.286494 15.837521 415.005244 15.769812 414.770869 15.639604 C 414.541702 15.514604 414.427119 15.248979 414.427119 14.847937 L 414.427119 11.49377 C 414.427119 11.113562 414.588577 10.769812 414.906285 10.46252 C 415.229202 10.15002 415.723994 9.998979 416.406286 9.998979 L 453.567747 9.998979 C 454.24483 9.998979 454.74483 10.15002 455.067747 10.46252 C 455.385455 10.769812 455.546914 11.113562 455.546914 11.49377 L 455.546914 14.847937 C 455.546914 15.248979 455.43233 15.514604 455.203164 15.639604 C 454.968789 15.769812 454.687539 15.837521 454.348997 15.837521 C 454.166705 15.837521 453.916705 15.816687 453.598997 15.775021 C 453.281289 15.738562 452.911497 15.681271 452.489622 15.613562 C 452.072955 15.540646 451.625038 15.467729 451.156288 15.389604 C 450.687538 15.306271 450.21358 15.217729 449.734413 15.118771 C 448.635455 14.900021 447.437538 14.650021 446.140663 14.368771 L 446.140663 48.894815 C 446.140663 49.577107 446.083371 50.170857 445.96358 50.681274 C 445.843788 51.186482 445.61983 51.618774 445.286496 51.967732 C 444.958371 52.31669 444.505246 52.577107 443.927121 52.743774 C 443.348996 52.915649 442.609413 52.998982 441.708371 52.998982 L 428.354203 52.998982 C 427.416703 52.998982 426.651078 52.91044 426.062536 52.728149 C 425.473995 52.551065 425.015661 52.290649 424.687536 51.952107 C 424.354203 51.613565 424.130245 51.181274 424.010453 50.665649 C 423.890661 50.144815 423.83337 49.53544 423.83337 48.837523 Z M 465.90629 20.301063 C 466.12504 18.123979 466.713581 16.306271 467.671915 14.847937 C 468.630248 13.389604 469.817748 12.228145 471.234415 11.358354 C 472.651082 10.49377 474.229207 9.879187 475.96879 9.519812 C 477.703166 9.160437 479.458374 8.978145 481.239624 8.978145 C 482.692749 8.978145 484.119833 9.040645 485.520875 9.160437 C 486.916708 9.280229 488.203166 9.415645 489.385458 9.577104 C 490.562542 9.738562 491.578167 9.894812 492.437542 10.05627 C 493.296917 10.217729 493.927125 10.33752 494.322959 10.415645 C 494.562542 10.478145 494.682334 10.58752 494.682334 10.74377 C 494.682334 10.785437 494.6615 10.905229 494.625042 11.103145 L 494.171917 13.259396 C 494.135459 13.400021 494.078167 13.483354 494.010459 13.514604 C 493.937542 13.545854 493.875042 13.561479 493.812542 13.561479 C 492.937542 13.561479 492.177125 13.712521 491.5365 14.009396 C 490.901083 14.311479 490.369833 14.728146 489.953167 15.269812 C 489.531292 15.806271 489.213583 16.446896 488.994833 17.186479 C 488.776083 17.920854 488.625041 18.722938 488.546916 19.582313 L 486.750041 41.353148 C 486.588583 43.108356 486.140666 44.764606 485.401083 46.321898 C 484.661499 47.87919 483.635458 49.238565 482.317749 50.394815 C 481.000041 51.551065 479.380249 52.47294 477.463582 53.150024 C 475.546915 53.827107 473.354207 54.165649 470.87504 54.165649 C 469.21879 54.165649 467.619831 54.087524 466.083373 53.926066 C 464.546915 53.769816 463.151081 53.577107 461.890664 53.358357 C 460.635456 53.139607 459.552122 52.926065 458.640664 52.717732 C 457.734414 52.50419 457.083372 52.353149 456.682331 52.248982 C 456.442747 52.19169 456.322956 52.082315 456.322956 51.920857 C 456.322956 51.900024 456.343789 51.790649 456.380247 51.592732 L 456.890664 49.31669 C 456.932331 49.176065 456.984414 49.092732 457.057331 49.061482 C 457.125039 49.030232 457.192747 49.014607 457.250039 49.014607 C 458.130247 49.014607 458.942747 48.889607 459.692747 48.62919 C 460.437539 48.368773 461.093789 47.936482 461.651081 47.342732 C 462.213581 46.743773 462.677123 45.962523 463.046914 45.00419 C 463.416706 44.045856 463.666706 42.868773 463.807331 41.47294 Z M 465.90629 20.301063 " stroke="#aeabf0" stroke-width="2.299999" stroke-opacity="1" stroke-miterlimit="4"/><g fill="#6660e0" fill-opacity="1"><g transform="translate(434.814154, 55.912601)"><g/></g></g><g clip-path="url(#b17f8c1cd3)"><path fill="#ffcd6f" d="M 53.851562 15.058594 L 53.851562 55.785156 C 53.851562 57.671875 52.300781 59.214844 50.402344 59.214844 L 17.882812 59.214844 C 15.984375 59.214844 14.429688 57.671875 14.429688 55.785156 L 14.429688 8.167969 C 14.429688 6.28125 15.984375 4.738281 17.882812 4.738281 L 43.46875 4.738281 Z M 53.851562 15.058594 " fill-opacity="1" fill-rule="nonzero"/></g><g clip-path="url(#db188572f5)"><path fill="#ffe1a9" d="M 53.851562 15.058594 L 46.53125 14.644531 C 45.105469 14.5625 43.964844 13.429688 43.886719 12.011719 L 43.46875 4.738281 Z M 53.851562 15.058594 " fill-opacity="1" fill-rule="nonzero"/></g><path fill="#8fc28c" d="M 49.257812 20.238281 L 49.257812 60.964844 C 49.257812 62.851562 47.703125 64.394531 45.804688 64.394531 L 13.289062 64.394531 C 11.390625 64.394531 9.835938 62.851562 9.835938 60.964844 L 9.835938 13.347656 C 9.835938 11.460938 11.390625 9.917969 13.289062 9.917969 L 38.875 9.917969 Z M 49.257812 20.238281 " fill-opacity="1" fill-rule="nonzero"/><path fill="#bcdaba" d="M 49.257812 20.238281 L 41.9375 19.824219 C 40.511719 19.742188 39.371094 18.613281 39.289062 17.195312 L 38.875 9.917969 Z M 49.257812 20.238281 " fill-opacity="1" fill-rule="nonzero"/><g clip-path="url(#da3afb1e8e)"><path fill="#59818e" d="M 44.527344 25.0625 L 44.527344 65.792969 C 44.527344 67.679688 42.972656 69.222656 41.074219 69.222656 L 8.554688 69.222656 C 6.65625 69.222656 5.105469 67.679688 5.105469 65.792969 L 5.105469 18.175781 C 5.105469 16.289062 6.65625 14.746094 8.554688 14.746094 L 34.140625 14.746094 Z M 44.527344 25.0625 " fill-opacity="1" fill-rule="nonzero"/></g><path fill="#9bb3bb" d="M 44.527344 25.0625 L 37.207031 24.652344 C 35.777344 24.570312 34.640625 23.4375 34.558594 22.019531 L 34.140625 14.746094 Z M 44.527344 25.0625 " fill-opacity="1" fill-rule="nonzero"/><path fill="#dee6e8" d="M 40.273438 37.15625 L 9.355469 37.15625 C 9.191406 37.15625 9.054688 37.023438 9.054688 36.855469 L 9.054688 36.835938 C 9.054688 36.671875 9.191406 36.535156 9.355469 36.535156 L 40.273438 36.535156 C 40.441406 36.535156 40.578125 36.671875 40.578125 36.835938 L 40.578125 36.855469 C 40.578125 37.023438 40.441406 37.15625 40.273438 37.15625 Z M 40.273438 37.15625 " fill-opacity="1" fill-rule="nonzero"/><path fill="#dee6e8" d="M 40.273438 40.933594 L 9.355469 40.933594 C 9.191406 40.933594 9.054688 40.800781 9.054688 40.632812 L 9.054688 40.613281 C 9.054688 40.445312 9.191406 40.3125 9.355469 40.3125 L 40.273438 40.3125 C 40.441406 40.3125 40.578125 40.445312 40.578125 40.613281 L 40.578125 40.632812 C 40.578125 40.800781 40.441406 40.933594 40.273438 40.933594 Z M 40.273438 40.933594 " fill-opacity="1" fill-rule="nonzero"/><path fill="#dee6e8" d="M 40.273438 44.710938 L 9.355469 44.710938 C 9.191406 44.710938 9.054688 44.574219 9.054688 44.410156 L 9.054688 44.386719 C 9.054688 44.222656 9.191406 44.085938 9.355469 44.085938 L 40.273438 44.085938 C 40.441406 44.085938 40.578125 44.222656 40.578125 44.386719 L 40.578125 44.410156 C 40.578125 44.574219 40.441406 44.710938 40.273438 44.710938 Z M 40.273438 44.710938 " fill-opacity="1" fill-rule="nonzero"/><path fill="#dee6e8" d="M 27.671875 48.484375 L 9.367188 48.484375 C 9.195312 48.484375 9.054688 48.347656 9.054688 48.175781 C 9.054688 48.003906 9.195312 47.863281 9.367188 47.863281 L 27.671875 47.863281 C 27.84375 47.863281 27.984375 48.003906 27.984375 48.175781 C 27.984375 48.347656 27.84375 48.484375 27.671875 48.484375 Z M 27.671875 48.484375 " fill-opacity="1" fill-rule="nonzero"/><path fill="#ffcd6f" d="M 40.273438 52.261719 L 9.355469 52.261719 C 9.191406 52.261719 9.054688 52.128906 9.054688 51.960938 L 9.054688 51.941406 C 9.054688 51.773438 9.191406 51.640625 9.355469 51.640625 L 40.273438 51.640625 C 40.441406 51.640625 40.578125 51.773438 40.578125 51.941406 L 40.578125 51.960938 C 40.578125 52.128906 40.441406 52.261719 40.273438 52.261719 Z M 40.273438 52.261719 " fill-opacity="1" fill-rule="nonzero"/><path fill="#dee6e8" d="M 40.273438 56.039062 L 9.355469 56.039062 C 9.191406 56.039062 9.054688 55.902344 9.054688 55.738281 L 9.054688 55.71875 C 9.054688 55.550781 9.191406 55.417969 9.355469 55.417969 L 40.273438 55.417969 C 40.441406 55.417969 40.578125 55.550781 40.578125 55.71875 L 40.578125 55.738281 C 40.578125 55.902344 40.441406 56.039062 40.273438 56.039062 Z M 40.273438 56.039062 " fill-opacity="1" fill-rule="nonzero"/><path fill="#dee6e8" d="M 40.273438 59.816406 L 9.355469 59.816406 C 9.191406 59.816406 9.054688 59.679688 9.054688 59.515625 L 9.054688 59.492188 C 9.054688 59.328125 9.191406 59.191406 9.355469 59.191406 L 40.273438 59.191406 C 40.441406 59.191406 40.578125 59.328125 40.578125 59.492188 L 40.578125 59.515625 C 40.578125 59.679688 40.441406 59.816406 40.273438 59.816406 Z M 40.273438 59.816406 " fill-opacity="1" fill-rule="nonzero"/><path fill="#dee6e8" d="M 40.261719 33.382812 L 9.367188 33.382812 C 9.195312 33.382812 9.054688 33.242188 9.054688 33.070312 C 9.054688 32.898438 9.195312 32.757812 9.367188 32.757812 L 40.261719 32.757812 C 40.4375 32.757812 40.578125 32.898438 40.578125 33.070312 C 40.578125 33.242188 40.4375 33.382812 40.261719 33.382812 Z M 40.261719 33.382812 " fill-opacity="1" fill-rule="nonzero"/><path fill="#dee6e8" d="M 40.261719 29.605469 L 9.367188 29.605469 C 9.195312 29.605469 9.054688 29.464844 9.054688 29.292969 C 9.054688 29.121094 9.195312 28.984375 9.367188 28.984375 L 40.261719 28.984375 C 40.4375 28.984375 40.578125 29.121094 40.578125 29.292969 C 40.578125 29.464844 40.4375 29.605469 40.261719 29.605469 Z M 40.261719 29.605469 " fill-opacity="1" fill-rule="nonzero"/><path fill="#dee6e8" d="M 35.773438 25.828125 L 9.367188 25.828125 C 9.195312 25.828125 9.054688 25.691406 9.054688 25.519531 C 9.054688 25.347656 9.195312 25.207031 9.367188 25.207031 L 35.773438 25.207031 C 35.945312 25.207031 36.085938 25.347656 36.085938 25.519531 C 36.085938 25.691406 35.945312 25.828125 35.773438 25.828125 Z M 35.773438 25.828125 " fill-opacity="1" fill-rule="nonzero"/><path fill="#ffcd6f" d="M 32.601562 22.054688 L 9.367188 22.054688 C 9.195312 22.054688 9.054688 21.914062 9.054688 21.742188 C 9.054688 21.570312 9.195312 21.429688 9.367188 21.429688 L 32.601562 21.429688 C 32.773438 21.429688 32.914062 21.570312 32.914062 21.742188 C 32.914062 21.914062 32.773438 22.054688 32.601562 22.054688 Z M 32.601562 22.054688 " fill-opacity="1" fill-rule="nonzero"/><path fill="#dee6e8" d="M 27.414062 63.589844 L 9.113281 63.589844 C 8.9375 63.589844 8.796875 63.453125 8.796875 63.28125 C 8.796875 63.109375 8.9375 62.96875 9.113281 62.96875 L 27.414062 62.96875 C 27.589844 62.96875 27.726562 63.109375 27.726562 63.28125 C 27.730469 63.453125 27.589844 63.589844 27.414062 63.589844 Z M 27.414062 63.589844 " fill-opacity="1" fill-rule="nonzero"/><path fill="#fefefe" d="M 44.539062 68.992188 L 44.539062 65.46875 L 42.976562 65.46875 L 42.976562 62.335938 L 41.414062 62.335938 L 41.414062 59.203125 L 39.851562 59.203125 L 39.851562 55.675781 L 37.894531 55.675781 L 37.894531 54.109375 L 36.332031 54.109375 L 36.332031 50.976562 L 39.851562 50.976562 L 39.851562 52.542969 L 41.414062 52.542969 L 41.414062 57.242188 L 42.976562 57.242188 L 42.976562 36.09375 L 46.105469 36.09375 L 46.105469 50.976562 L 47.667969 50.976562 L 47.667969 44.316406 L 51.183594 44.316406 L 51.183594 50.976562 L 52.75 50.976562 L 52.75 45.882812 L 55.875 45.882812 L 55.875 52.542969 L 57.4375 52.542969 L 57.4375 47.449219 L 59.394531 47.449219 L 59.394531 49.410156 L 60.957031 49.410156 L 60.957031 60.769531 L 59.394531 60.769531 L 59.394531 65.46875 L 57.4375 65.46875 L 57.4375 68.992188 Z M 44.539062 68.992188 " fill-opacity="1" fill-rule="nonzero"/><g clip-path="url(#d809b609d8)"><path fill="#000000" d="M 42.976562 70.558594 L 42.976562 65.46875 L 41.414062 65.46875 L 41.414062 62.335938 L 39.851562 62.335938 L 39.851562 59.203125 L 37.894531 59.203125 L 37.894531 55.675781 L 36.332031 55.675781 L 36.332031 54.109375 L 34.769531 54.109375 L 34.769531 49.410156 L 39.851562 49.410156 L 39.851562 50.976562 L 41.414062 50.976562 L 41.414062 36.09375 L 42.976562 36.09375 L 42.976562 34.527344 L 46.105469 34.527344 L 46.105469 36.09375 L 47.667969 36.09375 L 47.667969 42.75 L 51.183594 42.75 L 51.183594 44.316406 L 55.875 44.316406 L 55.875 45.882812 L 59.394531 45.882812 L 59.394531 47.449219 L 60.957031 47.449219 L 60.957031 49.410156 L 62.519531 49.410156 L 62.519531 60.769531 L 60.957031 60.769531 L 60.957031 65.46875 L 59.394531 65.46875 L 59.394531 70.558594 Z M 57.4375 68.992188 L 57.4375 65.46875 L 59.394531 65.46875 L 59.394531 60.769531 L 60.957031 60.769531 L 60.957031 49.410156 L 59.394531 49.410156 L 59.394531 47.449219 L 57.4375 47.449219 L 57.4375 52.542969 L 55.875 52.542969 L 55.875 45.882812 L 52.75 45.882812 L 52.75 50.976562 L 51.183594 50.976562 L 51.183594 44.316406 L 47.667969 44.316406 L 47.667969 50.976562 L 46.105469 50.976562 L 46.105469 36.09375 L 42.976562 36.09375 L 42.976562 57.242188 L 41.414062 57.242188 L 41.414062 52.542969 L 39.851562 52.542969 L 39.851562 50.976562 L 36.332031 50.976562 L 36.332031 54.109375 L 37.894531 54.109375 L 37.894531 55.675781 L 39.851562 55.675781 L 39.851562 59.203125 L 41.414062 59.203125 L 41.414062 62.335938 L 42.976562 62.335938 L 42.976562 65.46875 L 44.539062 65.46875 L 44.539062 68.992188 Z M 57.4375 68.992188 " fill-opacity="1" fill-rule="nonzero"/></g></svg>