<svg xmlns="http://www.w3.org/2000/svg" xmlns:xlink="http://www.w3.org/1999/xlink" width="520" zoomAndPan="magnify" viewBox="0 0 390 74.999997" height="100" preserveAspectRatio="xMidYMid meet" version="1.0"><defs><g/><clipPath id="31346866c6"><path d="M 8 5.253906 L 51 5.253906 L 51 67 L 8 67 Z M 8 5.253906 " clip-rule="nonzero"/></clipPath><clipPath id="a8d1b25316"><path d="M 7.5 5.253906 L 51 5.253906 L 51 67.503906 L 7.5 67.503906 Z M 7.5 5.253906 " clip-rule="nonzero"/></clipPath><clipPath id="a6c92762c5"><path d="M 33.125 34 L 60.875 34 L 60.875 69.996094 L 33.125 69.996094 Z M 33.125 34 " clip-rule="nonzero"/></clipPath></defs><g clip-path="url(#31346866c6)"><path fill="#e6e6e6" d="M 47.789062 66.976562 L 10.710938 66.976562 C 9.222656 66.976562 8.03125 65.789062 8.03125 64.3125 L 8.03125 8.445312 C 8.03125 6.96875 9.222656 5.78125 10.710938 5.78125 L 47.789062 5.78125 C 49.277344 5.78125 50.46875 6.96875 50.46875 8.445312 L 50.46875 64.3125 C 50.46875 65.789062 49.277344 66.976562 47.789062 66.976562 Z M 47.789062 66.976562 " fill-opacity="1" fill-rule="nonzero"/></g><path fill="#fcac3f" d="M 25.007812 20.554688 L 25.007812 34.269531 L 22.882812 34.269531 L 18.640625 32.160156 L 15.457031 34.269531 L 13.335938 34.269531 L 13.335938 20.554688 Z M 25.007812 20.554688 " fill-opacity="1" fill-rule="nonzero"/><path fill="#305586" d="M 20.097656 27.9375 L 18.242188 27.9375 C 16.703125 27.9375 15.457031 29.179688 15.457031 30.707031 L 15.457031 34.269531 L 22.882812 34.269531 L 22.882812 30.707031 C 22.882812 29.179688 21.636719 27.9375 20.097656 27.9375 Z M 20.097656 27.9375 " fill-opacity="1" fill-rule="nonzero"/><path fill="#305586" d="M 21.824219 25.300781 C 21.824219 23.851562 20.628906 22.664062 19.171875 22.664062 C 17.710938 22.664062 16.519531 23.851562 16.519531 25.300781 C 16.519531 26.75 17.710938 27.9375 19.171875 27.9375 C 20.628906 27.9375 21.824219 26.75 21.824219 25.300781 Z M 21.824219 25.300781 " fill-opacity="1" fill-rule="nonzero"/><g clip-path="url(#a8d1b25316)"><path fill="#000000" d="M 47.789062 5.253906 L 10.710938 5.253906 C 8.945312 5.253906 7.5 6.691406 7.5 8.445312 L 7.5 64.3125 C 7.5 66.066406 8.945312 67.503906 10.710938 67.503906 L 47.789062 67.503906 C 49.554688 67.503906 51 66.066406 51 64.3125 L 51 8.445312 C 51 6.691406 49.554688 5.253906 47.789062 5.253906 Z M 49.9375 64.3125 C 49.9375 65.484375 48.972656 66.445312 47.789062 66.445312 L 10.710938 66.445312 C 9.527344 66.445312 8.5625 65.484375 8.5625 64.3125 L 8.5625 8.445312 C 8.5625 7.273438 9.527344 6.3125 10.710938 6.3125 L 47.789062 6.3125 C 48.972656 6.3125 49.9375 7.273438 49.9375 8.445312 Z M 49.9375 64.3125 " fill-opacity="1" fill-rule="nonzero"/></g><path fill="#000000" d="M 13.335938 34.796875 L 25.007812 34.796875 C 25.296875 34.796875 25.535156 34.558594 25.535156 34.269531 L 25.535156 20.554688 C 25.535156 20.261719 25.296875 20.027344 25.007812 20.027344 L 13.335938 20.027344 C 13.042969 20.027344 12.804688 20.261719 12.804688 20.554688 L 12.804688 34.269531 C 12.804688 34.558594 13.042969 34.796875 13.335938 34.796875 Z M 19.171875 27.410156 C 18.003906 27.410156 17.046875 26.460938 17.046875 25.300781 C 17.046875 24.140625 18.003906 23.191406 19.171875 23.191406 C 20.335938 23.191406 21.292969 24.140625 21.292969 25.300781 C 21.292969 26.460938 20.335938 27.410156 19.171875 27.410156 Z M 20.097656 28.464844 C 21.347656 28.464844 22.355469 29.46875 22.355469 30.707031 L 22.355469 33.742188 L 15.988281 33.742188 L 15.988281 30.707031 C 15.988281 29.46875 16.996094 28.464844 18.242188 28.464844 Z M 13.867188 21.082031 L 24.476562 21.082031 L 24.476562 33.742188 L 23.414062 33.742188 L 23.414062 30.707031 C 23.414062 29.324219 22.539062 28.125 21.320312 27.648438 C 21.957031 27.066406 22.355469 26.238281 22.355469 25.3125 C 22.355469 23.574219 20.921875 22.148438 19.171875 22.148438 C 17.421875 22.148438 15.988281 23.574219 15.988281 25.3125 C 15.988281 26.238281 16.386719 27.066406 17.023438 27.648438 C 15.789062 28.125 14.925781 29.324219 14.925781 30.707031 L 14.925781 33.742188 L 13.867188 33.742188 Z M 13.867188 21.082031 " fill-opacity="1" fill-rule="nonzero"/><path fill="#000000" d="M 13.824219 13.972656 L 14.609375 13.972656 C 15.363281 14 15.710938 14.328125 15.894531 15.210938 C 16.082031 16.003906 16.214844 16.558594 16.320312 16.742188 L 17.179688 16.742188 C 17.046875 16.492188 16.890625 15.871094 16.691406 14.988281 C 16.53125 14.328125 16.238281 13.867188 15.75 13.695312 L 15.75 13.667969 C 16.425781 13.445312 16.957031 12.878906 16.957031 12.035156 C 16.957031 11.546875 16.769531 11.097656 16.453125 10.820312 C 16.054688 10.464844 15.484375 10.292969 14.59375 10.292969 C 14.023438 10.292969 13.414062 10.347656 13.003906 10.425781 L 13.003906 16.742188 L 13.839844 16.742188 L 13.839844 13.972656 Z M 13.824219 11.003906 C 13.957031 10.964844 14.25 10.925781 14.648438 10.925781 C 15.523438 10.941406 16.132812 11.296875 16.132812 12.125 C 16.132812 12.851562 15.578125 13.339844 14.6875 13.339844 L 13.839844 13.339844 L 13.839844 11.003906 Z M 13.824219 11.003906 " fill-opacity="1" fill-rule="nonzero"/><path fill="#000000" d="M 21.757812 16.054688 L 18.972656 16.054688 L 18.972656 13.75 L 21.464844 13.75 L 21.464844 13.0625 L 18.972656 13.0625 L 18.972656 11.03125 L 21.609375 11.03125 L 21.609375 10.347656 L 18.136719 10.347656 L 18.136719 16.742188 L 21.757812 16.742188 Z M 21.757812 16.054688 " fill-opacity="1" fill-rule="nonzero"/><path fill="#000000" d="M 24.210938 16.160156 C 23.640625 16.160156 23.097656 15.976562 22.726562 15.738281 L 22.511719 16.4375 C 22.859375 16.664062 23.535156 16.847656 24.15625 16.847656 C 25.667969 16.847656 26.410156 15.992188 26.410156 15 C 26.410156 14.066406 25.855469 13.539062 24.765625 13.117188 C 23.878906 12.773438 23.496094 12.484375 23.496094 11.875 C 23.496094 11.441406 23.824219 10.914062 24.699219 10.914062 C 25.285156 10.914062 25.710938 11.097656 25.921875 11.214844 L 26.148438 10.542969 C 25.855469 10.386719 25.378906 10.226562 24.726562 10.226562 C 23.480469 10.226562 22.644531 10.964844 22.644531 11.96875 C 22.644531 12.863281 23.296875 13.40625 24.34375 13.789062 C 25.21875 14.117188 25.550781 14.460938 25.550781 15.054688 C 25.5625 15.714844 25.058594 16.160156 24.210938 16.160156 Z M 24.210938 16.160156 " fill-opacity="1" fill-rule="nonzero"/><path fill="#000000" d="M 29.847656 16.847656 C 31.238281 16.847656 32.285156 16.042969 32.285156 14.078125 L 32.285156 10.347656 L 31.453125 10.347656 L 31.453125 14.132812 C 31.453125 15.542969 30.839844 16.175781 29.886719 16.175781 C 29.023438 16.175781 28.386719 15.570312 28.386719 14.132812 L 28.386719 10.347656 L 27.550781 10.347656 L 27.550781 14.117188 C 27.539062 16.097656 28.519531 16.847656 29.847656 16.847656 Z M 29.847656 16.847656 " fill-opacity="1" fill-rule="nonzero"/><path fill="#000000" d="M 34.515625 14 C 34.566406 13.035156 34.621094 11.96875 34.632812 11.164062 L 34.648438 11.164062 C 34.832031 11.929688 35.085938 12.746094 35.390625 13.65625 L 36.425781 16.703125 L 37.0625 16.703125 L 38.203125 13.605469 C 38.519531 12.71875 38.796875 11.929688 39.011719 11.175781 L 39.039062 11.175781 C 39.023438 11.96875 39.089844 13.050781 39.128906 13.945312 L 39.289062 16.753906 L 40.097656 16.753906 L 39.699219 10.359375 L 38.640625 10.359375 L 37.5 13.457031 C 37.207031 14.261719 36.980469 14.960938 36.824219 15.609375 L 36.808594 15.609375 C 36.648438 14.949219 36.425781 14.238281 36.160156 13.457031 L 35.058594 10.359375 L 33.996094 10.359375 L 33.546875 16.753906 L 34.34375 16.753906 Z M 34.515625 14 " fill-opacity="1" fill-rule="nonzero"/><path fill="#000000" d="M 45.019531 16.054688 L 42.234375 16.054688 L 42.234375 13.75 L 44.726562 13.75 L 44.726562 13.0625 L 42.234375 13.0625 L 42.234375 11.03125 L 44.871094 11.03125 L 44.871094 10.347656 L 41.398438 10.347656 L 41.398438 16.742188 L 45.019531 16.742188 Z M 45.019531 16.054688 " fill-opacity="1" fill-rule="nonzero"/><path fill="#000000" d="M 45.164062 20.554688 L 31.371094 20.554688 C 30.789062 20.554688 30.3125 21.027344 30.3125 21.609375 C 30.3125 22.1875 30.789062 22.664062 31.371094 22.664062 L 45.164062 22.664062 C 45.75 22.664062 46.226562 22.1875 46.226562 21.609375 C 46.226562 21.027344 45.75 20.554688 45.164062 20.554688 Z M 45.164062 20.554688 " fill-opacity="1" fill-rule="nonzero"/><path fill="#000000" d="M 31.371094 26.355469 L 38.796875 26.355469 C 39.089844 26.355469 39.328125 26.117188 39.328125 25.828125 C 39.328125 25.539062 39.089844 25.300781 38.796875 25.300781 L 31.371094 25.300781 C 31.082031 25.300781 30.839844 25.539062 30.839844 25.828125 C 30.839844 26.117188 31.082031 26.355469 31.371094 26.355469 Z M 31.371094 26.355469 " fill-opacity="1" fill-rule="nonzero"/><path fill="#000000" d="M 31.371094 29.519531 L 38.796875 29.519531 C 39.089844 29.519531 39.328125 29.285156 39.328125 28.992188 C 39.328125 28.703125 39.089844 28.464844 38.796875 28.464844 L 31.371094 28.464844 C 31.082031 28.464844 30.839844 28.703125 30.839844 28.992188 C 30.839844 29.285156 31.082031 29.519531 31.371094 29.519531 Z M 31.371094 29.519531 " fill-opacity="1" fill-rule="nonzero"/><path fill="#000000" d="M 31.371094 32.6875 L 38.796875 32.6875 C 39.089844 32.6875 39.328125 32.449219 39.328125 32.160156 C 39.328125 31.867188 39.089844 31.632812 38.796875 31.632812 L 31.371094 31.632812 C 31.082031 31.632812 30.839844 31.867188 30.839844 32.160156 C 30.839844 32.449219 31.082031 32.6875 31.371094 32.6875 Z M 31.371094 32.6875 " fill-opacity="1" fill-rule="nonzero"/><path fill="#000000" d="M 12.273438 44.292969 L 34.554688 44.292969 C 34.847656 44.292969 35.085938 44.054688 35.085938 43.765625 C 35.085938 43.472656 34.847656 43.238281 34.554688 43.238281 L 12.273438 43.238281 C 11.984375 43.238281 11.742188 43.472656 11.742188 43.765625 C 11.742188 44.054688 11.984375 44.292969 12.273438 44.292969 Z M 12.273438 44.292969 " fill-opacity="1" fill-rule="nonzero"/><path fill="#000000" d="M 12.273438 47.457031 L 34.554688 47.457031 C 34.847656 47.457031 35.085938 47.21875 35.085938 46.929688 C 35.085938 46.640625 34.847656 46.402344 34.554688 46.402344 L 12.273438 46.402344 C 11.984375 46.402344 11.742188 46.640625 11.742188 46.929688 C 11.742188 47.21875 11.984375 47.457031 12.273438 47.457031 Z M 12.273438 47.457031 " fill-opacity="1" fill-rule="nonzero"/><path fill="#000000" d="M 12.273438 50.621094 L 34.554688 50.621094 C 34.847656 50.621094 35.085938 50.382812 35.085938 50.09375 C 35.085938 49.804688 34.847656 49.566406 34.554688 49.566406 L 12.273438 49.566406 C 11.984375 49.566406 11.742188 49.804688 11.742188 50.09375 C 11.742188 50.382812 11.984375 50.621094 12.273438 50.621094 Z M 12.273438 50.621094 " fill-opacity="1" fill-rule="nonzero"/><path fill="#000000" d="M 12.273438 59.0625 L 32.433594 59.0625 C 32.726562 59.0625 32.964844 58.824219 32.964844 58.535156 C 32.964844 58.246094 32.726562 58.007812 32.433594 58.007812 L 12.273438 58.007812 C 11.984375 58.007812 11.742188 58.246094 11.742188 58.535156 C 11.742188 58.824219 11.984375 59.0625 12.273438 59.0625 Z M 12.273438 59.0625 " fill-opacity="1" fill-rule="nonzero"/><path fill="#000000" d="M 44.105469 61.171875 L 12.273438 61.171875 C 11.984375 61.171875 11.742188 61.410156 11.742188 61.699219 C 11.742188 61.988281 11.984375 62.226562 12.273438 62.226562 L 44.105469 62.226562 C 44.394531 62.226562 44.632812 61.988281 44.632812 61.699219 C 44.632812 61.410156 44.394531 61.171875 44.105469 61.171875 Z M 44.105469 61.171875 " fill-opacity="1" fill-rule="nonzero"/><path fill="#000000" d="M 13.335938 40.597656 L 22.882812 40.597656 C 23.46875 40.597656 23.945312 40.125 23.945312 39.542969 C 23.945312 38.964844 23.46875 38.488281 22.882812 38.488281 L 13.335938 38.488281 C 12.75 38.488281 12.273438 38.964844 12.273438 39.542969 C 12.273438 40.125 12.75 40.597656 13.335938 40.597656 Z M 13.335938 40.597656 " fill-opacity="1" fill-rule="nonzero"/><path fill="#000000" d="M 13.335938 53.257812 C 12.75 53.257812 12.273438 53.734375 12.273438 54.3125 C 12.273438 54.894531 12.75 55.371094 13.335938 55.371094 L 22.882812 55.371094 C 23.46875 55.371094 23.945312 54.894531 23.945312 54.3125 C 23.945312 53.734375 23.46875 53.257812 22.882812 53.257812 Z M 13.335938 53.257812 " fill-opacity="1" fill-rule="nonzero"/><path fill="#fefefe" d="M 42.894531 68.46875 L 42.894531 64.945312 L 41.332031 64.945312 L 41.332031 61.8125 L 39.769531 61.8125 L 39.769531 58.675781 L 38.207031 58.675781 L 38.207031 55.152344 L 36.25 55.152344 L 36.25 53.585938 L 34.6875 53.585938 L 34.6875 50.453125 L 38.207031 50.453125 L 38.207031 52.019531 L 39.769531 52.019531 L 39.769531 56.71875 L 41.332031 56.71875 L 41.332031 35.570312 L 44.457031 35.570312 L 44.457031 50.453125 L 46.023438 50.453125 L 46.023438 43.792969 L 49.539062 43.792969 L 49.539062 50.453125 L 51.101562 50.453125 L 51.101562 45.359375 L 54.230469 45.359375 L 54.230469 52.019531 L 55.792969 52.019531 L 55.792969 46.925781 L 57.746094 46.925781 L 57.746094 48.886719 L 59.3125 48.886719 L 59.3125 60.242188 L 57.746094 60.242188 L 57.746094 64.945312 L 55.792969 64.945312 L 55.792969 68.46875 Z M 42.894531 68.46875 " fill-opacity="1" fill-rule="nonzero"/><g clip-path="url(#a6c92762c5)"><path fill="#000000" d="M 41.332031 70.035156 L 41.332031 64.945312 L 39.769531 64.945312 L 39.769531 61.8125 L 38.207031 61.8125 L 38.207031 58.675781 L 36.25 58.675781 L 36.25 55.152344 L 34.6875 55.152344 L 34.6875 53.585938 L 33.125 53.585938 L 33.125 48.886719 L 38.207031 48.886719 L 38.207031 50.453125 L 39.769531 50.453125 L 39.769531 35.570312 L 41.332031 35.570312 L 41.332031 34 L 44.457031 34 L 44.457031 35.570312 L 46.023438 35.570312 L 46.023438 42.226562 L 49.539062 42.226562 L 49.539062 43.792969 L 54.230469 43.792969 L 54.230469 45.359375 L 57.746094 45.359375 L 57.746094 46.925781 L 59.3125 46.925781 L 59.3125 48.886719 L 60.875 48.886719 L 60.875 60.242188 L 59.3125 60.242188 L 59.3125 64.945312 L 57.746094 64.945312 L 57.746094 70.035156 Z M 55.792969 68.46875 L 55.792969 64.945312 L 57.746094 64.945312 L 57.746094 60.242188 L 59.3125 60.242188 L 59.3125 48.886719 L 57.746094 48.886719 L 57.746094 46.925781 L 55.792969 46.925781 L 55.792969 52.019531 L 54.230469 52.019531 L 54.230469 45.359375 L 51.101562 45.359375 L 51.101562 50.453125 L 49.539062 50.453125 L 49.539062 43.792969 L 46.023438 43.792969 L 46.023438 50.453125 L 44.457031 50.453125 L 44.457031 35.570312 L 41.332031 35.570312 L 41.332031 56.71875 L 39.769531 56.71875 L 39.769531 52.019531 L 38.207031 52.019531 L 38.207031 50.453125 L 34.6875 50.453125 L 34.6875 53.585938 L 36.25 53.585938 L 36.25 55.152344 L 38.207031 55.152344 L 38.207031 58.675781 L 39.769531 58.675781 L 39.769531 61.8125 L 41.332031 61.8125 L 41.332031 64.945312 L 42.894531 64.945312 L 42.894531 68.46875 Z M 55.792969 68.46875 " fill-opacity="1" fill-rule="nonzero"/></g><g fill="#ffffff" fill-opacity="1"><g transform="translate(59.991173, 53.355738)"><g><path d="M 20.015625 -18.578125 L 23.109375 -30.40625 C 23.171875 -30.675781 23.226562 -30.921875 23.28125 -31.140625 C 23.34375 -31.367188 23.421875 -31.566406 23.515625 -31.734375 C 23.617188 -31.898438 23.75 -32.023438 23.90625 -32.109375 C 24.0625 -32.203125 24.273438 -32.25 24.546875 -32.25 L 26.8125 -32.25 C 27.039062 -32.25 27.222656 -32.203125 27.359375 -32.109375 C 27.492188 -32.023438 27.5625 -31.878906 27.5625 -31.671875 C 27.5625 -31.390625 27.484375 -31.015625 27.328125 -30.546875 L 17.953125 -2.109375 C 17.722656 -1.421875 17.453125 -0.894531 17.140625 -0.53125 C 16.835938 -0.175781 16.363281 0 15.71875 0 L 12.59375 0 C 12.25 0 11.960938 -0.0664062 11.734375 -0.203125 C 11.515625 -0.335938 11.328125 -0.503906 11.171875 -0.703125 C 11.015625 -0.910156 10.882812 -1.132812 10.78125 -1.375 C 10.6875 -1.613281 10.601562 -1.84375 10.53125 -2.0625 L 0.21875 -29.625 C 0.0703125 -30.007812 0 -30.363281 0 -30.6875 C 0 -31.207031 0.160156 -31.597656 0.484375 -31.859375 C 0.816406 -32.117188 1.164062 -32.25 1.53125 -32.25 L 14.265625 -32.25 C 14.640625 -32.25 14.957031 -32.207031 15.21875 -32.125 C 15.476562 -32.039062 15.695312 -31.921875 15.875 -31.765625 C 16.0625 -31.609375 16.210938 -31.421875 16.328125 -31.203125 C 16.453125 -30.992188 16.550781 -30.757812 16.625 -30.5 Z M 20.015625 -18.578125 "/></g></g></g><g fill="#ffffff" fill-opacity="1"><g transform="translate(87.593325, 53.355738)"><g><path d="M 2.0625 -29.109375 C 2.0625 -29.628906 2.109375 -30.082031 2.203125 -30.46875 C 2.296875 -30.863281 2.46875 -31.191406 2.71875 -31.453125 C 2.96875 -31.710938 3.316406 -31.910156 3.765625 -32.046875 C 4.222656 -32.179688 4.8125 -32.25 5.53125 -32.25 L 15.546875 -32.25 C 16.410156 -32.25 17.070312 -32.117188 17.53125 -31.859375 C 17.988281 -31.609375 18.3125 -31.289062 18.5 -30.90625 C 18.6875 -30.53125 18.785156 -30.128906 18.796875 -29.703125 C 18.816406 -29.273438 18.828125 -28.882812 18.828125 -28.53125 L 18.828125 -3.640625 C 18.828125 -3.296875 18.796875 -2.910156 18.734375 -2.484375 C 18.671875 -2.066406 18.519531 -1.675781 18.28125 -1.3125 C 18.039062 -0.945312 17.671875 -0.632812 17.171875 -0.375 C 16.679688 -0.125 16.003906 0 15.140625 0 L 5.53125 0 C 4.8125 0 4.222656 -0.0664062 3.765625 -0.203125 C 3.316406 -0.335938 2.96875 -0.53125 2.71875 -0.78125 C 2.46875 -1.039062 2.296875 -1.363281 2.203125 -1.75 C 2.109375 -2.144531 2.0625 -2.601562 2.0625 -3.125 Z M 2.0625 -29.109375 "/></g></g></g><g fill="#ffffff" fill-opacity="1"><g transform="translate(108.502686, 53.355738)"><g><path d="M 18.828125 -20.984375 L 18.828125 -2.765625 C 20.273438 -2.972656 21.609375 -3.160156 22.828125 -3.328125 C 23.328125 -3.398438 23.835938 -3.46875 24.359375 -3.53125 C 24.878906 -3.601562 25.351562 -3.664062 25.78125 -3.71875 C 26.21875 -3.78125 26.59375 -3.828125 26.90625 -3.859375 C 27.21875 -3.890625 27.4375 -3.90625 27.5625 -3.90625 C 27.8125 -3.90625 28.023438 -3.851562 28.203125 -3.75 C 28.390625 -3.65625 28.484375 -3.460938 28.484375 -3.171875 L 28.484375 -1.09375 C 28.484375 -0.832031 28.414062 -0.582031 28.28125 -0.34375 C 28.144531 -0.113281 27.820312 0 27.3125 0 L 5.484375 0 C 4.773438 0 4.195312 -0.0664062 3.75 -0.203125 C 3.3125 -0.335938 2.96875 -0.53125 2.71875 -0.78125 C 2.46875 -1.039062 2.296875 -1.363281 2.203125 -1.75 C 2.109375 -2.144531 2.0625 -2.601562 2.0625 -3.125 L 2.0625 -28.34375 C 2.0625 -29.195312 2.160156 -29.878906 2.359375 -30.390625 C 2.554688 -30.910156 2.832031 -31.304688 3.1875 -31.578125 C 3.550781 -31.859375 3.984375 -32.039062 4.484375 -32.125 C 4.984375 -32.207031 5.539062 -32.25 6.15625 -32.25 L 26.453125 -32.25 C 26.960938 -32.25 27.289062 -32.132812 27.4375 -31.90625 C 27.582031 -31.675781 27.65625 -31.414062 27.65625 -31.125 L 27.65625 -29.53125 C 27.65625 -29.238281 27.570312 -29.039062 27.40625 -28.9375 C 27.25 -28.84375 27.046875 -28.796875 26.796875 -28.796875 C 26.648438 -28.796875 26.421875 -28.8125 26.109375 -28.84375 C 25.804688 -28.875 25.453125 -28.914062 25.046875 -28.96875 C 24.640625 -29.019531 24.203125 -29.070312 23.734375 -29.125 C 23.273438 -29.1875 22.8125 -29.253906 22.34375 -29.328125 C 21.269531 -29.492188 20.097656 -29.679688 18.828125 -29.890625 L 18.828125 -24.1875 L 27.171875 -24.1875 C 27.492188 -24.1875 27.65625 -24.03125 27.65625 -23.71875 L 27.65625 -21.46875 C 27.65625 -21.144531 27.492188 -20.984375 27.171875 -20.984375 Z M 18.828125 -20.984375 "/></g></g></g><g fill="#ffffff" fill-opacity="1"><g transform="translate(137.90156, 53.355738)"><g><path d="M 34.234375 -16.375 L 37.875 -30.40625 C 37.925781 -30.675781 37.984375 -30.921875 38.046875 -31.140625 C 38.109375 -31.367188 38.179688 -31.566406 38.265625 -31.734375 C 38.359375 -31.898438 38.476562 -32.023438 38.625 -32.109375 C 38.78125 -32.203125 38.984375 -32.25 39.234375 -32.25 L 41.46875 -32.25 C 42 -32.25 42.265625 -32.054688 42.265625 -31.671875 C 42.265625 -31.390625 42.191406 -31.015625 42.046875 -30.546875 L 33.125 -2.109375 C 32.914062 -1.410156 32.640625 -0.882812 32.296875 -0.53125 C 31.953125 -0.175781 31.507812 0 30.96875 0 L 27.78125 0 C 27.457031 0 27.175781 -0.0664062 26.9375 -0.203125 C 26.707031 -0.335938 26.515625 -0.503906 26.359375 -0.703125 C 26.203125 -0.910156 26.070312 -1.132812 25.96875 -1.375 C 25.863281 -1.613281 25.78125 -1.84375 25.71875 -2.0625 L 21.65625 -15.296875 L 17.953125 -2.109375 C 17.753906 -1.410156 17.492188 -0.882812 17.171875 -0.53125 C 16.847656 -0.175781 16.425781 0 15.90625 0 L 12.15625 0 C 11.8125 0 11.523438 -0.0664062 11.296875 -0.203125 C 11.078125 -0.335938 10.882812 -0.503906 10.71875 -0.703125 C 10.5625 -0.910156 10.4375 -1.132812 10.34375 -1.375 C 10.25 -1.625 10.160156 -1.851562 10.078125 -2.0625 L 0.21875 -29.625 C 0.0703125 -30.007812 0 -30.378906 0 -30.734375 C 0 -31.253906 0.148438 -31.632812 0.453125 -31.875 C 0.753906 -32.125 1.117188 -32.25 1.546875 -32.25 L 11.046875 -32.25 C 11.421875 -32.25 11.742188 -32.203125 12.015625 -32.109375 C 12.285156 -32.015625 12.507812 -31.898438 12.6875 -31.765625 C 12.863281 -31.628906 13 -31.484375 13.09375 -31.328125 C 13.1875 -31.171875 13.253906 -31.03125 13.296875 -30.90625 L 18.078125 -16.375 L 19.5625 -22.0625 L 17.25 -29.625 C 17.175781 -29.832031 17.117188 -30.035156 17.078125 -30.234375 C 17.046875 -30.429688 17.03125 -30.609375 17.03125 -30.765625 C 17.03125 -31.296875 17.171875 -31.675781 17.453125 -31.90625 C 17.734375 -32.132812 18.09375 -32.25 18.53125 -32.25 L 28.046875 -32.25 C 28.421875 -32.25 28.738281 -32.21875 29 -32.15625 C 29.269531 -32.101562 29.484375 -32.019531 29.640625 -31.90625 C 29.804688 -31.789062 29.941406 -31.644531 30.046875 -31.46875 C 30.148438 -31.300781 30.242188 -31.113281 30.328125 -30.90625 Z M 34.234375 -16.375 "/></g></g></g><g fill="#ffffff" fill-opacity="1"><g transform="translate(180.214369, 53.355738)"><g/></g></g><g fill="#ffffff" fill-opacity="1"><g transform="translate(194.004213, 53.355738)"><g><path d="M 22.390625 -6.109375 C 21.828125 -5.796875 21.25 -5.535156 20.65625 -5.328125 C 20.0625 -5.117188 19.453125 -4.945312 18.828125 -4.8125 L 18.828125 -3.125 C 18.828125 -2.644531 18.773438 -2.210938 18.671875 -1.828125 C 18.566406 -1.453125 18.378906 -1.128906 18.109375 -0.859375 C 17.847656 -0.585938 17.503906 -0.375 17.078125 -0.21875 C 16.648438 -0.0703125 16.113281 0 15.46875 0 L 5.53125 0 C 4.8125 0 4.222656 -0.0664062 3.765625 -0.203125 C 3.316406 -0.335938 2.96875 -0.53125 2.71875 -0.78125 C 2.46875 -1.039062 2.296875 -1.363281 2.203125 -1.75 C 2.109375 -2.144531 2.0625 -2.601562 2.0625 -3.125 L 2.0625 -29.109375 C 2.0625 -29.628906 2.109375 -30.082031 2.203125 -30.46875 C 2.296875 -30.863281 2.46875 -31.191406 2.71875 -31.453125 C 2.96875 -31.710938 3.316406 -31.910156 3.765625 -32.046875 C 4.222656 -32.179688 4.8125 -32.25 5.53125 -32.25 L 15.546875 -32.25 C 16.617188 -32.25 17.675781 -32.160156 18.71875 -31.984375 C 19.757812 -31.804688 20.75 -31.519531 21.6875 -31.125 C 22.625 -30.726562 23.484375 -30.195312 24.265625 -29.53125 C 25.054688 -28.875 25.738281 -28.0625 26.3125 -27.09375 C 26.882812 -26.132812 27.332031 -25.007812 27.65625 -23.71875 C 27.976562 -22.425781 28.140625 -20.941406 28.140625 -19.265625 C 28.140625 -17.828125 28.050781 -16.523438 27.875 -15.359375 C 27.695312 -14.191406 27.445312 -13.132812 27.125 -12.1875 C 26.8125 -11.25 26.4375 -10.414062 26 -9.6875 C 25.5625 -8.96875 25.070312 -8.328125 24.53125 -7.765625 L 29.015625 -1.84375 C 29.171875 -1.632812 29.25 -1.429688 29.25 -1.234375 C 29.25 -1.015625 29.164062 -0.820312 29 -0.65625 C 28.84375 -0.488281 28.675781 -0.351562 28.5 -0.25 L 27.15625 0.546875 C 27.050781 0.597656 26.941406 0.640625 26.828125 0.671875 C 26.710938 0.710938 26.597656 0.734375 26.484375 0.734375 C 26.316406 0.734375 26.148438 0.679688 25.984375 0.578125 C 25.816406 0.472656 25.664062 0.296875 25.53125 0.046875 Z M 24.984375 -18.875 C 24.984375 -20.21875 24.863281 -21.457031 24.625 -22.59375 C 24.382812 -23.726562 24.015625 -24.726562 23.515625 -25.59375 C 23.023438 -26.46875 22.390625 -27.1875 21.609375 -27.75 C 20.828125 -28.320312 19.898438 -28.71875 18.828125 -28.9375 L 18.828125 -7.75 C 19.898438 -7.988281 20.828125 -8.425781 21.609375 -9.0625 C 22.390625 -9.695312 23.023438 -10.492188 23.515625 -11.453125 C 24.015625 -12.410156 24.382812 -13.515625 24.625 -14.765625 C 24.863281 -16.015625 24.984375 -17.382812 24.984375 -18.875 Z M 24.984375 -18.875 "/></g></g></g><g fill="#ffffff" fill-opacity="1"><g transform="translate(223.695048, 53.355738)"><g><path d="M 18.828125 -20.984375 L 18.828125 -2.765625 C 20.273438 -2.972656 21.609375 -3.160156 22.828125 -3.328125 C 23.328125 -3.398438 23.835938 -3.46875 24.359375 -3.53125 C 24.878906 -3.601562 25.351562 -3.664062 25.78125 -3.71875 C 26.21875 -3.78125 26.59375 -3.828125 26.90625 -3.859375 C 27.21875 -3.890625 27.4375 -3.90625 27.5625 -3.90625 C 27.8125 -3.90625 28.023438 -3.851562 28.203125 -3.75 C 28.390625 -3.65625 28.484375 -3.460938 28.484375 -3.171875 L 28.484375 -1.09375 C 28.484375 -0.832031 28.414062 -0.582031 28.28125 -0.34375 C 28.144531 -0.113281 27.820312 0 27.3125 0 L 5.484375 0 C 4.773438 0 4.195312 -0.0664062 3.75 -0.203125 C 3.3125 -0.335938 2.96875 -0.53125 2.71875 -0.78125 C 2.46875 -1.039062 2.296875 -1.363281 2.203125 -1.75 C 2.109375 -2.144531 2.0625 -2.601562 2.0625 -3.125 L 2.0625 -28.34375 C 2.0625 -29.195312 2.160156 -29.878906 2.359375 -30.390625 C 2.554688 -30.910156 2.832031 -31.304688 3.1875 -31.578125 C 3.550781 -31.859375 3.984375 -32.039062 4.484375 -32.125 C 4.984375 -32.207031 5.539062 -32.25 6.15625 -32.25 L 26.453125 -32.25 C 26.960938 -32.25 27.289062 -32.132812 27.4375 -31.90625 C 27.582031 -31.675781 27.65625 -31.414062 27.65625 -31.125 L 27.65625 -29.53125 C 27.65625 -29.238281 27.570312 -29.039062 27.40625 -28.9375 C 27.25 -28.84375 27.046875 -28.796875 26.796875 -28.796875 C 26.648438 -28.796875 26.421875 -28.8125 26.109375 -28.84375 C 25.804688 -28.875 25.453125 -28.914062 25.046875 -28.96875 C 24.640625 -29.019531 24.203125 -29.070312 23.734375 -29.125 C 23.273438 -29.1875 22.8125 -29.253906 22.34375 -29.328125 C 21.269531 -29.492188 20.097656 -29.679688 18.828125 -29.890625 L 18.828125 -24.1875 L 27.171875 -24.1875 C 27.492188 -24.1875 27.65625 -24.03125 27.65625 -23.71875 L 27.65625 -21.46875 C 27.65625 -21.144531 27.492188 -20.984375 27.171875 -20.984375 Z M 12.828125 -34.453125 C 12.765625 -34.421875 12.707031 -34.390625 12.65625 -34.359375 C 12.613281 -34.328125 12.570312 -34.3125 12.53125 -34.3125 C 12.363281 -34.3125 12.238281 -34.382812 12.15625 -34.53125 L 10.640625 -36.734375 C 10.554688 -36.835938 10.515625 -36.941406 10.515625 -37.046875 C 10.515625 -37.160156 10.582031 -37.273438 10.71875 -37.390625 L 18.65625 -43.40625 C 18.769531 -43.5 18.878906 -43.546875 18.984375 -43.546875 C 19.085938 -43.546875 19.195312 -43.476562 19.3125 -43.34375 L 21.375 -40.421875 C 21.476562 -40.304688 21.53125 -40.195312 21.53125 -40.09375 C 21.53125 -39.957031 21.46875 -39.84375 21.34375 -39.75 Z M 12.828125 -34.453125 "/></g></g></g><g fill="#ffffff" fill-opacity="1"><g transform="translate(253.09391, 53.355738)"><g><path d="M 7.328125 -24.53125 C 7.484375 -26.15625 7.921875 -27.515625 8.640625 -28.609375 C 9.359375 -29.703125 10.25 -30.570312 11.3125 -31.21875 C 12.382812 -31.875 13.570312 -32.335938 14.875 -32.609375 C 16.175781 -32.878906 17.492188 -33.015625 18.828125 -33.015625 C 19.921875 -33.015625 20.988281 -32.96875 22.03125 -32.875 C 23.082031 -32.789062 24.046875 -32.6875 24.921875 -32.5625 C 25.804688 -32.445312 26.570312 -32.328125 27.21875 -32.203125 C 27.863281 -32.085938 28.335938 -32 28.640625 -31.9375 C 28.816406 -31.894531 28.90625 -31.8125 28.90625 -31.6875 C 28.90625 -31.65625 28.890625 -31.566406 28.859375 -31.421875 L 28.53125 -29.8125 C 28.5 -29.707031 28.457031 -29.640625 28.40625 -29.609375 C 28.351562 -29.585938 28.300781 -29.578125 28.25 -29.578125 C 27.59375 -29.578125 27.023438 -29.460938 26.546875 -29.234375 C 26.066406 -29.015625 25.671875 -28.703125 25.359375 -28.296875 C 25.046875 -27.890625 24.804688 -27.410156 24.640625 -26.859375 C 24.472656 -26.304688 24.359375 -25.707031 24.296875 -25.0625 L 22.953125 -8.734375 C 22.835938 -7.421875 22.5 -6.175781 21.9375 -5 C 21.382812 -3.832031 20.613281 -2.816406 19.625 -1.953125 C 18.644531 -1.085938 17.4375 -0.398438 16 0.109375 C 14.5625 0.617188 12.910156 0.875 11.046875 0.875 C 9.804688 0.875 8.609375 0.8125 7.453125 0.6875 C 6.304688 0.570312 5.257812 0.429688 4.3125 0.265625 C 3.363281 0.0976562 2.550781 -0.0625 1.875 -0.21875 C 1.195312 -0.375 0.707031 -0.488281 0.40625 -0.5625 C 0.226562 -0.601562 0.140625 -0.6875 0.140625 -0.8125 C 0.140625 -0.820312 0.15625 -0.90625 0.1875 -1.0625 L 0.5625 -2.765625 C 0.59375 -2.867188 0.632812 -2.929688 0.6875 -2.953125 C 0.738281 -2.972656 0.785156 -2.984375 0.828125 -2.984375 C 1.484375 -2.984375 2.09375 -3.082031 2.65625 -3.28125 C 3.21875 -3.476562 3.707031 -3.800781 4.125 -4.25 C 4.550781 -4.695312 4.898438 -5.28125 5.171875 -6 C 5.453125 -6.71875 5.644531 -7.597656 5.75 -8.640625 Z M 7.328125 -24.53125 "/></g></g></g><g fill="#ffffff" fill-opacity="1"><g transform="translate(282.133428, 53.355738)"><g><path d="M 27 -11.609375 C 27 -9.898438 26.832031 -8.40625 26.5 -7.125 C 26.175781 -5.851562 25.722656 -4.75 25.140625 -3.8125 C 24.554688 -2.882812 23.863281 -2.117188 23.0625 -1.515625 C 22.269531 -0.921875 21.40625 -0.441406 20.46875 -0.078125 C 19.53125 0.273438 18.539062 0.519531 17.5 0.65625 C 16.46875 0.800781 15.421875 0.875 14.359375 0.875 C 13.335938 0.875 12.320312 0.8125 11.3125 0.6875 C 10.300781 0.5625 9.34375 0.332031 8.4375 0 C 7.53125 -0.332031 6.6875 -0.789062 5.90625 -1.375 C 5.125 -1.957031 4.445312 -2.710938 3.875 -3.640625 C 3.3125 -4.566406 2.867188 -5.679688 2.546875 -6.984375 C 2.222656 -8.285156 2.0625 -9.828125 2.0625 -11.609375 L 2.0625 -29.109375 C 2.0625 -29.628906 2.109375 -30.082031 2.203125 -30.46875 C 2.296875 -30.863281 2.46875 -31.191406 2.71875 -31.453125 C 2.96875 -31.710938 3.316406 -31.910156 3.765625 -32.046875 C 4.222656 -32.179688 4.8125 -32.25 5.53125 -32.25 L 15.546875 -32.25 C 16.410156 -32.25 17.070312 -32.117188 17.53125 -31.859375 C 17.988281 -31.609375 18.3125 -31.289062 18.5 -30.90625 C 18.6875 -30.53125 18.785156 -30.128906 18.796875 -29.703125 C 18.816406 -29.273438 18.828125 -28.882812 18.828125 -28.53125 L 18.828125 -5.453125 C 18.828125 -5.234375 18.890625 -5.070312 19.015625 -4.96875 C 19.140625 -4.875 19.265625 -4.828125 19.390625 -4.828125 C 19.921875 -4.828125 20.390625 -4.972656 20.796875 -5.265625 C 21.203125 -5.554688 21.539062 -5.957031 21.8125 -6.46875 C 22.082031 -6.976562 22.285156 -7.578125 22.421875 -8.265625 C 22.566406 -8.953125 22.640625 -9.691406 22.640625 -10.484375 L 22.640625 -31.203125 C 22.640625 -31.453125 22.695312 -31.6875 22.8125 -31.90625 C 22.925781 -32.132812 23.175781 -32.25 23.5625 -32.25 L 25.890625 -32.25 C 26.023438 -32.25 26.160156 -32.238281 26.296875 -32.21875 C 26.429688 -32.207031 26.550781 -32.164062 26.65625 -32.09375 C 26.757812 -32.03125 26.84375 -31.925781 26.90625 -31.78125 C 26.96875 -31.644531 27 -31.453125 27 -31.203125 Z M 27 -11.609375 "/></g></g></g><g fill="#ffffff" fill-opacity="1"><g transform="translate(311.195422, 53.355738)"><g><path d="M 21.390625 -14.21875 L 16.109375 -4.5 C 15.878906 -4.070312 15.609375 -3.71875 15.296875 -3.4375 C 14.984375 -3.164062 14.550781 -3.03125 14 -3.03125 C 13.488281 -3.03125 13.0625 -3.171875 12.71875 -3.453125 C 12.382812 -3.742188 12.101562 -4.082031 11.875 -4.46875 L 6.3125 -14.03125 C 6.40625 -12.007812 6.488281 -10.148438 6.5625 -8.453125 C 6.59375 -7.710938 6.617188 -6.972656 6.640625 -6.234375 C 6.671875 -5.503906 6.703125 -4.820312 6.734375 -4.1875 C 6.765625 -3.5625 6.789062 -3.003906 6.8125 -2.515625 C 6.832031 -2.035156 6.851562 -1.679688 6.875 -1.453125 C 6.882812 -1.234375 6.878906 -1.03125 6.859375 -0.84375 C 6.835938 -0.664062 6.78125 -0.515625 6.6875 -0.390625 C 6.601562 -0.265625 6.476562 -0.164062 6.3125 -0.09375 C 6.144531 -0.03125 5.921875 0 5.640625 0 L 3.171875 0 C 2.898438 0 2.644531 -0.0820312 2.40625 -0.25 C 2.175781 -0.425781 2.0625 -0.769531 2.0625 -1.28125 L 2.0625 -29.84375 C 2.0625 -30.132812 2.101562 -30.421875 2.1875 -30.703125 C 2.269531 -30.984375 2.410156 -31.238281 2.609375 -31.46875 C 2.816406 -31.707031 3.082031 -31.894531 3.40625 -32.03125 C 3.738281 -32.175781 4.144531 -32.25 4.625 -32.25 L 11.859375 -32.25 C 12.441406 -32.25 12.941406 -32.144531 13.359375 -31.9375 C 13.785156 -31.738281 14.144531 -31.410156 14.4375 -30.953125 L 20.484375 -21.359375 L 24.53125 -29.109375 C 24.769531 -29.578125 25 -30 25.21875 -30.375 C 25.445312 -30.757812 25.710938 -31.085938 26.015625 -31.359375 C 26.328125 -31.640625 26.710938 -31.859375 27.171875 -32.015625 C 27.628906 -32.171875 28.21875 -32.25 28.9375 -32.25 L 34.90625 -32.25 C 35.476562 -32.25 35.96875 -32.175781 36.375 -32.03125 C 36.789062 -31.882812 37.128906 -31.679688 37.390625 -31.421875 C 37.648438 -31.171875 37.835938 -30.875 37.953125 -30.53125 C 38.078125 -30.1875 38.140625 -29.8125 38.140625 -29.40625 L 38.140625 -3.125 C 38.140625 -2.65625 38.101562 -2.226562 38.03125 -1.84375 C 37.957031 -1.46875 37.800781 -1.140625 37.5625 -0.859375 C 37.332031 -0.585938 37.003906 -0.375 36.578125 -0.21875 C 36.148438 -0.0703125 35.59375 0 34.90625 0 L 24.53125 0 C 23.914062 0 23.40625 -0.0664062 23 -0.203125 C 22.59375 -0.335938 22.269531 -0.53125 22.03125 -0.78125 C 21.789062 -1.039062 21.625 -1.363281 21.53125 -1.75 C 21.4375 -2.144531 21.390625 -2.601562 21.390625 -3.125 Z M 21.390625 -14.21875 "/></g></g></g><g fill="#ffffff" fill-opacity="1"><g transform="translate(351.397095, 53.355738)"><g><path d="M 18.828125 -20.984375 L 18.828125 -2.765625 C 20.273438 -2.972656 21.609375 -3.160156 22.828125 -3.328125 C 23.328125 -3.398438 23.835938 -3.46875 24.359375 -3.53125 C 24.878906 -3.601562 25.351562 -3.664062 25.78125 -3.71875 C 26.21875 -3.78125 26.59375 -3.828125 26.90625 -3.859375 C 27.21875 -3.890625 27.4375 -3.90625 27.5625 -3.90625 C 27.8125 -3.90625 28.023438 -3.851562 28.203125 -3.75 C 28.390625 -3.65625 28.484375 -3.460938 28.484375 -3.171875 L 28.484375 -1.09375 C 28.484375 -0.832031 28.414062 -0.582031 28.28125 -0.34375 C 28.144531 -0.113281 27.820312 0 27.3125 0 L 5.484375 0 C 4.773438 0 4.195312 -0.0664062 3.75 -0.203125 C 3.3125 -0.335938 2.96875 -0.53125 2.71875 -0.78125 C 2.46875 -1.039062 2.296875 -1.363281 2.203125 -1.75 C 2.109375 -2.144531 2.0625 -2.601562 2.0625 -3.125 L 2.0625 -28.34375 C 2.0625 -29.195312 2.160156 -29.878906 2.359375 -30.390625 C 2.554688 -30.910156 2.832031 -31.304688 3.1875 -31.578125 C 3.550781 -31.859375 3.984375 -32.039062 4.484375 -32.125 C 4.984375 -32.207031 5.539062 -32.25 6.15625 -32.25 L 26.453125 -32.25 C 26.960938 -32.25 27.289062 -32.132812 27.4375 -31.90625 C 27.582031 -31.675781 27.65625 -31.414062 27.65625 -31.125 L 27.65625 -29.53125 C 27.65625 -29.238281 27.570312 -29.039062 27.40625 -28.9375 C 27.25 -28.84375 27.046875 -28.796875 26.796875 -28.796875 C 26.648438 -28.796875 26.421875 -28.8125 26.109375 -28.84375 C 25.804688 -28.875 25.453125 -28.914062 25.046875 -28.96875 C 24.640625 -29.019531 24.203125 -29.070312 23.734375 -29.125 C 23.273438 -29.1875 22.8125 -29.253906 22.34375 -29.328125 C 21.269531 -29.492188 20.097656 -29.679688 18.828125 -29.890625 L 18.828125 -24.1875 L 27.171875 -24.1875 C 27.492188 -24.1875 27.65625 -24.03125 27.65625 -23.71875 L 27.65625 -21.46875 C 27.65625 -21.144531 27.492188 -20.984375 27.171875 -20.984375 Z M 12.828125 -34.453125 C 12.765625 -34.421875 12.707031 -34.390625 12.65625 -34.359375 C 12.613281 -34.328125 12.570312 -34.3125 12.53125 -34.3125 C 12.363281 -34.3125 12.238281 -34.382812 12.15625 -34.53125 L 10.640625 -36.734375 C 10.554688 -36.835938 10.515625 -36.941406 10.515625 -37.046875 C 10.515625 -37.160156 10.582031 -37.273438 10.71875 -37.390625 L 18.65625 -43.40625 C 18.769531 -43.5 18.878906 -43.546875 18.984375 -43.546875 C 19.085938 -43.546875 19.195312 -43.476562 19.3125 -43.34375 L 21.375 -40.421875 C 21.476562 -40.304688 21.53125 -40.195312 21.53125 -40.09375 C 21.53125 -39.957031 21.46875 -39.84375 21.34375 -39.75 Z M 12.828125 -34.453125 "/></g></g></g><g fill="#ffffff" fill-opacity="1"><g transform="translate(380.791932, 53.355738)"><g/></g></g><g fill="#6660e0" fill-opacity="1"><g transform="translate(62.024103, 55.388668)"><g><path d="M 20.015625 -18.578125 L 23.109375 -30.40625 C 23.171875 -30.675781 23.226562 -30.921875 23.28125 -31.140625 C 23.34375 -31.367188 23.421875 -31.566406 23.515625 -31.734375 C 23.617188 -31.898438 23.75 -32.023438 23.90625 -32.109375 C 24.0625 -32.203125 24.273438 -32.25 24.546875 -32.25 L 26.8125 -32.25 C 27.039062 -32.25 27.222656 -32.203125 27.359375 -32.109375 C 27.492188 -32.023438 27.5625 -31.878906 27.5625 -31.671875 C 27.5625 -31.390625 27.484375 -31.015625 27.328125 -30.546875 L 17.953125 -2.109375 C 17.722656 -1.421875 17.453125 -0.894531 17.140625 -0.53125 C 16.835938 -0.175781 16.363281 0 15.71875 0 L 12.59375 0 C 12.25 0 11.960938 -0.0664062 11.734375 -0.203125 C 11.515625 -0.335938 11.328125 -0.503906 11.171875 -0.703125 C 11.015625 -0.910156 10.882812 -1.132812 10.78125 -1.375 C 10.6875 -1.613281 10.601562 -1.84375 10.53125 -2.0625 L 0.21875 -29.625 C 0.0703125 -30.007812 0 -30.363281 0 -30.6875 C 0 -31.207031 0.160156 -31.597656 0.484375 -31.859375 C 0.816406 -32.117188 1.164062 -32.25 1.53125 -32.25 L 14.265625 -32.25 C 14.640625 -32.25 14.957031 -32.207031 15.21875 -32.125 C 15.476562 -32.039062 15.695312 -31.921875 15.875 -31.765625 C 16.0625 -31.609375 16.210938 -31.421875 16.328125 -31.203125 C 16.453125 -30.992188 16.550781 -30.757812 16.625 -30.5 Z M 20.015625 -18.578125 "/></g></g></g><g fill="#6660e0" fill-opacity="1"><g transform="translate(89.626254, 55.388668)"><g><path d="M 2.0625 -29.109375 C 2.0625 -29.628906 2.109375 -30.082031 2.203125 -30.46875 C 2.296875 -30.863281 2.46875 -31.191406 2.71875 -31.453125 C 2.96875 -31.710938 3.316406 -31.910156 3.765625 -32.046875 C 4.222656 -32.179688 4.8125 -32.25 5.53125 -32.25 L 15.546875 -32.25 C 16.410156 -32.25 17.070312 -32.117188 17.53125 -31.859375 C 17.988281 -31.609375 18.3125 -31.289062 18.5 -30.90625 C 18.6875 -30.53125 18.785156 -30.128906 18.796875 -29.703125 C 18.816406 -29.273438 18.828125 -28.882812 18.828125 -28.53125 L 18.828125 -3.640625 C 18.828125 -3.296875 18.796875 -2.910156 18.734375 -2.484375 C 18.671875 -2.066406 18.519531 -1.675781 18.28125 -1.3125 C 18.039062 -0.945312 17.671875 -0.632812 17.171875 -0.375 C 16.679688 -0.125 16.003906 0 15.140625 0 L 5.53125 0 C 4.8125 0 4.222656 -0.0664062 3.765625 -0.203125 C 3.316406 -0.335938 2.96875 -0.53125 2.71875 -0.78125 C 2.46875 -1.039062 2.296875 -1.363281 2.203125 -1.75 C 2.109375 -2.144531 2.0625 -2.601562 2.0625 -3.125 Z M 2.0625 -29.109375 "/></g></g></g><g fill="#6660e0" fill-opacity="1"><g transform="translate(110.535615, 55.388668)"><g><path d="M 18.828125 -20.984375 L 18.828125 -2.765625 C 20.273438 -2.972656 21.609375 -3.160156 22.828125 -3.328125 C 23.328125 -3.398438 23.835938 -3.46875 24.359375 -3.53125 C 24.878906 -3.601562 25.351562 -3.664062 25.78125 -3.71875 C 26.21875 -3.78125 26.59375 -3.828125 26.90625 -3.859375 C 27.21875 -3.890625 27.4375 -3.90625 27.5625 -3.90625 C 27.8125 -3.90625 28.023438 -3.851562 28.203125 -3.75 C 28.390625 -3.65625 28.484375 -3.460938 28.484375 -3.171875 L 28.484375 -1.09375 C 28.484375 -0.832031 28.414062 -0.582031 28.28125 -0.34375 C 28.144531 -0.113281 27.820312 0 27.3125 0 L 5.484375 0 C 4.773438 0 4.195312 -0.0664062 3.75 -0.203125 C 3.3125 -0.335938 2.96875 -0.53125 2.71875 -0.78125 C 2.46875 -1.039062 2.296875 -1.363281 2.203125 -1.75 C 2.109375 -2.144531 2.0625 -2.601562 2.0625 -3.125 L 2.0625 -28.34375 C 2.0625 -29.195312 2.160156 -29.878906 2.359375 -30.390625 C 2.554688 -30.910156 2.832031 -31.304688 3.1875 -31.578125 C 3.550781 -31.859375 3.984375 -32.039062 4.484375 -32.125 C 4.984375 -32.207031 5.539062 -32.25 6.15625 -32.25 L 26.453125 -32.25 C 26.960938 -32.25 27.289062 -32.132812 27.4375 -31.90625 C 27.582031 -31.675781 27.65625 -31.414062 27.65625 -31.125 L 27.65625 -29.53125 C 27.65625 -29.238281 27.570312 -29.039062 27.40625 -28.9375 C 27.25 -28.84375 27.046875 -28.796875 26.796875 -28.796875 C 26.648438 -28.796875 26.421875 -28.8125 26.109375 -28.84375 C 25.804688 -28.875 25.453125 -28.914062 25.046875 -28.96875 C 24.640625 -29.019531 24.203125 -29.070312 23.734375 -29.125 C 23.273438 -29.1875 22.8125 -29.253906 22.34375 -29.328125 C 21.269531 -29.492188 20.097656 -29.679688 18.828125 -29.890625 L 18.828125 -24.1875 L 27.171875 -24.1875 C 27.492188 -24.1875 27.65625 -24.03125 27.65625 -23.71875 L 27.65625 -21.46875 C 27.65625 -21.144531 27.492188 -20.984375 27.171875 -20.984375 Z M 18.828125 -20.984375 "/></g></g></g><g fill="#6660e0" fill-opacity="1"><g transform="translate(139.934489, 55.388668)"><g><path d="M 34.234375 -16.375 L 37.875 -30.40625 C 37.925781 -30.675781 37.984375 -30.921875 38.046875 -31.140625 C 38.109375 -31.367188 38.179688 -31.566406 38.265625 -31.734375 C 38.359375 -31.898438 38.476562 -32.023438 38.625 -32.109375 C 38.78125 -32.203125 38.984375 -32.25 39.234375 -32.25 L 41.46875 -32.25 C 42 -32.25 42.265625 -32.054688 42.265625 -31.671875 C 42.265625 -31.390625 42.191406 -31.015625 42.046875 -30.546875 L 33.125 -2.109375 C 32.914062 -1.410156 32.640625 -0.882812 32.296875 -0.53125 C 31.953125 -0.175781 31.507812 0 30.96875 0 L 27.78125 0 C 27.457031 0 27.175781 -0.0664062 26.9375 -0.203125 C 26.707031 -0.335938 26.515625 -0.503906 26.359375 -0.703125 C 26.203125 -0.910156 26.070312 -1.132812 25.96875 -1.375 C 25.863281 -1.613281 25.78125 -1.84375 25.71875 -2.0625 L 21.65625 -15.296875 L 17.953125 -2.109375 C 17.753906 -1.410156 17.492188 -0.882812 17.171875 -0.53125 C 16.847656 -0.175781 16.425781 0 15.90625 0 L 12.15625 0 C 11.8125 0 11.523438 -0.0664062 11.296875 -0.203125 C 11.078125 -0.335938 10.882812 -0.503906 10.71875 -0.703125 C 10.5625 -0.910156 10.4375 -1.132812 10.34375 -1.375 C 10.25 -1.625 10.160156 -1.851562 10.078125 -2.0625 L 0.21875 -29.625 C 0.0703125 -30.007812 0 -30.378906 0 -30.734375 C 0 -31.253906 0.148438 -31.632812 0.453125 -31.875 C 0.753906 -32.125 1.117188 -32.25 1.546875 -32.25 L 11.046875 -32.25 C 11.421875 -32.25 11.742188 -32.203125 12.015625 -32.109375 C 12.285156 -32.015625 12.507812 -31.898438 12.6875 -31.765625 C 12.863281 -31.628906 13 -31.484375 13.09375 -31.328125 C 13.1875 -31.171875 13.253906 -31.03125 13.296875 -30.90625 L 18.078125 -16.375 L 19.5625 -22.0625 L 17.25 -29.625 C 17.175781 -29.832031 17.117188 -30.035156 17.078125 -30.234375 C 17.046875 -30.429688 17.03125 -30.609375 17.03125 -30.765625 C 17.03125 -31.296875 17.171875 -31.675781 17.453125 -31.90625 C 17.734375 -32.132812 18.09375 -32.25 18.53125 -32.25 L 28.046875 -32.25 C 28.421875 -32.25 28.738281 -32.21875 29 -32.15625 C 29.269531 -32.101562 29.484375 -32.019531 29.640625 -31.90625 C 29.804688 -31.789062 29.941406 -31.644531 30.046875 -31.46875 C 30.148438 -31.300781 30.242188 -31.113281 30.328125 -30.90625 Z M 34.234375 -16.375 "/></g></g></g><g fill="#6660e0" fill-opacity="1"><g transform="translate(182.247299, 55.388668)"><g/></g></g><g fill="#6660e0" fill-opacity="1"><g transform="translate(196.037142, 55.388668)"><g><path d="M 22.390625 -6.109375 C 21.828125 -5.796875 21.25 -5.535156 20.65625 -5.328125 C 20.0625 -5.117188 19.453125 -4.945312 18.828125 -4.8125 L 18.828125 -3.125 C 18.828125 -2.644531 18.773438 -2.210938 18.671875 -1.828125 C 18.566406 -1.453125 18.378906 -1.128906 18.109375 -0.859375 C 17.847656 -0.585938 17.503906 -0.375 17.078125 -0.21875 C 16.648438 -0.0703125 16.113281 0 15.46875 0 L 5.53125 0 C 4.8125 0 4.222656 -0.0664062 3.765625 -0.203125 C 3.316406 -0.335938 2.96875 -0.53125 2.71875 -0.78125 C 2.46875 -1.039062 2.296875 -1.363281 2.203125 -1.75 C 2.109375 -2.144531 2.0625 -2.601562 2.0625 -3.125 L 2.0625 -29.109375 C 2.0625 -29.628906 2.109375 -30.082031 2.203125 -30.46875 C 2.296875 -30.863281 2.46875 -31.191406 2.71875 -31.453125 C 2.96875 -31.710938 3.316406 -31.910156 3.765625 -32.046875 C 4.222656 -32.179688 4.8125 -32.25 5.53125 -32.25 L 15.546875 -32.25 C 16.617188 -32.25 17.675781 -32.160156 18.71875 -31.984375 C 19.757812 -31.804688 20.75 -31.519531 21.6875 -31.125 C 22.625 -30.726562 23.484375 -30.195312 24.265625 -29.53125 C 25.054688 -28.875 25.738281 -28.0625 26.3125 -27.09375 C 26.882812 -26.132812 27.332031 -25.007812 27.65625 -23.71875 C 27.976562 -22.425781 28.140625 -20.941406 28.140625 -19.265625 C 28.140625 -17.828125 28.050781 -16.523438 27.875 -15.359375 C 27.695312 -14.191406 27.445312 -13.132812 27.125 -12.1875 C 26.8125 -11.25 26.4375 -10.414062 26 -9.6875 C 25.5625 -8.96875 25.070312 -8.328125 24.53125 -7.765625 L 29.015625 -1.84375 C 29.171875 -1.632812 29.25 -1.429688 29.25 -1.234375 C 29.25 -1.015625 29.164062 -0.820312 29 -0.65625 C 28.84375 -0.488281 28.675781 -0.351562 28.5 -0.25 L 27.15625 0.546875 C 27.050781 0.597656 26.941406 0.640625 26.828125 0.671875 C 26.710938 0.710938 26.597656 0.734375 26.484375 0.734375 C 26.316406 0.734375 26.148438 0.679688 25.984375 0.578125 C 25.816406 0.472656 25.664062 0.296875 25.53125 0.046875 Z M 24.984375 -18.875 C 24.984375 -20.21875 24.863281 -21.457031 24.625 -22.59375 C 24.382812 -23.726562 24.015625 -24.726562 23.515625 -25.59375 C 23.023438 -26.46875 22.390625 -27.1875 21.609375 -27.75 C 20.828125 -28.320312 19.898438 -28.71875 18.828125 -28.9375 L 18.828125 -7.75 C 19.898438 -7.988281 20.828125 -8.425781 21.609375 -9.0625 C 22.390625 -9.695312 23.023438 -10.492188 23.515625 -11.453125 C 24.015625 -12.410156 24.382812 -13.515625 24.625 -14.765625 C 24.863281 -16.015625 24.984375 -17.382812 24.984375 -18.875 Z M 24.984375 -18.875 "/></g></g></g><g fill="#6660e0" fill-opacity="1"><g transform="translate(225.727978, 55.388668)"><g><path d="M 18.828125 -20.984375 L 18.828125 -2.765625 C 20.273438 -2.972656 21.609375 -3.160156 22.828125 -3.328125 C 23.328125 -3.398438 23.835938 -3.46875 24.359375 -3.53125 C 24.878906 -3.601562 25.351562 -3.664062 25.78125 -3.71875 C 26.21875 -3.78125 26.59375 -3.828125 26.90625 -3.859375 C 27.21875 -3.890625 27.4375 -3.90625 27.5625 -3.90625 C 27.8125 -3.90625 28.023438 -3.851562 28.203125 -3.75 C 28.390625 -3.65625 28.484375 -3.460938 28.484375 -3.171875 L 28.484375 -1.09375 C 28.484375 -0.832031 28.414062 -0.582031 28.28125 -0.34375 C 28.144531 -0.113281 27.820312 0 27.3125 0 L 5.484375 0 C 4.773438 0 4.195312 -0.0664062 3.75 -0.203125 C 3.3125 -0.335938 2.96875 -0.53125 2.71875 -0.78125 C 2.46875 -1.039062 2.296875 -1.363281 2.203125 -1.75 C 2.109375 -2.144531 2.0625 -2.601562 2.0625 -3.125 L 2.0625 -28.34375 C 2.0625 -29.195312 2.160156 -29.878906 2.359375 -30.390625 C 2.554688 -30.910156 2.832031 -31.304688 3.1875 -31.578125 C 3.550781 -31.859375 3.984375 -32.039062 4.484375 -32.125 C 4.984375 -32.207031 5.539062 -32.25 6.15625 -32.25 L 26.453125 -32.25 C 26.960938 -32.25 27.289062 -32.132812 27.4375 -31.90625 C 27.582031 -31.675781 27.65625 -31.414062 27.65625 -31.125 L 27.65625 -29.53125 C 27.65625 -29.238281 27.570312 -29.039062 27.40625 -28.9375 C 27.25 -28.84375 27.046875 -28.796875 26.796875 -28.796875 C 26.648438 -28.796875 26.421875 -28.8125 26.109375 -28.84375 C 25.804688 -28.875 25.453125 -28.914062 25.046875 -28.96875 C 24.640625 -29.019531 24.203125 -29.070312 23.734375 -29.125 C 23.273438 -29.1875 22.8125 -29.253906 22.34375 -29.328125 C 21.269531 -29.492188 20.097656 -29.679688 18.828125 -29.890625 L 18.828125 -24.1875 L 27.171875 -24.1875 C 27.492188 -24.1875 27.65625 -24.03125 27.65625 -23.71875 L 27.65625 -21.46875 C 27.65625 -21.144531 27.492188 -20.984375 27.171875 -20.984375 Z M 12.828125 -34.453125 C 12.765625 -34.421875 12.707031 -34.390625 12.65625 -34.359375 C 12.613281 -34.328125 12.570312 -34.3125 12.53125 -34.3125 C 12.363281 -34.3125 12.238281 -34.382812 12.15625 -34.53125 L 10.640625 -36.734375 C 10.554688 -36.835938 10.515625 -36.941406 10.515625 -37.046875 C 10.515625 -37.160156 10.582031 -37.273438 10.71875 -37.390625 L 18.65625 -43.40625 C 18.769531 -43.5 18.878906 -43.546875 18.984375 -43.546875 C 19.085938 -43.546875 19.195312 -43.476562 19.3125 -43.34375 L 21.375 -40.421875 C 21.476562 -40.304688 21.53125 -40.195312 21.53125 -40.09375 C 21.53125 -39.957031 21.46875 -39.84375 21.34375 -39.75 Z M 12.828125 -34.453125 "/></g></g></g><g fill="#6660e0" fill-opacity="1"><g transform="translate(255.12684, 55.388668)"><g><path d="M 7.328125 -24.53125 C 7.484375 -26.15625 7.921875 -27.515625 8.640625 -28.609375 C 9.359375 -29.703125 10.25 -30.570312 11.3125 -31.21875 C 12.382812 -31.875 13.570312 -32.335938 14.875 -32.609375 C 16.175781 -32.878906 17.492188 -33.015625 18.828125 -33.015625 C 19.921875 -33.015625 20.988281 -32.96875 22.03125 -32.875 C 23.082031 -32.789062 24.046875 -32.6875 24.921875 -32.5625 C 25.804688 -32.445312 26.570312 -32.328125 27.21875 -32.203125 C 27.863281 -32.085938 28.335938 -32 28.640625 -31.9375 C 28.816406 -31.894531 28.90625 -31.8125 28.90625 -31.6875 C 28.90625 -31.65625 28.890625 -31.566406 28.859375 -31.421875 L 28.53125 -29.8125 C 28.5 -29.707031 28.457031 -29.640625 28.40625 -29.609375 C 28.351562 -29.585938 28.300781 -29.578125 28.25 -29.578125 C 27.59375 -29.578125 27.023438 -29.460938 26.546875 -29.234375 C 26.066406 -29.015625 25.671875 -28.703125 25.359375 -28.296875 C 25.046875 -27.890625 24.804688 -27.410156 24.640625 -26.859375 C 24.472656 -26.304688 24.359375 -25.707031 24.296875 -25.0625 L 22.953125 -8.734375 C 22.835938 -7.421875 22.5 -6.175781 21.9375 -5 C 21.382812 -3.832031 20.613281 -2.816406 19.625 -1.953125 C 18.644531 -1.085938 17.4375 -0.398438 16 0.109375 C 14.5625 0.617188 12.910156 0.875 11.046875 0.875 C 9.804688 0.875 8.609375 0.8125 7.453125 0.6875 C 6.304688 0.570312 5.257812 0.429688 4.3125 0.265625 C 3.363281 0.0976562 2.550781 -0.0625 1.875 -0.21875 C 1.195312 -0.375 0.707031 -0.488281 0.40625 -0.5625 C 0.226562 -0.601562 0.140625 -0.6875 0.140625 -0.8125 C 0.140625 -0.820312 0.15625 -0.90625 0.1875 -1.0625 L 0.5625 -2.765625 C 0.59375 -2.867188 0.632812 -2.929688 0.6875 -2.953125 C 0.738281 -2.972656 0.785156 -2.984375 0.828125 -2.984375 C 1.484375 -2.984375 2.09375 -3.082031 2.65625 -3.28125 C 3.21875 -3.476562 3.707031 -3.800781 4.125 -4.25 C 4.550781 -4.695312 4.898438 -5.28125 5.171875 -6 C 5.453125 -6.71875 5.644531 -7.597656 5.75 -8.640625 Z M 7.328125 -24.53125 "/></g></g></g><g fill="#6660e0" fill-opacity="1"><g transform="translate(284.166357, 55.388668)"><g><path d="M 27 -11.609375 C 27 -9.898438 26.832031 -8.40625 26.5 -7.125 C 26.175781 -5.851562 25.722656 -4.75 25.140625 -3.8125 C 24.554688 -2.882812 23.863281 -2.117188 23.0625 -1.515625 C 22.269531 -0.921875 21.40625 -0.441406 20.46875 -0.078125 C 19.53125 0.273438 18.539062 0.519531 17.5 0.65625 C 16.46875 0.800781 15.421875 0.875 14.359375 0.875 C 13.335938 0.875 12.320312 0.8125 11.3125 0.6875 C 10.300781 0.5625 9.34375 0.332031 8.4375 0 C 7.53125 -0.332031 6.6875 -0.789062 5.90625 -1.375 C 5.125 -1.957031 4.445312 -2.710938 3.875 -3.640625 C 3.3125 -4.566406 2.867188 -5.679688 2.546875 -6.984375 C 2.222656 -8.285156 2.0625 -9.828125 2.0625 -11.609375 L 2.0625 -29.109375 C 2.0625 -29.628906 2.109375 -30.082031 2.203125 -30.46875 C 2.296875 -30.863281 2.46875 -31.191406 2.71875 -31.453125 C 2.96875 -31.710938 3.316406 -31.910156 3.765625 -32.046875 C 4.222656 -32.179688 4.8125 -32.25 5.53125 -32.25 L 15.546875 -32.25 C 16.410156 -32.25 17.070312 -32.117188 17.53125 -31.859375 C 17.988281 -31.609375 18.3125 -31.289062 18.5 -30.90625 C 18.6875 -30.53125 18.785156 -30.128906 18.796875 -29.703125 C 18.816406 -29.273438 18.828125 -28.882812 18.828125 -28.53125 L 18.828125 -5.453125 C 18.828125 -5.234375 18.890625 -5.070312 19.015625 -4.96875 C 19.140625 -4.875 19.265625 -4.828125 19.390625 -4.828125 C 19.921875 -4.828125 20.390625 -4.972656 20.796875 -5.265625 C 21.203125 -5.554688 21.539062 -5.957031 21.8125 -6.46875 C 22.082031 -6.976562 22.285156 -7.578125 22.421875 -8.265625 C 22.566406 -8.953125 22.640625 -9.691406 22.640625 -10.484375 L 22.640625 -31.203125 C 22.640625 -31.453125 22.695312 -31.6875 22.8125 -31.90625 C 22.925781 -32.132812 23.175781 -32.25 23.5625 -32.25 L 25.890625 -32.25 C 26.023438 -32.25 26.160156 -32.238281 26.296875 -32.21875 C 26.429688 -32.207031 26.550781 -32.164062 26.65625 -32.09375 C 26.757812 -32.03125 26.84375 -31.925781 26.90625 -31.78125 C 26.96875 -31.644531 27 -31.453125 27 -31.203125 Z M 27 -11.609375 "/></g></g></g><g fill="#6660e0" fill-opacity="1"><g transform="translate(313.228352, 55.388668)"><g><path d="M 21.390625 -14.21875 L 16.109375 -4.5 C 15.878906 -4.070312 15.609375 -3.71875 15.296875 -3.4375 C 14.984375 -3.164062 14.550781 -3.03125 14 -3.03125 C 13.488281 -3.03125 13.0625 -3.171875 12.71875 -3.453125 C 12.382812 -3.742188 12.101562 -4.082031 11.875 -4.46875 L 6.3125 -14.03125 C 6.40625 -12.007812 6.488281 -10.148438 6.5625 -8.453125 C 6.59375 -7.710938 6.617188 -6.972656 6.640625 -6.234375 C 6.671875 -5.503906 6.703125 -4.820312 6.734375 -4.1875 C 6.765625 -3.5625 6.789062 -3.003906 6.8125 -2.515625 C 6.832031 -2.035156 6.851562 -1.679688 6.875 -1.453125 C 6.882812 -1.234375 6.878906 -1.03125 6.859375 -0.84375 C 6.835938 -0.664062 6.78125 -0.515625 6.6875 -0.390625 C 6.601562 -0.265625 6.476562 -0.164062 6.3125 -0.09375 C 6.144531 -0.03125 5.921875 0 5.640625 0 L 3.171875 0 C 2.898438 0 2.644531 -0.0820312 2.40625 -0.25 C 2.175781 -0.425781 2.0625 -0.769531 2.0625 -1.28125 L 2.0625 -29.84375 C 2.0625 -30.132812 2.101562 -30.421875 2.1875 -30.703125 C 2.269531 -30.984375 2.410156 -31.238281 2.609375 -31.46875 C 2.816406 -31.707031 3.082031 -31.894531 3.40625 -32.03125 C 3.738281 -32.175781 4.144531 -32.25 4.625 -32.25 L 11.859375 -32.25 C 12.441406 -32.25 12.941406 -32.144531 13.359375 -31.9375 C 13.785156 -31.738281 14.144531 -31.410156 14.4375 -30.953125 L 20.484375 -21.359375 L 24.53125 -29.109375 C 24.769531 -29.578125 25 -30 25.21875 -30.375 C 25.445312 -30.757812 25.710938 -31.085938 26.015625 -31.359375 C 26.328125 -31.640625 26.710938 -31.859375 27.171875 -32.015625 C 27.628906 -32.171875 28.21875 -32.25 28.9375 -32.25 L 34.90625 -32.25 C 35.476562 -32.25 35.96875 -32.175781 36.375 -32.03125 C 36.789062 -31.882812 37.128906 -31.679688 37.390625 -31.421875 C 37.648438 -31.171875 37.835938 -30.875 37.953125 -30.53125 C 38.078125 -30.1875 38.140625 -29.8125 38.140625 -29.40625 L 38.140625 -3.125 C 38.140625 -2.65625 38.101562 -2.226562 38.03125 -1.84375 C 37.957031 -1.46875 37.800781 -1.140625 37.5625 -0.859375 C 37.332031 -0.585938 37.003906 -0.375 36.578125 -0.21875 C 36.148438 -0.0703125 35.59375 0 34.90625 0 L 24.53125 0 C 23.914062 0 23.40625 -0.0664062 23 -0.203125 C 22.59375 -0.335938 22.269531 -0.53125 22.03125 -0.78125 C 21.789062 -1.039062 21.625 -1.363281 21.53125 -1.75 C 21.4375 -2.144531 21.390625 -2.601562 21.390625 -3.125 Z M 21.390625 -14.21875 "/></g></g></g><g fill="#6660e0" fill-opacity="1"><g transform="translate(353.430024, 55.388668)"><g><path d="M 18.828125 -20.984375 L 18.828125 -2.765625 C 20.273438 -2.972656 21.609375 -3.160156 22.828125 -3.328125 C 23.328125 -3.398438 23.835938 -3.46875 24.359375 -3.53125 C 24.878906 -3.601562 25.351562 -3.664062 25.78125 -3.71875 C 26.21875 -3.78125 26.59375 -3.828125 26.90625 -3.859375 C 27.21875 -3.890625 27.4375 -3.90625 27.5625 -3.90625 C 27.8125 -3.90625 28.023438 -3.851562 28.203125 -3.75 C 28.390625 -3.65625 28.484375 -3.460938 28.484375 -3.171875 L 28.484375 -1.09375 C 28.484375 -0.832031 28.414062 -0.582031 28.28125 -0.34375 C 28.144531 -0.113281 27.820312 0 27.3125 0 L 5.484375 0 C 4.773438 0 4.195312 -0.0664062 3.75 -0.203125 C 3.3125 -0.335938 2.96875 -0.53125 2.71875 -0.78125 C 2.46875 -1.039062 2.296875 -1.363281 2.203125 -1.75 C 2.109375 -2.144531 2.0625 -2.601562 2.0625 -3.125 L 2.0625 -28.34375 C 2.0625 -29.195312 2.160156 -29.878906 2.359375 -30.390625 C 2.554688 -30.910156 2.832031 -31.304688 3.1875 -31.578125 C 3.550781 -31.859375 3.984375 -32.039062 4.484375 -32.125 C 4.984375 -32.207031 5.539062 -32.25 6.15625 -32.25 L 26.453125 -32.25 C 26.960938 -32.25 27.289062 -32.132812 27.4375 -31.90625 C 27.582031 -31.675781 27.65625 -31.414062 27.65625 -31.125 L 27.65625 -29.53125 C 27.65625 -29.238281 27.570312 -29.039062 27.40625 -28.9375 C 27.25 -28.84375 27.046875 -28.796875 26.796875 -28.796875 C 26.648438 -28.796875 26.421875 -28.8125 26.109375 -28.84375 C 25.804688 -28.875 25.453125 -28.914062 25.046875 -28.96875 C 24.640625 -29.019531 24.203125 -29.070312 23.734375 -29.125 C 23.273438 -29.1875 22.8125 -29.253906 22.34375 -29.328125 C 21.269531 -29.492188 20.097656 -29.679688 18.828125 -29.890625 L 18.828125 -24.1875 L 27.171875 -24.1875 C 27.492188 -24.1875 27.65625 -24.03125 27.65625 -23.71875 L 27.65625 -21.46875 C 27.65625 -21.144531 27.492188 -20.984375 27.171875 -20.984375 Z M 12.828125 -34.453125 C 12.765625 -34.421875 12.707031 -34.390625 12.65625 -34.359375 C 12.613281 -34.328125 12.570312 -34.3125 12.53125 -34.3125 C 12.363281 -34.3125 12.238281 -34.382812 12.15625 -34.53125 L 10.640625 -36.734375 C 10.554688 -36.835938 10.515625 -36.941406 10.515625 -37.046875 C 10.515625 -37.160156 10.582031 -37.273438 10.71875 -37.390625 L 18.65625 -43.40625 C 18.769531 -43.5 18.878906 -43.546875 18.984375 -43.546875 C 19.085938 -43.546875 19.195312 -43.476562 19.3125 -43.34375 L 21.375 -40.421875 C 21.476562 -40.304688 21.53125 -40.195312 21.53125 -40.09375 C 21.53125 -39.957031 21.46875 -39.84375 21.34375 -39.75 Z M 12.828125 -34.453125 "/></g></g></g><path stroke-linecap="butt" transform="matrix(0.75, 0, 0, 0.75, 59.991173, 13.605741)" fill="none" stroke-linejoin="miter" d="M 26.683646 28.234014 L 30.813855 12.452762 C 30.897188 12.093387 30.975313 11.765262 31.053438 11.463179 C 31.131563 11.166304 31.240938 10.905887 31.371146 10.687137 C 31.496147 10.468387 31.668022 10.296512 31.876355 10.176721 C 32.089897 10.056929 32.371147 9.999637 32.730522 9.999637 L 35.756564 9.999637 C 36.053439 9.999637 36.293022 10.056929 36.475314 10.176721 C 36.652397 10.296512 36.746147 10.494429 36.746147 10.775679 C 36.746147 11.155887 36.64198 11.655887 36.444064 12.270471 L 23.928438 50.187141 C 23.626354 51.103807 23.272187 51.801724 22.865937 52.280891 C 22.454479 52.760057 21.819062 52.999641 20.964896 52.999641 L 16.798229 52.999641 C 16.339895 52.999641 15.959687 52.911099 15.662812 52.728807 C 15.360729 52.551724 15.10552 52.327766 14.897187 52.056932 C 14.688853 51.786099 14.516978 51.494432 14.38677 51.171516 C 14.26177 50.853807 14.147187 50.546516 14.04302 50.244432 L 0.298227 13.499638 C 0.100311 12.984013 0.00135227 12.510054 0.00135227 12.093387 C 0.00135227 11.395471 0.220102 10.869429 0.657602 10.520471 C 1.100311 10.171512 1.558644 9.999637 2.037811 9.999637 L 19.016979 9.999637 C 19.516979 9.999637 19.938854 10.051721 20.287812 10.161096 C 20.636771 10.270471 20.933646 10.431929 21.173229 10.640262 C 21.412812 10.848596 21.610729 11.098596 21.772187 11.390262 C 21.928437 11.676721 22.058646 11.994429 22.162812 12.332971 Z M 39.558647 14.187138 C 39.558647 13.489221 39.615939 12.879846 39.735731 12.364221 C 39.855522 11.843387 40.084689 11.411096 40.428439 11.062137 C 40.766981 10.713179 41.235731 10.447554 41.834689 10.265262 C 42.433647 10.088179 43.209689 9.999637 44.168023 9.999637 L 57.527399 9.999637 C 58.683649 9.999637 59.569065 10.166304 60.178441 10.504846 C 60.782607 10.843387 61.214899 11.270471 61.464899 11.780887 C 61.714899 12.286096 61.850316 12.827763 61.865941 13.395471 C 61.886774 13.963179 61.897191 14.489221 61.897191 14.968388 L 61.897191 48.150682 C 61.897191 48.609015 61.855524 49.119432 61.777399 49.676724 C 61.699274 50.234016 61.496149 50.760057 61.178441 51.249641 C 60.860732 51.739224 60.371149 52.150682 59.70969 52.489224 C 59.05344 52.827766 58.14719 52.999641 56.985732 52.999641 L 44.168023 52.999641 C 43.209689 52.999641 42.433647 52.911099 41.834689 52.728807 C 41.235731 52.551724 40.766981 52.291307 40.428439 51.952766 C 40.084689 51.614224 39.855522 51.181932 39.735731 50.666307 C 39.615939 50.145474 39.558647 49.536099 39.558647 48.838182 Z M 89.777401 25.030888 L 89.777401 49.317349 C 91.714901 49.036099 93.490943 48.786099 95.105527 48.567349 C 95.787818 48.46839 96.47011 48.37464 97.15761 48.28089 C 97.84511 48.192349 98.480527 48.109015 99.058652 48.03089 C 99.636777 47.947557 100.136777 47.890265 100.558652 47.848599 C 100.975319 47.806932 101.266986 47.791307 101.428444 47.791307 C 101.766986 47.791307 102.053444 47.853807 102.293027 47.984015 C 102.532611 48.114224 102.652402 48.379849 102.652402 48.775682 L 102.652402 51.530891 C 102.652402 51.890266 102.563861 52.228807 102.386777 52.536099 C 102.204486 52.843391 101.777402 52.999641 101.095111 52.999641 L 71.990941 52.999641 C 71.048233 52.999641 70.287816 52.911099 69.699275 52.728807 C 69.110733 52.551724 68.647191 52.291307 68.303441 51.952766 C 67.964899 51.614224 67.735733 51.181932 67.615941 50.666307 C 67.496149 50.145474 67.438858 49.536099 67.438858 48.838182 L 67.438858 15.207971 C 67.438858 14.067346 67.569066 13.155888 67.824274 12.468387 C 68.084691 11.780887 68.454483 11.249637 68.93365 10.879846 C 69.412816 10.510054 69.985733 10.270471 70.657608 10.161096 C 71.324275 10.051721 72.069066 9.999637 72.886775 9.999637 L 99.959694 9.999637 C 100.636777 9.999637 101.074277 10.150679 101.261777 10.463179 C 101.449277 10.770471 101.548236 11.114221 101.548236 11.494429 L 101.548236 13.619429 C 101.548236 14.020471 101.438861 14.286096 101.230527 14.416304 C 101.022194 14.546513 100.746152 14.609013 100.40761 14.609013 C 100.209694 14.609013 99.902402 14.588179 99.496152 14.546513 C 99.084694 14.510054 98.610735 14.452763 98.074277 14.385054 C 97.53261 14.312138 96.954485 14.239221 96.334693 14.161096 C 95.714902 14.077763 95.09511 13.989221 94.480527 13.890263 C 93.043027 13.671513 91.475318 13.421513 89.777401 13.140263 L 89.777401 20.749638 L 100.918027 20.749638 C 101.334694 20.749638 101.548236 20.957971 101.548236 21.374638 L 101.548236 24.36943 C 101.548236 24.812138 101.334694 25.030888 100.918027 25.030888 Z M 149.516989 31.171514 L 154.371157 12.452762 C 154.449282 12.093387 154.527407 11.765262 154.61074 11.463179 C 154.688865 11.166304 154.787823 10.905887 154.907615 10.687137 C 155.027407 10.468387 155.188865 10.296512 155.386782 10.176721 C 155.589907 10.056929 155.855532 9.999637 156.199282 9.999637 L 159.162824 9.999637 C 159.881574 9.999637 160.240949 10.254846 160.240949 10.775679 C 160.240949 11.155887 160.14199 11.655887 159.938865 12.270471 L 148.053448 50.187141 C 147.772198 51.124641 147.402406 51.827766 146.944073 52.296516 C 146.485739 52.765266 145.897198 52.999641 145.178447 52.999641 L 140.923239 52.999641 C 140.485739 52.999641 140.110739 52.911099 139.803447 52.728807 C 139.490947 52.551724 139.23053 52.327766 139.022197 52.056932 C 138.813864 51.786099 138.63678 51.494432 138.496155 51.171516 C 138.360739 50.853807 138.251364 50.546516 138.16803 50.244432 L 132.746155 32.609014 L 127.808654 50.187141 C 127.548238 51.124641 127.204488 51.827766 126.772196 52.296516 C 126.345113 52.765266 125.782613 52.999641 125.084696 52.999641 L 120.079487 52.999641 C 119.621154 52.999641 119.240945 52.911099 118.94407 52.728807 C 118.641987 52.551724 118.391987 52.327766 118.178445 52.056932 C 117.970112 51.786099 117.798237 51.489224 117.673237 51.155891 C 117.543029 50.827766 117.428445 50.525682 117.324279 50.244432 L 104.178444 13.499638 C 103.980527 12.984013 103.881569 12.494429 103.881569 12.030887 C 103.881569 11.332971 104.079486 10.822554 104.480527 10.489221 C 104.876361 10.161096 105.365944 9.999637 105.949278 9.999637 L 118.615945 9.999637 C 119.110737 9.999637 119.543029 10.062137 119.902404 10.192346 C 120.261779 10.322554 120.558654 10.478804 120.798237 10.655887 C 121.03782 10.838179 121.220112 11.030887 121.339904 11.239221 C 121.459696 11.447554 121.548237 11.635054 121.610737 11.791304 L 127.985738 31.171514 L 129.964905 23.593388 L 126.881571 13.499638 C 126.777404 13.223596 126.704488 12.952763 126.652404 12.692346 C 126.605529 12.431929 126.579488 12.192346 126.579488 11.973596 C 126.579488 11.275679 126.766988 10.770471 127.147196 10.463179 C 127.527404 10.150679 128.006571 9.999637 128.584696 9.999637 L 141.282614 9.999637 C 141.782614 9.999637 142.204489 10.036096 142.558656 10.119429 C 142.907614 10.197554 143.188864 10.312137 143.407614 10.463179 C 143.631572 10.609012 143.808656 10.801721 143.949281 11.030887 C 144.089906 11.260054 144.209697 11.515262 144.308656 11.791304 Z M 208.543036 44.853807 C 207.782619 45.275682 207.006578 45.62464 206.220119 45.900682 C 205.433661 46.181932 204.615952 46.411099 203.777411 46.59339 L 203.777411 48.838182 C 203.777411 49.478807 203.709702 50.051724 203.569077 50.556932 C 203.428452 51.067349 203.183661 51.504849 202.834702 51.864224 C 202.485744 52.223599 202.02741 52.499641 201.459702 52.702766 C 200.886785 52.900682 200.173244 52.999641 199.319077 52.999641 L 186.053451 52.999641 C 185.095117 52.999641 184.313867 52.911099 183.714909 52.728807 C 183.115951 52.551724 182.647201 52.291307 182.308659 51.952766 C 181.970117 51.614224 181.74095 51.181932 181.621159 50.666307 C 181.501367 50.145474 181.438867 49.536099 181.438867 48.838182 L 181.438867 14.187138 C 181.438867 13.489221 181.501367 12.879846 181.621159 12.364221 C 181.74095 11.843387 181.970117 11.411096 182.308659 11.062137 C 182.647201 10.713179 183.115951 10.447554 183.714909 10.265262 C 184.313867 10.088179 185.095117 9.999637 186.053451 9.999637 L 199.407619 9.999637 C 200.845119 9.999637 202.256577 10.119429 203.641994 10.359012 C 205.032619 10.598596 206.350327 10.978804 207.595119 11.510054 C 208.845119 12.036096 209.990953 12.744429 211.043036 13.619429 C 212.089911 14.499638 212.996161 15.582971 213.766995 16.869429 C 214.53262 18.155888 215.131578 19.661096 215.56387 21.374638 C 215.990953 23.093388 216.204495 25.072555 216.204495 27.30693 C 216.204495 29.223597 216.084703 30.957972 215.84512 32.515264 C 215.605537 34.072556 215.277412 35.484014 214.860745 36.739223 C 214.43887 37.994431 213.933661 39.109015 213.34512 40.077765 C 212.756578 41.046515 212.105536 41.900682 211.386786 42.640265 L 217.37637 50.546516 C 217.574287 50.822557 217.673245 51.093391 217.673245 51.353807 C 217.673245 51.650682 217.569078 51.911099 217.360745 52.129849 C 217.152412 52.348599 216.923245 52.530891 216.683662 52.671516 L 214.886786 53.718391 C 214.75137 53.796516 214.605536 53.864224 214.454495 53.911099 C 214.303453 53.963183 214.152411 53.989224 213.990953 53.989224 C 213.772203 53.989224 213.553453 53.916308 213.329495 53.780891 C 213.110745 53.640266 212.912828 53.400682 212.730536 53.062141 Z M 211.985745 27.843389 C 211.985745 26.046514 211.824286 24.390263 211.506578 22.874638 C 211.183661 21.359013 210.694078 20.020471 210.037828 18.859013 C 209.381578 17.702763 208.532619 16.744429 207.490953 15.984013 C 206.454494 15.228804 205.214911 14.707971 203.777411 14.426721 L 203.777411 42.666307 C 205.214911 42.348598 206.454494 41.765265 207.490953 40.916306 C 208.532619 40.067348 209.381578 39.004848 210.037828 37.728806 C 210.694078 36.447556 211.183661 34.978806 211.506578 33.312139 C 211.824286 31.645472 211.985745 29.822556 211.985745 27.843389 Z M 243.365955 25.030888 L 243.365955 49.317349 C 245.303456 49.036099 247.079497 48.786099 248.699289 48.567349 C 249.376373 48.46839 250.058664 48.37464 250.746164 48.28089 C 251.438873 48.192349 252.069081 48.109015 252.652415 48.03089 C 253.23054 47.947557 253.73054 47.890265 254.147206 47.848599 C 254.569081 47.806932 254.85554 47.791307 255.016998 47.791307 C 255.35554 47.791307 255.647206 47.853807 255.88679 47.984015 C 256.126373 48.114224 256.246165 48.379849 256.246165 48.775682 L 256.246165 51.530891 C 256.246165 51.890266 256.152415 52.228807 255.975332 52.536099 C 255.79304 52.843391 255.365956 52.999641 254.688873 52.999641 L 225.579496 52.999641 C 224.641996 52.999641 223.876371 52.911099 223.287829 52.728807 C 222.699287 52.551724 222.235745 52.291307 221.897204 51.952766 C 221.553454 51.614224 221.324287 51.181932 221.204495 50.666307 C 221.084704 50.145474 221.027412 49.536099 221.027412 48.838182 L 221.027412 15.207971 C 221.027412 14.067346 221.15762 13.155888 221.418037 12.468387 C 221.673245 11.780887 222.043037 11.249637 222.522204 10.879846 C 223.00137 10.510054 223.579496 10.270471 224.246162 10.161096 C 224.912829 10.051721 225.657621 9.999637 226.475329 9.999637 L 253.548248 9.999637 C 254.225331 9.999637 254.662831 10.150679 254.850331 10.463179 C 255.04304 10.770471 255.13679 11.114221 255.13679 11.494429 L 255.13679 13.619429 C 255.13679 14.020471 255.032623 14.286096 254.819081 14.416304 C 254.610748 14.546513 254.334706 14.609013 253.996165 14.609013 C 253.798248 14.609013 253.496165 14.588179 253.084706 14.546513 C 252.673248 14.510054 252.19929 14.452763 251.662831 14.385054 C 251.121164 14.312138 250.543039 14.239221 249.923248 14.161096 C 249.308664 14.077763 248.688873 13.989221 248.069081 13.890263 C 246.631581 13.671513 245.063872 13.421513 243.365955 13.140263 L 243.365955 20.749638 L 254.506581 20.749638 C 254.928456 20.749638 255.13679 20.957971 255.13679 21.374638 L 255.13679 24.36943 C 255.13679 24.812138 254.928456 25.030888 254.506581 25.030888 Z M 235.371163 7.062137 C 235.293038 7.103804 235.220121 7.140262 235.16283 7.181929 C 235.10033 7.223595 235.043038 7.244429 234.980538 7.244429 C 234.761788 7.244429 234.595121 7.140262 234.47533 6.942345 L 232.464913 4.010053 C 232.345121 3.869428 232.28783 3.728803 232.28783 3.588178 C 232.28783 3.447553 232.376371 3.30172 232.558663 3.140262 L 243.157622 -4.885781 C 243.298247 -5.005572 243.438872 -5.068072 243.574289 -5.068072 C 243.714914 -5.068072 243.865956 -4.974322 244.027414 -4.797239 L 246.782622 -0.901405 C 246.918039 -0.745155 246.990956 -0.594114 246.990956 -0.453489 C 246.990956 -0.276405 246.902414 -0.125364 246.720122 -0.00557188 Z M 267.230541 20.296513 C 267.454499 18.124638 268.043041 16.306929 269.001374 14.848596 C 269.959708 13.390263 271.147208 12.228804 272.563875 11.359012 C 273.980541 10.489221 275.558666 9.879846 277.293042 9.520471 C 279.032625 9.161096 280.787834 8.978804 282.563875 8.978804 C 284.022209 8.978804 285.449292 9.041304 286.845126 9.161096 C 288.246167 9.280887 289.532626 9.416304 290.709709 9.577762 C 291.886793 9.739221 292.907626 9.895471 293.767001 10.056929 C 294.621168 10.218387 295.251376 10.338179 295.652418 10.416304 C 295.892001 10.478804 296.011793 10.588179 296.011793 10.744429 C 296.011793 10.786096 295.99096 10.905887 295.949293 11.103804 L 295.501376 13.260054 C 295.45971 13.400679 295.407626 13.484013 295.339918 13.515263 C 295.267001 13.546513 295.204501 13.562138 295.142001 13.562138 C 294.261793 13.562138 293.506585 13.707971 292.86596 14.010054 C 292.230543 14.306929 291.699293 14.728804 291.277418 15.265263 C 290.860751 15.806929 290.543043 16.447554 290.319084 17.18193 C 290.100334 17.921513 289.954501 18.723596 289.871168 19.577763 L 288.074292 41.348598 C 287.918042 43.109015 287.464917 44.765265 286.725334 46.322557 C 285.990959 47.879849 284.959709 49.239224 283.642 50.395474 C 282.324292 51.551724 280.709709 52.468391 278.793042 53.150682 C 276.876375 53.827766 274.678458 54.166308 272.204499 54.166308 C 270.548249 54.166308 268.949291 54.088183 267.412832 53.926724 C 265.876374 53.770474 264.475332 53.577766 263.220124 53.359016 C 261.959707 53.140266 260.881582 52.926724 259.970123 52.713182 C 259.063873 52.504849 258.407623 52.348599 258.01179 52.249641 C 257.772207 52.192349 257.652415 52.082974 257.652415 51.921516 C 257.652415 51.900682 257.66804 51.791307 257.709707 51.593391 L 258.220123 49.317349 C 258.256582 49.176724 258.313873 49.09339 258.381582 49.06214 C 258.454498 49.03089 258.516998 49.015265 258.579498 49.015265 C 259.454498 49.015265 260.272207 48.885057 261.016999 48.629849 C 261.766999 48.369432 262.423249 47.93714 262.98054 47.338182 C 263.537832 46.739224 264.001374 45.963182 264.371166 45.004848 C 264.740957 44.046515 264.996166 42.869432 265.136791 41.46839 Z M 332.183671 37.515265 C 332.183671 39.791306 331.964921 41.786098 331.527421 43.494432 C 331.084713 45.197557 330.480546 46.671515 329.699296 47.911099 C 328.923254 49.145474 328.001379 50.166307 326.944087 50.963182 C 325.886796 51.760057 324.735754 52.400682 323.485754 52.879849 C 322.235754 53.359016 320.918045 53.692349 319.532628 53.885058 C 318.147212 54.072558 316.740961 54.166308 315.324295 54.166308 C 313.970128 54.166308 312.615961 54.082974 311.267003 53.911099 C 309.918044 53.744433 308.642002 53.437141 307.433669 52.999641 C 306.225336 52.562141 305.105544 51.952766 304.063877 51.171516 C 303.027419 50.395474 302.131585 49.385057 301.371169 48.150682 C 300.610752 46.911099 300.017002 45.421515 299.589918 43.68714 C 299.157627 41.947557 298.944085 39.895473 298.944085 37.515265 L 298.944085 14.187138 C 298.944085 13.489221 299.006585 12.879846 299.126377 12.364221 C 299.246168 11.843387 299.475335 11.411096 299.813877 11.062137 C 300.152418 10.713179 300.621168 10.447554 301.220127 10.265262 C 301.819085 10.088179 302.600335 9.999637 303.558669 9.999637 L 316.912836 9.999637 C 318.069087 9.999637 318.954503 10.166304 319.563878 10.504846 C 320.173253 10.843387 320.600337 11.270471 320.850337 11.780887 C 321.100337 12.286096 321.235753 12.827763 321.256587 13.395471 C 321.272212 13.963179 321.282629 14.489221 321.282629 14.968388 L 321.282629 45.723599 C 321.282629 46.020474 321.37117 46.239224 321.537837 46.369432 C 321.709712 46.494432 321.87117 46.56214 322.032629 46.56214 C 322.751379 46.56214 323.381587 46.369432 323.918045 45.978807 C 324.459712 45.588182 324.907629 45.051723 325.267004 44.37464 C 325.626379 43.697557 325.902421 42.900682 326.089921 41.978807 C 326.282629 41.06214 326.376379 40.072556 326.376379 39.015265 L 326.376379 11.405887 C 326.376379 11.067346 326.449296 10.744429 326.600337 10.447554 C 326.751379 10.145471 327.084712 9.999637 327.605546 9.999637 L 330.720129 9.999637 C 330.897213 9.999637 331.079504 10.004846 331.256588 10.025679 C 331.438879 10.046512 331.595129 10.103804 331.735754 10.192346 C 331.876379 10.280887 331.985754 10.421512 332.063879 10.609012 C 332.147213 10.801721 332.183671 11.067346 332.183671 11.405887 Z M 363.449299 34.046514 L 356.41284 47.010057 C 356.110756 47.567349 355.751381 48.036099 355.334715 48.400682 C 354.91284 48.770474 354.334715 48.957974 353.595131 48.957974 C 352.918048 48.957974 352.350339 48.765265 351.902423 48.390265 C 351.454506 48.010057 351.079506 47.56214 350.782631 47.041307 L 343.355547 34.286098 C 343.475339 36.978806 343.584714 39.463181 343.683672 41.739223 C 343.725339 42.71839 343.761797 43.697557 343.803464 44.676723 C 343.84513 45.650682 343.881589 46.56214 343.923255 47.400682 C 343.964922 48.239224 343.996172 48.984015 344.027422 49.629849 C 344.058672 50.280891 344.084714 50.754849 344.100339 51.051724 C 344.121172 51.353807 344.115964 51.624641 344.089922 51.864224 C 344.058672 52.103807 343.980547 52.306932 343.860755 52.473599 C 343.740964 52.645474 343.574297 52.775682 343.355547 52.864224 C 343.136797 52.952766 342.834714 52.999641 342.454505 52.999641 L 339.162838 52.999641 C 338.803463 52.999641 338.47013 52.885057 338.15763 52.655891 C 337.850338 52.426724 337.694088 51.973599 337.694088 51.291307 L 337.694088 13.202763 C 337.694088 12.822554 337.75138 12.442346 337.860755 12.062137 C 337.97013 11.681929 338.15763 11.338179 338.428463 11.030887 C 338.699297 10.718387 339.053463 10.473596 339.490963 10.280887 C 339.928463 10.093387 340.47013 9.999637 341.105547 9.999637 L 350.751381 9.999637 C 351.527423 9.999637 352.199298 10.129846 352.756589 10.400679 C 353.313881 10.671512 353.793048 11.114221 354.19409 11.734012 L 362.251382 24.520472 L 367.642007 14.187138 C 367.959716 13.572554 368.267007 13.004846 368.569091 12.499637 C 368.865966 11.989221 369.220132 11.551721 369.631591 11.181929 C 370.043049 10.812137 370.548258 10.520471 371.157633 10.312137 C 371.767008 10.103804 372.553466 9.999637 373.511799 9.999637 L 381.475342 9.999637 C 382.235758 9.999637 382.8868 10.098596 383.438884 10.296512 C 383.985759 10.494429 384.433675 10.765262 384.782634 11.103804 C 385.131592 11.442346 385.3868 11.843387 385.548259 12.301721 C 385.709717 12.760054 385.787842 13.260054 385.787842 13.801721 L 385.787842 48.838182 C 385.787842 49.457974 385.735759 50.020474 385.6368 50.530891 C 385.537842 51.036099 385.334717 51.478807 385.022217 51.848599 C 384.714925 52.218391 384.277425 52.499641 383.704509 52.702766 C 383.1368 52.900682 382.392008 52.999641 381.475342 52.999641 L 367.642007 52.999641 C 366.824299 52.999641 366.142007 52.911099 365.605549 52.728807 C 365.063882 52.551724 364.636799 52.291307 364.313882 51.952766 C 363.996174 51.614224 363.772215 51.181932 363.642007 50.666307 C 363.511799 50.145474 363.449299 49.536099 363.449299 48.838182 Z M 413.636803 25.030888 L 413.636803 49.317349 C 415.574303 49.036099 417.350345 48.786099 418.964928 48.567349 C 419.64722 48.46839 420.329512 48.37464 421.017012 48.28089 C 421.704512 48.192349 422.339928 48.109015 422.918053 48.03089 C 423.496179 47.947557 423.996179 47.890265 424.418054 47.848599 C 424.83472 47.806932 425.126387 47.791307 425.287845 47.791307 C 425.626387 47.791307 425.912845 47.853807 426.152429 47.984015 C 426.392012 48.114224 426.511804 48.379849 426.511804 48.775682 L 426.511804 51.530891 C 426.511804 51.890266 426.423262 52.228807 426.246179 52.536099 C 426.063887 52.843391 425.636804 52.999641 424.954512 52.999641 L 395.850343 52.999641 C 394.907635 52.999641 394.147218 52.911099 393.558676 52.728807 C 392.970134 52.551724 392.506593 52.291307 392.162843 51.952766 C 391.824301 51.614224 391.595134 51.181932 391.475343 50.666307 C 391.355551 50.145474 391.298259 49.536099 391.298259 48.838182 L 391.298259 15.207971 C 391.298259 14.067346 391.428468 13.155888 391.683676 12.468387 C 391.944093 11.780887 392.313884 11.249637 392.793051 10.879846 C 393.272218 10.510054 393.845134 10.270471 394.517009 10.161096 C 395.183676 10.051721 395.928468 9.999637 396.746176 9.999637 L 423.819095 9.999637 C 424.496179 9.999637 424.92847 10.150679 425.121179 10.463179 C 425.308679 10.770471 425.407637 11.114221 425.407637 11.494429 L 425.407637 13.619429 C 425.407637 14.020471 425.298262 14.286096 425.089929 14.416304 C 424.881595 14.546513 424.605554 14.609013 424.267012 14.609013 C 424.069095 14.609013 423.761804 14.588179 423.355554 14.546513 C 422.944095 14.510054 422.470137 14.452763 421.933678 14.385054 C 421.392012 14.312138 420.813887 14.239221 420.194095 14.161096 C 419.574303 14.077763 418.954511 13.989221 418.339928 13.890263 C 416.902428 13.671513 415.33472 13.421513 413.636803 13.140263 L 413.636803 20.749638 L 424.777429 20.749638 C 425.194095 20.749638 425.407637 20.957971 425.407637 21.374638 L 425.407637 24.36943 C 425.407637 24.812138 425.194095 25.030888 424.777429 25.030888 Z M 405.64201 7.062137 C 405.558677 7.103804 405.490969 7.140262 405.428469 7.181929 C 405.371177 7.223595 405.308677 7.244429 405.251385 7.244429 C 405.032635 7.244429 404.86076 7.140262 404.740969 6.942345 L 402.73576 4.010053 C 402.615968 3.869428 402.558677 3.728803 402.558677 3.588178 C 402.558677 3.447553 402.647218 3.30172 402.824302 3.140262 L 413.428469 -4.885781 C 413.563886 -5.005572 413.704511 -5.068072 413.845136 -5.068072 C 413.985761 -5.068072 414.136803 -4.974322 414.293053 -4.797239 L 417.048261 -0.901405 C 417.188886 -0.745155 417.261803 -0.594114 417.261803 -0.453489 C 417.261803 -0.276405 417.168053 -0.125364 416.99097 -0.00557188 Z M 405.64201 7.062137 " stroke="#aeabf0" stroke-width="2.299999" stroke-opacity="1" stroke-miterlimit="4"/><g fill="#6660e0" fill-opacity="1"><g transform="translate(382.824862, 55.388668)"><g/></g></g></svg>