<svg xmlns="http://www.w3.org/2000/svg" xmlns:xlink="http://www.w3.org/1999/xlink" width="600" zoomAndPan="magnify" viewBox="0 0 450 74.999997" height="100" preserveAspectRatio="xMidYMid meet" version="1.0"><defs><g/><clipPath id="e6e3d1dd1c"><path d="M 14 4.730469 L 53.855469 4.730469 L 53.855469 60 L 14 60 Z M 14 4.730469 " clip-rule="nonzero"/></clipPath><clipPath id="78ae26acfe"><path d="M 43 4.730469 L 53.855469 4.730469 L 53.855469 16 L 43 16 Z M 43 4.730469 " clip-rule="nonzero"/></clipPath><clipPath id="f9d82e1665"><path d="M 5.105469 14 L 45 14 L 45 69.230469 L 5.105469 69.230469 Z M 5.105469 14 " clip-rule="nonzero"/></clipPath><clipPath id="f466615142"><path d="M 34.769531 34.519531 L 62.519531 34.519531 L 62.519531 70.519531 L 34.769531 70.519531 Z M 34.769531 34.519531 " clip-rule="nonzero"/></clipPath></defs><g fill="#ffffff" fill-opacity="1"><g transform="translate(68.811471, 56.64463)"><g><path d="M 23.140625 -46.398438 C 22.445312 -46.398438 22.039062 -46.050781 21.863281 -45.355469 L 15.71875 -14.265625 L 9.628906 -45.355469 C 9.453125 -46.050781 9.046875 -46.398438 8.351562 -46.398438 L 2.84375 -46.398438 C 1.972656 -46.398438 1.625 -45.933594 1.796875 -45.121094 L 11.542969 -1.042969 C 11.714844 -0.347656 12.121094 0 12.816406 0 L 18.617188 0 C 19.3125 0 19.71875 -0.347656 19.894531 -1.042969 L 29.695312 -45.121094 C 29.867188 -45.933594 29.519531 -46.398438 28.652344 -46.398438 Z M 23.140625 -46.398438 "/></g></g></g><g fill="#ffffff" fill-opacity="1"><g transform="translate(100.303378, 56.64463)"><g><path d="M 3.828125 -46.398438 C 3.191406 -46.398438 2.898438 -46.050781 2.898438 -45.46875 L 2.898438 -0.929688 C 2.898438 -0.347656 3.191406 0 3.828125 0 L 9.859375 0 C 10.441406 0 10.789062 -0.347656 10.789062 -0.929688 L 10.789062 -45.46875 C 10.789062 -46.050781 10.441406 -46.398438 9.859375 -46.398438 Z M 3.828125 -46.398438 "/></g></g></g><g fill="#ffffff" fill-opacity="1"><g transform="translate(113.990465, 56.64463)"><g><path d="M 26.039062 -45.46875 C 26.039062 -46.050781 25.808594 -46.398438 25.113281 -46.398438 L 3.769531 -46.398438 C 3.246094 -46.398438 2.898438 -46.050781 2.898438 -45.46875 L 2.898438 -0.929688 C 2.898438 -0.347656 3.246094 0 3.769531 0 L 25.113281 0 C 25.808594 0 26.039062 -0.347656 26.039062 -0.929688 L 26.039062 -6.726562 C 26.039062 -7.367188 25.808594 -7.65625 25.113281 -7.65625 L 10.613281 -7.65625 L 10.613281 -19.371094 L 21.691406 -19.371094 C 22.269531 -19.371094 22.617188 -19.71875 22.617188 -20.355469 L 22.617188 -26.097656 C 22.617188 -26.738281 22.269531 -27.085938 21.691406 -27.085938 L 10.613281 -27.085938 L 10.613281 -38.683594 L 25.113281 -38.683594 C 25.808594 -38.683594 26.039062 -39.089844 26.039062 -39.671875 Z M 26.039062 -45.46875 "/></g></g></g><g fill="#ffffff" fill-opacity="1"><g transform="translate(142.930545, 56.64463)"><g><path d="M 34.625 -46.398438 C 33.929688 -46.398438 33.464844 -45.992188 33.40625 -45.296875 L 31.027344 -18.152344 L 30.738281 -18.152344 L 25.054688 -45.355469 C 24.882812 -46.050781 24.476562 -46.398438 23.777344 -46.398438 L 20.300781 -46.398438 C 19.601562 -46.398438 19.195312 -46.050781 19.023438 -45.355469 L 13.28125 -18.152344 L 12.992188 -18.152344 L 10.730469 -45.296875 C 10.671875 -45.992188 10.207031 -46.398438 9.511719 -46.398438 L 4 -46.398438 C 3.246094 -46.398438 2.84375 -45.933594 2.898438 -45.179688 L 7.65625 -1.101562 C 7.714844 -0.347656 8.121094 0 8.875 0 L 14.671875 0 C 15.371094 0 15.773438 -0.347656 15.949219 -0.984375 L 22.039062 -27.257812 L 28.070312 -1.042969 C 28.246094 -0.347656 28.652344 0 29.347656 0 L 35.03125 0 C 35.785156 0 36.191406 -0.347656 36.25 -1.101562 L 41.234375 -45.179688 C 41.292969 -45.933594 40.886719 -46.398438 40.132812 -46.398438 Z M 34.625 -46.398438 "/></g></g></g><g fill="#ffffff" fill-opacity="1"><g transform="translate(187.06562, 56.64463)"><g/></g></g><g fill="#ffffff" fill-opacity="1"><g transform="translate(201.564654, 56.64463)"><g><path d="M 2.898438 -0.929688 C 2.898438 -0.347656 3.246094 0 3.828125 0 L 9.859375 0 C 10.496094 0 10.789062 -0.347656 10.789062 -0.929688 L 10.789062 -15.542969 L 17.746094 -15.542969 C 23.199219 -15.542969 26.097656 -18.5 26.097656 -23.894531 L 26.097656 -38.046875 C 26.097656 -43.5 23.199219 -46.398438 17.746094 -46.398438 L 3.828125 -46.398438 C 3.246094 -46.398438 2.898438 -46.050781 2.898438 -45.46875 Z M 10.789062 -23.199219 L 10.789062 -38.742188 L 15.890625 -38.742188 C 17.457031 -38.742188 18.210938 -37.929688 18.210938 -36.421875 L 18.210938 -25.519531 C 18.210938 -24.070312 17.457031 -23.199219 15.890625 -23.199219 Z M 10.789062 -23.199219 "/></g></g></g><g fill="#ffffff" fill-opacity="1"><g transform="translate(230.562733, 56.64463)"><g><path d="M 26.738281 -38.046875 C 26.738281 -43.5 23.835938 -46.398438 18.386719 -46.398438 L 3.828125 -46.398438 C 3.246094 -46.398438 2.898438 -46.050781 2.898438 -45.46875 L 2.898438 -0.929688 C 2.898438 -0.347656 3.246094 0 3.828125 0 L 9.859375 0 C 10.441406 0 10.789062 -0.347656 10.789062 -0.929688 L 10.789062 -15.542969 L 14.789062 -15.542969 L 18.675781 -0.8125 C 18.792969 -0.289062 19.082031 0 19.660156 0 L 25.691406 0 C 26.332031 0 26.679688 -0.347656 26.503906 -1.042969 L 22.503906 -16.238281 C 25.285156 -17.457031 26.738281 -20.007812 26.738281 -23.894531 Z M 10.789062 -23.199219 L 10.789062 -38.742188 L 16.527344 -38.742188 C 18.039062 -38.742188 18.847656 -37.929688 18.847656 -36.421875 L 18.847656 -25.519531 C 18.847656 -24.011719 18.039062 -23.199219 16.527344 -23.199219 Z M 10.789062 -23.199219 "/></g></g></g><g fill="#ffffff" fill-opacity="1"><g transform="translate(260.198762, 56.64463)"><g><path d="M 2.898438 -8.351562 C 2.898438 -2.898438 5.800781 0 11.25 0 L 17.746094 0 C 23.199219 0 26.097656 -2.898438 26.097656 -8.351562 L 26.097656 -38.046875 C 26.097656 -43.5 23.199219 -46.398438 17.746094 -46.398438 L 11.25 -46.398438 C 5.800781 -46.398438 2.898438 -43.5 2.898438 -38.046875 Z M 12.933594 -7.480469 C 11.425781 -7.480469 10.613281 -8.234375 10.613281 -9.800781 L 10.613281 -36.597656 C 10.613281 -38.105469 11.425781 -38.917969 12.933594 -38.917969 L 16.296875 -38.917969 C 17.804688 -38.917969 18.617188 -38.105469 18.617188 -36.597656 L 18.617188 -9.800781 C 18.617188 -8.234375 17.804688 -7.480469 16.296875 -7.480469 Z M 12.933594 -7.480469 "/></g></g></g><g fill="#ffffff" fill-opacity="1"><g transform="translate(289.196829, 56.64463)"><g><path d="M 18.210938 -9.976562 C 18.210938 -8.46875 17.398438 -7.65625 15.890625 -7.65625 L 12.875 -7.65625 C 11.367188 -7.65625 10.554688 -8.46875 10.554688 -9.976562 L 10.554688 -14.382812 C 10.554688 -14.964844 10.207031 -15.3125 9.628906 -15.3125 L 3.828125 -15.3125 C 3.191406 -15.3125 2.898438 -14.964844 2.898438 -14.382812 L 2.898438 -8.351562 C 2.898438 -2.898438 5.800781 0 11.25 0 L 17.746094 0 C 23.140625 0 26.097656 -2.898438 26.097656 -8.351562 L 26.097656 -45.46875 C 26.097656 -46.050781 25.75 -46.398438 25.171875 -46.398438 L 19.140625 -46.398438 C 18.5 -46.398438 18.210938 -46.050781 18.210938 -45.46875 Z M 18.210938 -9.976562 "/></g></g></g><g fill="#ffffff" fill-opacity="1"><g transform="translate(318.19492, 56.64463)"><g><path d="M 26.039062 -45.46875 C 26.039062 -46.050781 25.808594 -46.398438 25.113281 -46.398438 L 3.769531 -46.398438 C 3.246094 -46.398438 2.898438 -46.050781 2.898438 -45.46875 L 2.898438 -0.929688 C 2.898438 -0.347656 3.246094 0 3.769531 0 L 25.113281 0 C 25.808594 0 26.039062 -0.347656 26.039062 -0.929688 L 26.039062 -6.726562 C 26.039062 -7.367188 25.808594 -7.65625 25.113281 -7.65625 L 10.613281 -7.65625 L 10.613281 -19.371094 L 21.691406 -19.371094 C 22.269531 -19.371094 22.617188 -19.71875 22.617188 -20.355469 L 22.617188 -26.097656 C 22.617188 -26.738281 22.269531 -27.085938 21.691406 -27.085938 L 10.613281 -27.085938 L 10.613281 -38.683594 L 25.113281 -38.683594 C 25.808594 -38.683594 26.039062 -39.089844 26.039062 -39.671875 Z M 26.039062 -45.46875 "/></g></g></g><g fill="#ffffff" fill-opacity="1"><g transform="translate(347.135012, 56.64463)"><g><path d="M 26.15625 -38.046875 C 26.15625 -43.5 23.199219 -46.398438 17.804688 -46.398438 L 11.308594 -46.398438 C 5.859375 -46.398438 2.898438 -43.5 2.898438 -38.046875 L 2.898438 -8.351562 C 2.898438 -2.898438 5.859375 0 11.308594 0 L 17.804688 0 C 23.199219 0 26.15625 -2.898438 26.15625 -8.351562 L 26.15625 -14.617188 C 26.15625 -15.195312 25.808594 -15.542969 25.230469 -15.542969 L 19.429688 -15.542969 C 18.792969 -15.542969 18.5 -15.195312 18.5 -14.617188 L 18.5 -9.976562 C 18.5 -8.410156 17.6875 -7.65625 16.179688 -7.65625 L 13.164062 -7.65625 C 11.65625 -7.65625 10.84375 -8.410156 10.84375 -9.976562 L 10.84375 -36.421875 C 10.84375 -37.929688 11.597656 -38.742188 13.164062 -38.742188 L 16.179688 -38.742188 C 17.6875 -38.742188 18.5 -37.929688 18.5 -36.421875 L 18.5 -31.78125 C 18.5 -31.203125 18.792969 -30.855469 19.429688 -30.855469 L 25.230469 -30.855469 C 25.808594 -30.855469 26.15625 -31.203125 26.15625 -31.78125 Z M 26.15625 -38.046875 "/></g></g></g><g fill="#ffffff" fill-opacity="1"><g transform="translate(376.191078, 56.64463)"><g><path d="M 2.667969 -46.398438 C 2.089844 -46.398438 1.738281 -46.050781 1.738281 -45.46875 L 1.738281 -39.671875 C 1.738281 -39.089844 2.089844 -38.742188 2.667969 -38.742188 L 9.394531 -38.742188 L 9.394531 -0.929688 C 9.394531 -0.289062 9.742188 0 10.324219 0 L 16.355469 0 C 16.992188 0 17.285156 -0.289062 17.285156 -0.929688 L 17.285156 -38.742188 L 24.011719 -38.742188 C 24.648438 -38.742188 24.9375 -39.089844 24.9375 -39.671875 L 24.9375 -45.46875 C 24.9375 -46.050781 24.648438 -46.398438 24.011719 -46.398438 Z M 2.667969 -46.398438 "/></g></g></g><g fill="#ffffff" fill-opacity="1"><g transform="translate(402.869291, 56.64463)"><g><path d="M 11.25 -46.398438 C 5.859375 -46.398438 2.898438 -43.5 2.898438 -38.046875 L 2.898438 -24.359375 C 2.898438 -23.257812 3.421875 -22.5625 4.464844 -22.214844 L 18.210938 -17.6875 L 18.210938 -9.976562 C 18.210938 -8.410156 17.398438 -7.65625 15.890625 -7.65625 L 13.109375 -7.65625 C 11.65625 -7.65625 10.789062 -8.410156 10.789062 -9.976562 L 10.789062 -14.441406 C 10.789062 -15.078125 10.496094 -15.371094 9.859375 -15.371094 L 3.828125 -15.371094 C 3.246094 -15.371094 2.898438 -15.078125 2.898438 -14.441406 L 2.898438 -8.351562 C 2.898438 -2.898438 5.859375 0 11.25 0 L 17.746094 0 C 23.199219 0 26.097656 -2.898438 26.097656 -8.351562 L 26.097656 -21.75 C 26.097656 -22.851562 25.578125 -23.488281 24.589844 -23.894531 L 10.789062 -28.417969 L 10.789062 -36.421875 C 10.789062 -37.929688 11.65625 -38.742188 13.109375 -38.742188 L 15.890625 -38.742188 C 17.457031 -38.742188 18.210938 -37.929688 18.210938 -36.421875 L 18.210938 -31.898438 C 18.210938 -31.320312 18.558594 -30.96875 19.140625 -30.96875 L 25.171875 -30.96875 C 25.808594 -30.96875 26.097656 -31.320312 26.097656 -31.898438 L 26.097656 -38.046875 C 26.097656 -43.5 23.199219 -46.398438 17.746094 -46.398438 Z M 11.25 -46.398438 "/></g></g></g><g fill="#ffffff" fill-opacity="1"><g transform="translate(431.858317, 56.64463)"><g/></g></g><path fill="#6660e0" d="M 71.375 62.363281 L 434.421875 62.363281 L 434.421875 67.613281 L 71.375 67.613281 Z M 71.375 62.363281 " fill-opacity="1" fill-rule="nonzero"/><path fill="#aeabf0" d="M 68.8125 59.800781 L 431.859375 59.800781 L 431.859375 65.050781 L 68.8125 65.050781 Z M 68.8125 59.800781 " fill-opacity="1" fill-rule="nonzero"/><g fill="#6660e0" fill-opacity="1"><g transform="translate(71.374734, 59.363263)"><g><path d="M 23.140625 -46.398438 C 22.445312 -46.398438 22.039062 -46.050781 21.863281 -45.355469 L 15.71875 -14.265625 L 9.628906 -45.355469 C 9.453125 -46.050781 9.046875 -46.398438 8.351562 -46.398438 L 2.84375 -46.398438 C 1.972656 -46.398438 1.625 -45.933594 1.796875 -45.121094 L 11.542969 -1.042969 C 11.714844 -0.347656 12.121094 0 12.816406 0 L 18.617188 0 C 19.3125 0 19.71875 -0.347656 19.894531 -1.042969 L 29.695312 -45.121094 C 29.867188 -45.933594 29.519531 -46.398438 28.652344 -46.398438 Z M 23.140625 -46.398438 "/></g></g></g><g fill="#6660e0" fill-opacity="1"><g transform="translate(102.86664, 59.363263)"><g><path d="M 3.828125 -46.398438 C 3.191406 -46.398438 2.898438 -46.050781 2.898438 -45.46875 L 2.898438 -0.929688 C 2.898438 -0.347656 3.191406 0 3.828125 0 L 9.859375 0 C 10.441406 0 10.789062 -0.347656 10.789062 -0.929688 L 10.789062 -45.46875 C 10.789062 -46.050781 10.441406 -46.398438 9.859375 -46.398438 Z M 3.828125 -46.398438 "/></g></g></g><g fill="#6660e0" fill-opacity="1"><g transform="translate(116.553727, 59.363263)"><g><path d="M 26.039062 -45.46875 C 26.039062 -46.050781 25.808594 -46.398438 25.113281 -46.398438 L 3.769531 -46.398438 C 3.246094 -46.398438 2.898438 -46.050781 2.898438 -45.46875 L 2.898438 -0.929688 C 2.898438 -0.347656 3.246094 0 3.769531 0 L 25.113281 0 C 25.808594 0 26.039062 -0.347656 26.039062 -0.929688 L 26.039062 -6.726562 C 26.039062 -7.367188 25.808594 -7.65625 25.113281 -7.65625 L 10.613281 -7.65625 L 10.613281 -19.371094 L 21.691406 -19.371094 C 22.269531 -19.371094 22.617188 -19.71875 22.617188 -20.355469 L 22.617188 -26.097656 C 22.617188 -26.738281 22.269531 -27.085938 21.691406 -27.085938 L 10.613281 -27.085938 L 10.613281 -38.683594 L 25.113281 -38.683594 C 25.808594 -38.683594 26.039062 -39.089844 26.039062 -39.671875 Z M 26.039062 -45.46875 "/></g></g></g><g fill="#6660e0" fill-opacity="1"><g transform="translate(145.493808, 59.363263)"><g><path d="M 34.625 -46.398438 C 33.929688 -46.398438 33.464844 -45.992188 33.40625 -45.296875 L 31.027344 -18.152344 L 30.738281 -18.152344 L 25.054688 -45.355469 C 24.882812 -46.050781 24.476562 -46.398438 23.777344 -46.398438 L 20.300781 -46.398438 C 19.601562 -46.398438 19.195312 -46.050781 19.023438 -45.355469 L 13.28125 -18.152344 L 12.992188 -18.152344 L 10.730469 -45.296875 C 10.671875 -45.992188 10.207031 -46.398438 9.511719 -46.398438 L 4 -46.398438 C 3.246094 -46.398438 2.84375 -45.933594 2.898438 -45.179688 L 7.65625 -1.101562 C 7.714844 -0.347656 8.121094 0 8.875 0 L 14.671875 0 C 15.371094 0 15.773438 -0.347656 15.949219 -0.984375 L 22.039062 -27.257812 L 28.070312 -1.042969 C 28.246094 -0.347656 28.652344 0 29.347656 0 L 35.03125 0 C 35.785156 0 36.191406 -0.347656 36.25 -1.101562 L 41.234375 -45.179688 C 41.292969 -45.933594 40.886719 -46.398438 40.132812 -46.398438 Z M 34.625 -46.398438 "/></g></g></g><g fill="#6660e0" fill-opacity="1"><g transform="translate(189.628882, 59.363263)"><g/></g></g><g fill="#6660e0" fill-opacity="1"><g transform="translate(204.127916, 59.363263)"><g><path d="M 2.898438 -0.929688 C 2.898438 -0.347656 3.246094 0 3.828125 0 L 9.859375 0 C 10.496094 0 10.789062 -0.347656 10.789062 -0.929688 L 10.789062 -15.542969 L 17.746094 -15.542969 C 23.199219 -15.542969 26.097656 -18.5 26.097656 -23.894531 L 26.097656 -38.046875 C 26.097656 -43.5 23.199219 -46.398438 17.746094 -46.398438 L 3.828125 -46.398438 C 3.246094 -46.398438 2.898438 -46.050781 2.898438 -45.46875 Z M 10.789062 -23.199219 L 10.789062 -38.742188 L 15.890625 -38.742188 C 17.457031 -38.742188 18.210938 -37.929688 18.210938 -36.421875 L 18.210938 -25.519531 C 18.210938 -24.070312 17.457031 -23.199219 15.890625 -23.199219 Z M 10.789062 -23.199219 "/></g></g></g><g fill="#6660e0" fill-opacity="1"><g transform="translate(233.125995, 59.363263)"><g><path d="M 26.738281 -38.046875 C 26.738281 -43.5 23.835938 -46.398438 18.386719 -46.398438 L 3.828125 -46.398438 C 3.246094 -46.398438 2.898438 -46.050781 2.898438 -45.46875 L 2.898438 -0.929688 C 2.898438 -0.347656 3.246094 0 3.828125 0 L 9.859375 0 C 10.441406 0 10.789062 -0.347656 10.789062 -0.929688 L 10.789062 -15.542969 L 14.789062 -15.542969 L 18.675781 -0.8125 C 18.792969 -0.289062 19.082031 0 19.660156 0 L 25.691406 0 C 26.332031 0 26.679688 -0.347656 26.503906 -1.042969 L 22.503906 -16.238281 C 25.285156 -17.457031 26.738281 -20.007812 26.738281 -23.894531 Z M 10.789062 -23.199219 L 10.789062 -38.742188 L 16.527344 -38.742188 C 18.039062 -38.742188 18.847656 -37.929688 18.847656 -36.421875 L 18.847656 -25.519531 C 18.847656 -24.011719 18.039062 -23.199219 16.527344 -23.199219 Z M 10.789062 -23.199219 "/></g></g></g><g fill="#6660e0" fill-opacity="1"><g transform="translate(262.762024, 59.363263)"><g><path d="M 2.898438 -8.351562 C 2.898438 -2.898438 5.800781 0 11.25 0 L 17.746094 0 C 23.199219 0 26.097656 -2.898438 26.097656 -8.351562 L 26.097656 -38.046875 C 26.097656 -43.5 23.199219 -46.398438 17.746094 -46.398438 L 11.25 -46.398438 C 5.800781 -46.398438 2.898438 -43.5 2.898438 -38.046875 Z M 12.933594 -7.480469 C 11.425781 -7.480469 10.613281 -8.234375 10.613281 -9.800781 L 10.613281 -36.597656 C 10.613281 -38.105469 11.425781 -38.917969 12.933594 -38.917969 L 16.296875 -38.917969 C 17.804688 -38.917969 18.617188 -38.105469 18.617188 -36.597656 L 18.617188 -9.800781 C 18.617188 -8.234375 17.804688 -7.480469 16.296875 -7.480469 Z M 12.933594 -7.480469 "/></g></g></g><g fill="#6660e0" fill-opacity="1"><g transform="translate(291.760092, 59.363263)"><g><path d="M 18.210938 -9.976562 C 18.210938 -8.46875 17.398438 -7.65625 15.890625 -7.65625 L 12.875 -7.65625 C 11.367188 -7.65625 10.554688 -8.46875 10.554688 -9.976562 L 10.554688 -14.382812 C 10.554688 -14.964844 10.207031 -15.3125 9.628906 -15.3125 L 3.828125 -15.3125 C 3.191406 -15.3125 2.898438 -14.964844 2.898438 -14.382812 L 2.898438 -8.351562 C 2.898438 -2.898438 5.800781 0 11.25 0 L 17.746094 0 C 23.140625 0 26.097656 -2.898438 26.097656 -8.351562 L 26.097656 -45.46875 C 26.097656 -46.050781 25.75 -46.398438 25.171875 -46.398438 L 19.140625 -46.398438 C 18.5 -46.398438 18.210938 -46.050781 18.210938 -45.46875 Z M 18.210938 -9.976562 "/></g></g></g><g fill="#6660e0" fill-opacity="1"><g transform="translate(320.758182, 59.363263)"><g><path d="M 26.039062 -45.46875 C 26.039062 -46.050781 25.808594 -46.398438 25.113281 -46.398438 L 3.769531 -46.398438 C 3.246094 -46.398438 2.898438 -46.050781 2.898438 -45.46875 L 2.898438 -0.929688 C 2.898438 -0.347656 3.246094 0 3.769531 0 L 25.113281 0 C 25.808594 0 26.039062 -0.347656 26.039062 -0.929688 L 26.039062 -6.726562 C 26.039062 -7.367188 25.808594 -7.65625 25.113281 -7.65625 L 10.613281 -7.65625 L 10.613281 -19.371094 L 21.691406 -19.371094 C 22.269531 -19.371094 22.617188 -19.71875 22.617188 -20.355469 L 22.617188 -26.097656 C 22.617188 -26.738281 22.269531 -27.085938 21.691406 -27.085938 L 10.613281 -27.085938 L 10.613281 -38.683594 L 25.113281 -38.683594 C 25.808594 -38.683594 26.039062 -39.089844 26.039062 -39.671875 Z M 26.039062 -45.46875 "/></g></g></g><g fill="#6660e0" fill-opacity="1"><g transform="translate(349.698274, 59.363263)"><g><path d="M 26.15625 -38.046875 C 26.15625 -43.5 23.199219 -46.398438 17.804688 -46.398438 L 11.308594 -46.398438 C 5.859375 -46.398438 2.898438 -43.5 2.898438 -38.046875 L 2.898438 -8.351562 C 2.898438 -2.898438 5.859375 0 11.308594 0 L 17.804688 0 C 23.199219 0 26.15625 -2.898438 26.15625 -8.351562 L 26.15625 -14.617188 C 26.15625 -15.195312 25.808594 -15.542969 25.230469 -15.542969 L 19.429688 -15.542969 C 18.792969 -15.542969 18.5 -15.195312 18.5 -14.617188 L 18.5 -9.976562 C 18.5 -8.410156 17.6875 -7.65625 16.179688 -7.65625 L 13.164062 -7.65625 C 11.65625 -7.65625 10.84375 -8.410156 10.84375 -9.976562 L 10.84375 -36.421875 C 10.84375 -37.929688 11.597656 -38.742188 13.164062 -38.742188 L 16.179688 -38.742188 C 17.6875 -38.742188 18.5 -37.929688 18.5 -36.421875 L 18.5 -31.78125 C 18.5 -31.203125 18.792969 -30.855469 19.429688 -30.855469 L 25.230469 -30.855469 C 25.808594 -30.855469 26.15625 -31.203125 26.15625 -31.78125 Z M 26.15625 -38.046875 "/></g></g></g><g fill="#6660e0" fill-opacity="1"><g transform="translate(378.75434, 59.363263)"><g><path d="M 2.667969 -46.398438 C 2.089844 -46.398438 1.738281 -46.050781 1.738281 -45.46875 L 1.738281 -39.671875 C 1.738281 -39.089844 2.089844 -38.742188 2.667969 -38.742188 L 9.394531 -38.742188 L 9.394531 -0.929688 C 9.394531 -0.289062 9.742188 0 10.324219 0 L 16.355469 0 C 16.992188 0 17.285156 -0.289062 17.285156 -0.929688 L 17.285156 -38.742188 L 24.011719 -38.742188 C 24.648438 -38.742188 24.9375 -39.089844 24.9375 -39.671875 L 24.9375 -45.46875 C 24.9375 -46.050781 24.648438 -46.398438 24.011719 -46.398438 Z M 2.667969 -46.398438 "/></g></g></g><g fill="#6660e0" fill-opacity="1"><g transform="translate(405.432553, 59.363263)"><g><path d="M 11.25 -46.398438 C 5.859375 -46.398438 2.898438 -43.5 2.898438 -38.046875 L 2.898438 -24.359375 C 2.898438 -23.257812 3.421875 -22.5625 4.464844 -22.214844 L 18.210938 -17.6875 L 18.210938 -9.976562 C 18.210938 -8.410156 17.398438 -7.65625 15.890625 -7.65625 L 13.109375 -7.65625 C 11.65625 -7.65625 10.789062 -8.410156 10.789062 -9.976562 L 10.789062 -14.441406 C 10.789062 -15.078125 10.496094 -15.371094 9.859375 -15.371094 L 3.828125 -15.371094 C 3.246094 -15.371094 2.898438 -15.078125 2.898438 -14.441406 L 2.898438 -8.351562 C 2.898438 -2.898438 5.859375 0 11.25 0 L 17.746094 0 C 23.199219 0 26.097656 -2.898438 26.097656 -8.351562 L 26.097656 -21.75 C 26.097656 -22.851562 25.578125 -23.488281 24.589844 -23.894531 L 10.789062 -28.417969 L 10.789062 -36.421875 C 10.789062 -37.929688 11.65625 -38.742188 13.109375 -38.742188 L 15.890625 -38.742188 C 17.457031 -38.742188 18.210938 -37.929688 18.210938 -36.421875 L 18.210938 -31.898438 C 18.210938 -31.320312 18.558594 -30.96875 19.140625 -30.96875 L 25.171875 -30.96875 C 25.808594 -30.96875 26.097656 -31.320312 26.097656 -31.898438 L 26.097656 -38.046875 C 26.097656 -43.5 23.199219 -46.398438 17.746094 -46.398438 Z M 11.25 -46.398438 "/></g></g></g><path stroke-linecap="butt" transform="matrix(0.75, 0, 0, 0.75, 68.811471, 5.800003)" fill="none" stroke-linejoin="miter" d="M 30.850332 6.131246 C 29.923249 6.131246 29.376374 6.605204 29.147207 7.527079 L 20.954498 48.969791 L 12.839914 7.527079 C 12.610748 6.605204 12.063872 6.131246 11.136789 6.131246 L 3.793038 6.131246 C 2.626372 6.131246 2.173247 6.756246 2.397205 7.829163 L 15.386789 66.605209 C 15.610748 67.527084 16.162831 68.001043 17.084706 68.001043 L 24.82429 68.001043 C 25.751374 68.001043 26.298249 67.527084 26.527415 66.605209 L 39.589916 7.829163 C 39.819083 6.756246 39.365958 6.131246 38.194083 6.131246 Z M 47.084709 6.131246 C 46.23575 6.131246 45.86075 6.605204 45.86075 7.376038 L 45.86075 66.756251 C 45.86075 67.527084 46.23575 68.001043 47.084709 68.001043 L 55.131584 68.001043 C 55.902418 68.001043 56.376376 67.527084 56.376376 66.756251 L 56.376376 7.376038 C 56.376376 6.605204 55.902418 6.131246 55.131584 6.131246 Z M 94.959713 7.376038 C 94.959713 6.605204 94.657629 6.131246 93.730546 6.131246 L 65.261793 6.131246 C 64.563877 6.131246 64.110752 6.605204 64.110752 7.376038 L 64.110752 66.756251 C 64.110752 67.527084 64.563877 68.001043 65.261793 68.001043 L 93.730546 68.001043 C 94.657629 68.001043 94.959713 67.527084 94.959713 66.756251 L 94.959713 59.032292 C 94.959713 58.183334 94.657629 57.7875 93.730546 57.7875 L 74.397211 57.7875 L 74.397211 42.172916 L 89.162837 42.172916 C 89.933671 42.172916 90.386796 41.698957 90.386796 40.849999 L 90.386796 33.204165 C 90.386796 32.355206 89.933671 31.881248 89.162837 31.881248 L 74.397211 31.881248 L 74.397211 16.422913 L 93.730546 16.422913 C 94.657629 16.422913 94.959713 15.876038 94.959713 15.099997 Z M 144.985758 6.131246 C 144.058675 6.131246 143.438883 6.678121 143.360758 7.605204 L 140.188883 43.797916 L 139.813883 43.797916 L 132.225341 7.527079 C 131.996174 6.605204 131.470132 6.131246 130.522215 6.131246 L 125.897215 6.131246 C 124.954507 6.131246 124.428465 6.605204 124.178465 7.527079 L 116.532631 43.797916 L 116.157631 43.797916 L 113.136797 7.605204 C 113.058672 6.678121 112.438881 6.131246 111.511797 6.131246 L 104.168047 6.131246 C 103.147213 6.131246 102.621172 6.756246 102.694088 7.756246 L 109.037839 66.527084 C 109.115964 67.527084 109.642005 68.001043 110.662839 68.001043 L 118.386798 68.001043 C 119.308673 68.001043 119.855548 67.527084 120.084715 66.678126 L 128.199299 31.65729 L 136.246174 66.605209 C 136.490966 67.527084 137.017008 68.001043 137.964924 68.001043 L 145.532633 68.001043 C 146.532633 68.001043 147.079509 67.527084 147.157634 66.527084 L 153.803467 7.756246 C 153.876384 6.756246 153.350342 6.131246 152.329509 6.131246 Z M 180.876386 66.756251 C 180.876386 67.527084 181.329511 68.001043 182.100345 68.001043 L 190.142012 68.001043 C 190.996179 68.001043 191.392012 67.527084 191.392012 66.756251 L 191.392012 47.271874 L 200.657638 47.271874 C 207.928472 47.271874 211.798264 43.323957 211.798264 36.131248 L 211.798264 17.271872 C 211.798264 10.001038 207.928472 6.131246 200.657638 6.131246 L 182.100345 6.131246 C 181.329511 6.131246 180.876386 6.605204 180.876386 7.376038 Z M 191.392012 37.073957 L 191.392012 16.344788 L 198.188888 16.344788 C 200.282638 16.344788 201.282638 17.422914 201.282638 19.443747 L 201.282638 33.980207 C 201.282638 35.90729 200.282638 37.073957 198.188888 37.073957 Z M 251.313892 17.271872 C 251.313892 10.001038 247.4441 6.131246 240.173266 6.131246 L 220.767015 6.131246 C 219.990973 6.131246 219.537848 6.605204 219.537848 7.376038 L 219.537848 66.756251 C 219.537848 67.527084 219.990973 68.001043 220.767015 68.001043 L 228.808682 68.001043 C 229.584724 68.001043 230.053474 67.527084 230.053474 66.756251 L 230.053474 47.271874 L 235.376391 47.271874 L 240.569099 66.922918 C 240.720141 67.620834 241.115975 68.001043 241.892016 68.001043 L 249.933684 68.001043 C 250.782642 68.001043 251.235767 67.527084 251.011809 66.605209 L 245.668058 46.344791 C 249.386809 44.719791 251.313892 41.323957 251.313892 36.131248 Z M 230.053474 37.073957 L 230.053474 16.344788 L 237.699308 16.344788 C 239.720141 16.344788 240.798266 17.422914 240.798266 19.443747 L 240.798266 33.980207 C 240.798266 35.980207 239.720141 37.073957 237.699308 37.073957 Z M 259.053476 56.860417 C 259.053476 64.131251 262.923268 68.001043 270.194102 68.001043 L 278.839936 68.001043 C 286.105562 68.001043 289.975354 64.131251 289.975354 56.860417 L 289.975354 17.271872 C 289.975354 10.001038 286.105562 6.131246 278.839936 6.131246 L 270.194102 6.131246 C 262.923268 6.131246 259.053476 10.001038 259.053476 17.271872 Z M 272.41806 58.032292 C 270.41806 58.032292 269.345143 57.011458 269.345143 54.933333 L 269.345143 19.198955 C 269.345143 17.193747 270.41806 16.12083 272.41806 16.12083 L 276.912852 16.12083 C 278.912853 16.12083 280.011811 17.193747 280.011811 19.198955 L 280.011811 54.933333 C 280.011811 57.011458 278.912853 58.032292 276.912852 58.032292 Z M 318.126397 54.688542 C 318.126397 56.709375 317.048272 57.7875 315.027439 57.7875 L 311.006605 57.7875 C 309.006605 57.7875 307.912855 56.709375 307.912855 54.688542 L 307.912855 48.818749 C 307.912855 48.042708 307.45973 47.589583 306.683688 47.589583 L 298.944104 47.589583 C 298.095146 47.589583 297.714937 48.042708 297.714937 48.818749 L 297.714937 56.860417 C 297.714937 64.131251 301.589938 68.001043 308.855563 68.001043 L 317.501397 68.001043 C 324.694106 68.001043 328.642023 64.131251 328.642023 56.860417 L 328.642023 7.376038 C 328.642023 6.605204 328.188898 6.131246 327.412857 6.131246 L 319.371189 6.131246 C 318.522231 6.131246 318.126397 6.605204 318.126397 7.376038 Z M 367.230568 7.376038 C 367.230568 6.605204 366.928485 6.131246 366.001401 6.131246 L 337.532649 6.131246 C 336.834732 6.131246 336.381607 6.605204 336.381607 7.376038 L 336.381607 66.756251 C 336.381607 67.527084 336.834732 68.001043 337.532649 68.001043 L 366.001401 68.001043 C 366.928485 68.001043 367.230568 67.527084 367.230568 66.756251 L 367.230568 59.032292 C 367.230568 58.183334 366.928485 57.7875 366.001401 57.7875 L 346.673275 57.7875 L 346.673275 42.172916 L 361.433693 42.172916 C 362.209734 42.172916 362.662859 41.698957 362.662859 40.849999 L 362.662859 33.204165 C 362.662859 32.355206 362.209734 31.881248 361.433693 31.881248 L 346.673275 31.881248 L 346.673275 16.422913 L 366.001401 16.422913 C 366.928485 16.422913 367.230568 15.876038 367.230568 15.099997 Z M 405.970155 17.271872 C 405.970155 10.001038 402.022238 6.131246 394.829529 6.131246 L 386.183695 6.131246 C 378.912861 6.131246 374.970152 10.001038 374.970152 17.271872 L 374.970152 56.860417 C 374.970152 64.131251 378.912861 68.001043 386.183695 68.001043 L 394.829529 68.001043 C 402.022238 68.001043 405.970155 64.131251 405.970155 56.860417 L 405.970155 48.516666 C 405.970155 47.740624 405.51703 47.271874 404.740988 47.271874 L 397.001404 47.271874 C 396.152446 47.271874 395.772237 47.740624 395.772237 48.516666 L 395.772237 54.688542 C 395.772237 56.7875 394.678487 57.7875 392.678487 57.7875 L 388.657653 57.7875 C 386.63682 57.7875 385.558695 56.7875 385.558695 54.688542 L 385.558695 19.443747 C 385.558695 17.422914 386.558695 16.344788 388.657653 16.344788 L 392.678487 16.344788 C 394.678487 16.344788 395.772237 17.422914 395.772237 19.443747 L 395.772237 25.615623 C 395.772237 26.391664 396.152446 26.860414 397.001404 26.860414 L 404.740988 26.860414 C 405.51703 26.860414 405.970155 26.391664 405.970155 25.615623 Z M 413.386822 6.131246 C 412.615989 6.131246 412.162863 6.605204 412.162863 7.376038 L 412.162863 15.099997 C 412.162863 15.876038 412.615989 16.344788 413.386822 16.344788 L 422.376406 16.344788 L 422.376406 66.756251 C 422.376406 67.620834 422.829531 68.001043 423.600364 68.001043 L 431.64724 68.001043 C 432.496198 68.001043 432.892032 67.620834 432.892032 66.756251 L 432.892032 16.344788 L 441.860783 16.344788 C 442.709741 16.344788 443.084741 15.876038 443.084741 15.099997 L 443.084741 7.376038 C 443.084741 6.605204 442.709741 6.131246 441.860783 6.131246 Z M 460.418076 6.131246 C 453.225367 6.131246 449.282658 10.001038 449.282658 17.271872 L 449.282658 35.527082 C 449.282658 37.00104 449.980575 37.922915 451.355575 38.37604 L 469.68891 44.417707 L 469.68891 54.688542 C 469.68891 56.7875 468.610785 57.7875 466.59516 57.7875 L 462.892034 57.7875 C 460.949326 57.7875 459.798284 56.7875 459.798284 54.688542 L 459.798284 48.740624 C 459.798284 47.891666 459.402451 47.516666 458.548284 47.516666 L 450.506617 47.516666 C 449.735783 47.516666 449.282658 47.891666 449.282658 48.740624 L 449.282658 56.860417 C 449.282658 64.131251 453.225367 68.001043 460.418076 68.001043 L 469.06391 68.001043 C 476.334744 68.001043 480.204536 64.131251 480.204536 56.860417 L 480.204536 39.00104 C 480.204536 37.527082 479.506619 36.678123 478.204536 36.131248 L 459.798284 30.110415 L 459.798284 19.443747 C 459.798284 17.422914 460.949326 16.344788 462.892034 16.344788 L 466.59516 16.344788 C 468.68891 16.344788 469.68891 17.422914 469.68891 19.443747 L 469.68891 25.464581 C 469.68891 26.240623 470.162868 26.709373 470.933702 26.709373 L 478.980577 26.709373 C 479.829536 26.709373 480.204536 26.240623 480.204536 25.464581 L 480.204536 17.271872 C 480.204536 10.001038 476.334744 6.131246 469.06391 6.131246 Z M 460.418076 6.131246 " stroke="#aeabf0" stroke-width="2.900002" stroke-opacity="1" stroke-miterlimit="4"/><path fill="#6660e0" d="M 434.421875 62.363281 L 448.917969 62.363281 L 448.917969 67.613281 L 434.421875 67.613281 Z M 434.421875 62.363281 " fill-opacity="1" fill-rule="nonzero"/><path fill="#aeabf0" d="M 431.859375 59.800781 L 446.355469 59.800781 L 446.355469 65.050781 L 431.859375 65.050781 Z M 431.859375 59.800781 " fill-opacity="1" fill-rule="nonzero"/><g fill="#6660e0" fill-opacity="1"><g transform="translate(434.421579, 59.363263)"><g/></g></g><g clip-path="url(#e6e3d1dd1c)"><path fill="#ffcd6f" d="M 53.851562 15.058594 L 53.851562 55.785156 C 53.851562 57.671875 52.300781 59.214844 50.402344 59.214844 L 17.882812 59.214844 C 15.984375 59.214844 14.429688 57.671875 14.429688 55.785156 L 14.429688 8.167969 C 14.429688 6.28125 15.984375 4.738281 17.882812 4.738281 L 43.46875 4.738281 Z M 53.851562 15.058594 " fill-opacity="1" fill-rule="nonzero"/></g><g clip-path="url(#78ae26acfe)"><path fill="#ffe1a9" d="M 53.851562 15.058594 L 46.53125 14.644531 C 45.105469 14.5625 43.964844 13.429688 43.886719 12.011719 L 43.46875 4.738281 Z M 53.851562 15.058594 " fill-opacity="1" fill-rule="nonzero"/></g><path fill="#8fc28c" d="M 49.257812 20.238281 L 49.257812 60.964844 C 49.257812 62.851562 47.703125 64.394531 45.804688 64.394531 L 13.289062 64.394531 C 11.390625 64.394531 9.835938 62.851562 9.835938 60.964844 L 9.835938 13.347656 C 9.835938 11.460938 11.390625 9.917969 13.289062 9.917969 L 38.875 9.917969 Z M 49.257812 20.238281 " fill-opacity="1" fill-rule="nonzero"/><path fill="#bcdaba" d="M 49.257812 20.238281 L 41.9375 19.824219 C 40.511719 19.742188 39.371094 18.613281 39.289062 17.195312 L 38.875 9.917969 Z M 49.257812 20.238281 " fill-opacity="1" fill-rule="nonzero"/><g clip-path="url(#f9d82e1665)"><path fill="#59818e" d="M 44.527344 25.0625 L 44.527344 65.792969 C 44.527344 67.679688 42.972656 69.222656 41.074219 69.222656 L 8.554688 69.222656 C 6.65625 69.222656 5.105469 67.679688 5.105469 65.792969 L 5.105469 18.175781 C 5.105469 16.289062 6.65625 14.746094 8.554688 14.746094 L 34.140625 14.746094 Z M 44.527344 25.0625 " fill-opacity="1" fill-rule="nonzero"/></g><path fill="#9bb3bb" d="M 44.527344 25.0625 L 37.207031 24.652344 C 35.777344 24.570312 34.640625 23.4375 34.558594 22.019531 L 34.140625 14.746094 Z M 44.527344 25.0625 " fill-opacity="1" fill-rule="nonzero"/><path fill="#dee6e8" d="M 40.273438 37.15625 L 9.355469 37.15625 C 9.191406 37.15625 9.054688 37.023438 9.054688 36.855469 L 9.054688 36.835938 C 9.054688 36.671875 9.191406 36.535156 9.355469 36.535156 L 40.273438 36.535156 C 40.441406 36.535156 40.578125 36.671875 40.578125 36.835938 L 40.578125 36.855469 C 40.578125 37.023438 40.441406 37.15625 40.273438 37.15625 Z M 40.273438 37.15625 " fill-opacity="1" fill-rule="nonzero"/><path fill="#dee6e8" d="M 40.273438 40.933594 L 9.355469 40.933594 C 9.191406 40.933594 9.054688 40.800781 9.054688 40.632812 L 9.054688 40.613281 C 9.054688 40.445312 9.191406 40.3125 9.355469 40.3125 L 40.273438 40.3125 C 40.441406 40.3125 40.578125 40.445312 40.578125 40.613281 L 40.578125 40.632812 C 40.578125 40.800781 40.441406 40.933594 40.273438 40.933594 Z M 40.273438 40.933594 " fill-opacity="1" fill-rule="nonzero"/><path fill="#dee6e8" d="M 40.273438 44.710938 L 9.355469 44.710938 C 9.191406 44.710938 9.054688 44.574219 9.054688 44.410156 L 9.054688 44.386719 C 9.054688 44.222656 9.191406 44.085938 9.355469 44.085938 L 40.273438 44.085938 C 40.441406 44.085938 40.578125 44.222656 40.578125 44.386719 L 40.578125 44.410156 C 40.578125 44.574219 40.441406 44.710938 40.273438 44.710938 Z M 40.273438 44.710938 " fill-opacity="1" fill-rule="nonzero"/><path fill="#dee6e8" d="M 27.671875 48.484375 L 9.367188 48.484375 C 9.195312 48.484375 9.054688 48.347656 9.054688 48.175781 C 9.054688 48.003906 9.195312 47.863281 9.367188 47.863281 L 27.671875 47.863281 C 27.84375 47.863281 27.984375 48.003906 27.984375 48.175781 C 27.984375 48.347656 27.84375 48.484375 27.671875 48.484375 Z M 27.671875 48.484375 " fill-opacity="1" fill-rule="nonzero"/><path fill="#ffcd6f" d="M 40.273438 52.261719 L 9.355469 52.261719 C 9.191406 52.261719 9.054688 52.128906 9.054688 51.960938 L 9.054688 51.941406 C 9.054688 51.773438 9.191406 51.640625 9.355469 51.640625 L 40.273438 51.640625 C 40.441406 51.640625 40.578125 51.773438 40.578125 51.941406 L 40.578125 51.960938 C 40.578125 52.128906 40.441406 52.261719 40.273438 52.261719 Z M 40.273438 52.261719 " fill-opacity="1" fill-rule="nonzero"/><path fill="#dee6e8" d="M 40.273438 56.039062 L 9.355469 56.039062 C 9.191406 56.039062 9.054688 55.902344 9.054688 55.738281 L 9.054688 55.71875 C 9.054688 55.550781 9.191406 55.417969 9.355469 55.417969 L 40.273438 55.417969 C 40.441406 55.417969 40.578125 55.550781 40.578125 55.71875 L 40.578125 55.738281 C 40.578125 55.902344 40.441406 56.039062 40.273438 56.039062 Z M 40.273438 56.039062 " fill-opacity="1" fill-rule="nonzero"/><path fill="#dee6e8" d="M 40.273438 59.816406 L 9.355469 59.816406 C 9.191406 59.816406 9.054688 59.679688 9.054688 59.515625 L 9.054688 59.492188 C 9.054688 59.328125 9.191406 59.191406 9.355469 59.191406 L 40.273438 59.191406 C 40.441406 59.191406 40.578125 59.328125 40.578125 59.492188 L 40.578125 59.515625 C 40.578125 59.679688 40.441406 59.816406 40.273438 59.816406 Z M 40.273438 59.816406 " fill-opacity="1" fill-rule="nonzero"/><path fill="#dee6e8" d="M 40.261719 33.382812 L 9.367188 33.382812 C 9.195312 33.382812 9.054688 33.242188 9.054688 33.070312 C 9.054688 32.898438 9.195312 32.757812 9.367188 32.757812 L 40.261719 32.757812 C 40.4375 32.757812 40.578125 32.898438 40.578125 33.070312 C 40.578125 33.242188 40.4375 33.382812 40.261719 33.382812 Z M 40.261719 33.382812 " fill-opacity="1" fill-rule="nonzero"/><path fill="#dee6e8" d="M 40.261719 29.605469 L 9.367188 29.605469 C 9.195312 29.605469 9.054688 29.464844 9.054688 29.292969 C 9.054688 29.121094 9.195312 28.984375 9.367188 28.984375 L 40.261719 28.984375 C 40.4375 28.984375 40.578125 29.121094 40.578125 29.292969 C 40.578125 29.464844 40.4375 29.605469 40.261719 29.605469 Z M 40.261719 29.605469 " fill-opacity="1" fill-rule="nonzero"/><path fill="#dee6e8" d="M 35.773438 25.828125 L 9.367188 25.828125 C 9.195312 25.828125 9.054688 25.691406 9.054688 25.519531 C 9.054688 25.347656 9.195312 25.207031 9.367188 25.207031 L 35.773438 25.207031 C 35.945312 25.207031 36.085938 25.347656 36.085938 25.519531 C 36.085938 25.691406 35.945312 25.828125 35.773438 25.828125 Z M 35.773438 25.828125 " fill-opacity="1" fill-rule="nonzero"/><path fill="#ffcd6f" d="M 32.601562 22.054688 L 9.367188 22.054688 C 9.195312 22.054688 9.054688 21.914062 9.054688 21.742188 C 9.054688 21.570312 9.195312 21.429688 9.367188 21.429688 L 32.601562 21.429688 C 32.773438 21.429688 32.914062 21.570312 32.914062 21.742188 C 32.914062 21.914062 32.773438 22.054688 32.601562 22.054688 Z M 32.601562 22.054688 " fill-opacity="1" fill-rule="nonzero"/><path fill="#dee6e8" d="M 27.414062 63.589844 L 9.113281 63.589844 C 8.9375 63.589844 8.796875 63.453125 8.796875 63.28125 C 8.796875 63.109375 8.9375 62.96875 9.113281 62.96875 L 27.414062 62.96875 C 27.589844 62.96875 27.726562 63.109375 27.726562 63.28125 C 27.730469 63.453125 27.589844 63.589844 27.414062 63.589844 Z M 27.414062 63.589844 " fill-opacity="1" fill-rule="nonzero"/><path fill="#fefefe" d="M 44.539062 68.992188 L 44.539062 65.46875 L 42.976562 65.46875 L 42.976562 62.335938 L 41.414062 62.335938 L 41.414062 59.203125 L 39.851562 59.203125 L 39.851562 55.675781 L 37.894531 55.675781 L 37.894531 54.109375 L 36.332031 54.109375 L 36.332031 50.976562 L 39.851562 50.976562 L 39.851562 52.542969 L 41.414062 52.542969 L 41.414062 57.242188 L 42.976562 57.242188 L 42.976562 36.09375 L 46.105469 36.09375 L 46.105469 50.976562 L 47.667969 50.976562 L 47.667969 44.316406 L 51.183594 44.316406 L 51.183594 50.976562 L 52.75 50.976562 L 52.75 45.882812 L 55.875 45.882812 L 55.875 52.542969 L 57.4375 52.542969 L 57.4375 47.449219 L 59.394531 47.449219 L 59.394531 49.410156 L 60.957031 49.410156 L 60.957031 60.769531 L 59.394531 60.769531 L 59.394531 65.46875 L 57.4375 65.46875 L 57.4375 68.992188 Z M 44.539062 68.992188 " fill-opacity="1" fill-rule="nonzero"/><g clip-path="url(#f466615142)"><path fill="#000000" d="M 42.976562 70.558594 L 42.976562 65.46875 L 41.414062 65.46875 L 41.414062 62.335938 L 39.851562 62.335938 L 39.851562 59.203125 L 37.894531 59.203125 L 37.894531 55.675781 L 36.332031 55.675781 L 36.332031 54.109375 L 34.769531 54.109375 L 34.769531 49.410156 L 39.851562 49.410156 L 39.851562 50.976562 L 41.414062 50.976562 L 41.414062 36.09375 L 42.976562 36.09375 L 42.976562 34.527344 L 46.105469 34.527344 L 46.105469 36.09375 L 47.667969 36.09375 L 47.667969 42.75 L 51.183594 42.75 L 51.183594 44.316406 L 55.875 44.316406 L 55.875 45.882812 L 59.394531 45.882812 L 59.394531 47.449219 L 60.957031 47.449219 L 60.957031 49.410156 L 62.519531 49.410156 L 62.519531 60.769531 L 60.957031 60.769531 L 60.957031 65.46875 L 59.394531 65.46875 L 59.394531 70.558594 Z M 57.4375 68.992188 L 57.4375 65.46875 L 59.394531 65.46875 L 59.394531 60.769531 L 60.957031 60.769531 L 60.957031 49.410156 L 59.394531 49.410156 L 59.394531 47.449219 L 57.4375 47.449219 L 57.4375 52.542969 L 55.875 52.542969 L 55.875 45.882812 L 52.75 45.882812 L 52.75 50.976562 L 51.183594 50.976562 L 51.183594 44.316406 L 47.667969 44.316406 L 47.667969 50.976562 L 46.105469 50.976562 L 46.105469 36.09375 L 42.976562 36.09375 L 42.976562 57.242188 L 41.414062 57.242188 L 41.414062 52.542969 L 39.851562 52.542969 L 39.851562 50.976562 L 36.332031 50.976562 L 36.332031 54.109375 L 37.894531 54.109375 L 37.894531 55.675781 L 39.851562 55.675781 L 39.851562 59.203125 L 41.414062 59.203125 L 41.414062 62.335938 L 42.976562 62.335938 L 42.976562 65.46875 L 44.539062 65.46875 L 44.539062 68.992188 Z M 57.4375 68.992188 " fill-opacity="1" fill-rule="nonzero"/></g></svg>