<?xml version="1.0" encoding="UTF-8" standalone="no"?><!-- Generator: Gravit.io --><svg xmlns="http://www.w3.org/2000/svg" xmlns:xlink="http://www.w3.org/1999/xlink" style="isolation:isolate" viewBox="0 0 32 32" width="32pt" height="32pt"><defs><clipPath id="_clipPath_VCigNfiSa8PrzxUL3rfPxBDus7MKQHHo"><rect width="32" height="32"/></clipPath></defs><g clip-path="url(#_clipPath_VCigNfiSa8PrzxUL3rfPxBDus7MKQHHo)"><path d=" M 21.888 21.709 C 25.421 17.229 28.749 11.494 30.234 8.704 L 30.234 8.704 C 31.36 10.88 32 13.363 32 16 C 32 24.832 24.832 32 16 32 C 7.168 32 0 24.832 0 16 C 0 14.336 0.256 12.723 0.717 11.238 L 0.717 11.238 C 1.229 11.904 2.304 12.365 3.738 12.39 L 3.84 12.39 C 6.554 12.39 12.57 9.779 12.57 9.779 C 12.57 9.779 11.494 11.366 10.035 13.568 C 9.088 15.002 8.346 16.819 8.346 17.946 C 8.346 18.56 8.55 18.97 9.011 19.072 C 9.088 19.072 9.165 19.098 9.242 19.098 C 10.624 19.098 12.723 16.845 14.515 15.053 C 13.517 16.742 12.467 19.046 11.853 21.248 C 11.853 21.248 11.853 21.248 11.853 21.248 Q 11.494 22.605 11.392 23.424 Q 11.392 23.424 11.392 23.424 C 11.315 23.885 11.29 24.294 11.29 24.704 C 11.29 26.624 12.032 27.981 13.978 27.981 C 14.131 27.981 14.285 27.955 14.438 27.955 C 16.077 27.802 18.099 26.138 20.147 23.834 C 20.147 23.834 20.147 23.834 20.147 23.834 L 20.147 23.834 Q 20.429 23.578 21.888 21.709 L 21.888 21.709 Z  M 21.274 21.376 C 21.274 21.376 21.274 21.376 21.274 21.376 C 22.733 19.584 24.218 17.485 25.523 15.36 C 28.083 11.162 28.698 8.371 29.03 6.733 C 26.138 2.662 21.376 0 16 0 C 8.934 0 2.918 4.608 0.819 10.957 C 1.075 11.341 1.536 11.725 2.33 11.981 C 2.586 12.083 2.867 12.109 3.2 12.109 C 6.579 12.109 14.106 8.192 14.976 8.192 C 15.027 8.192 15.027 8.192 15.053 8.218 C 15.206 8.32 15.309 8.448 15.309 8.627 C 15.309 8.986 14.976 9.6 13.926 10.982 C 12.39 13.005 9.933 17.024 9.933 17.894 C 9.933 17.946 9.958 18.022 9.984 18.048 C 9.984 18.048 10.01 18.048 10.035 18.048 C 10.675 18.048 15.13 13.773 16.563 12.39 C 16.563 12.39 17.101 11.648 17.485 11.648 L 17.536 11.648 C 17.69 11.674 17.715 11.93 17.715 12.262 C 17.715 12.8 17.613 13.491 17.613 13.491 C 16.768 14.336 14.797 18.176 13.747 21.504 C 13.747 21.504 13.747 21.504 13.747 21.504 Q 13.747 21.504 13.747 21.504 Q 13.466 22.374 13.184 23.808 C 13.184 23.808 13.184 23.808 13.184 23.782 C 13.107 24.243 13.082 24.653 13.082 25.037 C 13.082 25.779 13.235 26.368 13.645 26.624 C 13.85 26.778 14.131 26.88 14.413 26.88 C 15.718 26.88 17.613 25.421 19.661 23.219 L 19.661 23.219 L 19.661 23.219 C 19.661 23.219 19.661 23.219 19.661 23.219 L 19.661 23.219 Q 20.71 22.093 21.274 21.376 Z " fill="rgb(0,0,0)"/></g></svg>