<?xml version="1.0" encoding="UTF-8" standalone="no"?><!-- Generator: Gravit.io --><svg xmlns="http://www.w3.org/2000/svg" xmlns:xlink="http://www.w3.org/1999/xlink" style="isolation:isolate" viewBox="0 0 128 42" width="128pt" height="42pt"><defs><clipPath id="_clipPath_TNBugvwhtWoXeJhc35nk4TXKQjr52uAA"><rect width="128" height="42"/></clipPath></defs><g clip-path="url(#_clipPath_TNBugvwhtWoXeJhc35nk4TXKQjr52uAA)"><circle vector-effect="non-scaling-stroke" cx="72.43897327139906" cy="21.000000000000004" r="16.669656779401816" fill="rgb(166,166,166)" stroke-width="2" stroke="rgb(166,166,166)" stroke-linejoin="miter" stroke-linecap="square" stroke-miterlimit="3"/><g><path d=" M 78.581 26.959 C 82.241 22.277 85.727 16.297 87.277 13.398 L 87.277 13.398 C 88.447 15.679 89.109 18.263 89.109 21 C 89.109 30.2 81.639 37.67 72.439 37.67 C 63.239 37.67 55.769 30.2 55.769 21 C 55.769 19.267 56.034 17.596 56.529 16.026 L 56.529 16.026 C 57.05 16.741 58.172 17.21 59.676 17.236 L 59.773 17.236 C 62.601 17.236 68.864 14.517 68.864 14.517 C 68.864 14.517 67.735 16.18 66.23 18.462 C 65.235 19.967 64.458 21.848 64.458 23.038 C 64.458 23.657 64.665 24.094 65.162 24.191 C 65.235 24.203 65.32 24.215 65.393 24.215 C 66.849 24.215 69.022 21.885 70.903 20.004 C 69.843 21.773 68.753 24.184 68.109 26.477 C 68.109 26.477 68.109 26.477 68.109 26.477 Q 67.734 27.884 67.625 28.743 Q 67.625 28.743 67.625 28.743 C 67.563 29.204 67.529 29.648 67.529 30.065 C 67.529 32.068 68.294 33.476 70.333 33.476 C 70.491 33.476 70.649 33.464 70.818 33.452 C 72.524 33.283 74.616 31.567 76.75 29.166 C 76.75 29.166 76.75 29.166 76.75 29.166 L 76.75 29.166 Q 77.053 28.882 78.581 26.959 L 78.581 26.959 Z  M 77.929 26.599 C 77.929 26.599 77.929 26.599 77.929 26.599 C 79.463 24.721 81 22.545 82.361 20.331 C 85.039 15.965 85.664 13.051 86.018 11.332 C 82.993 7.095 78.036 4.33 72.439 4.33 C 65.071 4.33 58.813 9.121 56.613 15.755 C 56.882 16.149 57.373 16.539 58.196 16.824 C 58.45 16.908 58.754 16.945 59.094 16.945 C 62.626 16.945 70.466 12.867 71.377 12.867 C 71.413 12.867 71.437 12.867 71.449 12.879 C 71.607 13 71.717 13.122 71.717 13.328 C 71.717 13.692 71.365 14.323 70.272 15.78 C 68.682 17.892 66.121 22.055 66.121 22.965 C 66.121 23.038 66.133 23.099 66.17 23.123 C 66.182 23.135 66.206 23.135 66.218 23.135 C 66.886 23.135 71.534 18.693 73.027 17.248 C 73.027 17.248 73.598 16.472 73.998 16.472 L 74.035 16.472 C 74.193 16.496 74.229 16.763 74.229 17.103 C 74.229 17.661 74.108 18.377 74.108 18.377 C 73.229 19.255 71.187 23.26 70.098 26.746 C 70.098 26.746 70.098 26.746 70.098 26.746 Q 70.098 26.746 70.098 26.746 Q 69.812 27.651 69.504 29.124 C 69.505 29.123 69.507 29.122 69.509 29.121 C 69.43 29.591 69.386 30.028 69.386 30.417 C 69.386 31.194 69.556 31.789 69.981 32.08 C 70.211 32.238 70.491 32.323 70.794 32.323 C 72.143 32.323 74.128 30.817 76.251 28.531 L 76.251 28.531 L 76.251 28.531 C 76.251 28.531 76.251 28.531 76.251 28.531 L 76.251 28.531 Q 77.351 27.355 77.929 26.599 Z " fill-rule="evenodd" fill="rgb(102,96,224)"/></g><path d=" M 16.277 26.019 C 15.565 25.815 15.145 25.713 15.145 25.713 L 16.71 25.267 L 16.277 26.019 Z  M 41.35 27.995 C 41.049 30.706 40.391 34.811 37.325 35.772 C 36.227 36.116 35.036 35.945 33.951 35.641 C 32.585 35.259 31.298 34.622 30.058 33.945 C 27.924 32.777 25.904 31.412 23.854 30.105 C 22.022 28.938 20.238 27.608 18.201 26.827 C 18.265 26.72 18.319 26.63 18.314 26.629 C 18.733 25.917 19.153 25.204 19.561 24.53 C 22.309 23.868 28.507 22.748 32.12 19.63 C 33.558 18.383 34.423 16.728 34.423 15.074 C 34.423 11.957 31.319 8.839 23.086 8.521 C 22.513 8.495 21.953 8.495 21.406 8.495 C 9.979 8.495 4.685 13.039 3.184 14.833 C 2.293 15.889 2 17.225 2 18.243 C 2 19.018 2.177 19.603 2.394 19.693 C 2.383 19.665 2.217 19.213 2.217 18.51 C 2.217 16.882 3.107 13.853 8.846 11.283 C 12.409 9.679 16.481 9.03 20.185 9.03 C 25.16 9.03 29.499 10.188 31.141 11.716 C 32.032 12.542 32.541 13.637 32.541 14.833 C 32.541 17.505 29.983 20.712 23.328 22.722 C 23.328 22.722 21.546 23.218 20.07 23.664 C 21.1 21.908 21.418 21.348 22.322 19.897 C 22.754 19.197 23.722 18.154 23.722 17.404 C 23.722 17.238 23.684 17.085 23.569 16.958 C 23.175 16.5 22.819 16.347 22.5 16.347 C 21.965 16.347 21.609 16.78 21.609 16.78 C 21.139 17.556 19.001 21.246 17.016 24.733 C 16.507 24.822 15.858 24.95 15.005 25.115 C 14.318 25.254 13.822 25.306 13.389 25.306 C 12.18 25.306 11.531 24.873 8.885 24.593 C 8.592 24.567 8.325 24.555 8.096 24.555 C 6.849 24.555 6.39 24.937 6.39 25.369 C 6.39 25.853 6.975 26.4 7.675 26.515 C 7.84 26.54 8.019 26.553 8.21 26.553 C 9.585 26.553 11.493 25.967 12.956 25.967 L 13.173 25.967 C 13.656 25.993 14.636 26.209 15.96 26.578 C 14.534 29.097 13.376 31.185 13.313 31.414 C 13.3 31.464 13.287 31.528 13.287 31.592 C 13.287 32.215 13.898 33.17 14.191 33.208 C 14.365 33.208 16.069 30.419 17.886 27.36 C 17.902 27.373 17.919 27.383 17.941 27.391 C 20.706 28.437 23.187 30.313 25.659 31.901 C 28.161 33.508 30.742 35.5 33.608 36.386 C 35.393 36.937 37.363 37.016 38.899 35.809 C 39.759 35.133 40.318 33.777 40.731 32.784 C 41.359 31.27 41.445 29.615 41.625 27.995 C 41.658 27.701 41.382 27.705 41.35 27.995 Z " fill="rgb(166,166,166)"/><path d=" M 87.598 22.612 L 87.332 22.829 C 87.348 22.879 87.348 22.929 87.365 22.962 C 87.448 22.845 87.531 22.729 87.598 22.612 Z  M 86.55 22.147 C 86.334 22.147 86.085 22.23 85.819 22.513 C 85.32 23.062 85.021 23.693 85.021 23.959 C 85.021 24.026 85.037 24.059 85.071 24.076 L 85.087 24.076 C 85.237 24.076 86.201 23.344 87.132 22.612 C 87.016 22.347 86.866 22.23 86.733 22.164 C 86.683 22.147 86.617 22.147 86.55 22.147 Z  M 86.766 26.204 C 88.928 24.907 90.574 23.111 91.388 22.43 L 91.555 22.496 C 91.555 22.513 86.883 27.417 85.47 27.417 C 85.387 27.417 85.32 27.401 85.254 27.367 C 85.187 27.317 85.154 27.218 85.154 27.101 C 85.154 26.353 86.351 24.458 87.298 23.062 C 87.282 22.995 87.265 22.945 87.249 22.895 L 86.85 23.211 C 86.018 23.893 84.688 24.907 84.322 24.973 L 84.223 24.973 C 83.874 24.973 83.375 24.74 83.375 24.059 L 83.375 24.026 C 83.375 23.278 84.173 21.499 85.32 21.166 C 85.503 21.117 85.653 21.1 85.802 21.1 C 86.052 21.1 86.251 21.166 86.417 21.266 L 86.434 21.283 C 86.816 21.532 87.082 22.08 87.232 22.529 C 87.564 22.28 87.88 22.031 88.163 21.814 C 88.346 21.565 88.462 21.399 88.462 21.399 C 88.645 21.117 88.844 21 89.027 21 C 89.327 21 89.543 21.316 89.543 21.715 L 89.543 21.831 C 89.543 21.848 87.182 25.09 86.766 26.204 Z " fill="rgb(166,166,166)"/><path d=" M 92.252 20.169 C 92.302 20.135 92.369 20.119 92.435 20.119 C 92.751 20.119 93.266 20.418 93.399 20.75 L 93.399 20.767 C 93.399 21 92.302 22.23 92.302 22.297 C 92.385 22.297 93.134 21.549 93.732 21.183 C 94.048 21 94.314 20.933 94.53 20.933 C 94.829 20.933 95.062 21.05 95.245 21.1 C 95.478 21.183 95.561 21.266 95.744 21.266 C 95.827 21.266 95.91 21.249 96.043 21.216 C 96.159 21.183 96.243 21.166 96.309 21.166 C 96.542 21.166 96.625 21.283 96.625 21.283 C 96.625 21.283 96.575 21.266 96.492 21.266 C 96.375 21.266 96.226 21.283 95.993 21.382 C 95.91 21.416 95.827 21.432 95.744 21.432 C 95.461 21.432 95.145 21.299 94.729 21.299 C 94.563 21.299 94.364 21.316 94.148 21.399 C 93.3 21.698 91.272 24.192 90.923 24.441 C 90.756 24.558 90.54 24.624 90.324 24.624 C 90.091 24.624 89.858 24.524 89.758 24.308 C 89.742 24.275 89.725 24.225 89.725 24.159 C 89.725 23.627 90.507 22.43 90.906 21.864 C 91.355 21.233 91.787 20.451 92.252 20.169 Z " fill="rgb(166,166,166)"/><g style="isolation:isolate"><path d=" M 55.739 17.63 C 56.232 17.63 56.509 18.092 56.509 18.447 C 56.509 18.585 56.463 18.708 56.386 18.77 C 56.063 19.032 55.878 18.94 55.246 19.494 C 55.138 19.602 54.953 19.802 54.737 20.064 C 56.633 19.926 59.298 19.71 60.254 19.71 C 60.454 19.71 60.577 19.725 60.608 19.741 C 60.639 19.772 60.67 19.818 60.67 19.88 C 60.67 20.188 60.146 20.85 59.93 20.943 C 59.776 21.004 59.668 21.004 59.607 21.004 L 59.545 21.004 C 59.545 21.004 59.206 20.465 58.066 20.373 C 57.942 20.357 57.804 20.357 57.619 20.357 C 56.833 20.357 55.539 20.434 54.368 20.527 C 52.996 22.268 50.639 25.535 50.238 26.197 C 50.176 26.289 50.161 26.351 50.161 26.397 C 50.161 26.444 50.176 26.459 50.223 26.459 C 50.438 26.459 51.086 26.089 51.856 25.627 C 53.104 24.903 54.075 24.178 54.152 24.132 C 54.167 24.117 54.183 24.117 54.198 24.117 C 54.244 24.117 54.275 24.163 54.275 24.163 C 53.536 24.841 51.456 26.659 49.899 26.968 C 49.776 26.998 49.683 26.998 49.591 26.998 C 49.113 26.998 49.19 26.613 49.144 26.289 L 49.144 26.274 C 49.144 26.074 49.576 25.242 49.776 24.934 C 50.947 23.254 51.81 22.037 52.827 20.634 C 52.395 20.665 52.056 20.681 51.887 20.681 C 51.101 20.712 50.731 20.804 50.423 20.835 C 50.099 20.866 49.452 21.05 49.252 21.282 C 49.144 21.405 49.052 21.436 48.99 21.436 C 48.928 21.436 48.882 21.405 48.882 21.405 C 48.882 21.405 48.79 21.112 48.79 20.819 C 48.79 20.65 48.821 20.48 48.928 20.388 C 49.129 20.203 50.346 20.188 51.456 20.188 L 52.796 20.188 C 52.888 20.188 53.012 20.172 53.166 20.172 L 53.613 19.556 C 53.905 19.155 54.029 19.047 54.568 18.354 C 55.107 17.645 55.6 17.645 55.6 17.645 C 55.646 17.63 55.693 17.63 55.739 17.63 Z " fill="rgb(166,166,166)"/><path d=" M 46.633 21.96 C 46.679 21.929 46.741 21.913 46.802 21.913 C 47.095 21.913 47.573 22.191 47.696 22.499 L 47.696 22.514 C 47.696 22.73 46.679 23.87 46.679 23.932 C 46.756 23.932 47.449 23.238 48.004 22.9 C 48.297 22.73 48.543 22.668 48.744 22.668 C 49.021 22.668 49.237 22.776 49.406 22.823 C 49.622 22.9 49.699 22.977 49.869 22.977 C 49.946 22.977 50.023 22.961 50.146 22.93 C 50.254 22.9 50.331 22.884 50.392 22.884 C 50.608 22.884 50.685 22.992 50.685 22.992 C 50.685 22.992 50.639 22.977 50.562 22.977 C 50.454 22.977 50.315 22.992 50.1 23.084 C 50.023 23.115 49.946 23.131 49.869 23.131 C 49.607 23.131 49.314 23.007 48.929 23.007 C 48.775 23.007 48.59 23.023 48.389 23.1 C 47.604 23.377 45.724 25.689 45.4 25.92 C 45.246 26.027 45.046 26.089 44.845 26.089 C 44.63 26.089 44.414 25.997 44.322 25.796 C 44.306 25.766 44.291 25.719 44.291 25.658 C 44.291 25.165 45.015 24.055 45.385 23.531 C 45.801 22.946 46.201 22.222 46.633 21.96 Z " fill="rgb(166,166,166)"/><path d=" M 43.536 23.285 C 43.536 23.208 43.49 23.146 43.397 23.146 C 43.382 23.146 43.351 23.146 43.32 23.161 C 42.935 23.269 42.519 23.762 42.519 23.762 C 43.274 23.747 43.536 23.454 43.536 23.285 Z  M 41.256 25.642 C 41.256 25.766 41.332 25.796 41.41 25.812 C 41.641 25.812 45.108 24.04 45.108 24.04 L 45.308 24.055 C 45.308 24.055 41.872 25.966 41.24 26.212 C 41.148 26.243 41.055 26.259 40.963 26.259 C 40.654 26.259 40.362 26.074 40.362 25.658 C 40.362 25.288 40.578 24.733 41.194 23.978 C 41.98 23.023 42.735 22.684 43.259 22.684 C 43.705 22.684 43.998 22.93 43.998 23.223 C 43.998 23.285 43.983 23.331 43.967 23.393 C 43.705 24.117 42.242 24.178 42.242 24.178 C 41.471 25.072 41.256 25.458 41.256 25.642 Z " fill="rgb(166,166,166)"/><path d=" M 41.456 18.369 C 41.302 18.369 41.025 18.462 40.655 18.924 C 40.085 19.648 37.095 24.148 37.095 24.148 C 37.095 24.148 38.174 22.838 39.299 22.838 C 39.36 22.838 39.422 22.838 39.484 22.853 C 39.931 22.915 40.131 23.362 40.131 23.932 C 40.131 24.872 39.576 26.12 38.682 26.305 C 38.528 26.336 38.405 26.351 38.282 26.351 C 37.373 26.351 37.249 25.535 37.249 25.072 C 37.249 24.903 37.265 24.779 37.265 24.779 C 37.265 24.779 37.326 24.733 37.357 24.733 C 37.388 24.733 37.404 24.749 37.404 24.795 L 37.404 24.887 C 37.404 25.226 37.604 25.719 37.866 25.781 C 37.897 25.781 37.927 25.796 37.943 25.796 C 38.374 25.796 38.929 25.18 38.929 24.517 L 38.929 24.487 C 38.914 24.132 38.76 23.886 38.421 23.886 C 38.051 23.886 37.481 24.178 36.648 24.995 C 36.648 24.995 35.2 27.414 35.092 27.661 C 35.031 27.815 35.031 27.923 35.031 27.984 L 35.031 28.046 C 35.031 28.046 34.214 27.83 34.214 27.276 C 34.214 27.183 34.229 27.075 34.291 26.968 C 34.676 26.166 36.833 22.437 37.388 21.605 C 37.943 20.758 38.59 19.71 38.914 19.248 C 39.237 18.77 39.961 18.046 40.269 17.722 C 40.377 17.614 40.531 17.568 40.701 17.568 C 41.071 17.568 41.502 17.815 41.579 18.4 C 41.579 18.4 41.533 18.369 41.456 18.369 Z " fill="rgb(166,166,166)"/><path d=" M 33.736 24.086 C 33.767 24.025 33.767 23.978 33.767 23.947 C 33.767 23.886 33.736 23.855 33.69 23.855 C 33.536 23.855 33.259 24.04 33.043 24.256 C 32.704 24.61 32.596 25.211 32.596 25.211 C 32.596 25.211 33.582 24.502 33.736 24.086 Z  M 33.567 24.98 C 33.105 25.504 32.596 26.166 31.918 26.166 C 31.872 26.166 31.81 26.151 31.764 26.151 C 31.333 26.074 31.025 25.75 31.025 25.226 C 31.025 24.872 31.163 24.425 31.502 23.917 C 32.319 22.668 33.151 22.345 33.844 22.299 L 33.891 22.299 C 34.384 22.299 34.569 22.715 34.569 23.1 C 34.569 23.238 34.538 23.362 34.507 23.47 L 34.491 23.516 C 34.707 23.624 34.938 23.655 35.154 23.655 C 35.57 23.655 35.94 23.516 35.94 23.516 L 36.032 23.547 C 35.663 23.763 35.323 23.84 35.031 23.84 C 34.769 23.84 34.553 23.778 34.384 23.716 C 34.26 23.886 34.153 23.886 34.153 23.886 C 34.153 23.886 34.06 24.425 33.567 24.98 Z " fill="rgb(166,166,166)"/></g><path d=" M 97.954 20.967 C 98.27 20.967 98.569 21.05 98.636 21.2 L 98.636 21.233 C 98.636 21.598 97.339 23.061 97.339 23.061 C 97.339 23.061 98.22 22.396 99.168 21.715 C 99.667 21.366 100.049 21.216 100.348 21.216 C 100.615 21.216 100.798 21.349 100.914 21.565 C 100.93 21.598 100.93 21.632 100.93 21.665 C 100.93 22.214 99.733 23.693 99.733 23.843 L 99.733 23.86 C 99.75 23.876 99.783 23.893 99.816 23.893 C 100.016 23.893 100.481 23.693 101.196 23.228 C 101.961 22.746 102.377 22.513 102.46 22.513 C 102.476 22.513 102.476 22.513 102.476 22.529 C 102.46 22.596 99.916 24.441 98.969 24.441 C 98.852 24.441 98.769 24.425 98.703 24.358 C 98.619 24.258 98.586 24.142 98.586 23.992 C 98.586 23.327 99.351 22.263 99.351 22.097 C 99.351 22.081 99.334 22.081 99.334 22.081 L 99.301 22.081 C 98.985 22.197 96.309 24.591 96.309 24.591 L 96.259 24.591 C 96.159 24.591 95.843 24.574 95.544 24.358 C 95.511 24.342 95.494 24.292 95.494 24.242 C 95.494 23.627 97.173 21.283 97.173 21.283 C 97.306 21.05 97.639 20.967 97.954 20.967 Z " fill="rgb(166,166,166)"/><path d=" M 104.887 21.598 C 104.887 21.515 104.837 21.449 104.737 21.449 C 104.721 21.449 104.687 21.449 104.654 21.466 C 104.238 21.582 103.789 22.114 103.789 22.114 C 104.604 22.097 104.887 21.781 104.887 21.598 Z  M 102.426 24.142 C 102.426 24.275 102.509 24.308 102.593 24.325 C 102.842 24.325 106.583 22.413 106.583 22.413 L 106.799 22.43 C 106.799 22.43 103.092 24.491 102.41 24.757 C 102.31 24.791 102.21 24.807 102.111 24.807 C 101.778 24.807 101.462 24.607 101.462 24.159 C 101.462 23.76 101.695 23.161 102.36 22.347 C 103.208 21.316 104.022 20.95 104.588 20.95 C 105.07 20.95 105.386 21.216 105.386 21.532 C 105.386 21.598 105.369 21.648 105.353 21.715 C 105.07 22.496 103.49 22.563 103.49 22.563 C 102.659 23.527 102.426 23.943 102.426 24.142 Z " fill="rgb(166,166,166)"/><path d=" M 111.919 15.497 C 112.052 15.497 112.218 15.547 112.418 15.663 C 112.817 15.913 112.917 16.494 112.917 16.677 L 112.917 16.744 C 112.9 16.744 112.9 16.727 112.9 16.727 C 112.883 16.694 112.833 16.677 112.783 16.677 C 112.617 16.677 112.301 16.811 111.886 17.209 C 111.304 17.741 108.311 22.014 108.311 22.014 C 108.943 21.466 109.691 21.166 110.19 21.166 C 110.506 21.166 110.706 21.283 110.706 21.549 L 110.706 21.598 C 110.639 22.313 108.378 23.145 108.378 23.411 C 108.394 23.56 108.528 23.627 108.76 23.627 C 108.943 23.627 109.192 23.593 109.508 23.51 C 110.24 23.327 112.102 22.38 112.102 22.38 L 112.218 22.463 C 112.218 22.463 109.242 24.192 108.211 24.192 C 108.095 24.192 108.012 24.175 107.946 24.125 C 107.746 23.959 107.68 23.776 107.68 23.61 C 107.68 23.261 107.929 22.962 107.929 22.962 C 108.81 22.646 109.242 22.147 109.242 21.914 C 109.242 21.831 109.209 21.798 109.109 21.798 C 109.043 21.798 108.993 21.798 108.91 21.831 C 108.228 22.08 106.549 24.607 106.034 24.84 C 105.951 24.874 105.868 24.89 105.801 24.89 C 105.469 24.89 105.336 24.508 105.269 24.325 L 105.269 24.308 C 105.269 23.992 107.464 20.917 108.045 20.219 C 108.661 19.487 108.91 18.805 109.259 18.456 C 109.625 18.107 109.741 18.007 109.974 17.642 C 110.207 17.259 111.354 15.713 111.354 15.713 C 111.536 15.597 111.703 15.497 111.919 15.497 Z " fill="rgb(166,166,166)"/><path d=" M 114.213 21.465 C 114.246 21.449 114.28 21.449 114.296 21.449 C 114.396 21.449 114.446 21.516 114.446 21.598 C 114.446 21.782 114.163 22.097 113.349 22.114 C 113.349 22.114 113.797 21.582 114.213 21.465 Z  M 125.972 22.72 C 125.252 21.827 124.331 21.128 123.177 21.022 C 121.956 20.91 120.718 21.247 119.61 21.707 C 117.205 22.708 114.794 24.8 112.06 24.293 L 112.059 24.293 C 112.016 24.268 111.985 24.223 111.985 24.142 C 111.985 23.943 112.218 23.527 113.049 22.562 C 113.049 22.562 114.629 22.496 114.912 21.715 C 114.929 21.649 114.944 21.598 114.944 21.533 C 114.944 21.216 114.629 20.95 114.147 20.95 C 113.581 20.95 112.766 21.315 111.919 22.346 C 111.254 23.161 111.021 23.76 111.021 24.159 C 111.021 24.564 111.161 24.724 111.447 24.89 C 113.835 25.73 116.55 23.606 118.674 22.622 C 119.879 22.065 121.143 21.505 122.481 21.384 C 123.831 21.263 124.966 21.851 125.801 22.889 C 125.898 23.009 126.067 22.839 125.972 22.72 Z " fill="rgb(166,166,166)"/><g style="isolation:isolate"/></g></svg>