<svg xmlns="http://www.w3.org/2000/svg" style="isolation:isolate" viewBox="0 0 128 42" width="128pt" height="56"><defs><clipPath id="a"><path d="M0 0h128v42H0z"/></clipPath></defs><g clip-path="url(#a)"><path d="m49.315 21.7 1.24-.504 2.725-.282c-1.097 1.254-2.1 2.716-3.008 4.106-.327.5-.817 1.188-.621 1.81.185.59 1.084.174 1.46.025 1.229-.485 2.786-1.469 3.594-2.5-.401.093-.71.389-1.053.601-.88.547-1.994 1.453-3.036 1.634l1.027-1.57 2.27-3.019.98-1.145.866-.062c0 3.838 1.047 7.465 3.437 10.565 5.587 7.248 16.617 8.746 24.01 3.247 2.284-1.699 4.005-3.877 5.25-6.386.316-.635.568-1.317.777-1.992.113-.365.159-.833.386-1.148.527-.728 1.094-.001 1.765-.462 1.196-.822 1.849-2.416 3.284-2.95.472-.177.889.004 1.363.025.334.015.656-.108.992-.114v-.06c-.321-.074-.612.027-.93-.014-.382-.049-.721-.27-1.115-.28-.827-.023-1.607.755-2.169 1.26.243-.38.958-.926.957-1.39 0-.656-.996-.768-1.38-.41-.697.65-1.278 1.65-1.754 2.463-.302.515-.465 1.034-.982 1.389.4-1.507.416-3.229.258-4.77-.23-2.236-.848-4.414-1.95-6.4C84.036 6.302 75.337 2.988 67.53 5.42c-4.05 1.26-7.623 4.122-9.647 7.767-.547.987-1.01 2.01-1.36 3.08-.155.47-.182 1.209-.464 1.613-.188.27-.655.396-.903.638-.512.499-1.01 1.687-1.692 1.938-.236.087-.556.037-.804.037-.821 0-1.663-.052-2.478.043-.267.031-.633-.014-.822.217-.2.244-.099.669-.046.947M66.6 23.39c-.137-.685.422-1.464.729-2.052.937-1.798 2.129-3.51 3.353-5.132.436-.577.921-1.161 1.236-1.811.117-.24.291-.53.127-.787-.24-.375-.725-.123-1.046.002-.913.355-1.822.718-2.726 1.096-2.463 1.03-5.072 2.172-7.744 2.543-1.099.152-2.572.099-3.318-.867-.375-.485.461-1.764.7-2.229a16.908 16.908 0 0 1 4.724-5.687c5.434-4.219 13.32-4.457 19.145-.897 1.369.837 2.637 1.877 3.68 3.083.288.331.873.824.943 1.267.075.482-.248 1.226-.384 1.69-.405 1.387-.898 2.754-1.56 4.046-1.273 2.489-2.792 4.825-4.483 7.064-1.645 2.18-3.426 4.306-5.569 6.042-.844.684-2.05 1.615-3.222 1.56-1.661-.08-1.426-2.083-1.234-3.194.537-3.103 1.957-6.223 3.553-8.936.47-.8 1.078-1.406 1.145-2.355.016-.226.076-.837-.25-.889-.26-.04-.512.245-.668.406-.463.478-.95.926-1.43 1.389a68.852 68.852 0 0 1-3.532 3.147c-.647.543-1.35 1.225-2.169 1.502M2.785 20.009h.062c-.083-.603-.195-1.198-.097-1.811.473-2.952 3.396-4.823 5.921-6.053 4.429-2.157 9.558-2.739 14.436-2.406 2.266.155 4.602.546 6.692 1.447.648.279 1.27.638 1.796 1.105.378.335.706.756.943 1.197 1.92 3.58-2.257 6.693-5.094 8.076-2.194 1.069-4.555 1.585-6.877 2.309a144.834 144.834 0 0 1 3.116-4.89c.383-.58.778-1.364.103-1.9-1.202-.956-1.922.425-2.451 1.296-.96 1.578-1.889 3.176-2.822 4.77-.278.474-.654 1.538-1.174 1.78-.398.185-.984.205-1.419.277-.687.114-1.405.3-2.107.281-1.209-.031-2.392-.46-3.593-.59-.887-.098-2.323-.418-3.091.171-1.04.798.787 1.577 1.418 1.632 1.584.14 3.246-.519 4.833-.587 1.03-.044 2.034.454 3.036.598-.823 1.522-2.026 3.018-2.605 4.648-.164.464.2 1.594.746 1.73.392.098.875-.926 1.053-1.186.952-1.391 2-2.893 2.726-4.408a27.404 27.404 0 0 1 4.028 2.018c3.767 2.286 7.328 5.339 11.586 6.717 2.58.835 5.282.421 6.613-2.093a11.49 11.49 0 0 0 .968-2.415c.32-1.207.532-2.557.535-3.804-.322.103-.304.435-.345.725-.096.664-.17 1.338-.33 1.992-.465 1.916-1.26 3.994-3.228 4.872-2.07.923-4.63-.14-6.506-1.053-2.782-1.356-5.406-3.065-7.992-4.745-1.48-.962-3.198-2.29-4.957-2.697.23-.613.833-1.86 1.376-2.25.32-.23.906-.248 1.288-.338 1.053-.249 2.12-.462 3.16-.758 3.481-.99 7.982-2.367 9.73-5.77.266-.52.473-1.052.545-1.63.445-3.571-2.737-5.466-5.814-6.38-2.407-.714-5.072-.805-7.559-.746-4.625.11-9.078.786-13.259 2.824-2.793 1.36-7.115 4.451-5.39 8.045m84.944-6.098c1.026 2.401 1.797 4.731 1.797 7.366l-1.921 1.449a2.606 2.606 0 0 0-.367-.725c-1.27-1.694-3.12.558-3.384 1.872-.185.926.543 1.544 1.397 1.005.274-.173.543-.354.805-.545.537-.39 1.042-.84 1.61-1.185.004.35-.24.625-.433.906-.534.782-1.096 1.601-1.459 2.475-.47 1.137.356 1.047 1.15.576.278-.171.546-.356.805-.555.4-.297.766-.645 1.177-.926-.388 1.828-1.394 3.625-2.496 5.132-6.037 8.25-18.724 8.97-25.762 1.57-1.247-1.312-2.296-2.822-3.021-4.468-.908-2.06-1.804-4.858-1.373-7.125.887 0 1.781-.157 2.665.006.404.075.864.518 1.239.5.345-.017 1.003-.678.885-1.035-.097-.294-.884-.135-1.133-.135-1.215 0-2.445.149-3.656.242l.125-.89.527-.56-.322-.905.352-1.51c.48.33.857.702 1.425.9 1.276.447 2.678.249 3.965-.029 2.404-.517 4.622-1.555 6.94-2.32-1.168 2.395-3.259 4.225-4.088 6.823-.1.316-.19.637-.232.966a4.18 4.18 0 0 0-.015.725c.037.708.649.994 1.299.842.938-.218 1.785-.952 2.478-1.572.839-.752 1.611-1.712 2.54-2.35-.287.669-.723 1.273-1.034 1.932-1.067 2.264-2.185 4.836-2.249 7.366-.014.572.016 1.13.141 1.69a2.7 2.7 0 0 0 .443.967c1.777 2.47 5.153.155 6.726-1.273 3.654-3.317 6.458-7.541 9.082-11.648.771-1.212 1.518-2.44 2.24-3.683.34-.584.643-1.4 1.132-1.871m12.453 10.203c.215-.704 1.206-1.39 1.138-2.173-.044-.505-.735-.447-1.076-.33-.923.321-1.671 1.138-2.478 1.658.372-.394 1.218-1.11 1.242-1.687.023-.557-1.186-.27-1.407-.05-.627.617-1.447 1.85-1.653 2.703-.096.396.426.62.765.506.235-.078.436-.307.62-.463l.805-.69c.498-.42 1.022-.932 1.61-1.225-.23.536-1.042 1.493-.67 2.105.187.306.655.13.919.032.815-.305 1.602-.774 2.292-1.291-.338.628-.774 2.08.558 1.712 1.286-.356 2.45-1.285 3.655-1.833-.154.27-.344.518-.504.785-.285.472-.306 1.6.566 1.078.836-.501 1.412-1.608 2.107-2.286.158-.155.558-.679.834-.54.239.12-.184.5-.28.578-.462.379-1.292.51-1.092 1.29.124.486.652.415 1.033.317.964-.248 1.814-.792 2.726-1.162-.13.193-.248.385-.328.604-.57 1.562 1.262 1.64 2.373 1.422 2.346-.46 4.362-2.042 6.567-2.895.858-.331 1.912-.706 2.85-.63.693.057 1.357.263 1.921.664.365.259.643.649 1.053.835l.062-.06c-.748-1.636-2.869-1.957-4.46-1.695-3.398.557-5.929 3.529-9.542 3.084.084-.526.631-1.372 1.12-1.629.463-.243 2.09-.196 1.793-1.148-.22-.708-1.342-.416-1.798-.153-.573.331-.906.888-1.427 1.26-.485.346-1.176.548-1.733.764-.312.121-1.081.431-1.395.18-.242-.194.345-.466.466-.533.412-.23 2.012-.905 1.61-1.565-.386-.63-1.693.197-2.106.409.78-1.334 1.857-2.595 2.824-3.804.404-.506.865-1.111 1.575-1.147-.069-.773-.883-1.644-1.63-.886-.5.505-.87 1.165-1.29 1.731-.787 1.055-1.61 2.092-2.416 3.14-.408.53-.769 1.244-1.296 1.666-.382.307-.919.488-1.36.703-.534.26-1.076.5-1.611.755-.184.088-.492.292-.708.24-.433-.1.417-1.06.527-1.19.547-.645 1.349-.413 1.971-.939.339-.285.343-.835-.117-1.01-1.184-.449-2.153.854-2.856 1.52-.59.558-1.562 1.051-2.349 1.273M35.5 28.16c.041-.451.33-.824.557-1.208.489-.828.901-1.665 1.673-2.276.39-.309 1.164-.893 1.543-.259.441.739-.85 2.159-1.327 1.026a1.354 1.354 0 0 1-.092-.483h-.124c0 .298-.034.619.069.905.273.762 1.34.763 1.908.32.865-.675 1.532-3.525-.366-3.051a2.803 2.803 0 0 0-.62.243c-.364.191-.688.465-.99.737.811-1.422 1.88-2.78 2.85-4.105.348-.477.775-1.198 1.424-1.268-.06-.542-.621-.985-1.177-.705-.428.214-.845.769-1.148 1.127-1.633 1.933-2.859 4.294-4.128 6.46-.507.867-1.49 2.05-.052 2.537zm20.322-8.393c-.01.458-.151.6-.62.604l.62-.604zm49.442 1.993c-.081.512-.595.594-1.053.603.265-.337.61-.58 1.053-.603zm9.603.06c-.162.444-.614.525-1.053.543.25-.343.6-.663 1.053-.543zm-5.948.242-.185.18.185-.18zm-63.63 2.475c-.204.34-.527.802-.543 1.207-.02.533.685.568 1.039.362 1.154-.67 1.739-2.117 2.974-2.716.616-.3 1.604-.083 2.292-.181v-.06l-.805.022-1.425-.201-1.611 1.084c.263-.319.813-.793.88-1.208.078-.487-.773-.77-1.126-.55-.684.429-.951 1.373-1.51 1.926-.527.523-1.532.815-2.21 1.118-.284.128-1.069.685-1.383.552-.321-.136.303-.863.411-.993.559-.672 1.343-.431 1.942-.998.456-.43.047-.922-.474-.974-1.098-.11-2.215 1.192-2.647 2.033-.188.364-.465.97-.07 1.302.361.302.876.032 1.23-.14 1.028-.5 2.02-1.064 3.036-1.585m42.255-1.63-2.045 1.388c-.187-.876 1.502-2.74 2.045-1.388zm-51.053.905v-.06H34.94c.35-1.434-1.113-1.32-1.983-.722-.679.467-1.31 1.3-1.458 2.11-.125.682.348 1.277 1.087 1.144.737-.132 1.36-.919 1.73-1.506.132-.21.192-.517.393-.675.246-.193.568-.047.85-.052.327-.007.63-.126.93-.239m52.974-.966c-.127.664-.075 1.502-.391 2.113-.278.537-1.276 1.12-1.84 1.329.242-.82.882-1.591 1.363-2.294.266-.389.508-.836.868-1.148m-1.487.06-.248.242.248-.241m18.587.12-.062.06.062-.06zm-63.569.967c.102-.14.715-.846.919-.507.211.352-.733.492-.919.507zm-8.797.06c-.04.574-.618 1.026-1.116 1.268.132-.616.476-1.085 1.116-1.268zm13.01 0-.061.06.062-.06m-9.48.06-.124.242h-.062l.186-.242zm-20.57 1.329-.372.724-1.115-.241v-.06l1.487-.423z"/></g></svg>