<?xml version="1.0" encoding="UTF-8" standalone="no"?><!-- Generator: Gravit.io --><svg xmlns="http://www.w3.org/2000/svg" xmlns:xlink="http://www.w3.org/1999/xlink" style="isolation:isolate" viewBox="0 0 128 42" width="128pt" height="42pt"><defs><clipPath id="_clipPath_xhtEueYNkri6JnULN1fKzuz2z8DPgEZe"><rect width="128" height="42"/></clipPath></defs><g clip-path="url(#_clipPath_xhtEueYNkri6JnULN1fKzuz2z8DPgEZe)"><path d=" M 49.315 21.7 L 50.555 21.196 L 53.28 20.914 C 52.183 22.168 51.18 23.63 50.272 25.02 C 49.945 25.52 49.455 26.208 49.651 26.83 C 49.836 27.42 50.735 27.004 51.111 26.855 C 52.34 26.37 53.897 25.386 54.705 24.355 C 54.304 24.448 53.995 24.744 53.652 24.956 C 52.772 25.503 51.658 26.409 50.616 26.59 L 51.643 25.02 L 53.913 22.001 L 54.893 20.856 L 55.759 20.794 C 55.759 24.632 56.806 28.259 59.196 31.359 C 64.783 38.607 75.813 40.105 83.206 34.606 C 85.49 32.907 87.211 30.729 88.456 28.22 C 88.772 27.585 89.024 26.903 89.233 26.228 C 89.346 25.863 89.392 25.395 89.619 25.08 C 90.146 24.352 90.713 25.079 91.384 24.618 C 92.58 23.796 93.233 22.202 94.668 21.668 C 95.14 21.491 95.557 21.672 96.031 21.693 C 96.365 21.708 96.687 21.585 97.023 21.579 L 97.023 21.519 C 96.702 21.445 96.411 21.546 96.093 21.505 C 95.711 21.456 95.372 21.235 94.978 21.225 C 94.151 21.202 93.371 21.98 92.809 22.485 C 93.052 22.105 93.767 21.559 93.766 21.095 C 93.766 20.439 92.77 20.327 92.386 20.685 C 91.689 21.335 91.108 22.335 90.632 23.148 C 90.33 23.663 90.167 24.182 89.65 24.537 C 90.05 23.03 90.066 21.308 89.908 19.767 C 89.678 17.531 89.06 15.353 87.958 13.367 C 84.036 6.302 75.337 2.988 67.53 5.42 C 63.48 6.68 59.907 9.542 57.883 13.187 C 57.336 14.174 56.873 15.197 56.523 16.267 C 56.368 16.737 56.341 17.476 56.059 17.88 C 55.871 18.15 55.404 18.276 55.156 18.518 C 54.644 19.017 54.146 20.205 53.464 20.456 C 53.228 20.543 52.908 20.493 52.66 20.493 C 51.839 20.493 50.997 20.441 50.182 20.536 C 49.915 20.567 49.549 20.522 49.36 20.753 C 49.16 20.997 49.261 21.422 49.314 21.7 M 66.6 23.39 C 66.463 22.705 67.022 21.926 67.329 21.338 C 68.266 19.54 69.458 17.828 70.682 16.206 C 71.118 15.629 71.603 15.045 71.918 14.395 C 72.035 14.155 72.209 13.865 72.045 13.608 C 71.805 13.233 71.32 13.485 70.999 13.61 C 70.086 13.965 69.177 14.328 68.273 14.706 C 65.81 15.736 63.201 16.878 60.529 17.249 C 59.43 17.401 57.957 17.348 57.211 16.382 C 56.836 15.897 57.672 14.618 57.911 14.153 C 59.047 11.932 60.66 9.99 62.635 8.466 C 68.069 4.247 75.955 4.009 81.78 7.569 C 83.149 8.406 84.417 9.446 85.46 10.652 C 85.748 10.983 86.333 11.476 86.403 11.919 C 86.478 12.401 86.155 13.145 86.019 13.609 C 85.614 14.996 85.121 16.363 84.459 17.655 C 83.186 20.144 81.667 22.48 79.976 24.719 C 78.331 26.899 76.55 29.025 74.407 30.761 C 73.563 31.445 72.357 32.376 71.185 32.321 C 69.524 32.241 69.759 30.238 69.951 29.127 C 70.488 26.024 71.908 22.904 73.504 20.191 C 73.974 19.391 74.582 18.785 74.649 17.836 C 74.665 17.61 74.725 16.999 74.399 16.947 C 74.139 16.907 73.887 17.192 73.731 17.353 C 73.268 17.831 72.781 18.279 72.301 18.742 C 71.16 19.831 69.982 20.881 68.769 21.889 C 68.122 22.432 67.419 23.114 66.6 23.391 M 2.785 20.009 L 2.847 20.009 C 2.764 19.406 2.652 18.811 2.75 18.198 C 3.223 15.246 6.146 13.375 8.671 12.145 C 13.1 9.988 18.229 9.406 23.107 9.739 C 25.373 9.894 27.709 10.285 29.799 11.186 C 30.447 11.465 31.069 11.824 31.595 12.291 C 31.973 12.626 32.301 13.047 32.538 13.488 C 34.458 17.068 30.281 20.181 27.444 21.564 C 25.25 22.633 22.889 23.149 20.567 23.873 C 21.573 22.222 22.612 20.592 23.683 18.983 C 24.066 18.403 24.461 17.619 23.786 17.083 C 22.584 16.127 21.864 17.508 21.335 18.379 C 20.375 19.957 19.446 21.555 18.513 23.149 C 18.235 23.623 17.859 24.687 17.339 24.929 C 16.941 25.114 16.355 25.134 15.92 25.206 C 15.233 25.32 14.515 25.506 13.813 25.487 C 12.604 25.456 11.421 25.027 10.22 24.897 C 9.333 24.799 7.897 24.479 7.129 25.068 C 6.089 25.866 7.916 26.645 8.547 26.7 C 10.131 26.84 11.793 26.181 13.38 26.113 C 14.41 26.069 15.414 26.567 16.416 26.711 C 15.593 28.233 14.39 29.729 13.811 31.359 C 13.647 31.823 14.011 32.953 14.557 33.089 C 14.949 33.187 15.432 32.163 15.61 31.903 C 16.562 30.512 17.61 29.01 18.336 27.495 C 19.732 28.056 21.079 28.731 22.364 29.513 C 26.131 31.799 29.692 34.852 33.95 36.23 C 36.53 37.065 39.232 36.651 40.563 34.137 C 40.967 33.374 41.312 32.553 41.531 31.722 C 41.851 30.515 42.063 29.165 42.066 27.918 C 41.744 28.021 41.762 28.353 41.721 28.643 C 41.625 29.307 41.551 29.981 41.391 30.635 C 40.926 32.551 40.131 34.629 38.163 35.507 C 36.093 36.43 33.533 35.367 31.657 34.454 C 28.875 33.098 26.251 31.389 23.665 29.709 C 22.185 28.747 20.467 27.419 18.708 27.012 C 18.938 26.399 19.541 25.152 20.084 24.762 C 20.404 24.532 20.99 24.514 21.372 24.424 C 22.425 24.175 23.492 23.962 24.532 23.666 C 28.013 22.676 32.514 21.299 34.262 17.896 C 34.528 17.376 34.735 16.844 34.807 16.266 C 35.252 12.695 32.07 10.8 28.993 9.886 C 26.586 9.172 23.921 9.081 21.434 9.14 C 16.809 9.25 12.356 9.926 8.175 11.964 C 5.382 13.324 1.06 16.415 2.785 20.009 M 87.729 13.911 C 88.755 16.312 89.526 18.642 89.526 21.277 L 87.605 22.726 C 87.521 22.467 87.398 22.222 87.238 22.001 C 85.968 20.307 84.118 22.559 83.854 23.873 C 83.669 24.799 84.397 25.417 85.251 24.878 C 85.525 24.705 85.794 24.524 86.056 24.333 C 86.593 23.943 87.098 23.493 87.666 23.148 C 87.67 23.498 87.426 23.773 87.233 24.054 C 86.699 24.836 86.137 25.655 85.774 26.529 C 85.304 27.666 86.13 27.576 86.924 27.105 C 87.202 26.934 87.47 26.749 87.729 26.55 C 88.129 26.253 88.495 25.905 88.906 25.624 C 88.518 27.452 87.512 29.249 86.41 30.756 C 80.373 39.006 67.686 39.726 60.648 32.326 C 59.401 31.014 58.352 29.504 57.627 27.858 C 56.719 25.798 55.823 23 56.254 20.733 C 57.141 20.733 58.035 20.576 58.919 20.739 C 59.323 20.814 59.783 21.257 60.158 21.239 C 60.503 21.222 61.161 20.561 61.043 20.204 C 60.946 19.91 60.159 20.069 59.91 20.069 C 58.695 20.069 57.465 20.218 56.254 20.311 L 56.379 19.421 L 56.906 18.861 L 56.584 17.956 L 56.936 16.446 C 57.416 16.776 57.793 17.148 58.361 17.346 C 59.637 17.793 61.039 17.595 62.326 17.317 C 64.73 16.8 66.948 15.762 69.266 14.997 C 68.098 17.392 66.007 19.222 65.178 21.82 C 65.078 22.136 64.988 22.457 64.946 22.786 C 64.916 23.023 64.919 23.273 64.931 23.511 C 64.968 24.219 65.58 24.505 66.23 24.353 C 67.168 24.135 68.015 23.401 68.708 22.781 C 69.547 22.029 70.319 21.069 71.248 20.431 C 70.961 21.1 70.525 21.704 70.214 22.363 C 69.147 24.627 68.029 27.199 67.965 29.729 C 67.951 30.301 67.981 30.859 68.106 31.419 C 68.182 31.762 68.344 32.1 68.549 32.386 C 70.326 34.856 73.702 32.541 75.275 31.113 C 78.929 27.796 81.733 23.572 84.357 19.465 C 85.128 18.253 85.875 17.025 86.597 15.782 C 86.937 15.198 87.24 14.382 87.729 13.911 M 100.182 24.114 C 100.397 23.41 101.388 22.724 101.32 21.941 C 101.276 21.436 100.585 21.494 100.244 21.611 C 99.321 21.932 98.573 22.749 97.766 23.269 C 98.138 22.875 98.984 22.159 99.008 21.582 C 99.031 21.025 97.822 21.312 97.601 21.532 C 96.974 22.149 96.154 23.382 95.948 24.235 C 95.852 24.631 96.374 24.855 96.713 24.741 C 96.948 24.663 97.149 24.434 97.333 24.278 L 98.138 23.588 C 98.636 23.168 99.16 22.656 99.748 22.363 C 99.518 22.899 98.706 23.856 99.078 24.468 C 99.265 24.774 99.733 24.598 99.997 24.5 C 100.812 24.195 101.599 23.726 102.289 23.209 C 101.951 23.837 101.515 25.289 102.847 24.921 C 104.133 24.565 105.297 23.636 106.502 23.088 C 106.348 23.358 106.158 23.606 105.998 23.873 C 105.713 24.345 105.692 25.473 106.564 24.951 C 107.4 24.45 107.976 23.343 108.671 22.665 C 108.829 22.51 109.229 21.986 109.505 22.125 C 109.744 22.245 109.321 22.625 109.225 22.703 C 108.763 23.082 107.933 23.213 108.133 23.993 C 108.257 24.479 108.785 24.408 109.166 24.31 C 110.13 24.062 110.98 23.518 111.892 23.148 C 111.762 23.341 111.644 23.533 111.564 23.752 C 110.994 25.314 112.826 25.392 113.937 25.174 C 116.283 24.714 118.299 23.132 120.504 22.279 C 121.362 21.948 122.416 21.573 123.354 21.649 C 124.047 21.706 124.711 21.912 125.275 22.313 C 125.64 22.572 125.918 22.962 126.328 23.148 L 126.39 23.088 C 125.642 21.452 123.521 21.131 121.93 21.393 C 118.532 21.95 116.001 24.922 112.388 24.477 C 112.472 23.951 113.019 23.105 113.508 22.848 C 113.971 22.605 115.598 22.652 115.301 21.7 C 115.081 20.992 113.959 21.284 113.503 21.547 C 112.93 21.878 112.597 22.435 112.076 22.807 C 111.591 23.153 110.9 23.355 110.343 23.571 C 110.031 23.692 109.262 24.002 108.948 23.751 C 108.706 23.557 109.293 23.285 109.414 23.218 C 109.826 22.988 111.426 22.313 111.024 21.653 C 110.638 21.023 109.331 21.85 108.918 22.062 C 109.698 20.728 110.775 19.467 111.742 18.258 C 112.146 17.752 112.607 17.147 113.317 17.111 C 113.248 16.338 112.434 15.467 111.687 16.225 C 111.187 16.73 110.817 17.39 110.397 17.956 C 109.61 19.011 108.787 20.048 107.981 21.096 C 107.573 21.626 107.212 22.34 106.685 22.762 C 106.303 23.069 105.766 23.25 105.325 23.465 C 104.791 23.725 104.249 23.965 103.714 24.22 C 103.53 24.308 103.222 24.512 103.006 24.46 C 102.573 24.36 103.423 23.4 103.533 23.27 C 104.08 22.625 104.882 22.857 105.504 22.331 C 105.843 22.046 105.847 21.496 105.387 21.321 C 104.203 20.872 103.234 22.175 102.531 22.841 C 101.941 23.399 100.969 23.892 100.182 24.114 M 35.5 28.16 C 35.541 27.709 35.83 27.336 36.057 26.952 C 36.546 26.124 36.958 25.287 37.73 24.676 C 38.12 24.367 38.894 23.783 39.273 24.417 C 39.714 25.156 38.423 26.576 37.946 25.443 C 37.886 25.289 37.855 25.125 37.854 24.96 L 37.73 24.96 C 37.73 25.258 37.696 25.579 37.799 25.865 C 38.072 26.627 39.139 26.628 39.707 26.185 C 40.572 25.51 41.239 22.66 39.341 23.134 C 39.125 23.19 38.917 23.272 38.721 23.377 C 38.357 23.568 38.033 23.842 37.731 24.114 C 38.542 22.692 39.611 21.334 40.581 20.009 C 40.929 19.532 41.356 18.811 42.005 18.741 C 41.945 18.199 41.384 17.756 40.828 18.036 C 40.4 18.25 39.983 18.805 39.68 19.163 C 38.047 21.096 36.821 23.457 35.552 25.623 C 35.045 26.49 34.062 27.673 35.5 28.16 Z  M 55.822 19.767 C 55.812 20.225 55.671 20.367 55.202 20.371 L 55.822 19.767 Z  M 105.264 21.76 C 105.183 22.272 104.669 22.354 104.211 22.363 C 104.476 22.026 104.821 21.783 105.264 21.76 Z  M 114.867 21.82 C 114.705 22.264 114.253 22.345 113.814 22.363 C 114.064 22.02 114.414 21.7 114.867 21.82 Z  M 108.919 22.062 L 108.734 22.242 L 108.919 22.062 Z  M 45.289 24.537 C 45.085 24.877 44.762 25.339 44.746 25.744 C 44.726 26.277 45.431 26.312 45.785 26.106 C 46.939 25.436 47.524 23.989 48.759 23.39 C 49.375 23.09 50.363 23.307 51.051 23.209 L 51.051 23.149 L 50.246 23.171 L 48.821 22.97 L 47.21 24.054 C 47.473 23.735 48.023 23.261 48.09 22.846 C 48.168 22.359 47.317 22.076 46.964 22.296 C 46.28 22.725 46.013 23.669 45.454 24.222 C 44.927 24.745 43.922 25.037 43.244 25.34 C 42.96 25.468 42.175 26.025 41.861 25.892 C 41.54 25.756 42.164 25.029 42.272 24.899 C 42.831 24.227 43.615 24.468 44.214 23.901 C 44.67 23.471 44.261 22.979 43.74 22.927 C 42.642 22.817 41.525 24.119 41.093 24.96 C 40.905 25.324 40.628 25.93 41.023 26.262 C 41.384 26.564 41.899 26.294 42.253 26.122 C 43.281 25.622 44.273 25.058 45.289 24.537 M 87.544 22.907 L 85.499 24.295 C 85.312 23.419 87.001 21.555 87.544 22.907 Z  M 36.491 23.812 L 36.491 23.752 L 34.94 23.752 C 35.29 22.318 33.827 22.432 32.957 23.03 C 32.278 23.497 31.647 24.33 31.499 25.14 C 31.374 25.822 31.847 26.417 32.586 26.284 C 33.323 26.152 33.946 25.365 34.316 24.778 C 34.448 24.568 34.508 24.261 34.709 24.103 C 34.955 23.91 35.277 24.056 35.559 24.051 C 35.886 24.044 36.189 23.925 36.489 23.812 M 89.463 22.846 C 89.336 23.51 89.388 24.348 89.072 24.959 C 88.794 25.496 87.796 26.079 87.232 26.288 C 87.474 25.468 88.114 24.697 88.595 23.994 C 88.861 23.605 89.103 23.158 89.463 22.846 M 87.976 22.906 L 87.728 23.148 L 87.976 22.907 M 106.563 23.027 L 106.501 23.087 L 106.563 23.027 Z  M 42.994 23.994 C 43.096 23.854 43.709 23.148 43.913 23.487 C 44.124 23.839 43.18 23.979 42.994 23.994 Z  M 34.197 24.054 C 34.157 24.628 33.579 25.08 33.081 25.322 C 33.213 24.706 33.557 24.237 34.197 24.054 Z  M 47.207 24.054 L 47.146 24.114 L 47.208 24.054 M 37.728 24.114 L 37.604 24.356 L 37.542 24.356 L 37.728 24.114 Z  M 17.158 25.443 L 16.786 26.167 L 15.671 25.926 L 15.671 25.866 L 17.158 25.443 Z " fill="rgb(102,96,224)"/></g></svg>