<svg xmlns="http://www.w3.org/2000/svg" xmlns:xlink="http://www.w3.org/1999/xlink" width="64" zoomAndPan="magnify" viewBox="0 0 48 48" height="64" preserveAspectRatio="xMidYMid meet" version="1.0"><defs><clipPath id="c7648155f0"><path d="M 1.039062 0.550781 L 47.328125 0.550781 L 47.328125 46.835938 L 1.039062 46.835938 Z M 1.039062 0.550781 " clip-rule="nonzero"/></clipPath><clipPath id="8030079ce1"><path d="M 1.742188 1.253906 L 46.625 1.253906 L 46.625 46.136719 L 1.742188 46.136719 Z M 1.742188 1.253906 " clip-rule="nonzero"/></clipPath></defs><g clip-path="url(#c7648155f0)"><path fill="#333333" d="M 47.328125 23.695312 C 47.328125 24.453125 47.289062 25.207031 47.214844 25.960938 C 47.140625 26.714844 47.03125 27.464844 46.882812 28.207031 C 46.734375 28.953125 46.550781 29.6875 46.328125 30.410156 C 46.109375 31.136719 45.855469 31.851562 45.566406 32.550781 C 45.273438 33.25 44.953125 33.933594 44.59375 34.601562 C 44.238281 35.273438 43.847656 35.921875 43.425781 36.550781 C 43.003906 37.179688 42.554688 37.789062 42.074219 38.375 C 41.59375 38.960938 41.085938 39.523438 40.546875 40.058594 C 40.011719 40.59375 39.453125 41.101562 38.867188 41.582031 C 38.28125 42.0625 37.671875 42.515625 37.042969 42.9375 C 36.410156 43.359375 35.761719 43.746094 35.09375 44.105469 C 34.425781 44.460938 33.738281 44.785156 33.039062 45.074219 C 32.339844 45.363281 31.628906 45.621094 30.902344 45.839844 C 30.175781 46.058594 29.441406 46.246094 28.699219 46.390625 C 27.957031 46.539062 27.207031 46.652344 26.453125 46.726562 C 25.699219 46.800781 24.941406 46.835938 24.183594 46.835938 C 23.425781 46.835938 22.667969 46.800781 21.914062 46.726562 C 21.160156 46.652344 20.410156 46.539062 19.667969 46.390625 C 18.925781 46.246094 18.191406 46.058594 17.464844 45.839844 C 16.742188 45.621094 16.027344 45.363281 15.328125 45.074219 C 14.628906 44.785156 13.941406 44.460938 13.273438 44.105469 C 12.605469 43.746094 11.957031 43.359375 11.328125 42.9375 C 10.695312 42.515625 10.089844 42.0625 9.503906 41.582031 C 8.917969 41.101562 8.355469 40.59375 7.820312 40.058594 C 7.285156 39.523438 6.773438 38.960938 6.292969 38.375 C 5.8125 37.789062 5.363281 37.179688 4.941406 36.550781 C 4.519531 35.921875 4.128906 35.273438 3.773438 34.601562 C 3.417969 33.933594 3.09375 33.25 2.800781 32.550781 C 2.511719 31.851562 2.257812 31.136719 2.039062 30.410156 C 1.816406 29.6875 1.632812 28.953125 1.484375 28.207031 C 1.335938 27.464844 1.226562 26.714844 1.152344 25.960938 C 1.078125 25.207031 1.039062 24.453125 1.039062 23.695312 C 1.039062 22.9375 1.078125 22.179688 1.152344 21.425781 C 1.226562 20.671875 1.335938 19.921875 1.484375 19.179688 C 1.632812 18.433594 1.816406 17.703125 2.039062 16.976562 C 2.257812 16.25 2.511719 15.539062 2.800781 14.835938 C 3.09375 14.136719 3.417969 13.453125 3.773438 12.785156 C 4.128906 12.117188 4.519531 11.464844 4.941406 10.835938 C 5.363281 10.207031 5.8125 9.597656 6.292969 9.011719 C 6.773438 8.425781 7.285156 7.867188 7.820312 7.328125 C 8.355469 6.792969 8.917969 6.285156 9.503906 5.804688 C 10.089844 5.324219 10.695312 4.871094 11.328125 4.453125 C 11.957031 4.03125 12.605469 3.640625 13.273438 3.285156 C 13.941406 2.925781 14.628906 2.601562 15.328125 2.3125 C 16.027344 2.023438 16.742188 1.769531 17.464844 1.546875 C 18.191406 1.328125 18.925781 1.144531 19.667969 0.996094 C 20.410156 0.847656 21.160156 0.738281 21.914062 0.664062 C 22.667969 0.589844 23.425781 0.550781 24.183594 0.550781 C 24.941406 0.550781 25.699219 0.589844 26.453125 0.664062 C 27.207031 0.738281 27.957031 0.847656 28.699219 0.996094 C 29.441406 1.144531 30.175781 1.328125 30.902344 1.546875 C 31.628906 1.769531 32.339844 2.023438 33.039062 2.3125 C 33.738281 2.601562 34.425781 2.925781 35.09375 3.285156 C 35.761719 3.640625 36.410156 4.03125 37.042969 4.453125 C 37.671875 4.871094 38.28125 5.324219 38.867188 5.804688 C 39.453125 6.285156 40.011719 6.792969 40.546875 7.328125 C 41.085938 7.867188 41.59375 8.425781 42.074219 9.011719 C 42.554688 9.597656 43.003906 10.207031 43.425781 10.835938 C 43.847656 11.464844 44.238281 12.117188 44.59375 12.785156 C 44.953125 13.453125 45.273438 14.136719 45.566406 14.835938 C 45.855469 15.539062 46.109375 16.25 46.328125 16.976562 C 46.550781 17.703125 46.734375 18.433594 46.882812 19.179688 C 47.03125 19.921875 47.140625 20.671875 47.214844 21.425781 C 47.289062 22.179688 47.328125 22.9375 47.328125 23.695312 Z M 47.328125 23.695312 " fill-opacity="1" fill-rule="nonzero"/></g><g clip-path="url(#8030079ce1)"><path fill="#6660e0" d="M 32.441406 31.703125 C 37.398438 25.417969 42.066406 17.375 44.148438 13.460938 C 45.726562 16.511719 46.625 19.996094 46.625 23.695312 C 46.625 36.082031 36.570312 46.136719 24.183594 46.136719 C 11.796875 46.136719 1.742188 36.082031 1.742188 23.695312 C 1.742188 21.359375 2.101562 19.097656 2.746094 17.015625 C 3.464844 17.949219 4.972656 18.59375 6.984375 18.628906 L 7.128906 18.628906 C 10.933594 18.628906 19.371094 14.96875 19.371094 14.96875 C 19.371094 14.96875 17.863281 17.195312 15.816406 20.285156 C 14.488281 22.292969 13.449219 24.84375 13.449219 26.421875 C 13.449219 27.285156 13.734375 27.859375 14.382812 28.003906 C 14.488281 28.003906 14.597656 28.039062 14.707031 28.039062 C 16.644531 28.039062 19.585938 24.878906 22.101562 22.367188 C 20.699219 24.734375 19.226562 27.964844 18.367188 31.054688 C 18.03125 32.324219 17.816406 33.339844 17.722656 34.105469 C 17.613281 34.753906 17.578125 35.328125 17.578125 35.902344 C 17.578125 38.59375 18.617188 40.5 21.347656 40.5 C 21.5625 40.5 21.777344 40.460938 21.992188 40.460938 C 24.292969 40.246094 27.128906 37.914062 30 34.683594 C 30.265625 34.441406 31.078125 33.449219 32.441406 31.703125 Z M 31.582031 31.234375 C 33.628906 28.71875 35.710938 25.777344 37.539062 22.796875 C 41.132812 16.910156 41.992188 12.992188 42.460938 10.695312 C 38.402344 4.984375 31.722656 1.253906 24.183594 1.253906 C 14.273438 1.253906 5.835938 7.714844 2.890625 16.621094 C 3.25 17.160156 3.894531 17.699219 5.011719 18.058594 C 5.367188 18.199219 5.761719 18.238281 6.230469 18.238281 C 10.96875 18.238281 21.527344 12.742188 22.746094 12.742188 C 22.816406 12.742188 22.816406 12.742188 22.855469 12.777344 C 23.070312 12.921875 23.214844 13.101562 23.214844 13.351562 C 23.214844 13.855469 22.746094 14.71875 21.273438 16.65625 C 19.121094 19.492188 15.675781 25.128906 15.675781 26.351562 C 15.675781 26.421875 15.710938 26.53125 15.746094 26.566406 C 15.746094 26.566406 15.78125 26.566406 15.816406 26.566406 C 16.714844 26.566406 22.964844 20.570312 24.972656 18.628906 C 24.972656 18.628906 25.726562 17.589844 26.265625 17.589844 L 26.335938 17.589844 C 26.554688 17.625 26.589844 17.984375 26.589844 18.449219 C 26.589844 19.207031 26.445312 20.175781 26.445312 20.175781 C 25.261719 21.359375 22.496094 26.746094 21.023438 31.414062 C 20.761719 32.226562 20.496094 33.304688 20.234375 34.644531 C 20.234375 34.644531 20.234375 34.644531 20.234375 34.609375 C 20.125 35.253906 20.089844 35.832031 20.089844 36.367188 C 20.089844 37.410156 20.304688 38.234375 20.878906 38.59375 C 21.167969 38.808594 21.5625 38.953125 21.957031 38.953125 C 23.789062 38.953125 26.445312 36.910156 29.320312 33.820312 C 30.300781 32.765625 31.054688 31.902344 31.582031 31.234375 Z M 31.582031 31.234375 " fill-opacity="1" fill-rule="nonzero"/></g></svg>