<svg xmlns="http://www.w3.org/2000/svg" xmlns:xlink="http://www.w3.org/1999/xlink" width="64" zoomAndPan="magnify" viewBox="0 0 48 48" height="64" preserveAspectRatio="xMidYMid meet" version="1.0"><defs><clipPath id="741901109e"><path d="M 1.039062 0.550781 L 47.328125 0.550781 L 47.328125 46.835938 L 1.039062 46.835938 Z M 1.039062 0.550781 " clip-rule="nonzero"/></clipPath></defs><g clip-path="url(#741901109e)"><path fill="#6660fa" d="M 32.699219 31.953125 C 37.808594 25.472656 42.625 17.175781 44.773438 13.140625 C 46.402344 16.289062 47.328125 19.878906 47.328125 23.695312 C 47.328125 36.46875 36.957031 46.835938 24.183594 46.835938 C 11.410156 46.835938 1.039062 36.46875 1.039062 23.695312 C 1.039062 21.285156 1.410156 18.953125 2.078125 16.804688 C 2.820312 17.769531 4.375 18.4375 6.449219 18.472656 L 6.59375 18.472656 C 10.519531 18.472656 19.222656 14.695312 19.222656 14.695312 C 19.222656 14.695312 17.667969 16.992188 15.554688 20.175781 C 14.1875 22.25 13.113281 24.878906 13.113281 26.507812 C 13.113281 27.398438 13.40625 27.988281 14.074219 28.136719 C 14.1875 28.136719 14.296875 28.175781 14.410156 28.175781 C 16.40625 28.175781 19.445312 24.917969 22.035156 22.324219 C 20.59375 24.765625 19.074219 28.101562 18.183594 31.285156 C 17.839844 32.59375 17.617188 33.640625 17.519531 34.433594 C 17.40625 35.097656 17.371094 35.691406 17.371094 36.285156 C 17.371094 39.0625 18.445312 41.023438 21.257812 41.023438 C 21.480469 41.023438 21.703125 40.984375 21.925781 40.984375 C 24.296875 40.765625 27.21875 38.359375 30.183594 35.023438 C 30.453125 34.777344 31.292969 33.753906 32.699219 31.953125 Z M 31.8125 31.46875 C 33.921875 28.878906 36.070312 25.84375 37.957031 22.769531 C 41.660156 16.695312 42.550781 12.660156 43.03125 10.289062 C 38.847656 4.402344 31.960938 0.550781 24.183594 0.550781 C 13.964844 0.550781 5.261719 7.214844 2.226562 16.398438 C 2.597656 16.953125 3.261719 17.511719 4.410156 17.878906 C 4.78125 18.027344 5.1875 18.066406 5.667969 18.066406 C 10.558594 18.066406 21.445312 12.398438 22.703125 12.398438 C 22.777344 12.398438 22.777344 12.398438 22.8125 12.4375 C 23.035156 12.585938 23.183594 12.769531 23.183594 13.03125 C 23.183594 13.546875 22.703125 14.4375 21.183594 16.4375 C 18.960938 19.363281 15.40625 25.175781 15.40625 26.433594 C 15.40625 26.507812 15.445312 26.617188 15.480469 26.65625 C 15.480469 26.65625 15.519531 26.65625 15.554688 26.65625 C 16.480469 26.65625 22.925781 20.472656 24.996094 18.472656 C 24.996094 18.472656 25.777344 17.398438 26.332031 17.398438 L 26.40625 17.398438 C 26.628906 17.4375 26.664062 17.808594 26.664062 18.289062 C 26.664062 19.066406 26.515625 20.066406 26.515625 20.066406 C 25.292969 21.285156 22.445312 26.839844 20.925781 31.65625 C 20.652344 32.492188 20.382812 33.605469 20.109375 34.988281 C 20.109375 34.988281 20.109375 34.988281 20.109375 34.949219 C 20 35.617188 19.964844 36.210938 19.964844 36.765625 C 19.964844 37.839844 20.183594 38.691406 20.777344 39.0625 C 21.074219 39.285156 21.480469 39.429688 21.886719 39.429688 C 23.777344 39.429688 26.515625 37.320312 29.480469 34.136719 C 30.492188 33.050781 31.269531 32.160156 31.8125 31.46875 Z M 31.8125 31.46875 " fill-opacity="1" fill-rule="nonzero"/></g></svg>