<svg xmlns="http://www.w3.org/2000/svg" xmlns:xlink="http://www.w3.org/1999/xlink" width="390" zoomAndPan="magnify" viewBox="0 0 292.5 74.999997" height="100" preserveAspectRatio="xMidYMid meet" version="1.0"><defs><g/><clipPath id="2df6623eb0"><path d="M 41 5 L 79 5 L 79 74.933594 L 41 74.933594 Z M 41 5 " clip-rule="nonzero"/></clipPath><clipPath id="ddbaa384de"><path d="M 217 10 L 262 10 L 262 74.933594 L 217 74.933594 Z M 217 10 " clip-rule="nonzero"/></clipPath><clipPath id="bc76578547"><path d="M 0 0.0625 L 292 0.0625 L 292 74.933594 L 0 74.933594 Z M 0 0.0625 " clip-rule="nonzero"/></clipPath></defs><g fill="#ffffff" fill-opacity="1"><g transform="translate(2.402344, 46.563988)"><g><path d="M 11.710938 15.582031 C 12.984375 13.621094 13.621094 3.019531 13.621094 1.75 C 15.738281 2.332031 17.648438 2.597656 19.394531 2.597656 C 30.152344 2.597656 33.652344 -7.949219 33.652344 -17.488281 C 33.652344 -23.316406 32.378906 -28.828125 30.578125 -31.320312 C 27.824219 -35.136719 24.21875 -36.355469 21.144531 -36.355469 C 18.019531 -36.355469 15.472656 -35.136719 14.785156 -33.96875 C 14.46875 -36.355469 12.1875 -38.050781 9.75 -38.050781 C 7.523438 -38.050781 5.195312 -36.671875 4.082031 -33.121094 C 2.863281 -29.253906 1.960938 -17.804688 1.960938 -6.675781 C 1.960938 2.492188 2.597656 11.5 4.132812 15.792969 C 4.714844 17.117188 6.042969 17.753906 7.472656 17.753906 C 9.0625 17.753906 10.757812 16.957031 11.710938 15.582031 Z M 14.890625 -29.625 C 16.695312 -31.109375 18.230469 -31.796875 19.609375 -31.796875 C 23.742188 -31.796875 25.753906 -25.332031 25.753906 -18.230469 C 25.753906 -9.59375 22.789062 0 17.222656 0 C 16.109375 0 14.945312 -0.371094 13.671875 -1.164062 C 13.671875 -1.21875 14.363281 -29.148438 14.890625 -29.625 Z M 14.890625 -29.625 "/></g></g></g><g fill="#ffffff" fill-opacity="1"><g transform="translate(37.006265, 46.563988)"><g><path d="M 17.699219 -37.945312 C 17.171875 -41.390625 13.671875 -43.402344 10.226562 -43.402344 C 6.941406 -43.402344 3.65625 -41.546875 2.96875 -37.253906 C 2.121094 -32.167969 1.695312 -21.039062 1.695312 -9.644531 C 1.695312 4.082031 2.332031 18.125 3.605469 22.152344 C 4.292969 24.324219 7.207031 25.96875 9.75 25.96875 C 11.660156 25.96875 13.300781 25.066406 13.671875 22.734375 C 13.777344 21.886719 14.414062 5.195312 14.519531 4.34375 C 16.695312 4.929688 22.203125 5.777344 27.292969 16.109375 C 28.140625 17.859375 29.78125 18.917969 31.53125 18.917969 C 32.113281 18.917969 32.699219 18.761719 33.226562 18.546875 C 35.507812 17.59375 36.566406 16.480469 36.566406 14.785156 C 36.566406 14.148438 36.40625 13.460938 36.144531 12.664062 C 33.917969 5.828125 27.769531 2.703125 27.558594 2.226562 C 33.8125 -0.742188 37.996094 -6.890625 38.738281 -17.011719 C 38.84375 -18.335938 38.898438 -19.609375 38.898438 -20.828125 C 38.898438 -32.433594 34.128906 -39.324219 25.066406 -40.433594 C 24.644531 -40.488281 24.273438 -40.488281 23.902344 -40.488281 C 21.515625 -40.488281 19.238281 -39.691406 17.699219 -37.945312 Z M 21.355469 -35.1875 C 21.992188 -35.402344 22.574219 -35.453125 23.105469 -35.453125 C 28.140625 -35.453125 30.261719 -27.875 30.261719 -20.296875 C 30.261719 -18.917969 30.207031 -17.542969 30.046875 -16.214844 C 29.253906 -8.320312 26.019531 0.105469 19.34375 0.105469 C 18.285156 0.105469 17.171875 -0.105469 15.953125 -0.53125 C 15.472656 -0.6875 15.261719 -0.953125 15.261719 -1.429688 L 15.261719 -1.695312 C 16.535156 -19.554688 17.011719 -29.890625 17.59375 -32.113281 C 18.070312 -33.863281 19.925781 -34.710938 21.355469 -35.1875 Z M 21.355469 -35.1875 "/></g></g></g><g fill="#ffffff" fill-opacity="1"><g transform="translate(76.909407, 46.563988)"><g><path d="M 12.453125 11.925781 L 12.664062 11.925781 C 22.945312 11.925781 27.980469 -0.742188 27.980469 -12.878906 C 27.980469 -23.953125 23.792969 -34.554688 15.472656 -34.765625 L 15.15625 -34.765625 C 5.246094 -34.765625 0.847656 -22.789062 0.847656 -10.96875 C 0.847656 0.476562 4.980469 11.816406 12.453125 11.925781 Z M 12.402344 -27.503906 C 15.792969 -27.398438 17.328125 -20.667969 17.328125 -13.515625 C 17.328125 -5.195312 15.261719 3.761719 11.660156 3.761719 L 11.554688 3.761719 C 7.789062 3.605469 6.148438 -2.863281 6.148438 -9.855469 C 6.148438 -18.285156 8.53125 -27.503906 12.347656 -27.503906 Z M 12.402344 -27.503906 "/></g></g></g><g fill="#ffffff" fill-opacity="1"><g transform="translate(106.426075, 46.563988)"><g><path d="M 5.351562 -33.96875 C 7.578125 -33.8125 9.910156 -33.597656 12.136719 -33.597656 C 15.738281 -33.597656 15.792969 -33.386719 16.164062 -30.738281 C 16.640625 -27.34375 17.542969 -18.125 17.542969 -8.796875 C 17.542969 2.863281 16.109375 14.574219 10.703125 14.785156 L 10.28125 14.785156 C 8.109375 14.785156 6.519531 13.566406 6.359375 11.339844 C 6.148438 7.738281 5.246094 6.625 3.976562 6.625 C 3.867188 6.625 3.710938 6.675781 3.605469 6.675781 C 2.121094 6.941406 1.21875 8.851562 1.21875 11.234375 C 1.21875 15.316406 3.976562 20.613281 11.445312 20.613281 C 26.761719 20.613281 29.890625 -5.511719 29.890625 -22.152344 C 29.890625 -28.40625 29.464844 -33.332031 29.042969 -34.976562 L 29.042969 -35.03125 C 29.042969 -35.613281 32.328125 -36.992188 34.921875 -37.519531 C 35.71875 -37.679688 36.035156 -38.527344 36.035156 -39.375 C 36.035156 -40.0625 35.773438 -40.753906 35.347656 -40.914062 C 33.597656 -41.441406 31.054688 -41.707031 28.140625 -41.707031 C 20.085938 -41.707031 9.273438 -39.90625 5.40625 -38.210938 C 4.714844 -37.945312 4.34375 -36.882812 4.34375 -35.929688 C 4.34375 -34.921875 4.714844 -34.023438 5.351562 -33.96875 Z M 5.351562 -33.96875 "/></g></g></g><g fill="#ffffff" fill-opacity="1"><g transform="translate(144.951417, 46.563988)"><g><path d="M 3.074219 -27.714844 C 2.171875 -24.960938 1.484375 -17.648438 1.484375 -9.910156 C 1.484375 0.0546875 2.597656 10.8125 5.722656 13.566406 C 6.625 14.363281 8.109375 14.996094 10.441406 14.996094 L 10.96875 14.996094 C 15.105469 14.890625 21.304688 13.035156 21.304688 11.289062 L 21.304688 11.128906 C 21.25 10.863281 20.984375 10.757812 20.667969 10.757812 C 19.34375 10.757812 16.429688 12.1875 14.203125 12.1875 C 12.878906 12.1875 11.765625 11.660156 11.445312 9.964844 C 11.289062 8.636719 10.917969 5.300781 10.917969 2.753906 C 10.917969 1.378906 11.023438 0.265625 11.289062 -0.210938 C 12.082031 -1.273438 19.132812 -0.160156 19.132812 -2.542969 C 19.078125 -3.445312 18.070312 -3.65625 16.746094 -3.65625 C 15.472656 -3.65625 13.9375 -3.445312 12.773438 -3.445312 C 11.871094 -3.445312 11.234375 -3.550781 11.128906 -4.027344 C 10.917969 -4.875 10.8125 -7.046875 10.8125 -9.75 C 10.8125 -15.632812 11.234375 -23.953125 11.605469 -26.339844 C 11.605469 -27.132812 12.082031 -28.300781 12.773438 -28.457031 C 14.414062 -28.988281 16.746094 -29.199219 19.183594 -29.199219 C 20.5625 -29.199219 21.941406 -29.148438 23.316406 -28.988281 C 24.164062 -28.988281 24.589844 -29.414062 24.589844 -29.996094 C 24.589844 -30.207031 24.535156 -30.417969 24.429688 -30.683594 C 23.53125 -32.273438 19.503906 -33.386719 15.210938 -33.386719 C 10.070312 -33.386719 4.453125 -31.796875 3.074219 -27.714844 Z M 3.074219 -27.714844 "/></g></g></g><g fill="#ffffff" fill-opacity="1"><g transform="translate(171.712485, 46.563988)"><g><path d="M 23.847656 -40.222656 L 23.371094 -40.222656 C 8.425781 -40.222656 1.484375 -24.324219 1.484375 -8.425781 C 1.484375 7.3125 8.320312 23.105469 20.984375 23.316406 C 32.167969 23.105469 35.507812 14.574219 35.71875 11.234375 L 35.71875 11.023438 C 35.71875 8.851562 33.917969 7.738281 32.007812 7.738281 C 30.101562 7.738281 28.191406 8.851562 27.980469 11.128906 C 27.558594 17.0625 24.164062 18.652344 21.515625 18.652344 L 21.355469 18.652344 C 15.898438 18.546875 13.089844 6.042969 13.089844 -6.996094 C 13.089844 -21.199219 16.429688 -36.035156 23.210938 -36.089844 L 23.265625 -36.089844 C 28.351562 -36.089844 29.304688 -28.882812 29.304688 -21.410156 C 29.304688 -18.761719 29.199219 -16.058594 29.09375 -13.671875 L 29.09375 -13.195312 C 29.09375 -9.113281 31.160156 -7.472656 33.441406 -7.472656 C 36.144531 -7.472656 39.214844 -9.75 39.535156 -12.929688 C 39.691406 -14.414062 39.800781 -16.003906 39.800781 -17.542969 C 39.800781 -28.5625 35.453125 -39.957031 23.847656 -40.222656 Z M 23.847656 -40.222656 "/></g></g></g><g fill="#ffffff" fill-opacity="1"><g transform="translate(213.735313, 46.563988)"><g><path d="M 44.25 -35.558594 C 41.867188 -36.9375 31.585938 -38.316406 21.25 -38.316406 C 14.308594 -38.316406 7.367188 -37.679688 2.808594 -35.984375 C 1.644531 -35.558594 1.058594 -34.554688 1.058594 -33.492188 C 1.058594 -32.328125 1.800781 -31.160156 3.390625 -30.683594 C 4.34375 -30.417969 12.984375 -28.246094 16.851562 -28.246094 C 16.375 -21.304688 16.164062 -14.734375 16.164062 -8.796875 C 16.164062 9.433594 18.019531 22.046875 19.289062 23.265625 C 19.765625 24.695312 21.144531 25.277344 22.628906 25.277344 C 24.378906 25.277344 26.234375 24.484375 26.496094 23.476562 C 28.300781 17.277344 30.84375 -4.027344 30.84375 -19.394531 C 30.84375 -22.734375 30.738281 -25.808594 30.472656 -28.351562 C 33.703125 -28.671875 41.707031 -30.152344 44.09375 -31.160156 C 44.992188 -31.585938 45.523438 -32.484375 45.523438 -33.386719 C 45.523438 -34.234375 45.152344 -35.03125 44.25 -35.558594 Z M 44.25 -35.558594 "/></g></g></g><g fill="#ffffff" fill-opacity="1"><g transform="translate(260.792409, 46.563988)"><g><path d="M 16.746094 -35.878906 L 16.214844 -35.878906 C 7.523438 -35.878906 0.105469 -24.429688 0.105469 -12.824219 C 0.105469 -9.644531 0.6875 -6.414062 1.960938 -3.390625 C 6.785156 7.789062 20.136719 5.246094 20.296875 10.226562 L 20.296875 10.28125 C 20.296875 12.03125 17.542969 13.460938 15.953125 13.515625 L 15.632812 13.515625 C 11.289062 13.515625 11.710938 8.425781 7.523438 8.425781 C 7.15625 8.425781 6.730469 8.480469 6.253906 8.585938 C 5.140625 8.796875 4.503906 9.804688 4.503906 11.128906 C 4.503906 13.832031 7.3125 17.859375 14.203125 18.390625 L 14.890625 18.390625 C 19.609375 18.390625 25.277344 14.785156 25.277344 10.121094 C 25.171875 -0.371094 11.074219 2.648438 8.425781 -13.832031 C 8.320312 -14.414062 8.265625 -15.421875 8.265625 -16.585938 C 8.265625 -20.773438 9.222656 -27.609375 13.992188 -29.730469 C 14.46875 -29.941406 14.839844 -30.046875 15.210938 -30.046875 C 17.59375 -30.046875 18.019531 -25.863281 18.019531 -21.144531 C 18.019531 -18.707031 17.914062 -16.058594 17.914062 -13.832031 C 17.914062 -12.292969 17.964844 -10.96875 18.125 -10.015625 C 18.546875 -7.738281 19.980469 -6.785156 21.464844 -6.785156 C 22.789062 -6.785156 24.164062 -7.523438 25.011719 -8.746094 C 26.710938 -11.183594 27.769531 -15.472656 27.769531 -19.925781 C 27.769531 -27.453125 24.75 -35.402344 16.746094 -35.878906 Z M 16.746094 -35.878906 "/></g></g></g><g fill="#ff80cc" fill-opacity="1"><g transform="translate(4.744632, 48.906276)"><g><path d="M 11.710938 15.582031 C 12.984375 13.621094 13.621094 3.019531 13.621094 1.75 C 15.738281 2.332031 17.648438 2.597656 19.394531 2.597656 C 30.152344 2.597656 33.652344 -7.949219 33.652344 -17.488281 C 33.652344 -23.316406 32.378906 -28.828125 30.578125 -31.320312 C 27.824219 -35.136719 24.21875 -36.355469 21.144531 -36.355469 C 18.019531 -36.355469 15.472656 -35.136719 14.785156 -33.96875 C 14.46875 -36.355469 12.1875 -38.050781 9.75 -38.050781 C 7.523438 -38.050781 5.195312 -36.671875 4.082031 -33.121094 C 2.863281 -29.253906 1.960938 -17.804688 1.960938 -6.675781 C 1.960938 2.492188 2.597656 11.5 4.132812 15.792969 C 4.714844 17.117188 6.042969 17.753906 7.472656 17.753906 C 9.0625 17.753906 10.757812 16.957031 11.710938 15.582031 Z M 14.890625 -29.625 C 16.695312 -31.109375 18.230469 -31.796875 19.609375 -31.796875 C 23.742188 -31.796875 25.753906 -25.332031 25.753906 -18.230469 C 25.753906 -9.59375 22.789062 0 17.222656 0 C 16.109375 0 14.945312 -0.371094 13.671875 -1.164062 C 13.671875 -1.21875 14.363281 -29.148438 14.890625 -29.625 Z M 14.890625 -29.625 "/></g></g></g><g clip-path="url(#2df6623eb0)"><g fill="#ff80cc" fill-opacity="1"><g transform="translate(39.348554, 48.906276)"><g><path d="M 17.699219 -37.945312 C 17.171875 -41.390625 13.671875 -43.402344 10.226562 -43.402344 C 6.941406 -43.402344 3.65625 -41.546875 2.96875 -37.253906 C 2.121094 -32.167969 1.695312 -21.039062 1.695312 -9.644531 C 1.695312 4.082031 2.332031 18.125 3.605469 22.152344 C 4.292969 24.324219 7.207031 25.96875 9.75 25.96875 C 11.660156 25.96875 13.300781 25.066406 13.671875 22.734375 C 13.777344 21.886719 14.414062 5.195312 14.519531 4.34375 C 16.695312 4.929688 22.203125 5.777344 27.292969 16.109375 C 28.140625 17.859375 29.78125 18.917969 31.53125 18.917969 C 32.113281 18.917969 32.699219 18.761719 33.226562 18.546875 C 35.507812 17.59375 36.566406 16.480469 36.566406 14.785156 C 36.566406 14.148438 36.40625 13.460938 36.144531 12.664062 C 33.917969 5.828125 27.769531 2.703125 27.558594 2.226562 C 33.8125 -0.742188 37.996094 -6.890625 38.738281 -17.011719 C 38.84375 -18.335938 38.898438 -19.609375 38.898438 -20.828125 C 38.898438 -32.433594 34.128906 -39.324219 25.066406 -40.433594 C 24.644531 -40.488281 24.273438 -40.488281 23.902344 -40.488281 C 21.515625 -40.488281 19.238281 -39.691406 17.699219 -37.945312 Z M 21.355469 -35.1875 C 21.992188 -35.402344 22.574219 -35.453125 23.105469 -35.453125 C 28.140625 -35.453125 30.261719 -27.875 30.261719 -20.296875 C 30.261719 -18.917969 30.207031 -17.542969 30.046875 -16.214844 C 29.253906 -8.320312 26.019531 0.105469 19.34375 0.105469 C 18.285156 0.105469 17.171875 -0.105469 15.953125 -0.53125 C 15.472656 -0.6875 15.261719 -0.953125 15.261719 -1.429688 L 15.261719 -1.695312 C 16.535156 -19.554688 17.011719 -29.890625 17.59375 -32.113281 C 18.070312 -33.863281 19.925781 -34.710938 21.355469 -35.1875 Z M 21.355469 -35.1875 "/></g></g></g></g><g fill="#ff80cc" fill-opacity="1"><g transform="translate(79.251696, 48.906276)"><g><path d="M 12.453125 11.925781 L 12.664062 11.925781 C 22.945312 11.925781 27.980469 -0.742188 27.980469 -12.878906 C 27.980469 -23.953125 23.792969 -34.554688 15.472656 -34.765625 L 15.15625 -34.765625 C 5.246094 -34.765625 0.847656 -22.789062 0.847656 -10.96875 C 0.847656 0.476562 4.980469 11.816406 12.453125 11.925781 Z M 12.402344 -27.503906 C 15.792969 -27.398438 17.328125 -20.667969 17.328125 -13.515625 C 17.328125 -5.195312 15.261719 3.761719 11.660156 3.761719 L 11.554688 3.761719 C 7.789062 3.605469 6.148438 -2.863281 6.148438 -9.855469 C 6.148438 -18.285156 8.53125 -27.503906 12.347656 -27.503906 Z M 12.402344 -27.503906 "/></g></g></g><g fill="#ff80cc" fill-opacity="1"><g transform="translate(108.768364, 48.906276)"><g><path d="M 5.351562 -33.96875 C 7.578125 -33.8125 9.910156 -33.597656 12.136719 -33.597656 C 15.738281 -33.597656 15.792969 -33.386719 16.164062 -30.738281 C 16.640625 -27.34375 17.542969 -18.125 17.542969 -8.796875 C 17.542969 2.863281 16.109375 14.574219 10.703125 14.785156 L 10.28125 14.785156 C 8.109375 14.785156 6.519531 13.566406 6.359375 11.339844 C 6.148438 7.738281 5.246094 6.625 3.976562 6.625 C 3.867188 6.625 3.710938 6.675781 3.605469 6.675781 C 2.121094 6.941406 1.21875 8.851562 1.21875 11.234375 C 1.21875 15.316406 3.976562 20.613281 11.445312 20.613281 C 26.761719 20.613281 29.890625 -5.511719 29.890625 -22.152344 C 29.890625 -28.40625 29.464844 -33.332031 29.042969 -34.976562 L 29.042969 -35.03125 C 29.042969 -35.613281 32.328125 -36.992188 34.921875 -37.519531 C 35.71875 -37.679688 36.035156 -38.527344 36.035156 -39.375 C 36.035156 -40.0625 35.773438 -40.753906 35.347656 -40.914062 C 33.597656 -41.441406 31.054688 -41.707031 28.140625 -41.707031 C 20.085938 -41.707031 9.273438 -39.90625 5.40625 -38.210938 C 4.714844 -37.945312 4.34375 -36.882812 4.34375 -35.929688 C 4.34375 -34.921875 4.714844 -34.023438 5.351562 -33.96875 Z M 5.351562 -33.96875 "/></g></g></g><g fill="#ff80cc" fill-opacity="1"><g transform="translate(147.293706, 48.906276)"><g><path d="M 3.074219 -27.714844 C 2.171875 -24.960938 1.484375 -17.648438 1.484375 -9.910156 C 1.484375 0.0546875 2.597656 10.8125 5.722656 13.566406 C 6.625 14.363281 8.109375 14.996094 10.441406 14.996094 L 10.96875 14.996094 C 15.105469 14.890625 21.304688 13.035156 21.304688 11.289062 L 21.304688 11.128906 C 21.25 10.863281 20.984375 10.757812 20.667969 10.757812 C 19.34375 10.757812 16.429688 12.1875 14.203125 12.1875 C 12.878906 12.1875 11.765625 11.660156 11.445312 9.964844 C 11.289062 8.636719 10.917969 5.300781 10.917969 2.753906 C 10.917969 1.378906 11.023438 0.265625 11.289062 -0.210938 C 12.082031 -1.273438 19.132812 -0.160156 19.132812 -2.542969 C 19.078125 -3.445312 18.070312 -3.65625 16.746094 -3.65625 C 15.472656 -3.65625 13.9375 -3.445312 12.773438 -3.445312 C 11.871094 -3.445312 11.234375 -3.550781 11.128906 -4.027344 C 10.917969 -4.875 10.8125 -7.046875 10.8125 -9.75 C 10.8125 -15.632812 11.234375 -23.953125 11.605469 -26.339844 C 11.605469 -27.132812 12.082031 -28.300781 12.773438 -28.457031 C 14.414062 -28.988281 16.746094 -29.199219 19.183594 -29.199219 C 20.5625 -29.199219 21.941406 -29.148438 23.316406 -28.988281 C 24.164062 -28.988281 24.589844 -29.414062 24.589844 -29.996094 C 24.589844 -30.207031 24.535156 -30.417969 24.429688 -30.683594 C 23.53125 -32.273438 19.503906 -33.386719 15.210938 -33.386719 C 10.070312 -33.386719 4.453125 -31.796875 3.074219 -27.714844 Z M 3.074219 -27.714844 "/></g></g></g><g fill="#ff80cc" fill-opacity="1"><g transform="translate(174.054774, 48.906276)"><g><path d="M 23.847656 -40.222656 L 23.371094 -40.222656 C 8.425781 -40.222656 1.484375 -24.324219 1.484375 -8.425781 C 1.484375 7.3125 8.320312 23.105469 20.984375 23.316406 C 32.167969 23.105469 35.507812 14.574219 35.71875 11.234375 L 35.71875 11.023438 C 35.71875 8.851562 33.917969 7.738281 32.007812 7.738281 C 30.101562 7.738281 28.191406 8.851562 27.980469 11.128906 C 27.558594 17.0625 24.164062 18.652344 21.515625 18.652344 L 21.355469 18.652344 C 15.898438 18.546875 13.089844 6.042969 13.089844 -6.996094 C 13.089844 -21.199219 16.429688 -36.035156 23.210938 -36.089844 L 23.265625 -36.089844 C 28.351562 -36.089844 29.304688 -28.882812 29.304688 -21.410156 C 29.304688 -18.761719 29.199219 -16.058594 29.09375 -13.671875 L 29.09375 -13.195312 C 29.09375 -9.113281 31.160156 -7.472656 33.441406 -7.472656 C 36.144531 -7.472656 39.214844 -9.75 39.535156 -12.929688 C 39.691406 -14.414062 39.800781 -16.003906 39.800781 -17.542969 C 39.800781 -28.5625 35.453125 -39.957031 23.847656 -40.222656 Z M 23.847656 -40.222656 "/></g></g></g><g clip-path="url(#ddbaa384de)"><g fill="#ff80cc" fill-opacity="1"><g transform="translate(216.077602, 48.906276)"><g><path d="M 44.25 -35.558594 C 41.867188 -36.9375 31.585938 -38.316406 21.25 -38.316406 C 14.308594 -38.316406 7.367188 -37.679688 2.808594 -35.984375 C 1.644531 -35.558594 1.058594 -34.554688 1.058594 -33.492188 C 1.058594 -32.328125 1.800781 -31.160156 3.390625 -30.683594 C 4.34375 -30.417969 12.984375 -28.246094 16.851562 -28.246094 C 16.375 -21.304688 16.164062 -14.734375 16.164062 -8.796875 C 16.164062 9.433594 18.019531 22.046875 19.289062 23.265625 C 19.765625 24.695312 21.144531 25.277344 22.628906 25.277344 C 24.378906 25.277344 26.234375 24.484375 26.496094 23.476562 C 28.300781 17.277344 30.84375 -4.027344 30.84375 -19.394531 C 30.84375 -22.734375 30.738281 -25.808594 30.472656 -28.351562 C 33.703125 -28.671875 41.707031 -30.152344 44.09375 -31.160156 C 44.992188 -31.585938 45.523438 -32.484375 45.523438 -33.386719 C 45.523438 -34.234375 45.152344 -35.03125 44.25 -35.558594 Z M 44.25 -35.558594 "/></g></g></g></g><g fill="#ff80cc" fill-opacity="1"><g transform="translate(263.134698, 48.906276)"><g><path d="M 16.746094 -35.878906 L 16.214844 -35.878906 C 7.523438 -35.878906 0.105469 -24.429688 0.105469 -12.824219 C 0.105469 -9.644531 0.6875 -6.414062 1.960938 -3.390625 C 6.785156 7.789062 20.136719 5.246094 20.296875 10.226562 L 20.296875 10.28125 C 20.296875 12.03125 17.542969 13.460938 15.953125 13.515625 L 15.632812 13.515625 C 11.289062 13.515625 11.710938 8.425781 7.523438 8.425781 C 7.15625 8.425781 6.730469 8.480469 6.253906 8.585938 C 5.140625 8.796875 4.503906 9.804688 4.503906 11.128906 C 4.503906 13.832031 7.3125 17.859375 14.203125 18.390625 L 14.890625 18.390625 C 19.609375 18.390625 25.277344 14.785156 25.277344 10.121094 C 25.171875 -0.371094 11.074219 2.648438 8.425781 -13.832031 C 8.320312 -14.414062 8.265625 -15.421875 8.265625 -16.585938 C 8.265625 -20.773438 9.222656 -27.609375 13.992188 -29.730469 C 14.46875 -29.941406 14.839844 -30.046875 15.210938 -30.046875 C 17.59375 -30.046875 18.019531 -25.863281 18.019531 -21.144531 C 18.019531 -18.707031 17.914062 -16.058594 17.914062 -13.832031 C 17.914062 -12.292969 17.964844 -10.96875 18.125 -10.015625 C 18.546875 -7.738281 19.980469 -6.785156 21.464844 -6.785156 C 22.789062 -6.785156 24.164062 -7.523438 25.011719 -8.746094 C 26.710938 -11.183594 27.769531 -15.472656 27.769531 -19.925781 C 27.769531 -27.453125 24.75 -35.402344 16.746094 -35.878906 Z M 16.746094 -35.878906 "/></g></g></g><g clip-path="url(#bc76578547)"><path stroke-linecap="butt" transform="matrix(0.75, 0, 0, 0.75, 0.000000000000021316, 11.31399)" fill="none" stroke-linejoin="miter" d="M 18.81771 67.768851 C 20.520835 65.164684 21.369793 51.01885 21.369793 49.33135 C 24.197918 50.107391 26.734377 50.466767 29.062502 50.466767 C 43.41667 50.466767 48.07292 36.409474 48.07292 23.675098 C 48.07292 15.914681 46.380211 8.565722 43.968753 5.237597 C 40.291669 0.143846 35.494794 -1.475945 31.390627 -1.475945 C 27.234377 -1.475945 23.833335 0.143846 22.921877 1.701138 C 22.489585 -1.475945 19.453126 -3.736362 16.208334 -3.736362 C 13.244793 -3.736362 10.119792 -1.887404 8.635417 2.836555 C 7.015625 7.998014 5.822917 23.26364 5.822917 38.096974 C 5.822917 50.33135 6.671875 62.336559 8.708334 68.065726 C 9.500001 69.820934 11.260417 70.669893 13.171876 70.669893 C 15.281251 70.669893 17.53646 69.617809 18.81771 67.768851 Z M 23.057293 7.492805 C 25.458335 5.529263 27.510419 4.596972 29.354169 4.596972 C 34.859377 4.596972 37.552086 13.221972 37.552086 22.695931 C 37.552086 34.216765 33.583336 46.998016 26.166668 46.998016 C 24.682293 46.998016 23.13021 46.498016 21.437501 45.445933 C 21.437501 45.378225 22.354168 8.13343 23.057293 7.492805 Z M 72.942713 -3.595737 C 72.23438 -8.184279 67.57813 -10.876988 62.989588 -10.876988 C 58.604171 -10.876988 54.223962 -8.392612 53.29167 -2.663445 C 52.171879 4.112597 51.60417 18.951139 51.60417 34.149057 C 51.60417 52.435517 52.44792 71.169893 54.156254 76.534477 C 55.067712 79.43031 58.947921 81.623019 62.348963 81.623019 C 64.885421 81.623019 67.07813 80.414685 67.57813 77.310518 C 67.713546 76.190727 68.557296 53.919892 68.697921 52.794892 C 71.593755 53.570933 78.942714 54.695933 85.723964 68.477184 C 86.864589 70.80531 89.052089 72.221976 91.380214 72.221976 C 92.156256 72.221976 92.937506 72.013643 93.640631 71.737601 C 96.67709 70.46156 98.093757 68.977184 98.093757 66.716768 C 98.093757 65.873018 97.885423 64.940726 97.526048 63.888642 C 94.557298 54.779267 86.364589 50.607392 86.088547 49.966766 C 94.416673 46.01885 100.005215 37.820932 100.98959 24.315723 C 101.130215 22.555306 101.197923 20.846973 101.197923 19.227181 C 101.197923 3.753222 94.848965 -5.423862 82.755214 -6.908237 C 82.203131 -6.975946 81.703131 -6.975946 81.20313 -6.975946 C 78.031255 -6.975946 74.994797 -5.923862 72.942713 -3.595737 Z M 77.822922 0.0761381 C 78.666672 -0.199904 79.442714 -0.267612 80.151047 -0.267612 C 86.864589 -0.267612 89.692714 9.841764 89.692714 19.935514 C 89.692714 21.779265 89.625006 23.60739 89.401048 25.383431 C 88.343756 35.909474 84.031256 47.138641 75.130213 47.138641 C 73.718755 47.138641 72.23438 46.8626 70.614588 46.294891 C 69.973963 46.086558 69.697921 45.721975 69.697921 45.086558 L 69.697921 44.737599 C 71.39063 20.935515 72.026047 7.149055 72.802088 4.185513 C 73.442713 1.85218 75.906255 0.716763 77.822922 0.0761381 Z M 119.156258 62.904267 L 119.4323 62.904267 C 133.151051 62.904267 139.859384 46.01885 139.859384 29.836557 C 139.859384 15.070931 134.270842 0.925097 123.177092 0.649055 L 122.7448 0.649055 C 109.552091 0.649055 103.682299 16.623014 103.682299 32.373015 C 103.682299 47.638641 109.187507 62.748017 119.156258 62.904267 Z M 119.072925 10.326139 C 123.609383 10.461555 125.645842 19.451139 125.645842 28.987598 C 125.645842 40.081349 122.90105 52.01885 118.08855 52.01885 L 117.953133 52.01885 C 112.932299 51.810517 110.739591 43.185516 110.739591 33.852182 C 110.739591 22.623015 113.916674 10.326139 119.005216 10.326139 Z M 149.041677 1.701138 C 152.010427 1.925097 155.114594 2.201138 158.083344 2.201138 C 162.895844 2.201138 162.963553 2.492805 163.447928 6.013639 C 164.088553 10.529264 165.291678 22.831348 165.291678 35.268849 C 165.291678 50.810517 163.380219 66.425101 156.166677 66.716768 L 155.614594 66.716768 C 152.71876 66.716768 150.59376 65.096976 150.390635 62.128226 C 150.09376 57.315725 148.90626 55.83135 147.197927 55.83135 C 147.057302 55.83135 146.854177 55.899059 146.713552 55.899059 C 144.729176 56.263642 143.520843 58.8001 143.520843 61.971976 C 143.520843 67.425101 147.197927 74.482393 157.166677 74.482393 C 177.578137 74.482393 181.750012 39.649057 181.750012 17.466764 C 181.750012 9.13343 181.182304 2.560513 180.63022 0.373013 L 180.63022 0.300096 C 180.63022 -0.49157 185.010429 -2.319695 188.463554 -3.028029 C 189.531263 -3.236362 189.947929 -4.371779 189.947929 -5.496779 C 189.947929 -6.423862 189.598971 -7.340529 189.031263 -7.548862 C 186.703138 -8.257196 183.302096 -8.616571 179.421887 -8.616571 C 168.677095 -8.616571 154.270844 -6.199904 149.114593 -3.944695 C 148.197927 -3.595737 147.697927 -2.184279 147.697927 -0.908237 C 147.697927 0.440721 148.197927 1.628222 149.041677 1.701138 Z M 197.375013 10.050097 C 196.16668 13.721972 195.250013 23.471973 195.250013 33.784474 C 195.250013 47.070933 196.734388 61.419892 200.895847 65.096976 C 202.098972 66.149059 204.083347 66.992809 207.187514 66.992809 L 207.895847 66.992809 C 213.401056 66.857393 221.682307 64.388642 221.682307 62.044892 L 221.682307 61.836559 C 221.593765 61.492809 221.250015 61.336559 220.817723 61.336559 C 219.057306 61.336559 215.177098 63.248017 212.208348 63.248017 C 210.432306 63.248017 208.947931 62.544892 208.536472 60.284476 C 208.312514 58.524059 207.828139 54.070933 207.828139 50.6751 C 207.828139 48.826141 207.968764 47.346975 208.312514 46.721975 C 209.380222 45.310516 218.781265 46.794891 218.781265 43.602183 C 218.713556 42.409474 217.369806 42.117808 215.593765 42.117808 C 213.901056 42.117808 211.848973 42.409474 210.296889 42.409474 C 209.104181 42.409474 208.244806 42.274058 208.104181 41.633433 C 207.828139 40.498016 207.692722 37.596974 207.692722 33.992807 C 207.692722 26.159473 208.244806 15.070931 208.744806 11.878222 C 208.744806 10.826139 209.380222 9.274055 210.296889 9.050097 C 212.484389 8.341764 215.593765 8.065722 218.854181 8.065722 C 220.682307 8.065722 222.526057 8.13343 224.354182 8.341764 C 225.494807 8.341764 226.062515 7.78968 226.062515 7.013639 C 226.062515 6.716764 225.973974 6.440722 225.838557 6.081347 C 224.645848 3.97718 219.26564 2.492805 213.557306 2.492805 C 206.687514 2.492805 199.203138 4.596972 197.375013 10.050097 Z M 260.744809 -6.632196 L 260.104184 -6.632196 C 240.182308 -6.632196 230.932307 14.565722 230.932307 35.768849 C 230.932307 56.748017 240.041683 77.810518 256.932309 78.08656 C 271.833352 77.810518 276.286477 66.425101 276.578144 61.971976 L 276.578144 61.695934 C 276.578144 58.8001 274.166685 57.315725 271.630227 57.315725 C 269.093768 57.315725 266.541685 58.8001 266.265643 61.836559 C 265.692726 69.753226 261.177101 71.878226 257.640642 71.878226 L 257.432309 71.878226 C 250.151059 71.737601 246.406267 55.055308 246.406267 37.664682 C 246.406267 18.742806 250.859392 -1.043654 259.895851 -1.111362 L 259.968768 -1.111362 C 266.74481 -1.111362 268.02606 8.498014 268.02606 18.451139 C 268.02606 21.987598 267.885435 25.591765 267.750018 28.76364 L 267.750018 29.404265 C 267.750018 34.836557 270.489602 37.029266 273.541685 37.029266 C 277.130227 37.029266 281.239602 33.992807 281.666686 29.768848 C 281.875019 27.784473 282.015644 25.659473 282.015644 23.60739 C 282.015644 8.909472 276.218769 -6.272821 260.744809 -6.632196 Z M 343.97919 -0.408237 C 340.802106 -2.251987 327.088564 -4.080112 313.307313 -4.080112 C 304.06252 -4.080112 294.796895 -3.236362 288.723978 -0.975945 C 287.171894 -0.408237 286.395853 0.925097 286.395853 2.336555 C 286.395853 3.888638 287.380228 5.461555 289.500019 6.081347 C 290.776061 6.440722 302.302104 9.341764 307.458354 9.341764 C 306.817729 18.586556 306.526062 27.352182 306.526062 35.268849 C 306.526062 59.576142 309.010437 76.393852 310.703146 78.018852 C 311.338563 79.93031 313.166688 80.706352 315.151063 80.706352 C 317.479188 80.706352 319.963563 79.638643 320.312522 78.310518 C 322.708355 70.029268 326.104189 41.633433 326.104189 21.13864 C 326.104189 16.690723 325.968772 12.586556 325.604189 9.201139 C 329.916689 8.774055 340.598981 6.78968 343.770856 5.461555 C 344.963565 4.888638 345.671898 3.680305 345.671898 2.492805 C 345.671898 1.35218 345.187523 0.300096 343.97919 -0.408237 Z M 370.0469 -0.83532 L 369.338567 -0.83532 C 357.765649 -0.83532 347.859398 14.430306 347.859398 29.904265 C 347.859398 34.149057 348.63544 38.445932 350.343774 42.482391 C 356.760441 57.383434 374.567734 54.003225 374.791692 60.643851 L 374.791692 60.716767 C 374.791692 63.044892 371.114608 64.940726 368.994817 65.008434 L 368.562525 65.008434 C 362.765649 65.008434 363.333358 58.232392 357.765649 58.232392 C 357.260441 58.232392 356.692732 58.3001 356.057316 58.45635 C 354.572941 58.732392 353.723982 60.076142 353.723982 61.836559 C 353.723982 65.440726 357.468774 70.80531 366.666691 71.513643 L 367.57815 71.513643 C 373.875025 71.513643 381.432317 66.716768 381.432317 60.492809 C 381.291692 46.498016 362.489608 50.534475 358.953149 28.560515 C 358.817732 27.784473 358.744816 26.435515 358.744816 24.883431 C 358.744816 19.294889 360.020858 10.185514 366.369816 7.357389 C 367.010441 7.081347 367.510441 6.940722 368.010441 6.940722 C 371.182317 6.940722 371.755233 12.513639 371.755233 18.810514 C 371.755233 22.055306 371.598983 25.591765 371.598983 28.560515 C 371.598983 30.612599 371.682317 32.373015 371.89065 33.649057 C 372.463567 36.685516 374.3594 37.961557 376.343775 37.961557 C 378.104192 37.961557 379.947942 36.961557 381.067734 35.336557 C 383.328151 32.096974 384.744818 26.367807 384.744818 20.435514 C 384.744818 10.393847 380.723984 -0.199904 370.0469 -0.83532 Z M 370.0469 -0.83532 " stroke="#ff0099" stroke-width="2.649998" stroke-opacity="1" stroke-miterlimit="4"/></g></svg>