<svg xmlns="http://www.w3.org/2000/svg" xmlns:xlink="http://www.w3.org/1999/xlink" width="400" zoomAndPan="magnify" viewBox="0 0 300 74.999997" height="100" preserveAspectRatio="xMidYMid meet" version="1.0"><defs><g/></defs><g fill="#ffffff" fill-opacity="1"><g transform="translate(2.472662, 44.749998)"><g><path d="M 24.75 -41.742188 L 24.253906 -41.742188 C 8.746094 -41.742188 1.539062 -25.242188 1.539062 -8.746094 C 1.539062 7.589844 8.632812 23.980469 21.777344 24.199219 C 33.382812 23.980469 36.847656 15.125 37.066406 11.660156 L 37.066406 11.441406 C 37.066406 9.183594 35.199219 8.03125 33.21875 8.03125 C 31.238281 8.03125 29.257812 9.183594 29.039062 11.550781 C 28.597656 17.710938 25.078125 19.359375 22.328125 19.359375 L 22.164062 19.359375 C 16.5 19.25 13.585938 6.269531 13.585938 -7.257812 C 13.585938 -22 17.050781 -37.398438 24.089844 -37.453125 L 24.144531 -37.453125 C 29.421875 -37.453125 30.414062 -29.972656 30.414062 -22.21875 C 30.414062 -19.46875 30.304688 -16.664062 30.195312 -14.1875 L 30.195312 -13.695312 C 30.195312 -9.460938 32.339844 -7.753906 34.703125 -7.753906 C 37.507812 -7.753906 40.699219 -10.121094 41.027344 -13.417969 C 41.191406 -14.960938 41.304688 -16.609375 41.304688 -18.203125 C 41.304688 -29.644531 36.792969 -41.46875 24.75 -41.742188 Z M 24.75 -41.742188 "/></g></g></g><g fill="#ffffff" fill-opacity="1"><g transform="translate(46.084501, 44.749998)"><g><path d="M 12.925781 12.375 L 13.144531 12.375 C 23.8125 12.375 29.039062 -0.769531 29.039062 -13.363281 C 29.039062 -24.859375 24.695312 -35.859375 16.058594 -36.078125 L 15.730469 -36.078125 C 5.445312 -36.078125 0.878906 -23.648438 0.878906 -11.382812 C 0.878906 0.496094 5.167969 12.265625 12.925781 12.375 Z M 12.871094 -28.542969 C 16.390625 -28.433594 17.984375 -21.449219 17.984375 -14.023438 C 17.984375 -5.390625 15.839844 3.90625 12.097656 3.90625 L 11.988281 3.90625 C 8.085938 3.738281 6.378906 -2.96875 6.378906 -10.230469 C 6.378906 -18.972656 8.855469 -28.542969 12.8125 -28.542969 Z M 12.871094 -28.542969 "/></g></g></g><g fill="#ffffff" fill-opacity="1"><g transform="translate(76.717277, 44.749998)"><g><path d="M 33.164062 -36.023438 C 31.625 -28.875 30.304688 2.53125 30.25 2.585938 C 24.859375 -11.660156 20.679688 -23.484375 15.070312 -34.648438 C 13.363281 -38.058594 11.273438 -39.214844 9.40625 -39.214844 C 6.65625 -39.214844 4.289062 -36.738281 3.851562 -35.199219 C 2.308594 -29.699219 1.484375 -20.074219 1.484375 -10.230469 C 1.484375 0.550781 2.476562 11.605469 4.453125 18.09375 C 5.113281 20.679688 6.929688 22.21875 8.746094 22.21875 C 10.175781 22.21875 11.660156 21.230469 12.648438 18.972656 C 15.179688 12.980469 15.453125 -18.203125 15.675781 -19.742188 C 17.378906 -18.425781 24.582031 12.320312 33.601562 13.308594 L 34.042969 13.308594 C 41.964844 13.308594 44.328125 -11.878906 44.328125 -26.617188 C 44.328125 -31.019531 44.109375 -34.539062 43.777344 -36.132812 C 43.117188 -39.324219 40.753906 -41.082031 38.386719 -41.082031 C 36.1875 -41.082031 33.933594 -39.488281 33.164062 -36.023438 Z M 33.164062 -36.023438 "/></g></g></g><g fill="#ffffff" fill-opacity="1"><g transform="translate(122.693946, 44.749998)"><g><path d="M 45.921875 -36.902344 C 43.449219 -38.332031 32.777344 -39.761719 22.054688 -39.761719 C 14.847656 -39.761719 7.644531 -39.101562 2.914062 -37.34375 C 1.703125 -36.902344 1.101562 -35.859375 1.101562 -34.757812 C 1.101562 -33.546875 1.871094 -32.339844 3.519531 -31.84375 C 4.511719 -31.570312 13.472656 -29.3125 17.488281 -29.3125 C 16.996094 -22.109375 16.773438 -15.289062 16.773438 -9.128906 C 16.773438 9.789062 18.699219 22.878906 20.019531 24.144531 C 20.515625 25.628906 21.945312 26.234375 23.484375 26.234375 C 25.300781 26.234375 27.222656 25.410156 27.5 24.363281 C 29.367188 17.929688 32.007812 -4.179688 32.007812 -20.128906 C 32.007812 -23.59375 31.898438 -26.785156 31.625 -29.421875 C 34.976562 -29.753906 43.28125 -31.292969 45.757812 -32.339844 C 46.691406 -32.777344 47.242188 -33.714844 47.242188 -34.648438 C 47.242188 -35.527344 46.859375 -36.351562 45.921875 -36.902344 Z M 45.921875 -36.902344 "/></g></g></g><g fill="#ffffff" fill-opacity="1"><g transform="translate(171.530402, 44.749998)"><g><path d="M 12.265625 11.769531 C 12.210938 10.890625 12.15625 9.625 12.15625 8.359375 C 12.15625 5.28125 12.320312 1.871094 12.320312 1.484375 C 12.320312 0.988281 12.59375 0.328125 12.980469 0.0546875 C 14.246094 -0.714844 16.003906 -0.988281 17.710938 -0.988281 C 20.625 -0.988281 23.429688 -0.109375 23.429688 0.878906 L 23.429688 0.933594 C 23.484375 1.871094 23.484375 2.75 23.484375 3.574219 C 23.484375 6.542969 23.265625 8.910156 23.207031 11.988281 C 23.375 13.53125 24.472656 14.1875 25.628906 14.1875 C 27.332031 14.1875 29.257812 12.925781 29.367188 11 C 29.863281 7.316406 30.25 2.035156 30.25 -3.628906 C 30.25 -15.621094 28.597656 -29.480469 22.878906 -34.59375 C 21.394531 -35.96875 19.523438 -36.574219 17.652344 -36.574219 C 15.675781 -36.574219 13.640625 -35.804688 12.042969 -34.375 C 6.269531 -29.039062 1.703125 -13.585938 1.703125 0.605469 C 1.703125 4.34375 2.035156 7.976562 2.695312 11.328125 C 3.246094 14.023438 5.335938 15.179688 7.425781 15.179688 C 9.570312 15.179688 11.769531 13.914062 12.265625 11.769531 Z M 16.277344 -27.5 C 16.828125 -28.652344 17.820312 -29.148438 18.808594 -29.148438 C 19.910156 -29.148438 20.953125 -28.597656 21.558594 -27.773438 C 23.484375 -24.472656 24.035156 -15.289062 24.035156 -8.578125 C 24.035156 -7.316406 24.035156 -6.160156 23.980469 -5.167969 C 23.980469 -4.839844 23.8125 -4.621094 23.59375 -4.621094 C 23.539062 -4.621094 23.429688 -4.675781 23.375 -4.675781 C 22.878906 -4.730469 21.722656 -4.785156 20.292969 -4.785156 C 17.820312 -4.785156 14.628906 -4.675781 13.585938 -4.621094 C 13.035156 -4.621094 12.757812 -4.621094 12.757812 -5.28125 L 12.757812 -6.378906 C 12.757812 -11.769531 13.585938 -22.21875 16.277344 -27.5 Z M 16.277344 -27.5 "/></g></g></g><g fill="#ffffff" fill-opacity="1"><g transform="translate(205.077977, 44.749998)"><g><path d="M 24.75 -41.742188 L 24.253906 -41.742188 C 8.746094 -41.742188 1.539062 -25.242188 1.539062 -8.746094 C 1.539062 7.589844 8.632812 23.980469 21.777344 24.199219 C 33.382812 23.980469 36.847656 15.125 37.066406 11.660156 L 37.066406 11.441406 C 37.066406 9.183594 35.199219 8.03125 33.21875 8.03125 C 31.238281 8.03125 29.257812 9.183594 29.039062 11.550781 C 28.597656 17.710938 25.078125 19.359375 22.328125 19.359375 L 22.164062 19.359375 C 16.5 19.25 13.585938 6.269531 13.585938 -7.257812 C 13.585938 -22 17.050781 -37.398438 24.089844 -37.453125 L 24.144531 -37.453125 C 29.421875 -37.453125 30.414062 -29.972656 30.414062 -22.21875 C 30.414062 -19.46875 30.304688 -16.664062 30.195312 -14.1875 L 30.195312 -13.695312 C 30.195312 -9.460938 32.339844 -7.753906 34.703125 -7.753906 C 37.507812 -7.753906 40.699219 -10.121094 41.027344 -13.417969 C 41.191406 -14.960938 41.304688 -16.609375 41.304688 -18.203125 C 41.304688 -29.644531 36.792969 -41.46875 24.75 -41.742188 Z M 24.75 -41.742188 "/></g></g></g><g fill="#ffffff" fill-opacity="1"><g transform="translate(248.689805, 44.749998)"><g><path d="M 45.921875 -36.902344 C 43.449219 -38.332031 32.777344 -39.761719 22.054688 -39.761719 C 14.847656 -39.761719 7.644531 -39.101562 2.914062 -37.34375 C 1.703125 -36.902344 1.101562 -35.859375 1.101562 -34.757812 C 1.101562 -33.546875 1.871094 -32.339844 3.519531 -31.84375 C 4.511719 -31.570312 13.472656 -29.3125 17.488281 -29.3125 C 16.996094 -22.109375 16.773438 -15.289062 16.773438 -9.128906 C 16.773438 9.789062 18.699219 22.878906 20.019531 24.144531 C 20.515625 25.628906 21.945312 26.234375 23.484375 26.234375 C 25.300781 26.234375 27.222656 25.410156 27.5 24.363281 C 29.367188 17.929688 32.007812 -4.179688 32.007812 -20.128906 C 32.007812 -23.59375 31.898438 -26.785156 31.625 -29.421875 C 34.976562 -29.753906 43.28125 -31.292969 45.757812 -32.339844 C 46.691406 -32.777344 47.242188 -33.714844 47.242188 -34.648438 C 47.242188 -35.527344 46.859375 -36.351562 45.921875 -36.902344 Z M 45.921875 -36.902344 "/></g></g></g><g fill="#ff80cc" fill-opacity="1"><g transform="translate(4.90334, 47.180676)"><g><path d="M 24.75 -41.742188 L 24.253906 -41.742188 C 8.746094 -41.742188 1.539062 -25.242188 1.539062 -8.746094 C 1.539062 7.589844 8.632812 23.980469 21.777344 24.199219 C 33.382812 23.980469 36.847656 15.125 37.066406 11.660156 L 37.066406 11.441406 C 37.066406 9.183594 35.199219 8.03125 33.21875 8.03125 C 31.238281 8.03125 29.257812 9.183594 29.039062 11.550781 C 28.597656 17.710938 25.078125 19.359375 22.328125 19.359375 L 22.164062 19.359375 C 16.5 19.25 13.585938 6.269531 13.585938 -7.257812 C 13.585938 -22 17.050781 -37.398438 24.089844 -37.453125 L 24.144531 -37.453125 C 29.421875 -37.453125 30.414062 -29.972656 30.414062 -22.21875 C 30.414062 -19.46875 30.304688 -16.664062 30.195312 -14.1875 L 30.195312 -13.695312 C 30.195312 -9.460938 32.339844 -7.753906 34.703125 -7.753906 C 37.507812 -7.753906 40.699219 -10.121094 41.027344 -13.417969 C 41.191406 -14.960938 41.304688 -16.609375 41.304688 -18.203125 C 41.304688 -29.644531 36.792969 -41.46875 24.75 -41.742188 Z M 24.75 -41.742188 "/></g></g></g><g fill="#ff80cc" fill-opacity="1"><g transform="translate(48.51518, 47.180676)"><g><path d="M 12.925781 12.375 L 13.144531 12.375 C 23.8125 12.375 29.039062 -0.769531 29.039062 -13.363281 C 29.039062 -24.859375 24.695312 -35.859375 16.058594 -36.078125 L 15.730469 -36.078125 C 5.445312 -36.078125 0.878906 -23.648438 0.878906 -11.382812 C 0.878906 0.496094 5.167969 12.265625 12.925781 12.375 Z M 12.871094 -28.542969 C 16.390625 -28.433594 17.984375 -21.449219 17.984375 -14.023438 C 17.984375 -5.390625 15.839844 3.90625 12.097656 3.90625 L 11.988281 3.90625 C 8.085938 3.738281 6.378906 -2.96875 6.378906 -10.230469 C 6.378906 -18.972656 8.855469 -28.542969 12.8125 -28.542969 Z M 12.871094 -28.542969 "/></g></g></g><g fill="#ff80cc" fill-opacity="1"><g transform="translate(79.147955, 47.180676)"><g><path d="M 33.164062 -36.023438 C 31.625 -28.875 30.304688 2.53125 30.25 2.585938 C 24.859375 -11.660156 20.679688 -23.484375 15.070312 -34.648438 C 13.363281 -38.058594 11.273438 -39.214844 9.40625 -39.214844 C 6.65625 -39.214844 4.289062 -36.738281 3.851562 -35.199219 C 2.308594 -29.699219 1.484375 -20.074219 1.484375 -10.230469 C 1.484375 0.550781 2.476562 11.605469 4.453125 18.09375 C 5.113281 20.679688 6.929688 22.21875 8.746094 22.21875 C 10.175781 22.21875 11.660156 21.230469 12.648438 18.972656 C 15.179688 12.980469 15.453125 -18.203125 15.675781 -19.742188 C 17.378906 -18.425781 24.582031 12.320312 33.601562 13.308594 L 34.042969 13.308594 C 41.964844 13.308594 44.328125 -11.878906 44.328125 -26.617188 C 44.328125 -31.019531 44.109375 -34.539062 43.777344 -36.132812 C 43.117188 -39.324219 40.753906 -41.082031 38.386719 -41.082031 C 36.1875 -41.082031 33.933594 -39.488281 33.164062 -36.023438 Z M 33.164062 -36.023438 "/></g></g></g><g fill="#ff80cc" fill-opacity="1"><g transform="translate(125.124625, 47.180676)"><g><path d="M 45.921875 -36.902344 C 43.449219 -38.332031 32.777344 -39.761719 22.054688 -39.761719 C 14.847656 -39.761719 7.644531 -39.101562 2.914062 -37.34375 C 1.703125 -36.902344 1.101562 -35.859375 1.101562 -34.757812 C 1.101562 -33.546875 1.871094 -32.339844 3.519531 -31.84375 C 4.511719 -31.570312 13.472656 -29.3125 17.488281 -29.3125 C 16.996094 -22.109375 16.773438 -15.289062 16.773438 -9.128906 C 16.773438 9.789062 18.699219 22.878906 20.019531 24.144531 C 20.515625 25.628906 21.945312 26.234375 23.484375 26.234375 C 25.300781 26.234375 27.222656 25.410156 27.5 24.363281 C 29.367188 17.929688 32.007812 -4.179688 32.007812 -20.128906 C 32.007812 -23.59375 31.898438 -26.785156 31.625 -29.421875 C 34.976562 -29.753906 43.28125 -31.292969 45.757812 -32.339844 C 46.691406 -32.777344 47.242188 -33.714844 47.242188 -34.648438 C 47.242188 -35.527344 46.859375 -36.351562 45.921875 -36.902344 Z M 45.921875 -36.902344 "/></g></g></g><g fill="#ff80cc" fill-opacity="1"><g transform="translate(173.961081, 47.180676)"><g><path d="M 12.265625 11.769531 C 12.210938 10.890625 12.15625 9.625 12.15625 8.359375 C 12.15625 5.28125 12.320312 1.871094 12.320312 1.484375 C 12.320312 0.988281 12.59375 0.328125 12.980469 0.0546875 C 14.246094 -0.714844 16.003906 -0.988281 17.710938 -0.988281 C 20.625 -0.988281 23.429688 -0.109375 23.429688 0.878906 L 23.429688 0.933594 C 23.484375 1.871094 23.484375 2.75 23.484375 3.574219 C 23.484375 6.542969 23.265625 8.910156 23.207031 11.988281 C 23.375 13.53125 24.472656 14.1875 25.628906 14.1875 C 27.332031 14.1875 29.257812 12.925781 29.367188 11 C 29.863281 7.316406 30.25 2.035156 30.25 -3.628906 C 30.25 -15.621094 28.597656 -29.480469 22.878906 -34.59375 C 21.394531 -35.96875 19.523438 -36.574219 17.652344 -36.574219 C 15.675781 -36.574219 13.640625 -35.804688 12.042969 -34.375 C 6.269531 -29.039062 1.703125 -13.585938 1.703125 0.605469 C 1.703125 4.34375 2.035156 7.976562 2.695312 11.328125 C 3.246094 14.023438 5.335938 15.179688 7.425781 15.179688 C 9.570312 15.179688 11.769531 13.914062 12.265625 11.769531 Z M 16.277344 -27.5 C 16.828125 -28.652344 17.820312 -29.148438 18.808594 -29.148438 C 19.910156 -29.148438 20.953125 -28.597656 21.558594 -27.773438 C 23.484375 -24.472656 24.035156 -15.289062 24.035156 -8.578125 C 24.035156 -7.316406 24.035156 -6.160156 23.980469 -5.167969 C 23.980469 -4.839844 23.8125 -4.621094 23.59375 -4.621094 C 23.539062 -4.621094 23.429688 -4.675781 23.375 -4.675781 C 22.878906 -4.730469 21.722656 -4.785156 20.292969 -4.785156 C 17.820312 -4.785156 14.628906 -4.675781 13.585938 -4.621094 C 13.035156 -4.621094 12.757812 -4.621094 12.757812 -5.28125 L 12.757812 -6.378906 C 12.757812 -11.769531 13.585938 -22.21875 16.277344 -27.5 Z M 16.277344 -27.5 "/></g></g></g><g fill="#ff80cc" fill-opacity="1"><g transform="translate(207.508655, 47.180676)"><g><path d="M 24.75 -41.742188 L 24.253906 -41.742188 C 8.746094 -41.742188 1.539062 -25.242188 1.539062 -8.746094 C 1.539062 7.589844 8.632812 23.980469 21.777344 24.199219 C 33.382812 23.980469 36.847656 15.125 37.066406 11.660156 L 37.066406 11.441406 C 37.066406 9.183594 35.199219 8.03125 33.21875 8.03125 C 31.238281 8.03125 29.257812 9.183594 29.039062 11.550781 C 28.597656 17.710938 25.078125 19.359375 22.328125 19.359375 L 22.164062 19.359375 C 16.5 19.25 13.585938 6.269531 13.585938 -7.257812 C 13.585938 -22 17.050781 -37.398438 24.089844 -37.453125 L 24.144531 -37.453125 C 29.421875 -37.453125 30.414062 -29.972656 30.414062 -22.21875 C 30.414062 -19.46875 30.304688 -16.664062 30.195312 -14.1875 L 30.195312 -13.695312 C 30.195312 -9.460938 32.339844 -7.753906 34.703125 -7.753906 C 37.507812 -7.753906 40.699219 -10.121094 41.027344 -13.417969 C 41.191406 -14.960938 41.304688 -16.609375 41.304688 -18.203125 C 41.304688 -29.644531 36.792969 -41.46875 24.75 -41.742188 Z M 24.75 -41.742188 "/></g></g></g><g fill="#ff80cc" fill-opacity="1"><g transform="translate(251.120483, 47.180676)"><g><path d="M 45.921875 -36.902344 C 43.449219 -38.332031 32.777344 -39.761719 22.054688 -39.761719 C 14.847656 -39.761719 7.644531 -39.101562 2.914062 -37.34375 C 1.703125 -36.902344 1.101562 -35.859375 1.101562 -34.757812 C 1.101562 -33.546875 1.871094 -32.339844 3.519531 -31.84375 C 4.511719 -31.570312 13.472656 -29.3125 17.488281 -29.3125 C 16.996094 -22.109375 16.773438 -15.289062 16.773438 -9.128906 C 16.773438 9.789062 18.699219 22.878906 20.019531 24.144531 C 20.515625 25.628906 21.945312 26.234375 23.484375 26.234375 C 25.300781 26.234375 27.222656 25.410156 27.5 24.363281 C 29.367188 17.929688 32.007812 -4.179688 32.007812 -20.128906 C 32.007812 -23.59375 31.898438 -26.785156 31.625 -29.421875 C 34.976562 -29.753906 43.28125 -31.292969 45.757812 -32.339844 C 46.691406 -32.777344 47.242188 -33.714844 47.242188 -34.648438 C 47.242188 -35.527344 46.859375 -36.351562 45.921875 -36.902344 Z M 45.921875 -36.902344 "/></g></g></g><path stroke-linecap="butt" transform="matrix(0.75, 0, 0, 0.75, 0.000006, 7.250001)" fill="none" stroke-linejoin="miter" d="M 36.291662 -5.66146 L 35.630203 -5.66146 C 14.953118 -5.66146 5.354159 16.34375 5.354159 38.343752 C 5.354159 60.114587 14.807285 81.973964 32.333328 82.260422 C 47.802079 81.973964 52.421871 70.156254 52.729163 65.541671 L 52.729163 65.255212 C 52.729163 62.244795 50.218746 60.708337 47.588538 60.708337 C 44.958329 60.708337 42.307287 62.244795 42.020829 65.395837 C 41.432287 73.614588 36.739578 75.817713 33.067703 75.817713 L 32.854161 75.817713 C 25.296869 75.67188 21.41666 58.359378 21.41666 40.312502 C 21.41666 20.677084 26.031244 0.140624 35.416662 0.067707 L 35.48437 0.067707 C 42.520829 0.067707 43.848954 10.041666 43.848954 20.369792 C 43.848954 24.041667 43.703121 27.781251 43.562496 31.078126 L 43.562496 31.739585 C 43.562496 37.38021 46.406246 39.651044 49.578121 39.651044 C 53.30208 39.651044 57.562497 36.500002 58.010413 32.114585 C 58.223955 30.057293 58.36458 27.854168 58.36458 25.723959 C 58.36458 10.46875 52.348955 -5.28646 36.291662 -5.66146 Z M 78.687498 66.505212 L 78.973957 66.505212 C 93.203125 66.505212 100.171875 48.979169 100.171875 32.187501 C 100.171875 16.859375 94.369791 2.182291 82.859374 1.895832 L 82.411457 1.895832 C 68.713539 1.895832 62.624997 18.473959 62.624997 34.81771 C 62.624997 50.661461 68.338539 66.343754 78.687498 66.505212 Z M 78.598957 11.9375 C 83.30729 12.083333 85.416666 21.411459 85.416666 31.307293 C 85.416666 42.822919 82.572915 55.208337 77.578123 55.208337 L 77.43229 55.208337 C 72.223956 54.994795 69.947914 46.041669 69.947914 36.359377 C 69.947914 24.703126 73.24479 11.9375 78.52604 11.9375 Z M 146.510421 1.968749 C 144.453129 11.510416 142.69792 53.364586 142.625004 53.453128 C 135.427086 34.458335 129.859378 18.6875 122.375002 3.812499 C 120.104168 -0.734376 117.328127 -2.276043 114.822918 -2.276043 C 111.171876 -2.276043 108.000001 1.015624 107.427084 3.078124 C 105.369792 10.401041 104.276042 23.234376 104.276042 36.359377 C 104.276042 50.734378 105.583334 65.468754 108.234376 74.135421 C 109.109376 77.572922 111.526043 79.630214 113.94271 79.630214 C 115.859376 79.630214 117.828127 78.302088 119.156252 75.29688 C 122.520835 67.312504 122.895835 25.723959 123.182294 23.682292 C 125.458336 25.437501 135.067711 66.432296 147.098962 67.739588 L 147.671879 67.739588 C 158.23438 67.739588 161.385422 34.156251 161.385422 14.515625 C 161.385422 8.645833 161.098963 3.953124 160.651047 1.822916 C 159.776047 -2.437501 156.625005 -4.781252 153.473963 -4.781252 C 150.536463 -4.781252 147.531254 -2.651043 146.510421 1.968749 Z M 224.817719 0.802082 C 221.526052 -1.114585 207.291676 -3.010418 192.989591 -3.010418 C 183.390632 -3.010418 173.776048 -2.135418 167.479172 0.21354 C 165.864589 0.802082 165.062505 2.182291 165.062505 3.651041 C 165.062505 5.260416 166.078131 6.890624 168.281256 7.536458 C 169.609381 7.911458 181.567715 10.916666 186.921882 10.916666 C 186.255216 20.515625 185.953132 29.609376 185.953132 37.828127 C 185.953132 63.052087 188.531257 80.505214 190.286466 82.187505 C 190.947924 84.177089 192.843758 84.984381 194.906258 84.984381 C 197.322925 84.984381 199.90105 83.869797 200.255217 82.494797 C 202.7448 73.901046 206.270842 44.432294 206.270842 23.161459 C 206.270842 18.546875 206.130217 14.28125 205.755217 10.776041 C 210.229176 10.328125 221.31251 8.270833 224.604177 6.890624 C 225.838552 6.296874 226.572927 5.046874 226.572927 3.812499 C 226.572927 2.630207 226.072927 1.536457 224.817719 0.802082 Z M 245.052095 65.703129 C 244.979179 64.520837 244.91147 62.838546 244.91147 61.151045 C 244.91147 57.036462 245.140637 52.489586 245.140637 51.989586 C 245.140637 51.32292 245.500012 50.447919 246.020845 50.072919 C 247.703137 49.052086 250.046887 48.677086 252.322929 48.677086 C 256.208346 48.677086 259.94793 49.859378 259.94793 51.182295 L 259.94793 51.255211 C 260.020847 52.489586 260.020847 53.671878 260.020847 54.76042 C 260.020847 58.718754 259.734388 61.88542 259.661472 65.989587 C 259.875013 68.046879 261.343763 68.921879 262.88543 68.921879 C 265.156264 68.921879 267.718764 67.239588 267.859389 64.661462 C 268.520847 59.755212 269.041681 52.718753 269.041681 45.166669 C 269.041681 29.177084 266.838555 10.703125 259.213555 3.880207 C 257.223971 2.036457 254.739596 1.234374 252.250013 1.234374 C 249.598971 1.234374 246.895845 2.270832 244.765637 4.166666 C 237.06772 11.276041 230.979178 31.88021 230.979178 50.807295 C 230.979178 55.802087 231.427094 60.63542 232.307303 65.109379 C 233.041678 68.692713 235.812511 70.229171 238.609386 70.229171 C 241.47397 70.229171 244.406262 68.546879 245.052095 65.703129 Z M 250.406262 13.333333 C 251.140638 11.796875 252.463554 11.135416 253.791679 11.135416 C 255.255221 11.135416 256.651055 11.864583 257.458346 12.979166 C 260.020847 17.364583 260.755222 29.609376 260.755222 38.562502 C 260.755222 40.244794 260.755222 41.781252 260.682305 43.109377 C 260.682305 43.557294 260.468763 43.843752 260.161472 43.843752 C 260.088555 43.843752 259.94793 43.770836 259.875013 43.770836 C 259.213555 43.697919 257.671888 43.625002 255.76043 43.625002 C 252.463554 43.625002 248.218762 43.770836 246.822929 43.843752 C 246.088554 43.843752 245.713554 43.843752 245.713554 42.963544 L 245.713554 41.494794 C 245.713554 34.296877 246.822929 20.369792 250.406262 13.333333 Z M 306.432309 -5.66146 L 305.77085 -5.66146 C 285.093765 -5.66146 275.494806 16.34375 275.494806 38.343752 C 275.494806 60.114587 284.947932 81.973964 302.473975 82.260422 C 317.942726 81.973964 322.562518 70.156254 322.864602 65.541671 L 322.864602 65.255212 C 322.864602 62.244795 320.359393 60.708337 317.729185 60.708337 C 315.098976 60.708337 312.447934 62.244795 312.161476 65.395837 C 311.572934 73.614588 306.880225 75.817713 303.20835 75.817713 L 302.994808 75.817713 C 295.437516 75.67188 291.557307 58.359378 291.557307 40.312502 C 291.557307 20.677084 296.171891 0.140624 305.557309 0.067707 L 305.625017 0.067707 C 312.661476 0.067707 313.989601 10.041666 313.989601 20.369792 C 313.989601 24.041667 313.843768 27.781251 313.703143 31.078126 L 313.703143 31.739585 C 313.703143 37.38021 316.546893 39.651044 319.71356 39.651044 C 323.437518 39.651044 327.703144 36.500002 328.145852 32.114585 C 328.364602 30.057293 328.505227 27.854168 328.505227 25.723959 C 328.505227 10.46875 322.489602 -5.28646 306.432309 -5.66146 Z M 392.812524 0.802082 C 389.520857 -1.114585 375.286481 -3.010418 360.984396 -3.010418 C 351.385437 -3.010418 341.770853 -2.135418 335.468769 0.21354 C 333.859394 0.802082 333.052103 2.182291 333.052103 3.651041 C 333.052103 5.260416 334.072936 6.890624 336.276061 7.536458 C 337.604186 7.911458 349.562521 10.916666 354.911479 10.916666 C 354.250021 20.515625 353.947938 29.609376 353.947938 37.828127 C 353.947938 63.052087 356.526063 80.505214 358.281271 82.187505 C 358.94273 84.177089 360.838563 84.984381 362.901063 84.984381 C 365.31773 84.984381 367.895855 83.869797 368.250022 82.494797 C 370.739606 73.901046 374.265648 44.432294 374.265648 23.161459 C 374.265648 18.546875 374.125023 14.28125 373.750023 10.776041 C 378.223981 10.328125 389.307315 8.270833 392.598982 6.890624 C 393.833357 6.296874 394.567733 5.046874 394.567733 3.812499 C 394.567733 2.630207 394.067733 1.536457 392.812524 0.802082 Z M 392.812524 0.802082 " stroke="#ff0099" stroke-width="2.749999" stroke-opacity="1" stroke-miterlimit="4"/></svg>