<svg xmlns="http://www.w3.org/2000/svg" xmlns:xlink="http://www.w3.org/1999/xlink" width="250" zoomAndPan="magnify" viewBox="0 0 187.5 74.999997" height="100" preserveAspectRatio="xMidYMid meet" version="1.0"><defs><g/><clipPath id="eabea2a87d"><path d="M 0 0.101562 L 187 0.101562 L 187 74.898438 L 0 74.898438 Z M 0 0.101562 " clip-rule="nonzero"/></clipPath></defs><g fill="#ffffff" fill-opacity="1"><g transform="translate(2.625, 44.299726)"><g><path d="M 11.816406 11.339844 C 11.765625 10.492188 11.710938 9.273438 11.710938 8.054688 C 11.710938 5.085938 11.871094 1.800781 11.871094 1.429688 C 11.871094 0.953125 12.136719 0.316406 12.507812 0.0546875 C 13.726562 -0.6875 15.421875 -0.953125 17.0625 -0.953125 C 19.875 -0.953125 22.574219 -0.105469 22.574219 0.847656 L 22.574219 0.902344 C 22.628906 1.800781 22.628906 2.648438 22.628906 3.445312 C 22.628906 6.304688 22.417969 8.585938 22.363281 11.554688 C 22.523438 13.035156 23.582031 13.671875 24.695312 13.671875 C 26.339844 13.671875 28.191406 12.453125 28.300781 10.597656 C 28.777344 7.046875 29.148438 1.960938 29.148438 -3.496094 C 29.148438 -15.050781 27.558594 -28.40625 22.046875 -33.332031 C 20.613281 -34.660156 18.8125 -35.242188 17.011719 -35.242188 C 15.105469 -35.242188 13.144531 -34.5 11.605469 -33.121094 C 6.042969 -27.980469 1.644531 -13.089844 1.644531 0.582031 C 1.644531 4.1875 1.960938 7.683594 2.597656 10.917969 C 3.125 13.515625 5.140625 14.625 7.15625 14.625 C 9.222656 14.625 11.339844 13.40625 11.816406 11.339844 Z M 15.6875 -26.496094 C 16.214844 -27.609375 17.171875 -28.085938 18.125 -28.085938 C 19.183594 -28.085938 20.191406 -27.558594 20.773438 -26.761719 C 22.628906 -23.582031 23.160156 -14.734375 23.160156 -8.265625 C 23.160156 -7.046875 23.160156 -5.933594 23.105469 -4.980469 C 23.105469 -4.664062 22.945312 -4.453125 22.734375 -4.453125 C 22.683594 -4.453125 22.574219 -4.503906 22.523438 -4.503906 C 22.046875 -4.558594 20.933594 -4.609375 19.554688 -4.609375 C 17.171875 -4.609375 14.097656 -4.503906 13.089844 -4.453125 C 12.558594 -4.453125 12.292969 -4.453125 12.292969 -5.085938 L 12.292969 -6.148438 C 12.292969 -11.339844 13.089844 -21.410156 15.6875 -26.496094 Z M 15.6875 -26.496094 "/></g></g></g><g fill="#ffffff" fill-opacity="1"><g transform="translate(34.950254, 44.299726)"><g><path d="M 15.261719 -37.519531 L 15.261719 -37.679688 C 15.261719 -39.164062 12.1875 -40.328125 8.957031 -40.328125 C 5.722656 -40.328125 2.386719 -39.214844 1.90625 -36.089844 C 1.378906 -28.140625 1.058594 -20.351562 1.058594 -12.984375 C 1.058594 -0.371094 2.015625 11.074219 4.558594 20.03125 C 5.140625 22.574219 7.367188 23.371094 9.539062 23.371094 C 11.605469 23.371094 13.566406 22.683594 13.882812 22.203125 C 14.203125 21.726562 14.519531 21.570312 14.785156 21.570312 C 15.050781 21.570312 15.316406 21.675781 15.632812 21.78125 C 17.488281 22.3125 19.238281 22.574219 20.933594 22.574219 C 28.828125 22.574219 34.660156 17.171875 34.660156 10.546875 C 34.660156 9.59375 34.554688 8.636719 34.289062 7.683594 C 32.75 1.644531 26.867188 -0.476562 20.722656 -1.695312 C 30.152344 -4.238281 35.1875 -13.566406 35.1875 -22.363281 C 35.1875 -29.09375 32.273438 -35.507812 26.125 -38.316406 C 24.324219 -39.164062 22.683594 -39.429688 21.25 -39.429688 C 17.964844 -39.429688 15.6875 -37.890625 15.261719 -37.519531 Z M 27.082031 10.757812 C 27.082031 16.695312 24.378906 19.34375 20.191406 19.34375 L 19.449219 19.34375 C 17.222656 19.132812 14.519531 18.601562 14.46875 16.375 C 14.308594 13.089844 13.9375 9.75 13.9375 6.570312 C 13.9375 5.988281 13.992188 5.457031 13.992188 4.875 L 13.992188 4.824219 C 13.992188 2.492188 16.535156 2.121094 18.125 2.121094 C 18.496094 2.121094 18.867188 2.171875 19.078125 2.171875 C 24.90625 2.648438 27.082031 7.472656 27.082031 10.757812 Z M 16.851562 -3.976562 C 16.480469 -3.761719 15.6875 -3.550781 15.105469 -3.550781 C 14.625 -3.550781 14.308594 -3.65625 14.308594 -3.921875 L 14.308594 -4.027344 C 14.203125 -5.566406 14.203125 -7.683594 14.203125 -10.121094 C 14.203125 -18.601562 14.625 -30.632812 14.996094 -32.964844 C 15.210938 -34.289062 17.964844 -35.347656 20.242188 -35.347656 L 20.722656 -35.347656 C 24.75 -34.871094 26.710938 -30.207031 26.710938 -24.535156 C 26.710938 -17.011719 23.316406 -7.683594 16.851562 -3.976562 Z M 16.851562 -3.976562 "/></g></g></g><g fill="#ffffff" fill-opacity="1"><g transform="translate(72.309774, 44.299726)"><g><path d="M 12.453125 11.925781 L 12.664062 11.925781 C 22.945312 11.925781 27.980469 -0.742188 27.980469 -12.878906 C 27.980469 -23.953125 23.792969 -34.554688 15.472656 -34.765625 L 15.15625 -34.765625 C 5.246094 -34.765625 0.847656 -22.789062 0.847656 -10.96875 C 0.847656 0.476562 4.980469 11.816406 12.453125 11.925781 Z M 12.402344 -27.503906 C 15.792969 -27.398438 17.328125 -20.667969 17.328125 -13.515625 C 17.328125 -5.195312 15.261719 3.761719 11.660156 3.761719 L 11.554688 3.761719 C 7.789062 3.605469 6.148438 -2.863281 6.148438 -9.855469 C 6.148438 -18.285156 8.53125 -27.503906 12.347656 -27.503906 Z M 12.402344 -27.503906 "/></g></g></g><g fill="#ffffff" fill-opacity="1"><g transform="translate(101.826441, 44.299726)"><g><path d="M 3.074219 -30.578125 C 1.695312 -27.34375 0.953125 -20.667969 0.953125 -13.566406 C 0.953125 -4.503906 2.171875 5.195312 4.929688 9.328125 C 7.207031 12.773438 11.128906 14.46875 14.890625 14.46875 C 18.496094 14.46875 22.046875 12.929688 24.007812 10.070312 C 24.007812 10.597656 23.953125 11.234375 23.953125 11.976562 C 23.953125 14.203125 24.273438 16.90625 26.179688 16.90625 C 26.445312 16.90625 26.761719 16.851562 27.082031 16.746094 C 27.929688 16.480469 28.617188 15.953125 29.148438 15.210938 C 32.167969 10.8125 34.554688 -5.617188 34.554688 -17.753906 C 34.554688 -22.945312 34.128906 -27.292969 33.121094 -29.625 C 32.59375 -30.894531 30.523438 -31.691406 28.671875 -31.691406 C 27.082031 -31.691406 25.648438 -31.109375 25.648438 -29.675781 L 25.648438 -29.625 C 25.703125 -29.042969 25.703125 -28.40625 25.703125 -27.664062 C 25.703125 -20.085938 24.324219 -3.761719 23.953125 0.582031 C 23.636719 4.558594 21.570312 10.863281 17.648438 10.917969 L 17.488281 10.917969 C 13.355469 10.917969 12.1875 6.996094 12.1875 1.484375 C 12.1875 -5.195312 13.882812 -14.253906 13.882812 -21.570312 C 13.882812 -25.277344 13.460938 -28.511719 12.1875 -30.789062 C 11.5 -32.007812 9.484375 -32.699219 7.523438 -32.699219 C 5.511719 -32.699219 3.605469 -32.007812 3.074219 -30.578125 Z M 3.074219 -30.578125 "/></g></g></g><g fill="#ffffff" fill-opacity="1"><g transform="translate(137.808162, 44.299726)"><g><path d="M 44.25 -35.558594 C 41.867188 -36.9375 31.585938 -38.316406 21.25 -38.316406 C 14.308594 -38.316406 7.367188 -37.679688 2.808594 -35.984375 C 1.644531 -35.558594 1.058594 -34.554688 1.058594 -33.492188 C 1.058594 -32.328125 1.800781 -31.160156 3.390625 -30.683594 C 4.34375 -30.417969 12.984375 -28.246094 16.851562 -28.246094 C 16.375 -21.304688 16.164062 -14.734375 16.164062 -8.796875 C 16.164062 9.433594 18.019531 22.046875 19.289062 23.265625 C 19.765625 24.695312 21.144531 25.277344 22.628906 25.277344 C 24.378906 25.277344 26.234375 24.484375 26.496094 23.476562 C 28.300781 17.277344 30.84375 -4.027344 30.84375 -19.394531 C 30.84375 -22.734375 30.738281 -25.808594 30.472656 -28.351562 C 33.703125 -28.671875 41.707031 -30.152344 44.09375 -31.160156 C 44.992188 -31.585938 45.523438 -32.484375 45.523438 -33.386719 C 45.523438 -34.234375 45.152344 -35.03125 44.25 -35.558594 Z M 44.25 -35.558594 "/></g></g></g><g fill="#ff80cc" fill-opacity="1"><g transform="translate(4.967292, 46.642018)"><g><path d="M 11.816406 11.339844 C 11.765625 10.492188 11.710938 9.273438 11.710938 8.054688 C 11.710938 5.085938 11.871094 1.800781 11.871094 1.429688 C 11.871094 0.953125 12.136719 0.316406 12.507812 0.0546875 C 13.726562 -0.6875 15.421875 -0.953125 17.0625 -0.953125 C 19.875 -0.953125 22.574219 -0.105469 22.574219 0.847656 L 22.574219 0.902344 C 22.628906 1.800781 22.628906 2.648438 22.628906 3.445312 C 22.628906 6.304688 22.417969 8.585938 22.363281 11.554688 C 22.523438 13.035156 23.582031 13.671875 24.695312 13.671875 C 26.339844 13.671875 28.191406 12.453125 28.300781 10.597656 C 28.777344 7.046875 29.148438 1.960938 29.148438 -3.496094 C 29.148438 -15.050781 27.558594 -28.40625 22.046875 -33.332031 C 20.613281 -34.660156 18.8125 -35.242188 17.011719 -35.242188 C 15.105469 -35.242188 13.144531 -34.5 11.605469 -33.121094 C 6.042969 -27.980469 1.644531 -13.089844 1.644531 0.582031 C 1.644531 4.1875 1.960938 7.683594 2.597656 10.917969 C 3.125 13.515625 5.140625 14.625 7.15625 14.625 C 9.222656 14.625 11.339844 13.40625 11.816406 11.339844 Z M 15.6875 -26.496094 C 16.214844 -27.609375 17.171875 -28.085938 18.125 -28.085938 C 19.183594 -28.085938 20.191406 -27.558594 20.773438 -26.761719 C 22.628906 -23.582031 23.160156 -14.734375 23.160156 -8.265625 C 23.160156 -7.046875 23.160156 -5.933594 23.105469 -4.980469 C 23.105469 -4.664062 22.945312 -4.453125 22.734375 -4.453125 C 22.683594 -4.453125 22.574219 -4.503906 22.523438 -4.503906 C 22.046875 -4.558594 20.933594 -4.609375 19.554688 -4.609375 C 17.171875 -4.609375 14.097656 -4.503906 13.089844 -4.453125 C 12.558594 -4.453125 12.292969 -4.453125 12.292969 -5.085938 L 12.292969 -6.148438 C 12.292969 -11.339844 13.089844 -21.410156 15.6875 -26.496094 Z M 15.6875 -26.496094 "/></g></g></g><g fill="#ff80cc" fill-opacity="1"><g transform="translate(37.292546, 46.642018)"><g><path d="M 15.261719 -37.519531 L 15.261719 -37.679688 C 15.261719 -39.164062 12.1875 -40.328125 8.957031 -40.328125 C 5.722656 -40.328125 2.386719 -39.214844 1.90625 -36.089844 C 1.378906 -28.140625 1.058594 -20.351562 1.058594 -12.984375 C 1.058594 -0.371094 2.015625 11.074219 4.558594 20.03125 C 5.140625 22.574219 7.367188 23.371094 9.539062 23.371094 C 11.605469 23.371094 13.566406 22.683594 13.882812 22.203125 C 14.203125 21.726562 14.519531 21.570312 14.785156 21.570312 C 15.050781 21.570312 15.316406 21.675781 15.632812 21.78125 C 17.488281 22.3125 19.238281 22.574219 20.933594 22.574219 C 28.828125 22.574219 34.660156 17.171875 34.660156 10.546875 C 34.660156 9.59375 34.554688 8.636719 34.289062 7.683594 C 32.75 1.644531 26.867188 -0.476562 20.722656 -1.695312 C 30.152344 -4.238281 35.1875 -13.566406 35.1875 -22.363281 C 35.1875 -29.09375 32.273438 -35.507812 26.125 -38.316406 C 24.324219 -39.164062 22.683594 -39.429688 21.25 -39.429688 C 17.964844 -39.429688 15.6875 -37.890625 15.261719 -37.519531 Z M 27.082031 10.757812 C 27.082031 16.695312 24.378906 19.34375 20.191406 19.34375 L 19.449219 19.34375 C 17.222656 19.132812 14.519531 18.601562 14.46875 16.375 C 14.308594 13.089844 13.9375 9.75 13.9375 6.570312 C 13.9375 5.988281 13.992188 5.457031 13.992188 4.875 L 13.992188 4.824219 C 13.992188 2.492188 16.535156 2.121094 18.125 2.121094 C 18.496094 2.121094 18.867188 2.171875 19.078125 2.171875 C 24.90625 2.648438 27.082031 7.472656 27.082031 10.757812 Z M 16.851562 -3.976562 C 16.480469 -3.761719 15.6875 -3.550781 15.105469 -3.550781 C 14.625 -3.550781 14.308594 -3.65625 14.308594 -3.921875 L 14.308594 -4.027344 C 14.203125 -5.566406 14.203125 -7.683594 14.203125 -10.121094 C 14.203125 -18.601562 14.625 -30.632812 14.996094 -32.964844 C 15.210938 -34.289062 17.964844 -35.347656 20.242188 -35.347656 L 20.722656 -35.347656 C 24.75 -34.871094 26.710938 -30.207031 26.710938 -24.535156 C 26.710938 -17.011719 23.316406 -7.683594 16.851562 -3.976562 Z M 16.851562 -3.976562 "/></g></g></g><g fill="#ff80cc" fill-opacity="1"><g transform="translate(74.652066, 46.642018)"><g><path d="M 12.453125 11.925781 L 12.664062 11.925781 C 22.945312 11.925781 27.980469 -0.742188 27.980469 -12.878906 C 27.980469 -23.953125 23.792969 -34.554688 15.472656 -34.765625 L 15.15625 -34.765625 C 5.246094 -34.765625 0.847656 -22.789062 0.847656 -10.96875 C 0.847656 0.476562 4.980469 11.816406 12.453125 11.925781 Z M 12.402344 -27.503906 C 15.792969 -27.398438 17.328125 -20.667969 17.328125 -13.515625 C 17.328125 -5.195312 15.261719 3.761719 11.660156 3.761719 L 11.554688 3.761719 C 7.789062 3.605469 6.148438 -2.863281 6.148438 -9.855469 C 6.148438 -18.285156 8.53125 -27.503906 12.347656 -27.503906 Z M 12.402344 -27.503906 "/></g></g></g><g fill="#ff80cc" fill-opacity="1"><g transform="translate(104.168734, 46.642018)"><g><path d="M 3.074219 -30.578125 C 1.695312 -27.34375 0.953125 -20.667969 0.953125 -13.566406 C 0.953125 -4.503906 2.171875 5.195312 4.929688 9.328125 C 7.207031 12.773438 11.128906 14.46875 14.890625 14.46875 C 18.496094 14.46875 22.046875 12.929688 24.007812 10.070312 C 24.007812 10.597656 23.953125 11.234375 23.953125 11.976562 C 23.953125 14.203125 24.273438 16.90625 26.179688 16.90625 C 26.445312 16.90625 26.761719 16.851562 27.082031 16.746094 C 27.929688 16.480469 28.617188 15.953125 29.148438 15.210938 C 32.167969 10.8125 34.554688 -5.617188 34.554688 -17.753906 C 34.554688 -22.945312 34.128906 -27.292969 33.121094 -29.625 C 32.59375 -30.894531 30.523438 -31.691406 28.671875 -31.691406 C 27.082031 -31.691406 25.648438 -31.109375 25.648438 -29.675781 L 25.648438 -29.625 C 25.703125 -29.042969 25.703125 -28.40625 25.703125 -27.664062 C 25.703125 -20.085938 24.324219 -3.761719 23.953125 0.582031 C 23.636719 4.558594 21.570312 10.863281 17.648438 10.917969 L 17.488281 10.917969 C 13.355469 10.917969 12.1875 6.996094 12.1875 1.484375 C 12.1875 -5.195312 13.882812 -14.253906 13.882812 -21.570312 C 13.882812 -25.277344 13.460938 -28.511719 12.1875 -30.789062 C 11.5 -32.007812 9.484375 -32.699219 7.523438 -32.699219 C 5.511719 -32.699219 3.605469 -32.007812 3.074219 -30.578125 Z M 3.074219 -30.578125 "/></g></g></g><g fill="#ff80cc" fill-opacity="1"><g transform="translate(140.150455, 46.642018)"><g><path d="M 44.25 -35.558594 C 41.867188 -36.9375 31.585938 -38.316406 21.25 -38.316406 C 14.308594 -38.316406 7.367188 -37.679688 2.808594 -35.984375 C 1.644531 -35.558594 1.058594 -34.554688 1.058594 -33.492188 C 1.058594 -32.328125 1.800781 -31.160156 3.390625 -30.683594 C 4.34375 -30.417969 12.984375 -28.246094 16.851562 -28.246094 C 16.375 -21.304688 16.164062 -14.734375 16.164062 -8.796875 C 16.164062 9.433594 18.019531 22.046875 19.289062 23.265625 C 19.765625 24.695312 21.144531 25.277344 22.628906 25.277344 C 24.378906 25.277344 26.234375 24.484375 26.496094 23.476562 C 28.300781 17.277344 30.84375 -4.027344 30.84375 -19.394531 C 30.84375 -22.734375 30.738281 -25.808594 30.472656 -28.351562 C 33.703125 -28.671875 41.707031 -30.152344 44.09375 -31.160156 C 44.992188 -31.585938 45.523438 -32.484375 45.523438 -33.386719 C 45.523438 -34.234375 45.152344 -35.03125 44.25 -35.558594 Z M 44.25 -35.558594 "/></g></g></g><g clip-path="url(#eabea2a87d)"><path stroke-linecap="butt" transform="matrix(0.75, 0, 0, 0.75, 0.000000000000095923, 9.049729)" fill="none" stroke-linejoin="miter" d="M 19.250002 62.131617 C 19.182293 60.990991 19.114585 59.3712 19.114585 57.7462 C 19.114585 53.777449 19.338543 49.397241 19.338543 48.912865 C 19.338543 48.277449 19.682293 47.433699 20.182293 47.069115 C 21.802085 46.08474 24.062502 45.725365 26.255211 45.725365 C 30.000003 45.725365 33.604169 46.860782 33.604169 48.136824 L 33.604169 48.20974 C 33.671878 49.397241 33.671878 50.537866 33.671878 51.589949 C 33.671878 55.402449 33.395836 58.454533 33.328128 62.407658 C 33.536461 64.386825 34.94792 65.235784 36.432295 65.235784 C 38.625003 65.235784 41.088545 63.610783 41.22917 61.126408 C 41.864587 56.402449 42.364587 49.621199 42.364587 42.339948 C 42.364587 26.938905 40.244795 9.131612 32.895836 2.563903 C 30.979169 0.782653 28.583336 0.00661135 26.187502 0.00661135 C 23.63021 0.00661135 21.026043 1.006611 18.97396 2.839945 C 11.557293 9.683695 5.692709 29.543072 5.692709 47.777449 C 5.692709 52.589949 6.119792 57.246199 6.968751 61.5587 C 7.677084 65.011825 10.348959 66.4962 13.041668 66.4962 C 15.802085 66.4962 18.63021 64.8712 19.250002 62.131617 Z M 24.406252 11.668071 C 25.114585 10.188904 26.390627 9.548279 27.666669 9.548279 C 29.083336 9.548279 30.427086 10.256612 31.203128 11.324321 C 33.671878 15.553488 34.380211 27.350364 34.380211 35.975364 C 34.380211 37.600365 34.380211 39.079531 34.312503 40.360781 C 34.312503 40.787865 34.10417 41.063906 33.812503 41.063906 C 33.739586 41.063906 33.604169 40.996198 33.536461 40.996198 C 32.895836 40.92849 31.411461 40.860781 29.567711 40.860781 C 26.390627 40.860781 22.302085 40.996198 20.958335 41.063906 C 20.250002 41.063906 19.890627 41.063906 19.890627 40.220156 L 19.890627 38.80349 C 19.890627 31.871197 20.958335 18.449321 24.406252 11.668071 Z M 66.958339 -3.029847 L 66.958339 -3.232972 C 66.958339 -5.217347 62.848964 -6.769431 58.536463 -6.769431 C 54.223963 -6.769431 49.776046 -5.290264 49.135421 -1.11318 C 48.427087 9.48057 48.015629 19.865988 48.015629 29.678489 C 48.015629 46.501407 49.291671 61.767033 52.671879 73.704534 C 53.447921 77.100368 56.416671 78.15766 59.312505 78.15766 C 62.072922 78.15766 64.697922 77.240993 65.10938 76.600368 C 65.541672 75.964951 65.958339 75.756618 66.317714 75.756618 C 66.661464 75.756618 67.026047 75.897243 67.437506 76.032659 C 69.921881 76.740993 72.250006 77.100368 74.510423 77.100368 C 85.036465 77.100368 92.817716 69.892034 92.817716 61.0587 C 92.817716 59.782658 92.677091 58.522241 92.317716 57.246199 C 90.260424 49.188907 82.432299 46.360782 74.234381 44.74099 C 86.812507 41.339948 93.520841 28.902447 93.520841 17.173279 C 93.520841 8.204529 89.625008 -0.337139 81.432299 -4.081931 C 79.031257 -5.217347 76.843756 -5.566306 74.92709 -5.566306 C 70.562506 -5.566306 67.510422 -3.529847 66.958339 -3.029847 Z M 82.70834 61.334742 C 82.70834 69.251409 79.098965 72.787867 73.531256 72.787867 L 72.526048 72.787867 C 69.562506 72.511826 65.958339 71.808701 65.885422 68.83995 C 65.682297 64.459742 65.177089 60.006616 65.177089 55.761824 C 65.177089 54.985783 65.250005 54.277449 65.250005 53.501408 L 65.250005 53.433699 C 65.250005 50.329532 68.645839 49.829532 70.770839 49.829532 C 71.270839 49.829532 71.750006 49.897241 72.046881 49.897241 C 79.807298 50.537866 82.70834 56.970158 82.70834 61.334742 Z M 69.078131 41.704532 C 68.578131 41.980573 67.510422 42.27224 66.734381 42.27224 C 66.093756 42.27224 65.682297 42.11599 65.682297 41.77224 L 65.682297 41.636823 C 65.541672 39.579531 65.541672 36.751406 65.541672 33.511823 C 65.541672 22.194113 66.093756 6.16807 66.593756 3.04307 C 66.885422 1.282653 70.562506 -0.128805 73.598965 -0.128805 L 74.234381 -0.128805 C 79.598965 0.506611 82.20834 6.720154 82.20834 14.293071 C 82.20834 24.313905 77.687507 36.751406 69.078131 41.704532 Z M 113.026051 62.907658 L 113.302093 62.907658 C 127.015636 62.907658 133.729178 46.017032 133.729178 29.834739 C 133.729178 15.069113 128.135427 0.923278 117.046885 0.647236 L 116.614593 0.647236 C 103.416675 0.647236 97.552092 16.621196 97.552092 32.371197 C 97.552092 47.636824 103.052092 62.751408 113.026051 62.907658 Z M 112.93751 10.324321 C 117.473968 10.464946 119.510427 19.449321 119.510427 28.990989 C 119.510427 40.08474 116.770843 52.022241 111.958343 52.022241 L 111.817718 52.022241 C 106.796884 51.813907 104.609384 43.188907 104.609384 33.855573 C 104.609384 22.626405 107.781259 10.324321 112.869801 10.324321 Z M 139.875012 6.235779 C 138.026053 10.532654 137.046887 19.449321 137.046887 28.902447 C 137.046887 40.996198 138.666678 53.918074 142.343762 59.438908 C 145.375012 64.02745 150.604179 66.287867 155.625013 66.287867 C 160.437514 66.287867 165.166681 64.235783 167.770847 60.423283 C 167.770847 61.126408 167.697931 61.975367 167.697931 62.975367 C 167.697931 65.944117 168.130222 69.548284 170.666681 69.548284 C 171.031264 69.548284 171.442723 69.480576 171.875014 69.324326 C 173.01564 68.975367 173.927098 68.272242 174.635431 67.287867 C 178.656265 61.423283 181.843765 39.511823 181.843765 23.32953 C 181.843765 16.397238 181.276057 10.615987 179.932307 7.496195 C 179.223973 5.803487 176.463557 4.751403 173.994806 4.751403 C 171.875014 4.751403 169.958348 5.527445 169.958348 7.428487 L 169.958348 7.496195 C 170.046889 8.272237 170.046889 9.131612 170.046889 10.115987 C 170.046889 20.225363 168.197931 41.980573 167.697931 47.777449 C 167.286472 53.074324 164.526056 61.490992 159.296888 61.5587 L 159.093763 61.5587 C 153.57293 61.5587 152.020846 56.334741 152.020846 48.985782 C 152.020846 40.08474 154.281263 27.990989 154.281263 18.240988 C 154.281263 13.293071 153.708346 8.98057 152.020846 5.944112 C 151.104179 4.319112 148.411471 3.407653 145.807304 3.407653 C 143.119804 3.407653 140.583345 4.319112 139.875012 6.235779 Z M 242.744812 -0.404847 C 239.567729 -2.253806 225.854186 -4.081931 212.072935 -4.081931 C 202.822934 -4.081931 193.562516 -3.232972 187.489599 -0.972555 C 185.937516 -0.404847 185.156266 0.923278 185.156266 2.334737 C 185.156266 3.892028 186.140641 5.459737 188.265641 6.079529 C 189.541683 6.444112 201.062517 9.339945 206.223976 9.339945 C 205.583351 18.589946 205.291684 27.350364 205.291684 35.267031 C 205.291684 59.574325 207.776059 76.397243 209.463559 78.017035 C 210.104184 79.933701 211.93231 80.709743 213.916685 80.709743 C 216.24481 80.709743 218.729185 79.636826 219.072935 78.308701 C 221.473977 70.027451 224.869811 41.636823 224.869811 21.14203 C 224.869811 16.688904 224.734394 12.584737 224.369811 9.204529 C 228.682311 8.772237 239.359395 6.787862 242.536479 5.459737 C 243.723979 4.892028 244.432312 3.683695 244.432312 2.490987 C 244.432312 1.35557 243.947937 0.303486 242.744812 -0.404847 Z M 242.744812 -0.404847 " stroke="#ff0099" stroke-width="2.650001" stroke-opacity="1" stroke-miterlimit="4"/></g></svg>