<svg xmlns="http://www.w3.org/2000/svg" xmlns:xlink="http://www.w3.org/1999/xlink" width="200" zoomAndPan="magnify" viewBox="0 0 150 74.999997" height="100" preserveAspectRatio="xMidYMid meet" version="1.0"><defs><g/></defs><g fill="#ffffff" fill-opacity="1"><g transform="translate(3.093753, 47.624995)"><g><path d="M 2.417969 -33.933594 C 1.484375 -31.625 0.605469 -19.414062 0.605469 -7.425781 C 0.605469 2.035156 1.15625 11.382812 2.640625 15.675781 C 2.859375 16.390625 3.683594 16.828125 4.566406 16.828125 C 5.335938 16.828125 6.105469 16.445312 6.542969 15.507812 C 7.257812 14.023438 7.753906 6.929688 7.863281 2.035156 L 7.863281 1.648438 C 7.863281 1.429688 7.917969 1.210938 8.359375 1.210938 C 10.285156 1.101562 12.375 0.933594 14.132812 0.933594 C 14.792969 0.933594 15.398438 0.933594 15.949219 0.988281 C 16.113281 0.933594 16.277344 0.933594 16.390625 0.933594 C 16.71875 0.933594 16.882812 1.046875 16.882812 1.320312 L 16.882812 1.429688 C 17.160156 7.257812 16.9375 11.109375 18.148438 16.882812 C 18.425781 18.3125 19.742188 19.140625 21.230469 19.140625 C 22.550781 19.140625 23.980469 18.425781 24.75 16.71875 C 26.179688 13.472656 28.652344 -10.230469 28.652344 -24.859375 C 28.652344 -29.644531 28.378906 -33.492188 27.71875 -35.308594 C 26.949219 -37.453125 24.914062 -38.386719 22.824219 -38.386719 C 20.625 -38.386719 18.371094 -37.289062 17.820312 -35.363281 C 17.050781 -32.777344 16.882812 -23.375 16.882812 -15.507812 C 16.882812 -9.238281 16.996094 -3.90625 16.996094 -3.90625 C 16.996094 -3.628906 16.996094 -3.410156 16.664062 -3.410156 L 16.554688 -3.410156 C 15.289062 -3.574219 14.023438 -3.628906 12.757812 -3.628906 C 11.441406 -3.628906 10.066406 -3.574219 8.691406 -3.410156 C 8.523438 -3.410156 8.414062 -3.355469 8.304688 -3.355469 C 7.863281 -3.355469 7.753906 -3.574219 7.753906 -4.125 C 7.976562 -8.195312 8.800781 -22.4375 8.800781 -29.972656 C 8.800781 -31.511719 8.800781 -32.777344 8.691406 -33.601562 C 8.359375 -35.089844 6.929688 -36.023438 5.445312 -36.023438 C 4.234375 -36.023438 3.023438 -35.417969 2.417969 -33.933594 Z M 2.417969 -33.933594 "/></g></g></g><g fill="#ffffff" fill-opacity="1"><g transform="translate(33.50655, 47.624995)"><g><path d="M 12.925781 12.375 L 13.144531 12.375 C 23.8125 12.375 29.039062 -0.769531 29.039062 -13.363281 C 29.039062 -24.859375 24.695312 -35.859375 16.058594 -36.078125 L 15.730469 -36.078125 C 5.445312 -36.078125 0.878906 -23.648438 0.878906 -11.382812 C 0.878906 0.496094 5.167969 12.265625 12.925781 12.375 Z M 12.871094 -28.542969 C 16.390625 -28.433594 17.984375 -21.449219 17.984375 -14.023438 C 17.984375 -5.390625 15.839844 3.90625 12.097656 3.90625 L 11.988281 3.90625 C 8.085938 3.738281 6.378906 -2.96875 6.378906 -10.230469 C 6.378906 -18.972656 8.855469 -28.542969 12.8125 -28.542969 Z M 12.871094 -28.542969 "/></g></g></g><g fill="#ffffff" fill-opacity="1"><g transform="translate(64.139326, 47.624995)"><g><path d="M 37.289062 -33.4375 C 35.582031 -27.003906 31.347656 -14.628906 28.984375 -4.34375 C 27.003906 -6.488281 19.027344 -35.035156 18.972656 -35.035156 C 17.984375 -38.882812 14.683594 -41.136719 11.328125 -41.136719 C 8.140625 -41.136719 4.949219 -39.101562 3.683594 -34.375 C 2.199219 -28.929688 1.59375 -20.570312 1.59375 -12.042969 C 1.59375 0.386719 2.914062 13.144531 4.894531 17.597656 C 5.71875 19.414062 7.699219 20.570312 9.570312 20.570312 C 11.441406 20.570312 13.253906 19.46875 14.023438 16.828125 C 15.015625 13.695312 16.5 -12.8125 16.5 -22.4375 C 17.542969 -19.910156 18.09375 -15.675781 23.757812 0 C 24.859375 2.253906 26.453125 3.246094 27.9375 3.246094 C 29.644531 3.246094 31.238281 1.925781 31.789062 -0.21875 C 32.613281 -3.300781 39.929688 -21.0625 40.644531 -24.253906 C 40.039062 -20.019531 39.542969 -10.835938 39.542969 -1.980469 C 39.542969 6.324219 39.984375 14.355469 41.082031 17.652344 C 41.578125 19.085938 43.558594 20.074219 45.484375 20.074219 C 47.132812 20.074219 48.726562 19.359375 49.167969 17.488281 C 50.101562 13.308594 53.953125 -13.96875 53.953125 -27.390625 C 53.953125 -29.535156 53.84375 -31.292969 53.621094 -32.613281 C 52.632812 -38.441406 49.113281 -41.46875 45.539062 -41.46875 C 42.183594 -41.46875 38.773438 -38.828125 37.289062 -33.4375 Z M 37.289062 -33.4375 "/></g></g></g><g fill="#ffffff" fill-opacity="1"><g transform="translate(119.135335, 47.624995)"><g><path d="M 3.191406 -28.765625 C 2.253906 -25.902344 1.539062 -18.3125 1.539062 -10.285156 C 1.539062 0.0546875 2.695312 11.21875 5.941406 14.078125 C 6.875 14.90625 8.414062 15.5625 10.835938 15.5625 L 11.382812 15.5625 C 15.675781 15.453125 22.109375 13.53125 22.109375 11.714844 L 22.109375 11.550781 C 22.054688 11.273438 21.777344 11.164062 21.449219 11.164062 C 20.074219 11.164062 17.050781 12.648438 14.738281 12.648438 C 13.363281 12.648438 12.210938 12.097656 11.878906 10.339844 C 11.714844 8.964844 11.328125 5.5 11.328125 2.859375 C 11.328125 1.429688 11.441406 0.273438 11.714844 -0.21875 C 12.539062 -1.320312 19.855469 -0.164062 19.855469 -2.640625 C 19.800781 -3.574219 18.753906 -3.792969 17.378906 -3.792969 C 16.058594 -3.792969 14.464844 -3.574219 13.253906 -3.574219 C 12.320312 -3.574219 11.660156 -3.683594 11.550781 -4.179688 C 11.328125 -5.058594 11.21875 -7.316406 11.21875 -10.121094 C 11.21875 -16.222656 11.660156 -24.859375 12.042969 -27.332031 C 12.042969 -28.160156 12.539062 -29.367188 13.253906 -29.535156 C 14.960938 -30.082031 17.378906 -30.304688 19.910156 -30.304688 C 21.339844 -30.304688 22.769531 -30.25 24.199219 -30.082031 C 25.078125 -30.082031 25.519531 -30.523438 25.519531 -31.128906 C 25.519531 -31.347656 25.464844 -31.570312 25.355469 -31.84375 C 24.417969 -33.492188 20.238281 -34.648438 15.785156 -34.648438 C 10.449219 -34.648438 4.621094 -33 3.191406 -28.765625 Z M 3.191406 -28.765625 "/></g></g></g><g fill="#ff80cc" fill-opacity="1"><g transform="translate(5.524431, 50.055673)"><g><path d="M 2.417969 -33.933594 C 1.484375 -31.625 0.605469 -19.414062 0.605469 -7.425781 C 0.605469 2.035156 1.15625 11.382812 2.640625 15.675781 C 2.859375 16.390625 3.683594 16.828125 4.566406 16.828125 C 5.335938 16.828125 6.105469 16.445312 6.542969 15.507812 C 7.257812 14.023438 7.753906 6.929688 7.863281 2.035156 L 7.863281 1.648438 C 7.863281 1.429688 7.917969 1.210938 8.359375 1.210938 C 10.285156 1.101562 12.375 0.933594 14.132812 0.933594 C 14.792969 0.933594 15.398438 0.933594 15.949219 0.988281 C 16.113281 0.933594 16.277344 0.933594 16.390625 0.933594 C 16.71875 0.933594 16.882812 1.046875 16.882812 1.320312 L 16.882812 1.429688 C 17.160156 7.257812 16.9375 11.109375 18.148438 16.882812 C 18.425781 18.3125 19.742188 19.140625 21.230469 19.140625 C 22.550781 19.140625 23.980469 18.425781 24.75 16.71875 C 26.179688 13.472656 28.652344 -10.230469 28.652344 -24.859375 C 28.652344 -29.644531 28.378906 -33.492188 27.71875 -35.308594 C 26.949219 -37.453125 24.914062 -38.386719 22.824219 -38.386719 C 20.625 -38.386719 18.371094 -37.289062 17.820312 -35.363281 C 17.050781 -32.777344 16.882812 -23.375 16.882812 -15.507812 C 16.882812 -9.238281 16.996094 -3.90625 16.996094 -3.90625 C 16.996094 -3.628906 16.996094 -3.410156 16.664062 -3.410156 L 16.554688 -3.410156 C 15.289062 -3.574219 14.023438 -3.628906 12.757812 -3.628906 C 11.441406 -3.628906 10.066406 -3.574219 8.691406 -3.410156 C 8.523438 -3.410156 8.414062 -3.355469 8.304688 -3.355469 C 7.863281 -3.355469 7.753906 -3.574219 7.753906 -4.125 C 7.976562 -8.195312 8.800781 -22.4375 8.800781 -29.972656 C 8.800781 -31.511719 8.800781 -32.777344 8.691406 -33.601562 C 8.359375 -35.089844 6.929688 -36.023438 5.445312 -36.023438 C 4.234375 -36.023438 3.023438 -35.417969 2.417969 -33.933594 Z M 2.417969 -33.933594 "/></g></g></g><g fill="#ff80cc" fill-opacity="1"><g transform="translate(35.937228, 50.055673)"><g><path d="M 12.925781 12.375 L 13.144531 12.375 C 23.8125 12.375 29.039062 -0.769531 29.039062 -13.363281 C 29.039062 -24.859375 24.695312 -35.859375 16.058594 -36.078125 L 15.730469 -36.078125 C 5.445312 -36.078125 0.878906 -23.648438 0.878906 -11.382812 C 0.878906 0.496094 5.167969 12.265625 12.925781 12.375 Z M 12.871094 -28.542969 C 16.390625 -28.433594 17.984375 -21.449219 17.984375 -14.023438 C 17.984375 -5.390625 15.839844 3.90625 12.097656 3.90625 L 11.988281 3.90625 C 8.085938 3.738281 6.378906 -2.96875 6.378906 -10.230469 C 6.378906 -18.972656 8.855469 -28.542969 12.8125 -28.542969 Z M 12.871094 -28.542969 "/></g></g></g><g fill="#ff80cc" fill-opacity="1"><g transform="translate(66.570004, 50.055673)"><g><path d="M 37.289062 -33.4375 C 35.582031 -27.003906 31.347656 -14.628906 28.984375 -4.34375 C 27.003906 -6.488281 19.027344 -35.035156 18.972656 -35.035156 C 17.984375 -38.882812 14.683594 -41.136719 11.328125 -41.136719 C 8.140625 -41.136719 4.949219 -39.101562 3.683594 -34.375 C 2.199219 -28.929688 1.59375 -20.570312 1.59375 -12.042969 C 1.59375 0.386719 2.914062 13.144531 4.894531 17.597656 C 5.71875 19.414062 7.699219 20.570312 9.570312 20.570312 C 11.441406 20.570312 13.253906 19.46875 14.023438 16.828125 C 15.015625 13.695312 16.5 -12.8125 16.5 -22.4375 C 17.542969 -19.910156 18.09375 -15.675781 23.757812 0 C 24.859375 2.253906 26.453125 3.246094 27.9375 3.246094 C 29.644531 3.246094 31.238281 1.925781 31.789062 -0.21875 C 32.613281 -3.300781 39.929688 -21.0625 40.644531 -24.253906 C 40.039062 -20.019531 39.542969 -10.835938 39.542969 -1.980469 C 39.542969 6.324219 39.984375 14.355469 41.082031 17.652344 C 41.578125 19.085938 43.558594 20.074219 45.484375 20.074219 C 47.132812 20.074219 48.726562 19.359375 49.167969 17.488281 C 50.101562 13.308594 53.953125 -13.96875 53.953125 -27.390625 C 53.953125 -29.535156 53.84375 -31.292969 53.621094 -32.613281 C 52.632812 -38.441406 49.113281 -41.46875 45.539062 -41.46875 C 42.183594 -41.46875 38.773438 -38.828125 37.289062 -33.4375 Z M 37.289062 -33.4375 "/></g></g></g><g fill="#ff80cc" fill-opacity="1"><g transform="translate(121.566013, 50.055673)"><g><path d="M 3.191406 -28.765625 C 2.253906 -25.902344 1.539062 -18.3125 1.539062 -10.285156 C 1.539062 0.0546875 2.695312 11.21875 5.941406 14.078125 C 6.875 14.90625 8.414062 15.5625 10.835938 15.5625 L 11.382812 15.5625 C 15.675781 15.453125 22.109375 13.53125 22.109375 11.714844 L 22.109375 11.550781 C 22.054688 11.273438 21.777344 11.164062 21.449219 11.164062 C 20.074219 11.164062 17.050781 12.648438 14.738281 12.648438 C 13.363281 12.648438 12.210938 12.097656 11.878906 10.339844 C 11.714844 8.964844 11.328125 5.5 11.328125 2.859375 C 11.328125 1.429688 11.441406 0.273438 11.714844 -0.21875 C 12.539062 -1.320312 19.855469 -0.164062 19.855469 -2.640625 C 19.800781 -3.574219 18.753906 -3.792969 17.378906 -3.792969 C 16.058594 -3.792969 14.464844 -3.574219 13.253906 -3.574219 C 12.320312 -3.574219 11.660156 -3.683594 11.550781 -4.179688 C 11.328125 -5.058594 11.21875 -7.316406 11.21875 -10.121094 C 11.21875 -16.222656 11.660156 -24.859375 12.042969 -27.332031 C 12.042969 -28.160156 12.539062 -29.367188 13.253906 -29.535156 C 14.960938 -30.082031 17.378906 -30.304688 19.910156 -30.304688 C 21.339844 -30.304688 22.769531 -30.25 24.199219 -30.082031 C 25.078125 -30.082031 25.519531 -30.523438 25.519531 -31.128906 C 25.519531 -31.347656 25.464844 -31.570312 25.355469 -31.84375 C 24.417969 -33.492188 20.238281 -34.648438 15.785156 -34.648438 C 10.449219 -34.648438 4.621094 -33 3.191406 -28.765625 Z M 3.191406 -28.765625 "/></g></g></g><path stroke-linecap="butt" transform="matrix(0.75, 0, 0, 0.75, 0.000003, 10.124998)" fill="none" stroke-linejoin="miter" d="M 7.348955 4.760419 C 6.11458 7.838545 4.932288 24.114588 4.932288 40.098964 C 4.932288 52.718757 5.666663 65.182299 7.651038 70.890633 C 7.937497 71.859383 9.031247 72.4323 10.213539 72.4323 C 11.234372 72.4323 12.27083 71.9323 12.843747 70.677092 C 13.812497 68.692716 14.473956 59.239591 14.614581 52.718757 L 14.614581 52.203132 C 14.614581 51.89584 14.687497 51.609382 15.276039 51.609382 C 17.838539 51.468757 20.630206 51.255215 22.979165 51.255215 C 23.854165 51.255215 24.661456 51.255215 25.395831 51.322923 C 25.609373 51.255215 25.822915 51.255215 25.984373 51.255215 C 26.411456 51.255215 26.630207 51.39584 26.630207 51.755215 L 26.630207 51.89584 C 27.005207 59.687507 26.718748 64.807299 28.328123 72.505217 C 28.687498 74.421884 30.442707 75.510425 32.427082 75.510425 C 34.18229 75.510425 36.098957 74.562509 37.119791 72.286467 C 39.036458 67.973966 42.328124 36.35938 42.328124 16.859379 C 42.328124 10.468753 41.973958 5.348961 41.078124 2.916669 C 40.057291 0.0677108 37.333332 -1.182289 34.55729 -1.182289 C 31.624999 -1.182289 28.614582 0.281252 27.880207 2.843753 C 26.859373 6.296878 26.630207 18.833337 26.630207 29.322921 C 26.630207 37.682297 26.791665 44.791673 26.791665 44.791673 C 26.791665 45.166673 26.791665 45.453131 26.343748 45.453131 L 26.197915 45.453131 C 24.515623 45.239589 22.817706 45.166673 21.130206 45.166673 C 19.380206 45.166673 17.552081 45.239589 15.708331 45.453131 C 15.494789 45.453131 15.348956 45.526048 15.187497 45.526048 C 14.614581 45.526048 14.473956 45.239589 14.473956 44.505214 C 14.760414 39.078131 15.848956 20.083337 15.848956 10.04167 C 15.848956 7.984378 15.848956 6.296878 15.708331 5.187503 C 15.276039 3.218753 13.36458 1.968753 11.39583 1.968753 C 9.765622 1.968753 8.151038 2.770836 7.348955 4.760419 Z M 61.916668 66.505216 L 62.203126 66.505216 C 76.437502 66.505216 83.401044 48.979173 83.401044 32.187505 C 83.401044 16.859379 77.598961 2.182294 66.088543 1.895836 L 65.640626 1.895836 C 51.942709 1.895836 45.859375 18.473962 45.859375 34.817714 C 45.859375 50.661465 51.567709 66.343758 61.916668 66.505216 Z M 61.828126 11.937503 C 66.53646 12.083337 68.645835 21.411463 68.645835 31.307297 C 68.645835 42.822923 65.802085 55.20834 60.807293 55.20834 L 60.661459 55.20834 C 55.453126 54.994799 53.177084 46.041673 53.177084 36.35938 C 53.177084 24.703129 56.473959 11.937503 61.755209 11.937503 Z M 135.234382 5.421878 C 132.963549 14.000004 127.322923 30.48438 124.171881 44.197923 C 121.520839 41.354172 110.885422 3.291669 110.817713 3.291669 C 109.489588 -1.848956 105.104171 -4.854165 100.630213 -4.854165 C 96.369796 -4.854165 92.125004 -2.135414 90.421878 4.166669 C 88.453128 11.437503 87.651045 22.572921 87.651045 33.942714 C 87.651045 50.52084 89.406253 67.52605 92.052087 73.468758 C 93.145837 75.885425 95.776045 77.427092 98.281254 77.427092 C 100.770838 77.427092 103.187504 75.958342 104.208338 72.4323 C 105.536463 68.260425 107.520838 32.92188 107.520838 20.083337 C 108.916672 23.447921 109.651047 29.10938 117.187506 50.000007 C 118.656256 53.005215 120.786464 54.33334 122.776048 54.33334 C 125.046881 54.33334 127.17709 52.562507 127.89584 49.713548 C 129.005215 45.593756 138.760424 21.911463 139.713549 17.666671 C 138.906257 23.307296 138.244799 35.552089 138.244799 47.369798 C 138.244799 58.432299 138.833341 69.140633 140.302091 73.541675 C 140.963549 75.437509 143.593758 76.765634 146.156258 76.765634 C 148.359383 76.765634 150.489592 75.817717 151.078133 73.328133 C 152.312508 67.739591 157.453134 31.380213 157.453134 13.47917 C 157.453134 10.614587 157.307301 8.270836 157.020842 6.515628 C 155.697925 -1.255206 151.005217 -5.286456 146.229175 -5.286456 C 141.770841 -5.286456 137.223966 -1.776039 135.234382 5.421878 Z M 163.109384 11.651045 C 161.854176 15.463545 160.906259 25.57813 160.906259 36.286464 C 160.906259 50.072923 162.447926 64.968758 166.760426 68.781258 C 168.015635 69.8698 170.072927 70.750008 173.296885 70.750008 L 174.03126 70.750008 C 179.739594 70.604175 188.333345 68.046883 188.333345 65.609383 L 188.333345 65.395841 C 188.244803 65.036466 187.885428 64.875008 187.437511 64.875008 C 185.609386 64.875008 181.583344 66.864591 178.505219 66.864591 C 176.661469 66.864591 175.119802 66.130216 174.692719 63.786466 C 174.458344 61.958341 173.958344 57.338549 173.958344 53.812507 C 173.958344 51.89584 174.098969 50.359382 174.458344 49.713548 C 175.567719 48.244798 185.322928 49.786465 185.322928 46.473965 C 185.255219 45.239589 183.859386 44.932298 182.015636 44.932298 C 180.260427 44.932298 178.130219 45.239589 176.515635 45.239589 C 175.28126 45.239589 174.385427 45.093756 174.244802 44.432298 C 173.958344 43.250006 173.81251 40.244797 173.81251 36.500005 C 173.81251 28.375005 174.385427 16.859379 174.90626 13.552087 C 174.90626 12.458337 175.567719 10.848962 176.515635 10.614587 C 178.791677 9.880212 182.015636 9.593753 185.395844 9.593753 C 187.296886 9.593753 189.208345 9.66667 191.109387 9.880212 C 192.291678 9.880212 192.88022 9.307295 192.88022 8.500003 C 192.88022 8.19792 192.791678 7.911461 192.645845 7.536461 C 191.41147 5.348961 185.828136 3.812503 179.901052 3.812503 C 172.776052 3.812503 165.005218 5.994795 163.109384 11.651045 Z M 163.109384 11.651045 " stroke="#ff0099" stroke-width="2.749999" stroke-opacity="1" stroke-miterlimit="4"/></svg>